G04 #@! TF.GenerationSoftware,KiCad,Pcbnew,(5.1.6-0-10_14)*
G04 #@! TF.CreationDate,2021-05-20T20:39:12+01:00*
G04 #@! TF.ProjectId,JuntekOnSteroidsTTGO,4a756e74-656b-44f6-9e53-7465726f6964,2.0*
G04 #@! TF.SameCoordinates,PX5b716c8PY5b716c8*
G04 #@! TF.FileFunction,Soldermask,Top*
G04 #@! TF.FilePolarity,Negative*
%FSLAX46Y46*%
G04 Gerber Fmt 4.6, Leading zero omitted, Abs format (unit mm)*
G04 Created by KiCad (PCBNEW (5.1.6-0-10_14)) date 2021-05-20 20:39:12*
%MOMM*%
%LPD*%
G01*
G04 APERTURE LIST*
%ADD10C,1.800000*%
%ADD11C,1.700000*%
%ADD12R,1.700000X1.700000*%
%ADD13O,1.500000X1.500000*%
%ADD14C,1.500000*%
%ADD15O,1.800000X1.800000*%
%ADD16R,1.800000X1.800000*%
%ADD17C,1.000000*%
G04 APERTURE END LIST*
D10*
G04 #@! TO.C,J8*
X38100000Y36195000D03*
X35560000Y36195000D03*
X33020000Y36195000D03*
X30480000Y36195000D03*
X27940000Y36195000D03*
X25400000Y36195000D03*
X22860000Y36195000D03*
X20320000Y36195000D03*
X17780000Y36195000D03*
X15240000Y36195000D03*
X12700000Y36195000D03*
X10160000Y36195000D03*
X38100000Y33655000D03*
X35560000Y33655000D03*
X33020000Y33655000D03*
X30480000Y33655000D03*
X27940000Y33655000D03*
X25400000Y33655000D03*
X22860000Y33655000D03*
X20320000Y33655000D03*
X17780000Y33655000D03*
X15240000Y33655000D03*
X12700000Y33655000D03*
G36*
G01*
X10795294Y32755000D02*
X9524706Y32755000D01*
G75*
G02*
X9260000Y33019706I0J264706D01*
G01*
X9260000Y34290294D01*
G75*
G02*
X9524706Y34555000I264706J0D01*
G01*
X10795294Y34555000D01*
G75*
G02*
X11060000Y34290294I0J-264706D01*
G01*
X11060000Y33019706D01*
G75*
G02*
X10795294Y32755000I-264706J0D01*
G01*
G37*
G04 #@! TD*
D11*
G04 #@! TO.C,C7*
X50490000Y22860000D03*
D12*
X46990000Y22860000D03*
G04 #@! TD*
G04 #@! TO.C,TP2*
G36*
G01*
X4230000Y24815625D02*
X4230000Y25984375D01*
G75*
G02*
X4495625Y26250000I265625J0D01*
G01*
X5664375Y26250000D01*
G75*
G02*
X5930000Y25984375I0J-265625D01*
G01*
X5930000Y24815625D01*
G75*
G02*
X5664375Y24550000I-265625J0D01*
G01*
X4495625Y24550000D01*
G75*
G02*
X4230000Y24815625I0J265625D01*
G01*
G37*
G04 #@! TD*
D13*
G04 #@! TO.C,R5*
X79823000Y10389000D03*
D14*
X72203000Y10389000D03*
G04 #@! TD*
D13*
G04 #@! TO.C,R6*
X79823000Y13539000D03*
D14*
X72203000Y13539000D03*
G04 #@! TD*
D13*
G04 #@! TO.C,R7*
X20320000Y22860000D03*
D14*
X20320000Y15240000D03*
G04 #@! TD*
D13*
G04 #@! TO.C,R9*
X79823000Y16689000D03*
D14*
X72203000Y16689000D03*
G04 #@! TD*
D13*
G04 #@! TO.C,R1*
X40005000Y22860000D03*
D14*
X40005000Y15240000D03*
G04 #@! TD*
D13*
G04 #@! TO.C,R2*
X35560000Y22860000D03*
D14*
X35560000Y15240000D03*
G04 #@! TD*
D13*
G04 #@! TO.C,R3*
X30480000Y22860000D03*
D14*
X30480000Y15240000D03*
G04 #@! TD*
D13*
G04 #@! TO.C,R4*
X25400000Y22860000D03*
D14*
X25400000Y15240000D03*
G04 #@! TD*
D15*
G04 #@! TO.C,J7*
X5080000Y7620000D03*
D16*
X5080000Y10160000D03*
G04 #@! TD*
D15*
G04 #@! TO.C,#J9*
X40640000Y10160000D03*
X38100000Y10160000D03*
X35560000Y10160000D03*
X33020000Y10160000D03*
X30480000Y10160000D03*
X27940000Y10160000D03*
X25400000Y10160000D03*
X22860000Y10160000D03*
X20320000Y10160000D03*
D16*
X17780000Y10160000D03*
G04 #@! TD*
G04 #@! TO.C,TP1*
G36*
G01*
X4230000Y27355625D02*
X4230000Y28524375D01*
G75*
G02*
X4495625Y28790000I265625J0D01*
G01*
X5664375Y28790000D01*
G75*
G02*
X5930000Y28524375I0J-265625D01*
G01*
X5930000Y27355625D01*
G75*
G02*
X5664375Y27090000I-265625J0D01*
G01*
X4495625Y27090000D01*
G75*
G02*
X4230000Y27355625I0J265625D01*
G01*
G37*
G04 #@! TD*
G04 #@! TO.C,J3*
X53340000Y5080000D03*
D15*
X50800000Y5080000D03*
X48260000Y5080000D03*
X45720000Y5080000D03*
G04 #@! TD*
G04 #@! TO.C,J6*
X5080000Y12700000D03*
X5080000Y15240000D03*
X5080000Y17780000D03*
D16*
X5080000Y20320000D03*
G04 #@! TD*
D17*
G04 #@! TO.C,FID3*
X55880000Y7620000D03*
G04 #@! TD*
G04 #@! TO.C,FID2*
X7620000Y30480000D03*
G04 #@! TD*
G04 #@! TO.C,FID1*
X7620000Y7620000D03*
G04 #@! TD*
D11*
G04 #@! TO.C,C8*
X45800000Y10160000D03*
X50800000Y10160000D03*
G04 #@! TD*
D15*
G04 #@! TO.C,J5*
X12700000Y5080000D03*
X15240000Y5080000D03*
X17780000Y5080000D03*
X20320000Y5080000D03*
X22860000Y5080000D03*
X25400000Y5080000D03*
X27940000Y5080000D03*
X30480000Y5080000D03*
X33020000Y5080000D03*
X35560000Y5080000D03*
X38100000Y5080000D03*
D16*
X40640000Y5080000D03*
G04 #@! TD*
D15*
G04 #@! TO.C,J4*
X12700000Y27940000D03*
X15240000Y27940000D03*
X17780000Y27940000D03*
X20320000Y27940000D03*
X22860000Y27940000D03*
X25400000Y27940000D03*
X27940000Y27940000D03*
X30480000Y27940000D03*
X33020000Y27940000D03*
X35560000Y27940000D03*
X38100000Y27940000D03*
D16*
X40640000Y27940000D03*
G04 #@! TD*
D15*
G04 #@! TO.C,J2*
X55880000Y10160000D03*
X55880000Y12700000D03*
X55880000Y15240000D03*
X55880000Y17780000D03*
X55880000Y20320000D03*
X55880000Y22860000D03*
X55880000Y25400000D03*
D16*
X55880000Y27940000D03*
G04 #@! TD*
D15*
G04 #@! TO.C,J1*
X7620000Y10160000D03*
X7620000Y12700000D03*
X7620000Y15240000D03*
X7620000Y17780000D03*
X7620000Y20320000D03*
X7620000Y22860000D03*
X7620000Y25400000D03*
D16*
X7620000Y27940000D03*
G04 #@! TD*
M02*
