G04 #@! TF.GenerationSoftware,KiCad,Pcbnew,(5.1.6-0-10_14)*
G04 #@! TF.CreationDate,2021-05-22T11:08:59+01:00*
G04 #@! TF.ProjectId,JuntekOnSteroidsTTGO,4a756e74-656b-44f6-9e53-7465726f6964,2.0*
G04 #@! TF.SameCoordinates,PX5b716c8PY5b716c8*
G04 #@! TF.FileFunction,Copper,L1,Top*
G04 #@! TF.FilePolarity,Positive*
%FSLAX46Y46*%
G04 Gerber Fmt 4.6, Leading zero omitted, Abs format (unit mm)*
G04 Created by KiCad (PCBNEW (5.1.6-0-10_14)) date 2021-05-22 11:08:59*
%MOMM*%
%LPD*%
G01*
G04 APERTURE LIST*
G04 #@! TA.AperFunction,ComponentPad*
%ADD10C,1.600000*%
G04 #@! TD*
G04 #@! TA.AperFunction,ComponentPad*
%ADD11O,1.700000X1.700000*%
G04 #@! TD*
G04 #@! TA.AperFunction,ComponentPad*
%ADD12R,1.700000X1.700000*%
G04 #@! TD*
G04 #@! TA.AperFunction,ComponentPad*
%ADD13R,1.600000X1.600000*%
G04 #@! TD*
G04 #@! TA.AperFunction,ComponentPad*
%ADD14O,1.400000X1.400000*%
G04 #@! TD*
G04 #@! TA.AperFunction,ComponentPad*
%ADD15C,1.400000*%
G04 #@! TD*
G04 #@! TA.AperFunction,SMDPad,CuDef*
%ADD16C,0.500000*%
G04 #@! TD*
G04 APERTURE END LIST*
D10*
G04 #@! TO.P,C8,2*
G04 #@! TO.N,/GND*
X48260000Y7580000D03*
G04 #@! TO.P,C8,1*
G04 #@! TO.N,VCC*
X48260000Y5080000D03*
G04 #@! TD*
G04 #@! TO.P,TP3,1*
G04 #@! TO.N,/ADC1*
G04 #@! TA.AperFunction,ComponentPad*
G36*
G01*
X6820000Y35010000D02*
X6820000Y36110000D01*
G75*
G02*
X7070000Y36360000I250000J0D01*
G01*
X8170000Y36360000D01*
G75*
G02*
X8420000Y36110000I0J-250000D01*
G01*
X8420000Y35010000D01*
G75*
G02*
X8170000Y34760000I-250000J0D01*
G01*
X7070000Y34760000D01*
G75*
G02*
X6820000Y35010000I0J250000D01*
G01*
G37*
G04 #@! TD.AperFunction*
G04 #@! TD*
D11*
G04 #@! TO.P,J8,24*
G04 #@! TO.N,Net-(J8-Pad24)*
X40640000Y34290000D03*
G04 #@! TO.P,J8,23*
G04 #@! TO.N,Net-(J8-Pad23)*
X40640000Y31750000D03*
G04 #@! TO.P,J8,22*
G04 #@! TO.N,Net-(J8-Pad22)*
X38100000Y34290000D03*
G04 #@! TO.P,J8,21*
G04 #@! TO.N,Net-(J8-Pad21)*
X38100000Y31750000D03*
G04 #@! TO.P,J8,20*
G04 #@! TO.N,Net-(J8-Pad20)*
X35560000Y34290000D03*
G04 #@! TO.P,J8,19*
G04 #@! TO.N,Net-(J8-Pad19)*
X35560000Y31750000D03*
G04 #@! TO.P,J8,18*
G04 #@! TO.N,Net-(J8-Pad18)*
X33020000Y34290000D03*
G04 #@! TO.P,J8,17*
G04 #@! TO.N,Net-(J8-Pad17)*
X33020000Y31750000D03*
G04 #@! TO.P,J8,16*
G04 #@! TO.N,Net-(J8-Pad16)*
X30480000Y34290000D03*
G04 #@! TO.P,J8,15*
G04 #@! TO.N,Net-(J8-Pad15)*
X30480000Y31750000D03*
G04 #@! TO.P,J8,14*
G04 #@! TO.N,Net-(J8-Pad14)*
X27940000Y34290000D03*
G04 #@! TO.P,J8,13*
G04 #@! TO.N,Net-(J8-Pad13)*
X27940000Y31750000D03*
G04 #@! TO.P,J8,12*
G04 #@! TO.N,Net-(J8-Pad12)*
X25400000Y34290000D03*
G04 #@! TO.P,J8,11*
G04 #@! TO.N,Net-(J8-Pad11)*
X25400000Y31750000D03*
G04 #@! TO.P,J8,10*
G04 #@! TO.N,Net-(J8-Pad10)*
X22860000Y34290000D03*
G04 #@! TO.P,J8,9*
G04 #@! TO.N,Net-(J8-Pad9)*
X22860000Y31750000D03*
G04 #@! TO.P,J8,8*
G04 #@! TO.N,Net-(J8-Pad8)*
X20320000Y34290000D03*
G04 #@! TO.P,J8,7*
G04 #@! TO.N,Net-(J8-Pad7)*
X20320000Y31750000D03*
G04 #@! TO.P,J8,6*
G04 #@! TO.N,Net-(J8-Pad6)*
X17780000Y34290000D03*
G04 #@! TO.P,J8,5*
G04 #@! TO.N,Net-(J8-Pad5)*
X17780000Y31750000D03*
G04 #@! TO.P,J8,4*
G04 #@! TO.N,Net-(J8-Pad4)*
X15240000Y34290000D03*
G04 #@! TO.P,J8,3*
G04 #@! TO.N,Net-(J8-Pad3)*
X15240000Y31750000D03*
G04 #@! TO.P,J8,2*
G04 #@! TO.N,Net-(J8-Pad2)*
X12700000Y34290000D03*
D12*
G04 #@! TO.P,J8,1*
G04 #@! TO.N,Net-(J8-Pad1)*
X12700000Y31750000D03*
G04 #@! TD*
D10*
G04 #@! TO.P,C4,2*
G04 #@! TO.N,Net-(C4-Pad2)*
X21590000Y16470000D03*
G04 #@! TO.P,C4,1*
G04 #@! TO.N,Net-(C4-Pad1)*
X21590000Y13970000D03*
G04 #@! TD*
G04 #@! TO.P,C3,2*
G04 #@! TO.N,Net-(C3-Pad2)*
X17780000Y16470000D03*
G04 #@! TO.P,C3,1*
G04 #@! TO.N,Net-(C3-Pad1)*
X17780000Y13970000D03*
G04 #@! TD*
G04 #@! TO.P,C2,2*
G04 #@! TO.N,Net-(C2-Pad2)*
X21590000Y22820000D03*
G04 #@! TO.P,C2,1*
G04 #@! TO.N,Net-(C2-Pad1)*
X21590000Y20320000D03*
G04 #@! TD*
G04 #@! TO.P,C1,2*
G04 #@! TO.N,Net-(C1-Pad2)*
X17780000Y22820000D03*
G04 #@! TO.P,C1,1*
G04 #@! TO.N,Net-(C1-Pad1)*
X17780000Y20320000D03*
G04 #@! TD*
G04 #@! TO.P,C7,2*
G04 #@! TO.N,/GND*
X50490000Y22860000D03*
D13*
G04 #@! TO.P,C7,1*
G04 #@! TO.N,VCC*
X46990000Y22860000D03*
G04 #@! TD*
G04 #@! TO.P,TP2,1*
G04 #@! TO.N,/ADC1*
G04 #@! TA.AperFunction,ComponentPad*
G36*
G01*
X6820000Y32470000D02*
X6820000Y33570000D01*
G75*
G02*
X7070000Y33820000I250000J0D01*
G01*
X8170000Y33820000D01*
G75*
G02*
X8420000Y33570000I0J-250000D01*
G01*
X8420000Y32470000D01*
G75*
G02*
X8170000Y32220000I-250000J0D01*
G01*
X7070000Y32220000D01*
G75*
G02*
X6820000Y32470000I0J250000D01*
G01*
G37*
G04 #@! TD.AperFunction*
G04 #@! TD*
D14*
G04 #@! TO.P,R5,2*
G04 #@! TO.N,Net-(R5-Pad2)*
X79823000Y10389000D03*
D15*
G04 #@! TO.P,R5,1*
G04 #@! TO.N,Net-(R5-Pad1)*
X72203000Y10389000D03*
G04 #@! TD*
D14*
G04 #@! TO.P,R6,2*
G04 #@! TO.N,Net-(R6-Pad2)*
X79823000Y13539000D03*
D15*
G04 #@! TO.P,R6,1*
G04 #@! TO.N,Net-(R6-Pad1)*
X72203000Y13539000D03*
G04 #@! TD*
D14*
G04 #@! TO.P,R7,2*
G04 #@! TO.N,Net-(R7-Pad2)*
X25400000Y22860000D03*
D15*
G04 #@! TO.P,R7,1*
G04 #@! TO.N,Net-(R7-Pad1)*
X25400000Y15240000D03*
G04 #@! TD*
D14*
G04 #@! TO.P,R9,2*
G04 #@! TO.N,Net-(R9-Pad2)*
X79823000Y16689000D03*
D15*
G04 #@! TO.P,R9,1*
G04 #@! TO.N,Net-(R9-Pad1)*
X72203000Y16689000D03*
G04 #@! TD*
D14*
G04 #@! TO.P,R1,2*
G04 #@! TO.N,Net-(R1-Pad2)*
X42545000Y22860000D03*
D15*
G04 #@! TO.P,R1,1*
G04 #@! TO.N,Net-(R1-Pad1)*
X42545000Y15240000D03*
G04 #@! TD*
D14*
G04 #@! TO.P,R2,2*
G04 #@! TO.N,Net-(R2-Pad2)*
X38735000Y22860000D03*
D15*
G04 #@! TO.P,R2,1*
G04 #@! TO.N,Net-(R2-Pad1)*
X38735000Y15240000D03*
G04 #@! TD*
D14*
G04 #@! TO.P,R3,2*
G04 #@! TO.N,Net-(R3-Pad2)*
X34290000Y22860000D03*
D15*
G04 #@! TO.P,R3,1*
G04 #@! TO.N,Net-(R3-Pad1)*
X34290000Y15240000D03*
G04 #@! TD*
D14*
G04 #@! TO.P,R4,2*
G04 #@! TO.N,Net-(R4-Pad2)*
X29845000Y22860000D03*
D15*
G04 #@! TO.P,R4,1*
G04 #@! TO.N,Net-(R4-Pad1)*
X29845000Y15240000D03*
G04 #@! TD*
D11*
G04 #@! TO.P,J7,2*
G04 #@! TO.N,VCC*
X52070000Y15240000D03*
D12*
G04 #@! TO.P,J7,1*
G04 #@! TO.N,/GND*
X52070000Y17780000D03*
G04 #@! TD*
D11*
G04 #@! TO.P,#J9,10*
G04 #@! TO.N,/A3*
X43180000Y10160000D03*
G04 #@! TO.P,#J9,9*
G04 #@! TO.N,/A2*
X40640000Y10160000D03*
G04 #@! TO.P,#J9,8*
G04 #@! TO.N,/A1*
X38100000Y10160000D03*
G04 #@! TO.P,#J9,7*
G04 #@! TO.N,/A0*
X35560000Y10160000D03*
G04 #@! TO.P,#J9,6*
G04 #@! TO.N,/ALRT*
X33020000Y10160000D03*
G04 #@! TO.P,#J9,5*
G04 #@! TO.N,/ADDR*
X30480000Y10160000D03*
G04 #@! TO.P,#J9,4*
G04 #@! TO.N,/SDA*
X27940000Y10160000D03*
G04 #@! TO.P,#J9,3*
G04 #@! TO.N,/SCL*
X25400000Y10160000D03*
G04 #@! TO.P,#J9,2*
G04 #@! TO.N,/GND*
X22860000Y10160000D03*
D12*
G04 #@! TO.P,#J9,1*
G04 #@! TO.N,VCC*
X20320000Y10160000D03*
G04 #@! TD*
G04 #@! TO.P,TP1,1*
G04 #@! TO.N,/ADC0*
G04 #@! TA.AperFunction,ComponentPad*
G36*
G01*
X6820000Y29930000D02*
X6820000Y31030000D01*
G75*
G02*
X7070000Y31280000I250000J0D01*
G01*
X8170000Y31280000D01*
G75*
G02*
X8420000Y31030000I0J-250000D01*
G01*
X8420000Y29930000D01*
G75*
G02*
X8170000Y29680000I-250000J0D01*
G01*
X7070000Y29680000D01*
G75*
G02*
X6820000Y29930000I0J250000D01*
G01*
G37*
G04 #@! TD.AperFunction*
G04 #@! TD*
G04 #@! TO.P,J3,1*
G04 #@! TO.N,VCC*
X52070000Y34290000D03*
D11*
G04 #@! TO.P,J3,2*
G04 #@! TO.N,/TX*
X49530000Y34290000D03*
G04 #@! TO.P,J3,3*
G04 #@! TO.N,/GND*
X46990000Y34290000D03*
G04 #@! TO.P,J3,4*
G04 #@! TO.N,/RX*
X44450000Y34290000D03*
G04 #@! TD*
G04 #@! TO.P,J6,4*
G04 #@! TO.N,/GND*
X52070000Y5080000D03*
G04 #@! TO.P,J6,3*
G04 #@! TO.N,+3V3*
X52070000Y7620000D03*
G04 #@! TO.P,J6,2*
G04 #@! TO.N,/SDA*
X52070000Y10160000D03*
D12*
G04 #@! TO.P,J6,1*
G04 #@! TO.N,/SCL*
X52070000Y12700000D03*
G04 #@! TD*
D16*
G04 #@! TO.P,FID3,*
G04 #@! TO.N,*
X55880000Y7620000D03*
G04 #@! TD*
G04 #@! TO.P,FID2,*
G04 #@! TO.N,*
X10160000Y30480000D03*
G04 #@! TD*
G04 #@! TO.P,FID1,*
G04 #@! TO.N,*
X10160000Y7620000D03*
G04 #@! TD*
D11*
G04 #@! TO.P,J5,12*
G04 #@! TO.N,/GND*
X12700000Y5080000D03*
G04 #@! TO.P,J5,11*
X15240000Y5080000D03*
G04 #@! TO.P,J5,10*
G04 #@! TO.N,/SDA*
X17780000Y5080000D03*
G04 #@! TO.P,J5,9*
G04 #@! TO.N,/SCL*
X20320000Y5080000D03*
G04 #@! TO.P,J5,8*
G04 #@! TO.N,/GPIO17*
X22860000Y5080000D03*
G04 #@! TO.P,J5,7*
G04 #@! TO.N,/GPIO2*
X25400000Y5080000D03*
G04 #@! TO.P,J5,6*
G04 #@! TO.N,/GPIO15*
X27940000Y5080000D03*
G04 #@! TO.P,J5,5*
G04 #@! TO.N,/GPIO13*
X30480000Y5080000D03*
G04 #@! TO.P,J5,4*
G04 #@! TO.N,/GPIO12*
X33020000Y5080000D03*
G04 #@! TO.P,J5,3*
G04 #@! TO.N,/GND*
X35560000Y5080000D03*
G04 #@! TO.P,J5,2*
X38100000Y5080000D03*
D12*
G04 #@! TO.P,J5,1*
G04 #@! TO.N,+3V3*
X40640000Y5080000D03*
G04 #@! TD*
D11*
G04 #@! TO.P,J4,12*
G04 #@! TO.N,+3V3*
X12700000Y27940000D03*
G04 #@! TO.P,J4,11*
G04 #@! TO.N,/ADC0*
X15240000Y27940000D03*
G04 #@! TO.P,J4,10*
G04 #@! TO.N,/ADC1*
X17780000Y27940000D03*
G04 #@! TO.P,J4,9*
G04 #@! TO.N,/ADC2*
X20320000Y27940000D03*
G04 #@! TO.P,J4,8*
G04 #@! TO.N,/ADC3*
X22860000Y27940000D03*
G04 #@! TO.P,J4,7*
G04 #@! TO.N,/GPIO32*
X25400000Y27940000D03*
G04 #@! TO.P,J4,6*
G04 #@! TO.N,/GPIO33*
X27940000Y27940000D03*
G04 #@! TO.P,J4,5*
G04 #@! TO.N,/GPIO25*
X30480000Y27940000D03*
G04 #@! TO.P,J4,4*
G04 #@! TO.N,/GPIO26*
X33020000Y27940000D03*
G04 #@! TO.P,J4,3*
G04 #@! TO.N,/GPIO27*
X35560000Y27940000D03*
G04 #@! TO.P,J4,2*
G04 #@! TO.N,/GND*
X38100000Y27940000D03*
D12*
G04 #@! TO.P,J4,1*
G04 #@! TO.N,VCC*
X40640000Y27940000D03*
G04 #@! TD*
D11*
G04 #@! TO.P,J2,8*
G04 #@! TO.N,/RX*
X55880000Y10160000D03*
G04 #@! TO.P,J2,7*
G04 #@! TO.N,/TX*
X55880000Y12700000D03*
G04 #@! TO.P,J2,6*
G04 #@! TO.N,VCC*
X55880000Y15240000D03*
G04 #@! TO.P,J2,5*
X55880000Y17780000D03*
G04 #@! TO.P,J2,4*
G04 #@! TO.N,GNDD*
X55880000Y20320000D03*
G04 #@! TO.P,J2,3*
X55880000Y22860000D03*
G04 #@! TO.P,J2,2*
G04 #@! TO.N,GNDA*
X55880000Y25400000D03*
D12*
G04 #@! TO.P,J2,1*
X55880000Y27940000D03*
G04 #@! TD*
D11*
G04 #@! TO.P,J1,8*
G04 #@! TO.N,Net-(J1-Pad8)*
X7620000Y10160000D03*
G04 #@! TO.P,J1,7*
G04 #@! TO.N,Net-(J1-Pad7)*
X7620000Y12700000D03*
G04 #@! TO.P,J1,6*
G04 #@! TO.N,Net-(J1-Pad6)*
X7620000Y15240000D03*
G04 #@! TO.P,J1,5*
G04 #@! TO.N,Net-(J1-Pad5)*
X7620000Y17780000D03*
G04 #@! TO.P,J1,4*
G04 #@! TO.N,Net-(J1-Pad4)*
X7620000Y20320000D03*
G04 #@! TO.P,J1,3*
G04 #@! TO.N,Net-(J1-Pad3)*
X7620000Y22860000D03*
G04 #@! TO.P,J1,2*
G04 #@! TO.N,Net-(J1-Pad2)*
X7620000Y25400000D03*
D12*
G04 #@! TO.P,J1,1*
G04 #@! TO.N,Net-(J1-Pad1)*
X7620000Y27940000D03*
G04 #@! TD*
M02*
