M48
INCH,TZ
T1C0.0236
T2C0.0276
T3C0.0315
T4C0.0394
%
G90
G05
T1
X3000Y13000
X3000Y14000
X3000Y12000
T2
X28426Y5330
X31426Y5330
X10000Y9000
X10000Y6000
X28426Y6570
X31426Y6570
X16750Y9000
X16750Y6000
X15250Y9000
X15250Y6000
X13500Y9000
X13500Y6000
X11750Y9000
X11750Y6000
X28426Y4090
X31426Y4090
T3
X8500Y6484
X8500Y5500
X7000Y6484
X7000Y5500
X19000Y2984
X19000Y2000
X8500Y8984
X8500Y8000
X7000Y8984
X7000Y8000
X18500Y9000
X19878Y9000
T4
X22000Y11000
X22000Y10000
X22000Y9000
X22000Y8000
X22000Y7000
X22000Y6000
X22000Y5000
X22000Y4000
X5000Y13500
X5000Y12500
X6000Y13500
X6000Y12500
X7000Y13500
X7000Y12500
X8000Y13500
X8000Y12500
X9000Y13500
X9000Y12500
X10000Y13500
X10000Y12500
X11000Y13500
X11000Y12500
X12000Y13500
X12000Y12500
X13000Y13500
X13000Y12500
X14000Y13500
X14000Y12500
X15000Y13500
X15000Y12500
X16000Y13500
X16000Y12500
X5000Y2000
X6000Y2000
X7000Y2000
X8000Y2000
X9000Y2000
X10000Y2000
X11000Y2000
X12000Y2000
X13000Y2000
X14000Y2000
X15000Y2000
X16000Y2000
X5000Y11000
X6000Y11000
X7000Y11000
X8000Y11000
X9000Y11000
X10000Y11000
X11000Y11000
X12000Y11000
X13000Y11000
X14000Y11000
X15000Y11000
X16000Y11000
X3000Y11000
X3000Y10000
X3000Y9000
X3000Y8000
X3000Y7000
X3000Y6000
X3000Y5000
X3000Y4000
X17500Y13500
X18500Y13500
X19500Y13500
X20500Y13500
X20500Y5000
X20500Y4000
X20500Y3000
X20500Y2000
X20500Y7000
X20500Y6000
X8000Y4000
X9000Y4000
X10000Y4000
X11000Y4000
X12000Y4000
X13000Y4000
X14000Y4000
X15000Y4000
X16000Y4000
X17000Y4000
T0
M30
