G04 #@! TF.GenerationSoftware,KiCad,Pcbnew,(5.1.6-0-10_14)*
G04 #@! TF.CreationDate,2021-08-21T17:12:07+01:00*
G04 #@! TF.ProjectId,JuntekOnSteroidsTTGO,4a756e74-656b-44f6-9e53-7465726f6964,2.4*
G04 #@! TF.SameCoordinates,PX5b716c8PY5b716c8*
G04 #@! TF.FileFunction,Soldermask,Bot*
G04 #@! TF.FilePolarity,Negative*
%FSLAX46Y46*%
G04 Gerber Fmt 4.6, Leading zero omitted, Abs format (unit mm)*
G04 Created by KiCad (PCBNEW (5.1.6-0-10_14)) date 2021-08-21 17:12:07*
%MOMM*%
%LPD*%
G01*
G04 APERTURE LIST*
%ADD10R,1.600000X1.100000*%
%ADD11C,0.100000*%
%ADD12O,1.800000X1.800000*%
%ADD13R,1.800000X1.800000*%
%ADD14C,1.700000*%
%ADD15O,1.500000X1.500000*%
%ADD16C,1.500000*%
%ADD17O,1.850000X1.300000*%
%ADD18R,1.700000X1.700000*%
G04 APERTURE END LIST*
D10*
G04 #@! TO.C,JP1*
X53340000Y22860000D03*
D11*
G36*
X54139398Y21553889D02*
G01*
X54139398Y21535466D01*
X54139157Y21530565D01*
X54134347Y21481734D01*
X54133627Y21476881D01*
X54124055Y21428756D01*
X54122863Y21423995D01*
X54108619Y21377040D01*
X54106966Y21372421D01*
X54088189Y21327088D01*
X54086091Y21322651D01*
X54062960Y21279378D01*
X54060438Y21275171D01*
X54033178Y21234372D01*
X54030254Y21230430D01*
X53999126Y21192501D01*
X53995831Y21188866D01*
X53961134Y21154169D01*
X53957499Y21150874D01*
X53919570Y21119746D01*
X53915628Y21116822D01*
X53874829Y21089562D01*
X53870622Y21087040D01*
X53827349Y21063909D01*
X53822912Y21061811D01*
X53777579Y21043034D01*
X53772960Y21041381D01*
X53726005Y21027137D01*
X53721244Y21025945D01*
X53673119Y21016373D01*
X53668266Y21015653D01*
X53619435Y21010843D01*
X53614534Y21010602D01*
X53596111Y21010602D01*
X53590000Y21010000D01*
X53090000Y21010000D01*
X53083889Y21010602D01*
X53065466Y21010602D01*
X53060565Y21010843D01*
X53011734Y21015653D01*
X53006881Y21016373D01*
X52958756Y21025945D01*
X52953995Y21027137D01*
X52907040Y21041381D01*
X52902421Y21043034D01*
X52857088Y21061811D01*
X52852651Y21063909D01*
X52809378Y21087040D01*
X52805171Y21089562D01*
X52764372Y21116822D01*
X52760430Y21119746D01*
X52722501Y21150874D01*
X52718866Y21154169D01*
X52684169Y21188866D01*
X52680874Y21192501D01*
X52649746Y21230430D01*
X52646822Y21234372D01*
X52619562Y21275171D01*
X52617040Y21279378D01*
X52593909Y21322651D01*
X52591811Y21327088D01*
X52573034Y21372421D01*
X52571381Y21377040D01*
X52557137Y21423995D01*
X52555945Y21428756D01*
X52546373Y21476881D01*
X52545653Y21481734D01*
X52540843Y21530565D01*
X52540602Y21535466D01*
X52540602Y21553889D01*
X52540000Y21560000D01*
X52540000Y22110000D01*
X52540961Y22119755D01*
X52543806Y22129134D01*
X52548427Y22137779D01*
X52554645Y22145355D01*
X52562221Y22151573D01*
X52570866Y22156194D01*
X52580245Y22159039D01*
X52590000Y22160000D01*
X54090000Y22160000D01*
X54099755Y22159039D01*
X54109134Y22156194D01*
X54117779Y22151573D01*
X54125355Y22145355D01*
X54131573Y22137779D01*
X54136194Y22129134D01*
X54139039Y22119755D01*
X54140000Y22110000D01*
X54140000Y21560000D01*
X54139398Y21553889D01*
G37*
G36*
X54139039Y23600245D02*
G01*
X54136194Y23590866D01*
X54131573Y23582221D01*
X54125355Y23574645D01*
X54117779Y23568427D01*
X54109134Y23563806D01*
X54099755Y23560961D01*
X54090000Y23560000D01*
X52590000Y23560000D01*
X52580245Y23560961D01*
X52570866Y23563806D01*
X52562221Y23568427D01*
X52554645Y23574645D01*
X52548427Y23582221D01*
X52543806Y23590866D01*
X52540961Y23600245D01*
X52540000Y23610000D01*
X52540000Y24160000D01*
X52540602Y24166111D01*
X52540602Y24184534D01*
X52540843Y24189435D01*
X52545653Y24238266D01*
X52546373Y24243119D01*
X52555945Y24291244D01*
X52557137Y24296005D01*
X52571381Y24342960D01*
X52573034Y24347579D01*
X52591811Y24392912D01*
X52593909Y24397349D01*
X52617040Y24440622D01*
X52619562Y24444829D01*
X52646822Y24485628D01*
X52649746Y24489570D01*
X52680874Y24527499D01*
X52684169Y24531134D01*
X52718866Y24565831D01*
X52722501Y24569126D01*
X52760430Y24600254D01*
X52764372Y24603178D01*
X52805171Y24630438D01*
X52809378Y24632960D01*
X52852651Y24656091D01*
X52857088Y24658189D01*
X52902421Y24676966D01*
X52907040Y24678619D01*
X52953995Y24692863D01*
X52958756Y24694055D01*
X53006881Y24703627D01*
X53011734Y24704347D01*
X53060565Y24709157D01*
X53065466Y24709398D01*
X53083889Y24709398D01*
X53090000Y24710000D01*
X53590000Y24710000D01*
X53596111Y24709398D01*
X53614534Y24709398D01*
X53619435Y24709157D01*
X53668266Y24704347D01*
X53673119Y24703627D01*
X53721244Y24694055D01*
X53726005Y24692863D01*
X53772960Y24678619D01*
X53777579Y24676966D01*
X53822912Y24658189D01*
X53827349Y24656091D01*
X53870622Y24632960D01*
X53874829Y24630438D01*
X53915628Y24603178D01*
X53919570Y24600254D01*
X53957499Y24569126D01*
X53961134Y24565831D01*
X53995831Y24531134D01*
X53999126Y24527499D01*
X54030254Y24489570D01*
X54033178Y24485628D01*
X54060438Y24444829D01*
X54062960Y24440622D01*
X54086091Y24397349D01*
X54088189Y24392912D01*
X54106966Y24347579D01*
X54108619Y24342960D01*
X54122863Y24296005D01*
X54124055Y24291244D01*
X54133627Y24243119D01*
X54134347Y24238266D01*
X54139157Y24189435D01*
X54139398Y24184534D01*
X54139398Y24166111D01*
X54140000Y24160000D01*
X54140000Y23610000D01*
X54139039Y23600245D01*
G37*
G04 #@! TD*
D12*
G04 #@! TO.C,J21*
X10795000Y25400000D03*
X13335000Y25400000D03*
X10795000Y22860000D03*
X13335000Y22860000D03*
X10795000Y20320000D03*
X13335000Y20320000D03*
X10795000Y17780000D03*
D13*
X13335000Y17780000D03*
G04 #@! TD*
D12*
G04 #@! TO.C,J61*
X10795000Y33020000D03*
D13*
X10795000Y30480000D03*
G04 #@! TD*
D12*
G04 #@! TO.C,J22*
X10795000Y14605000D03*
D13*
X10795000Y12065000D03*
G04 #@! TD*
D12*
G04 #@! TO.C,J12*
X5080000Y10795000D03*
X5080000Y13335000D03*
D13*
X5080000Y15875000D03*
G04 #@! TD*
D12*
G04 #@! TO.C,J11*
X5080000Y19050000D03*
X5080000Y21590000D03*
D13*
X5080000Y24130000D03*
G04 #@! TD*
D14*
G04 #@! TO.C,C6*
X46990000Y10755000D03*
X46990000Y8255000D03*
G04 #@! TD*
G04 #@! TO.C,C5*
X14605000Y34925000D03*
X17105000Y34925000D03*
G04 #@! TD*
D12*
G04 #@! TO.C,J30*
X55880000Y5080000D03*
X53340000Y5080000D03*
X50800000Y5080000D03*
X48260000Y5080000D03*
X45720000Y5080000D03*
X43180000Y5080000D03*
X40640000Y5080000D03*
X38100000Y5080000D03*
X35560000Y5080000D03*
X33020000Y5080000D03*
X30480000Y5080000D03*
X27940000Y5080000D03*
X25400000Y5080000D03*
X22860000Y5080000D03*
X20320000Y5080000D03*
X17780000Y5080000D03*
X15240000Y5080000D03*
X12700000Y5080000D03*
X10160000Y5080000D03*
X7620000Y5080000D03*
D13*
X5080000Y5080000D03*
G04 #@! TD*
D15*
G04 #@! TO.C,R20*
X26670000Y28575000D03*
D16*
X19050000Y28575000D03*
G04 #@! TD*
D15*
G04 #@! TO.C,R19*
X39370000Y20955000D03*
D16*
X31750000Y20955000D03*
G04 #@! TD*
D15*
G04 #@! TO.C,R18*
X26670000Y17145000D03*
D16*
X19050000Y17145000D03*
G04 #@! TD*
D15*
G04 #@! TO.C,R17*
X39370000Y17145000D03*
D16*
X31750000Y17145000D03*
G04 #@! TD*
D15*
G04 #@! TO.C,R16*
X19050000Y20955000D03*
D16*
X26670000Y20955000D03*
G04 #@! TD*
D15*
G04 #@! TO.C,R15*
X43180000Y28575000D03*
D16*
X43180000Y20955000D03*
G04 #@! TD*
D15*
G04 #@! TO.C,R12*
X31750000Y28575000D03*
D16*
X39370000Y28575000D03*
G04 #@! TD*
D15*
G04 #@! TO.C,R11*
X31750000Y24765000D03*
D16*
X39370000Y24765000D03*
G04 #@! TD*
D14*
G04 #@! TO.C,C3*
X39370000Y34925000D03*
X36870000Y34925000D03*
G04 #@! TD*
G04 #@! TO.C,C2*
X29250000Y34925000D03*
X31750000Y34925000D03*
G04 #@! TD*
G04 #@! TO.C,C1*
X24090000Y34925000D03*
X21590000Y34925000D03*
G04 #@! TD*
D12*
G04 #@! TO.C,#J9*
X40640000Y13335000D03*
X38100000Y13335000D03*
X35560000Y13335000D03*
X33020000Y13335000D03*
X30480000Y13335000D03*
X27940000Y13335000D03*
X25400000Y13335000D03*
X22860000Y13335000D03*
X20320000Y13335000D03*
D13*
X17780000Y13335000D03*
G04 #@! TD*
D15*
G04 #@! TO.C,R14*
X26670000Y24765000D03*
D16*
X19050000Y24765000D03*
G04 #@! TD*
D12*
G04 #@! TO.C,J6*
X5080000Y29210000D03*
X5080000Y31750000D03*
D13*
X5080000Y34290000D03*
G04 #@! TD*
D14*
G04 #@! TO.C,C8*
X44450000Y14010000D03*
X44450000Y16510000D03*
G04 #@! TD*
D17*
G04 #@! TO.C,J7*
X52070000Y9240000D03*
X52070000Y11240000D03*
X52070000Y13240000D03*
G36*
G01*
X51415832Y15890000D02*
X52724168Y15890000D01*
G75*
G02*
X52995000Y15619168I0J-270832D01*
G01*
X52995000Y14860832D01*
G75*
G02*
X52724168Y14590000I-270832J0D01*
G01*
X51415832Y14590000D01*
G75*
G02*
X51145000Y14860832I0J270832D01*
G01*
X51145000Y15619168D01*
G75*
G02*
X51415832Y15890000I270832J0D01*
G01*
G37*
G04 #@! TD*
D14*
G04 #@! TO.C,C4*
X44450000Y34925000D03*
X46950000Y34925000D03*
G04 #@! TD*
G04 #@! TO.C,C7*
X51125000Y19685000D03*
D18*
X47625000Y19685000D03*
G04 #@! TD*
D12*
G04 #@! TO.C,J5*
X15240000Y9525000D03*
X17780000Y9525000D03*
X20320000Y9525000D03*
X22860000Y9525000D03*
X25400000Y9525000D03*
X27940000Y9525000D03*
X30480000Y9525000D03*
X33020000Y9525000D03*
X35560000Y9525000D03*
X38100000Y9525000D03*
X40640000Y9525000D03*
D13*
X43180000Y9525000D03*
G04 #@! TD*
D12*
G04 #@! TO.C,J4*
X15240000Y32385000D03*
X17780000Y32385000D03*
X20320000Y32385000D03*
X22860000Y32385000D03*
X25400000Y32385000D03*
X27940000Y32385000D03*
X30480000Y32385000D03*
X33020000Y32385000D03*
X35560000Y32385000D03*
X38100000Y32385000D03*
X40640000Y32385000D03*
D13*
X43180000Y32385000D03*
G04 #@! TD*
D12*
G04 #@! TO.C,J2*
X55880000Y12700000D03*
X55880000Y15240000D03*
X55880000Y17780000D03*
X55880000Y20320000D03*
X55880000Y22860000D03*
X55880000Y25400000D03*
X55880000Y27940000D03*
D13*
X55880000Y30480000D03*
G04 #@! TD*
D12*
G04 #@! TO.C,J1*
X7620000Y12700000D03*
X7620000Y15240000D03*
X7620000Y17780000D03*
X7620000Y20320000D03*
X7620000Y22860000D03*
X7620000Y25400000D03*
X7620000Y27940000D03*
D13*
X7620000Y30480000D03*
G04 #@! TD*
M02*
