G04 #@! TF.GenerationSoftware,KiCad,Pcbnew,(5.1.6-0-10_14)*
G04 #@! TF.CreationDate,2021-08-19T15:45:43+01:00*
G04 #@! TF.ProjectId,JuntekOnSteroidsTTGO,4a756e74-656b-44f6-9e53-7465726f6964,2.3*
G04 #@! TF.SameCoordinates,PX5b716c8PY5b716c8*
G04 #@! TF.FileFunction,Legend,Bot*
G04 #@! TF.FilePolarity,Positive*
%FSLAX46Y46*%
G04 Gerber Fmt 4.6, Leading zero omitted, Abs format (unit mm)*
G04 Created by KiCad (PCBNEW (5.1.6-0-10_14)) date 2021-08-19 15:45:43*
%MOMM*%
%LPD*%
G01*
G04 APERTURE LIST*
%ADD10C,0.150000*%
%ADD11C,0.120000*%
G04 APERTURE END LIST*
D10*
X51796904Y24383810D02*
X51796904Y24840953D01*
X51796904Y24612381D02*
X50996904Y24612381D01*
X51111190Y24688572D01*
X51187380Y24764762D01*
X51225476Y24840953D01*
X51073095Y24079048D02*
X51035000Y24040953D01*
X50996904Y23964762D01*
X50996904Y23774286D01*
X51035000Y23698096D01*
X51073095Y23660000D01*
X51149285Y23621905D01*
X51225476Y23621905D01*
X51339761Y23660000D01*
X51796904Y24117143D01*
X51796904Y23621905D01*
X50996904Y22136191D02*
X50996904Y21640953D01*
X51301666Y21907620D01*
X51301666Y21793334D01*
X51339761Y21717143D01*
X51377857Y21679048D01*
X51454047Y21640953D01*
X51644523Y21640953D01*
X51720714Y21679048D01*
X51758809Y21717143D01*
X51796904Y21793334D01*
X51796904Y22021905D01*
X51758809Y22098096D01*
X51720714Y22136191D01*
X51263571Y20955239D02*
X51796904Y20955239D01*
X50958809Y21145715D02*
X51530238Y21336191D01*
X51530238Y20840953D01*
X38772142Y11703096D02*
X38772142Y12503096D01*
X38581666Y12503096D01*
X38467380Y12465000D01*
X38391190Y12388810D01*
X38353095Y12312620D01*
X38315000Y12160239D01*
X38315000Y12045953D01*
X38353095Y11893572D01*
X38391190Y11817381D01*
X38467380Y11741191D01*
X38581666Y11703096D01*
X38772142Y11703096D01*
X37972142Y11703096D02*
X37972142Y12236429D01*
X37972142Y12084048D02*
X37934047Y12160239D01*
X37895952Y12198334D01*
X37819761Y12236429D01*
X37743571Y12236429D01*
X37362619Y11703096D02*
X37438809Y11741191D01*
X37476904Y11779286D01*
X37515000Y11855477D01*
X37515000Y12084048D01*
X37476904Y12160239D01*
X37438809Y12198334D01*
X37362619Y12236429D01*
X37248333Y12236429D01*
X37172142Y12198334D01*
X37134047Y12160239D01*
X37095952Y12084048D01*
X37095952Y11855477D01*
X37134047Y11779286D01*
X37172142Y11741191D01*
X37248333Y11703096D01*
X37362619Y11703096D01*
X36753095Y11703096D02*
X36753095Y12503096D01*
X36676904Y12007858D02*
X36448333Y11703096D01*
X36448333Y12236429D02*
X36753095Y11931667D01*
X36105476Y12007858D02*
X35495952Y12007858D01*
X34886428Y12503096D02*
X34886428Y11931667D01*
X34924523Y11817381D01*
X35000714Y11741191D01*
X35115000Y11703096D01*
X35191190Y11703096D01*
X34162619Y12236429D02*
X34162619Y11703096D01*
X34505476Y12236429D02*
X34505476Y11817381D01*
X34467380Y11741191D01*
X34391190Y11703096D01*
X34276904Y11703096D01*
X34200714Y11741191D01*
X34162619Y11779286D01*
X33781666Y12236429D02*
X33781666Y11703096D01*
X33781666Y12160239D02*
X33743571Y12198334D01*
X33667380Y12236429D01*
X33553095Y12236429D01*
X33476904Y12198334D01*
X33438809Y12122143D01*
X33438809Y11703096D01*
X33172142Y12236429D02*
X32867380Y12236429D01*
X33057857Y12503096D02*
X33057857Y11817381D01*
X33019761Y11741191D01*
X32943571Y11703096D01*
X32867380Y11703096D01*
X32295952Y11741191D02*
X32372142Y11703096D01*
X32524523Y11703096D01*
X32600714Y11741191D01*
X32638809Y11817381D01*
X32638809Y12122143D01*
X32600714Y12198334D01*
X32524523Y12236429D01*
X32372142Y12236429D01*
X32295952Y12198334D01*
X32257857Y12122143D01*
X32257857Y12045953D01*
X32638809Y11969762D01*
X31915000Y11703096D02*
X31915000Y12503096D01*
X31838809Y12007858D02*
X31610238Y11703096D01*
X31610238Y12236429D02*
X31915000Y11931667D01*
X31267380Y12007858D02*
X30657857Y12007858D01*
X30162619Y11703096D02*
X30238809Y11741191D01*
X30276904Y11779286D01*
X30315000Y11855477D01*
X30315000Y12084048D01*
X30276904Y12160239D01*
X30238809Y12198334D01*
X30162619Y12236429D01*
X30048333Y12236429D01*
X29972142Y12198334D01*
X29934047Y12160239D01*
X29895952Y12084048D01*
X29895952Y11855477D01*
X29934047Y11779286D01*
X29972142Y11741191D01*
X30048333Y11703096D01*
X30162619Y11703096D01*
X29553095Y12236429D02*
X29553095Y11703096D01*
X29553095Y12160239D02*
X29515000Y12198334D01*
X29438809Y12236429D01*
X29324523Y12236429D01*
X29248333Y12198334D01*
X29210238Y12122143D01*
X29210238Y11703096D01*
X28829285Y12007858D02*
X28219761Y12007858D01*
X27876904Y11741191D02*
X27800714Y11703096D01*
X27648333Y11703096D01*
X27572142Y11741191D01*
X27534047Y11817381D01*
X27534047Y11855477D01*
X27572142Y11931667D01*
X27648333Y11969762D01*
X27762619Y11969762D01*
X27838809Y12007858D01*
X27876904Y12084048D01*
X27876904Y12122143D01*
X27838809Y12198334D01*
X27762619Y12236429D01*
X27648333Y12236429D01*
X27572142Y12198334D01*
X27305476Y12236429D02*
X27000714Y12236429D01*
X27191190Y12503096D02*
X27191190Y11817381D01*
X27153095Y11741191D01*
X27076904Y11703096D01*
X27000714Y11703096D01*
X26429285Y11741191D02*
X26505476Y11703096D01*
X26657857Y11703096D01*
X26734047Y11741191D01*
X26772142Y11817381D01*
X26772142Y12122143D01*
X26734047Y12198334D01*
X26657857Y12236429D01*
X26505476Y12236429D01*
X26429285Y12198334D01*
X26391190Y12122143D01*
X26391190Y12045953D01*
X26772142Y11969762D01*
X26048333Y11703096D02*
X26048333Y12236429D01*
X26048333Y12084048D02*
X26010238Y12160239D01*
X25972142Y12198334D01*
X25895952Y12236429D01*
X25819761Y12236429D01*
X25438809Y11703096D02*
X25515000Y11741191D01*
X25553095Y11779286D01*
X25591190Y11855477D01*
X25591190Y12084048D01*
X25553095Y12160239D01*
X25515000Y12198334D01*
X25438809Y12236429D01*
X25324523Y12236429D01*
X25248333Y12198334D01*
X25210238Y12160239D01*
X25172142Y12084048D01*
X25172142Y11855477D01*
X25210238Y11779286D01*
X25248333Y11741191D01*
X25324523Y11703096D01*
X25438809Y11703096D01*
X24829285Y11703096D02*
X24829285Y12236429D01*
X24829285Y12503096D02*
X24867380Y12465000D01*
X24829285Y12426905D01*
X24791190Y12465000D01*
X24829285Y12503096D01*
X24829285Y12426905D01*
X24105476Y11703096D02*
X24105476Y12503096D01*
X24105476Y11741191D02*
X24181666Y11703096D01*
X24334047Y11703096D01*
X24410238Y11741191D01*
X24448333Y11779286D01*
X24486428Y11855477D01*
X24486428Y12084048D01*
X24448333Y12160239D01*
X24410238Y12198334D01*
X24334047Y12236429D01*
X24181666Y12236429D01*
X24105476Y12198334D01*
X23762619Y11741191D02*
X23686428Y11703096D01*
X23534047Y11703096D01*
X23457857Y11741191D01*
X23419761Y11817381D01*
X23419761Y11855477D01*
X23457857Y11931667D01*
X23534047Y11969762D01*
X23648333Y11969762D01*
X23724523Y12007858D01*
X23762619Y12084048D01*
X23762619Y12122143D01*
X23724523Y12198334D01*
X23648333Y12236429D01*
X23534047Y12236429D01*
X23457857Y12198334D01*
D11*
G04 #@! TO.C,J30*
X3750000Y3640000D02*
X57210000Y3640000D01*
X57210000Y3640000D02*
X57210000Y980000D01*
X57210000Y980000D02*
X3750000Y980000D01*
X3750000Y980000D02*
X3750000Y3640000D01*
X4700000Y980000D02*
X4700000Y-5020000D01*
X4700000Y-5020000D02*
X5460000Y-5020000D01*
X5460000Y-5020000D02*
X5460000Y980000D01*
X4760000Y980000D02*
X4760000Y-5020000D01*
X4880000Y980000D02*
X4880000Y-5020000D01*
X5000000Y980000D02*
X5000000Y-5020000D01*
X5120000Y980000D02*
X5120000Y-5020000D01*
X5240000Y980000D02*
X5240000Y-5020000D01*
X5360000Y980000D02*
X5360000Y-5020000D01*
X4700000Y3970000D02*
X4700000Y3640000D01*
X5460000Y3970000D02*
X5460000Y3640000D01*
X6350000Y3640000D02*
X6350000Y980000D01*
X7240000Y980000D02*
X7240000Y-5020000D01*
X7240000Y-5020000D02*
X8000000Y-5020000D01*
X8000000Y-5020000D02*
X8000000Y980000D01*
X7240000Y4037071D02*
X7240000Y3640000D01*
X8000000Y4037071D02*
X8000000Y3640000D01*
X8890000Y3640000D02*
X8890000Y980000D01*
X9780000Y980000D02*
X9780000Y-5020000D01*
X9780000Y-5020000D02*
X10540000Y-5020000D01*
X10540000Y-5020000D02*
X10540000Y980000D01*
X9780000Y4037071D02*
X9780000Y3640000D01*
X10540000Y4037071D02*
X10540000Y3640000D01*
X11430000Y3640000D02*
X11430000Y980000D01*
X12320000Y980000D02*
X12320000Y-5020000D01*
X12320000Y-5020000D02*
X13080000Y-5020000D01*
X13080000Y-5020000D02*
X13080000Y980000D01*
X12320000Y4037071D02*
X12320000Y3640000D01*
X13080000Y4037071D02*
X13080000Y3640000D01*
X13970000Y3640000D02*
X13970000Y980000D01*
X14860000Y980000D02*
X14860000Y-5020000D01*
X14860000Y-5020000D02*
X15620000Y-5020000D01*
X15620000Y-5020000D02*
X15620000Y980000D01*
X14860000Y4037071D02*
X14860000Y3640000D01*
X15620000Y4037071D02*
X15620000Y3640000D01*
X16510000Y3640000D02*
X16510000Y980000D01*
X17400000Y980000D02*
X17400000Y-5020000D01*
X17400000Y-5020000D02*
X18160000Y-5020000D01*
X18160000Y-5020000D02*
X18160000Y980000D01*
X17400000Y4037071D02*
X17400000Y3640000D01*
X18160000Y4037071D02*
X18160000Y3640000D01*
X19050000Y3640000D02*
X19050000Y980000D01*
X19940000Y980000D02*
X19940000Y-5020000D01*
X19940000Y-5020000D02*
X20700000Y-5020000D01*
X20700000Y-5020000D02*
X20700000Y980000D01*
X19940000Y4037071D02*
X19940000Y3640000D01*
X20700000Y4037071D02*
X20700000Y3640000D01*
X21590000Y3640000D02*
X21590000Y980000D01*
X22480000Y980000D02*
X22480000Y-5020000D01*
X22480000Y-5020000D02*
X23240000Y-5020000D01*
X23240000Y-5020000D02*
X23240000Y980000D01*
X22480000Y4037071D02*
X22480000Y3640000D01*
X23240000Y4037071D02*
X23240000Y3640000D01*
X24130000Y3640000D02*
X24130000Y980000D01*
X25020000Y980000D02*
X25020000Y-5020000D01*
X25020000Y-5020000D02*
X25780000Y-5020000D01*
X25780000Y-5020000D02*
X25780000Y980000D01*
X25020000Y4037071D02*
X25020000Y3640000D01*
X25780000Y4037071D02*
X25780000Y3640000D01*
X26670000Y3640000D02*
X26670000Y980000D01*
X27560000Y980000D02*
X27560000Y-5020000D01*
X27560000Y-5020000D02*
X28320000Y-5020000D01*
X28320000Y-5020000D02*
X28320000Y980000D01*
X27560000Y4037071D02*
X27560000Y3640000D01*
X28320000Y4037071D02*
X28320000Y3640000D01*
X29210000Y3640000D02*
X29210000Y980000D01*
X30100000Y980000D02*
X30100000Y-5020000D01*
X30100000Y-5020000D02*
X30860000Y-5020000D01*
X30860000Y-5020000D02*
X30860000Y980000D01*
X30100000Y4037071D02*
X30100000Y3640000D01*
X30860000Y4037071D02*
X30860000Y3640000D01*
X31750000Y3640000D02*
X31750000Y980000D01*
X32640000Y980000D02*
X32640000Y-5020000D01*
X32640000Y-5020000D02*
X33400000Y-5020000D01*
X33400000Y-5020000D02*
X33400000Y980000D01*
X32640000Y4037071D02*
X32640000Y3640000D01*
X33400000Y4037071D02*
X33400000Y3640000D01*
X34290000Y3640000D02*
X34290000Y980000D01*
X35180000Y980000D02*
X35180000Y-5020000D01*
X35180000Y-5020000D02*
X35940000Y-5020000D01*
X35940000Y-5020000D02*
X35940000Y980000D01*
X35180000Y4037071D02*
X35180000Y3640000D01*
X35940000Y4037071D02*
X35940000Y3640000D01*
X36830000Y3640000D02*
X36830000Y980000D01*
X37720000Y980000D02*
X37720000Y-5020000D01*
X37720000Y-5020000D02*
X38480000Y-5020000D01*
X38480000Y-5020000D02*
X38480000Y980000D01*
X37720000Y4037071D02*
X37720000Y3640000D01*
X38480000Y4037071D02*
X38480000Y3640000D01*
X39370000Y3640000D02*
X39370000Y980000D01*
X40260000Y980000D02*
X40260000Y-5020000D01*
X40260000Y-5020000D02*
X41020000Y-5020000D01*
X41020000Y-5020000D02*
X41020000Y980000D01*
X40260000Y4037071D02*
X40260000Y3640000D01*
X41020000Y4037071D02*
X41020000Y3640000D01*
X41910000Y3640000D02*
X41910000Y980000D01*
X42800000Y980000D02*
X42800000Y-5020000D01*
X42800000Y-5020000D02*
X43560000Y-5020000D01*
X43560000Y-5020000D02*
X43560000Y980000D01*
X42800000Y4037071D02*
X42800000Y3640000D01*
X43560000Y4037071D02*
X43560000Y3640000D01*
X44450000Y3640000D02*
X44450000Y980000D01*
X45340000Y980000D02*
X45340000Y-5020000D01*
X45340000Y-5020000D02*
X46100000Y-5020000D01*
X46100000Y-5020000D02*
X46100000Y980000D01*
X45340000Y4037071D02*
X45340000Y3640000D01*
X46100000Y4037071D02*
X46100000Y3640000D01*
X46990000Y3640000D02*
X46990000Y980000D01*
X47880000Y980000D02*
X47880000Y-5020000D01*
X47880000Y-5020000D02*
X48640000Y-5020000D01*
X48640000Y-5020000D02*
X48640000Y980000D01*
X47880000Y4037071D02*
X47880000Y3640000D01*
X48640000Y4037071D02*
X48640000Y3640000D01*
X49530000Y3640000D02*
X49530000Y980000D01*
X50420000Y980000D02*
X50420000Y-5020000D01*
X50420000Y-5020000D02*
X51180000Y-5020000D01*
X51180000Y-5020000D02*
X51180000Y980000D01*
X50420000Y4037071D02*
X50420000Y3640000D01*
X51180000Y4037071D02*
X51180000Y3640000D01*
X52070000Y3640000D02*
X52070000Y980000D01*
X52960000Y980000D02*
X52960000Y-5020000D01*
X52960000Y-5020000D02*
X53720000Y-5020000D01*
X53720000Y-5020000D02*
X53720000Y980000D01*
X52960000Y4037071D02*
X52960000Y3640000D01*
X53720000Y4037071D02*
X53720000Y3640000D01*
X54610000Y3640000D02*
X54610000Y980000D01*
X55500000Y980000D02*
X55500000Y-5020000D01*
X55500000Y-5020000D02*
X56260000Y-5020000D01*
X56260000Y-5020000D02*
X56260000Y980000D01*
X55500000Y4037071D02*
X55500000Y3640000D01*
X56260000Y4037071D02*
X56260000Y3640000D01*
X5080000Y6350000D02*
X3810000Y6350000D01*
X3810000Y6350000D02*
X3810000Y5080000D01*
G04 #@! TO.C,J6*
X6180000Y36890000D02*
X6180000Y29150000D01*
X6180000Y29150000D02*
X3520000Y29150000D01*
X3520000Y29150000D02*
X3520000Y36890000D01*
X3520000Y36890000D02*
X6180000Y36890000D01*
X3520000Y35940000D02*
X-2480000Y35940000D01*
X-2480000Y35940000D02*
X-2480000Y35180000D01*
X-2480000Y35180000D02*
X3520000Y35180000D01*
X3520000Y35880000D02*
X-2480000Y35880000D01*
X3520000Y35760000D02*
X-2480000Y35760000D01*
X3520000Y35640000D02*
X-2480000Y35640000D01*
X3520000Y35520000D02*
X-2480000Y35520000D01*
X3520000Y35400000D02*
X-2480000Y35400000D01*
X3520000Y35280000D02*
X-2480000Y35280000D01*
X6510000Y35940000D02*
X6180000Y35940000D01*
X6510000Y35180000D02*
X6180000Y35180000D01*
X6180000Y34290000D02*
X3520000Y34290000D01*
X3520000Y33400000D02*
X-2480000Y33400000D01*
X-2480000Y33400000D02*
X-2480000Y32640000D01*
X-2480000Y32640000D02*
X3520000Y32640000D01*
X6577071Y33400000D02*
X6180000Y33400000D01*
X6577071Y32640000D02*
X6180000Y32640000D01*
X6180000Y31750000D02*
X3520000Y31750000D01*
X3520000Y30860000D02*
X-2480000Y30860000D01*
X-2480000Y30860000D02*
X-2480000Y30100000D01*
X-2480000Y30100000D02*
X3520000Y30100000D01*
X6577071Y30860000D02*
X6180000Y30860000D01*
X6577071Y30100000D02*
X6180000Y30100000D01*
X8890000Y35560000D02*
X8890000Y36830000D01*
X8890000Y36830000D02*
X7620000Y36830000D01*
G04 #@! TO.C,JP1*
X52340000Y24260000D02*
X52340000Y21460000D01*
X53040000Y20810000D02*
X53640000Y20810000D01*
X54340000Y21460000D02*
X54340000Y24260000D01*
X53640000Y24910000D02*
X53040000Y24910000D01*
X54540000Y24060000D02*
X54840000Y24360000D01*
X54840000Y24360000D02*
X54840000Y23760000D01*
X54540000Y24060000D02*
X54840000Y23760000D01*
X53040000Y24910000D02*
G75*
G03*
X52340000Y24210000I0J-700000D01*
G01*
X54340000Y24210000D02*
G75*
G03*
X53640000Y24910000I-700000J0D01*
G01*
X53640000Y20810000D02*
G75*
G03*
X54340000Y21510000I0J700000D01*
G01*
X52340000Y21510000D02*
G75*
G03*
X53040000Y20810000I700000J0D01*
G01*
G04 #@! TO.C,J2*
X57210000Y29270000D02*
X55880000Y29270000D01*
X57210000Y27940000D02*
X57210000Y29270000D01*
X57210000Y26670000D02*
X54550000Y26670000D01*
X54550000Y26670000D02*
X54550000Y8830000D01*
X57210000Y26670000D02*
X57210000Y8830000D01*
X57210000Y8830000D02*
X54550000Y8830000D01*
G04 #@! TO.C,J1*
X8950000Y29270000D02*
X7620000Y29270000D01*
X8950000Y27940000D02*
X8950000Y29270000D01*
X8950000Y26670000D02*
X6290000Y26670000D01*
X6290000Y26670000D02*
X6290000Y8830000D01*
X8950000Y26670000D02*
X8950000Y8830000D01*
X8950000Y8830000D02*
X6290000Y8830000D01*
G04 #@! TO.C,J30*
D10*
X5889523Y7532620D02*
X5889523Y6818334D01*
X5937142Y6675477D01*
X6032380Y6580239D01*
X6175238Y6532620D01*
X6270476Y6532620D01*
X5508571Y7532620D02*
X4889523Y7532620D01*
X5222857Y7151667D01*
X5080000Y7151667D01*
X4984761Y7104048D01*
X4937142Y7056429D01*
X4889523Y6961191D01*
X4889523Y6723096D01*
X4937142Y6627858D01*
X4984761Y6580239D01*
X5080000Y6532620D01*
X5365714Y6532620D01*
X5460952Y6580239D01*
X5508571Y6627858D01*
X4270476Y7532620D02*
X4175238Y7532620D01*
X4080000Y7485000D01*
X4032380Y7437381D01*
X3984761Y7342143D01*
X3937142Y7151667D01*
X3937142Y6913572D01*
X3984761Y6723096D01*
X4032380Y6627858D01*
X4080000Y6580239D01*
X4175238Y6532620D01*
X4270476Y6532620D01*
X4365714Y6580239D01*
X4413333Y6627858D01*
X4460952Y6723096D01*
X4508571Y6913572D01*
X4508571Y7151667D01*
X4460952Y7342143D01*
X4413333Y7437381D01*
X4365714Y7485000D01*
X4270476Y7532620D01*
G04 #@! TO.C,J6*
X10493333Y36107620D02*
X10493333Y35393334D01*
X10540952Y35250477D01*
X10636190Y35155239D01*
X10779047Y35107620D01*
X10874285Y35107620D01*
X9588571Y36107620D02*
X9779047Y36107620D01*
X9874285Y36060000D01*
X9921904Y36012381D01*
X10017142Y35869524D01*
X10064761Y35679048D01*
X10064761Y35298096D01*
X10017142Y35202858D01*
X9969523Y35155239D01*
X9874285Y35107620D01*
X9683809Y35107620D01*
X9588571Y35155239D01*
X9540952Y35202858D01*
X9493333Y35298096D01*
X9493333Y35536191D01*
X9540952Y35631429D01*
X9588571Y35679048D01*
X9683809Y35726667D01*
X9874285Y35726667D01*
X9969523Y35679048D01*
X10017142Y35631429D01*
X10064761Y35536191D01*
G04 #@! TO.C,JP1*
X54861666Y23443334D02*
X55361666Y23443334D01*
X55461666Y23476667D01*
X55528333Y23543334D01*
X55561666Y23643334D01*
X55561666Y23710000D01*
X55561666Y23110000D02*
X54861666Y23110000D01*
X54861666Y22843334D01*
X54895000Y22776667D01*
X54928333Y22743334D01*
X54995000Y22710000D01*
X55095000Y22710000D01*
X55161666Y22743334D01*
X55195000Y22776667D01*
X55228333Y22843334D01*
X55228333Y23110000D01*
X55561666Y22043334D02*
X55561666Y22443334D01*
X55561666Y22243334D02*
X54861666Y22243334D01*
X54961666Y22310000D01*
X55028333Y22376667D01*
X55061666Y22443334D01*
G04 #@! TO.C,J2*
X56213333Y8802620D02*
X56213333Y8088334D01*
X56260952Y7945477D01*
X56356190Y7850239D01*
X56499047Y7802620D01*
X56594285Y7802620D01*
X55784761Y8707381D02*
X55737142Y8755000D01*
X55641904Y8802620D01*
X55403809Y8802620D01*
X55308571Y8755000D01*
X55260952Y8707381D01*
X55213333Y8612143D01*
X55213333Y8516905D01*
X55260952Y8374048D01*
X55832380Y7802620D01*
X55213333Y7802620D01*
G04 #@! TO.C,J1*
X8588333Y8802620D02*
X8588333Y8088334D01*
X8635952Y7945477D01*
X8731190Y7850239D01*
X8874047Y7802620D01*
X8969285Y7802620D01*
X7588333Y7802620D02*
X8159761Y7802620D01*
X7874047Y7802620D02*
X7874047Y8802620D01*
X7969285Y8659762D01*
X8064523Y8564524D01*
X8159761Y8516905D01*
G04 #@! TD*
M02*
