G04 #@! TF.GenerationSoftware,KiCad,Pcbnew,(5.1.6-0-10_14)*
G04 #@! TF.CreationDate,2021-05-22T11:08:59+01:00*
G04 #@! TF.ProjectId,JuntekOnSteroidsTTGO,4a756e74-656b-44f6-9e53-7465726f6964,2.0*
G04 #@! TF.SameCoordinates,PX5b716c8PY5b716c8*
G04 #@! TF.FileFunction,Soldermask,Bot*
G04 #@! TF.FilePolarity,Negative*
%FSLAX46Y46*%
G04 Gerber Fmt 4.6, Leading zero omitted, Abs format (unit mm)*
G04 Created by KiCad (PCBNEW (5.1.6-0-10_14)) date 2021-05-22 11:08:59*
%MOMM*%
%LPD*%
G01*
G04 APERTURE LIST*
%ADD10C,1.700000*%
%ADD11O,1.800000X1.800000*%
%ADD12R,1.800000X1.800000*%
%ADD13R,1.100000X1.600000*%
%ADD14C,0.100000*%
%ADD15R,1.700000X1.700000*%
%ADD16O,1.500000X1.500000*%
%ADD17C,1.500000*%
%ADD18R,1.600000X1.100000*%
G04 APERTURE END LIST*
D10*
G04 #@! TO.C,C8*
X48260000Y7580000D03*
X48260000Y5080000D03*
G04 #@! TD*
G04 #@! TO.C,TP3*
G36*
G01*
X6770000Y34975625D02*
X6770000Y36144375D01*
G75*
G02*
X7035625Y36410000I265625J0D01*
G01*
X8204375Y36410000D01*
G75*
G02*
X8470000Y36144375I0J-265625D01*
G01*
X8470000Y34975625D01*
G75*
G02*
X8204375Y34710000I-265625J0D01*
G01*
X7035625Y34710000D01*
G75*
G02*
X6770000Y34975625I0J265625D01*
G01*
G37*
G04 #@! TD*
D11*
G04 #@! TO.C,J8*
X40640000Y34290000D03*
X40640000Y31750000D03*
X38100000Y34290000D03*
X38100000Y31750000D03*
X35560000Y34290000D03*
X35560000Y31750000D03*
X33020000Y34290000D03*
X33020000Y31750000D03*
X30480000Y34290000D03*
X30480000Y31750000D03*
X27940000Y34290000D03*
X27940000Y31750000D03*
X25400000Y34290000D03*
X25400000Y31750000D03*
X22860000Y34290000D03*
X22860000Y31750000D03*
X20320000Y34290000D03*
X20320000Y31750000D03*
X17780000Y34290000D03*
X17780000Y31750000D03*
X15240000Y34290000D03*
X15240000Y31750000D03*
X12700000Y34290000D03*
D12*
X12700000Y31750000D03*
G04 #@! TD*
D10*
G04 #@! TO.C,C4*
X21590000Y16470000D03*
X21590000Y13970000D03*
G04 #@! TD*
G04 #@! TO.C,C3*
X17780000Y16470000D03*
X17780000Y13970000D03*
G04 #@! TD*
G04 #@! TO.C,C2*
X21590000Y22820000D03*
X21590000Y20320000D03*
G04 #@! TD*
G04 #@! TO.C,C1*
X17780000Y22820000D03*
X17780000Y20320000D03*
G04 #@! TD*
D13*
G04 #@! TO.C,JP6*
X48260000Y30480000D03*
D14*
G36*
X49566111Y31279398D02*
G01*
X49584534Y31279398D01*
X49589435Y31279157D01*
X49638266Y31274347D01*
X49643119Y31273627D01*
X49691244Y31264055D01*
X49696005Y31262863D01*
X49742960Y31248619D01*
X49747579Y31246966D01*
X49792912Y31228189D01*
X49797349Y31226091D01*
X49840622Y31202960D01*
X49844829Y31200438D01*
X49885628Y31173178D01*
X49889570Y31170254D01*
X49927499Y31139126D01*
X49931134Y31135831D01*
X49965831Y31101134D01*
X49969126Y31097499D01*
X50000254Y31059570D01*
X50003178Y31055628D01*
X50030438Y31014829D01*
X50032960Y31010622D01*
X50056091Y30967349D01*
X50058189Y30962912D01*
X50076966Y30917579D01*
X50078619Y30912960D01*
X50092863Y30866005D01*
X50094055Y30861244D01*
X50103627Y30813119D01*
X50104347Y30808266D01*
X50109157Y30759435D01*
X50109398Y30754534D01*
X50109398Y30736111D01*
X50110000Y30730000D01*
X50110000Y30230000D01*
X50109398Y30223889D01*
X50109398Y30205466D01*
X50109157Y30200565D01*
X50104347Y30151734D01*
X50103627Y30146881D01*
X50094055Y30098756D01*
X50092863Y30093995D01*
X50078619Y30047040D01*
X50076966Y30042421D01*
X50058189Y29997088D01*
X50056091Y29992651D01*
X50032960Y29949378D01*
X50030438Y29945171D01*
X50003178Y29904372D01*
X50000254Y29900430D01*
X49969126Y29862501D01*
X49965831Y29858866D01*
X49931134Y29824169D01*
X49927499Y29820874D01*
X49889570Y29789746D01*
X49885628Y29786822D01*
X49844829Y29759562D01*
X49840622Y29757040D01*
X49797349Y29733909D01*
X49792912Y29731811D01*
X49747579Y29713034D01*
X49742960Y29711381D01*
X49696005Y29697137D01*
X49691244Y29695945D01*
X49643119Y29686373D01*
X49638266Y29685653D01*
X49589435Y29680843D01*
X49584534Y29680602D01*
X49566111Y29680602D01*
X49560000Y29680000D01*
X49010000Y29680000D01*
X49000245Y29680961D01*
X48990866Y29683806D01*
X48982221Y29688427D01*
X48974645Y29694645D01*
X48968427Y29702221D01*
X48963806Y29710866D01*
X48960961Y29720245D01*
X48960000Y29730000D01*
X48960000Y31230000D01*
X48960961Y31239755D01*
X48963806Y31249134D01*
X48968427Y31257779D01*
X48974645Y31265355D01*
X48982221Y31271573D01*
X48990866Y31276194D01*
X49000245Y31279039D01*
X49010000Y31280000D01*
X49560000Y31280000D01*
X49566111Y31279398D01*
G37*
G36*
X47519755Y31279039D02*
G01*
X47529134Y31276194D01*
X47537779Y31271573D01*
X47545355Y31265355D01*
X47551573Y31257779D01*
X47556194Y31249134D01*
X47559039Y31239755D01*
X47560000Y31230000D01*
X47560000Y29730000D01*
X47559039Y29720245D01*
X47556194Y29710866D01*
X47551573Y29702221D01*
X47545355Y29694645D01*
X47537779Y29688427D01*
X47529134Y29683806D01*
X47519755Y29680961D01*
X47510000Y29680000D01*
X46960000Y29680000D01*
X46953889Y29680602D01*
X46935466Y29680602D01*
X46930565Y29680843D01*
X46881734Y29685653D01*
X46876881Y29686373D01*
X46828756Y29695945D01*
X46823995Y29697137D01*
X46777040Y29711381D01*
X46772421Y29713034D01*
X46727088Y29731811D01*
X46722651Y29733909D01*
X46679378Y29757040D01*
X46675171Y29759562D01*
X46634372Y29786822D01*
X46630430Y29789746D01*
X46592501Y29820874D01*
X46588866Y29824169D01*
X46554169Y29858866D01*
X46550874Y29862501D01*
X46519746Y29900430D01*
X46516822Y29904372D01*
X46489562Y29945171D01*
X46487040Y29949378D01*
X46463909Y29992651D01*
X46461811Y29997088D01*
X46443034Y30042421D01*
X46441381Y30047040D01*
X46427137Y30093995D01*
X46425945Y30098756D01*
X46416373Y30146881D01*
X46415653Y30151734D01*
X46410843Y30200565D01*
X46410602Y30205466D01*
X46410602Y30223889D01*
X46410000Y30230000D01*
X46410000Y30730000D01*
X46410602Y30736111D01*
X46410602Y30754534D01*
X46410843Y30759435D01*
X46415653Y30808266D01*
X46416373Y30813119D01*
X46425945Y30861244D01*
X46427137Y30866005D01*
X46441381Y30912960D01*
X46443034Y30917579D01*
X46461811Y30962912D01*
X46463909Y30967349D01*
X46487040Y31010622D01*
X46489562Y31014829D01*
X46516822Y31055628D01*
X46519746Y31059570D01*
X46550874Y31097499D01*
X46554169Y31101134D01*
X46588866Y31135831D01*
X46592501Y31139126D01*
X46630430Y31170254D01*
X46634372Y31173178D01*
X46675171Y31200438D01*
X46679378Y31202960D01*
X46722651Y31226091D01*
X46727088Y31228189D01*
X46772421Y31246966D01*
X46777040Y31248619D01*
X46823995Y31262863D01*
X46828756Y31264055D01*
X46876881Y31273627D01*
X46881734Y31274347D01*
X46930565Y31279157D01*
X46935466Y31279398D01*
X46953889Y31279398D01*
X46960000Y31280000D01*
X47510000Y31280000D01*
X47519755Y31279039D01*
G37*
G04 #@! TD*
D10*
G04 #@! TO.C,C7*
X50490000Y22860000D03*
D15*
X46990000Y22860000D03*
G04 #@! TD*
G04 #@! TO.C,TP2*
G36*
G01*
X6770000Y32435625D02*
X6770000Y33604375D01*
G75*
G02*
X7035625Y33870000I265625J0D01*
G01*
X8204375Y33870000D01*
G75*
G02*
X8470000Y33604375I0J-265625D01*
G01*
X8470000Y32435625D01*
G75*
G02*
X8204375Y32170000I-265625J0D01*
G01*
X7035625Y32170000D01*
G75*
G02*
X6770000Y32435625I0J265625D01*
G01*
G37*
G04 #@! TD*
D16*
G04 #@! TO.C,R5*
X79823000Y10389000D03*
D17*
X72203000Y10389000D03*
G04 #@! TD*
D16*
G04 #@! TO.C,R6*
X79823000Y13539000D03*
D17*
X72203000Y13539000D03*
G04 #@! TD*
D16*
G04 #@! TO.C,R7*
X25400000Y22860000D03*
D17*
X25400000Y15240000D03*
G04 #@! TD*
D16*
G04 #@! TO.C,R9*
X79823000Y16689000D03*
D17*
X72203000Y16689000D03*
G04 #@! TD*
D16*
G04 #@! TO.C,R1*
X42545000Y22860000D03*
D17*
X42545000Y15240000D03*
G04 #@! TD*
D16*
G04 #@! TO.C,R2*
X38735000Y22860000D03*
D17*
X38735000Y15240000D03*
G04 #@! TD*
D16*
G04 #@! TO.C,R3*
X34290000Y22860000D03*
D17*
X34290000Y15240000D03*
G04 #@! TD*
D16*
G04 #@! TO.C,R4*
X29845000Y22860000D03*
D17*
X29845000Y15240000D03*
G04 #@! TD*
D13*
G04 #@! TO.C,JP2*
X13335000Y23495000D03*
D14*
G36*
X12028889Y22695602D02*
G01*
X12010466Y22695602D01*
X12005565Y22695843D01*
X11956734Y22700653D01*
X11951881Y22701373D01*
X11903756Y22710945D01*
X11898995Y22712137D01*
X11852040Y22726381D01*
X11847421Y22728034D01*
X11802088Y22746811D01*
X11797651Y22748909D01*
X11754378Y22772040D01*
X11750171Y22774562D01*
X11709372Y22801822D01*
X11705430Y22804746D01*
X11667501Y22835874D01*
X11663866Y22839169D01*
X11629169Y22873866D01*
X11625874Y22877501D01*
X11594746Y22915430D01*
X11591822Y22919372D01*
X11564562Y22960171D01*
X11562040Y22964378D01*
X11538909Y23007651D01*
X11536811Y23012088D01*
X11518034Y23057421D01*
X11516381Y23062040D01*
X11502137Y23108995D01*
X11500945Y23113756D01*
X11491373Y23161881D01*
X11490653Y23166734D01*
X11485843Y23215565D01*
X11485602Y23220466D01*
X11485602Y23238889D01*
X11485000Y23245000D01*
X11485000Y23745000D01*
X11485602Y23751111D01*
X11485602Y23769534D01*
X11485843Y23774435D01*
X11490653Y23823266D01*
X11491373Y23828119D01*
X11500945Y23876244D01*
X11502137Y23881005D01*
X11516381Y23927960D01*
X11518034Y23932579D01*
X11536811Y23977912D01*
X11538909Y23982349D01*
X11562040Y24025622D01*
X11564562Y24029829D01*
X11591822Y24070628D01*
X11594746Y24074570D01*
X11625874Y24112499D01*
X11629169Y24116134D01*
X11663866Y24150831D01*
X11667501Y24154126D01*
X11705430Y24185254D01*
X11709372Y24188178D01*
X11750171Y24215438D01*
X11754378Y24217960D01*
X11797651Y24241091D01*
X11802088Y24243189D01*
X11847421Y24261966D01*
X11852040Y24263619D01*
X11898995Y24277863D01*
X11903756Y24279055D01*
X11951881Y24288627D01*
X11956734Y24289347D01*
X12005565Y24294157D01*
X12010466Y24294398D01*
X12028889Y24294398D01*
X12035000Y24295000D01*
X12585000Y24295000D01*
X12594755Y24294039D01*
X12604134Y24291194D01*
X12612779Y24286573D01*
X12620355Y24280355D01*
X12626573Y24272779D01*
X12631194Y24264134D01*
X12634039Y24254755D01*
X12635000Y24245000D01*
X12635000Y22745000D01*
X12634039Y22735245D01*
X12631194Y22725866D01*
X12626573Y22717221D01*
X12620355Y22709645D01*
X12612779Y22703427D01*
X12604134Y22698806D01*
X12594755Y22695961D01*
X12585000Y22695000D01*
X12035000Y22695000D01*
X12028889Y22695602D01*
G37*
G36*
X14075245Y22695961D02*
G01*
X14065866Y22698806D01*
X14057221Y22703427D01*
X14049645Y22709645D01*
X14043427Y22717221D01*
X14038806Y22725866D01*
X14035961Y22735245D01*
X14035000Y22745000D01*
X14035000Y24245000D01*
X14035961Y24254755D01*
X14038806Y24264134D01*
X14043427Y24272779D01*
X14049645Y24280355D01*
X14057221Y24286573D01*
X14065866Y24291194D01*
X14075245Y24294039D01*
X14085000Y24295000D01*
X14635000Y24295000D01*
X14641111Y24294398D01*
X14659534Y24294398D01*
X14664435Y24294157D01*
X14713266Y24289347D01*
X14718119Y24288627D01*
X14766244Y24279055D01*
X14771005Y24277863D01*
X14817960Y24263619D01*
X14822579Y24261966D01*
X14867912Y24243189D01*
X14872349Y24241091D01*
X14915622Y24217960D01*
X14919829Y24215438D01*
X14960628Y24188178D01*
X14964570Y24185254D01*
X15002499Y24154126D01*
X15006134Y24150831D01*
X15040831Y24116134D01*
X15044126Y24112499D01*
X15075254Y24074570D01*
X15078178Y24070628D01*
X15105438Y24029829D01*
X15107960Y24025622D01*
X15131091Y23982349D01*
X15133189Y23977912D01*
X15151966Y23932579D01*
X15153619Y23927960D01*
X15167863Y23881005D01*
X15169055Y23876244D01*
X15178627Y23828119D01*
X15179347Y23823266D01*
X15184157Y23774435D01*
X15184398Y23769534D01*
X15184398Y23751111D01*
X15185000Y23745000D01*
X15185000Y23245000D01*
X15184398Y23238889D01*
X15184398Y23220466D01*
X15184157Y23215565D01*
X15179347Y23166734D01*
X15178627Y23161881D01*
X15169055Y23113756D01*
X15167863Y23108995D01*
X15153619Y23062040D01*
X15151966Y23057421D01*
X15133189Y23012088D01*
X15131091Y23007651D01*
X15107960Y22964378D01*
X15105438Y22960171D01*
X15078178Y22919372D01*
X15075254Y22915430D01*
X15044126Y22877501D01*
X15040831Y22873866D01*
X15006134Y22839169D01*
X15002499Y22835874D01*
X14964570Y22804746D01*
X14960628Y22801822D01*
X14919829Y22774562D01*
X14915622Y22772040D01*
X14872349Y22748909D01*
X14867912Y22746811D01*
X14822579Y22728034D01*
X14817960Y22726381D01*
X14771005Y22712137D01*
X14766244Y22710945D01*
X14718119Y22701373D01*
X14713266Y22700653D01*
X14664435Y22695843D01*
X14659534Y22695602D01*
X14641111Y22695602D01*
X14635000Y22695000D01*
X14085000Y22695000D01*
X14075245Y22695961D01*
G37*
G04 #@! TD*
D13*
G04 #@! TO.C,JP5*
X13365000Y10160000D03*
D14*
G36*
X12058889Y9360602D02*
G01*
X12040466Y9360602D01*
X12035565Y9360843D01*
X11986734Y9365653D01*
X11981881Y9366373D01*
X11933756Y9375945D01*
X11928995Y9377137D01*
X11882040Y9391381D01*
X11877421Y9393034D01*
X11832088Y9411811D01*
X11827651Y9413909D01*
X11784378Y9437040D01*
X11780171Y9439562D01*
X11739372Y9466822D01*
X11735430Y9469746D01*
X11697501Y9500874D01*
X11693866Y9504169D01*
X11659169Y9538866D01*
X11655874Y9542501D01*
X11624746Y9580430D01*
X11621822Y9584372D01*
X11594562Y9625171D01*
X11592040Y9629378D01*
X11568909Y9672651D01*
X11566811Y9677088D01*
X11548034Y9722421D01*
X11546381Y9727040D01*
X11532137Y9773995D01*
X11530945Y9778756D01*
X11521373Y9826881D01*
X11520653Y9831734D01*
X11515843Y9880565D01*
X11515602Y9885466D01*
X11515602Y9903889D01*
X11515000Y9910000D01*
X11515000Y10410000D01*
X11515602Y10416111D01*
X11515602Y10434534D01*
X11515843Y10439435D01*
X11520653Y10488266D01*
X11521373Y10493119D01*
X11530945Y10541244D01*
X11532137Y10546005D01*
X11546381Y10592960D01*
X11548034Y10597579D01*
X11566811Y10642912D01*
X11568909Y10647349D01*
X11592040Y10690622D01*
X11594562Y10694829D01*
X11621822Y10735628D01*
X11624746Y10739570D01*
X11655874Y10777499D01*
X11659169Y10781134D01*
X11693866Y10815831D01*
X11697501Y10819126D01*
X11735430Y10850254D01*
X11739372Y10853178D01*
X11780171Y10880438D01*
X11784378Y10882960D01*
X11827651Y10906091D01*
X11832088Y10908189D01*
X11877421Y10926966D01*
X11882040Y10928619D01*
X11928995Y10942863D01*
X11933756Y10944055D01*
X11981881Y10953627D01*
X11986734Y10954347D01*
X12035565Y10959157D01*
X12040466Y10959398D01*
X12058889Y10959398D01*
X12065000Y10960000D01*
X12615000Y10960000D01*
X12624755Y10959039D01*
X12634134Y10956194D01*
X12642779Y10951573D01*
X12650355Y10945355D01*
X12656573Y10937779D01*
X12661194Y10929134D01*
X12664039Y10919755D01*
X12665000Y10910000D01*
X12665000Y9410000D01*
X12664039Y9400245D01*
X12661194Y9390866D01*
X12656573Y9382221D01*
X12650355Y9374645D01*
X12642779Y9368427D01*
X12634134Y9363806D01*
X12624755Y9360961D01*
X12615000Y9360000D01*
X12065000Y9360000D01*
X12058889Y9360602D01*
G37*
G36*
X14105245Y9360961D02*
G01*
X14095866Y9363806D01*
X14087221Y9368427D01*
X14079645Y9374645D01*
X14073427Y9382221D01*
X14068806Y9390866D01*
X14065961Y9400245D01*
X14065000Y9410000D01*
X14065000Y10910000D01*
X14065961Y10919755D01*
X14068806Y10929134D01*
X14073427Y10937779D01*
X14079645Y10945355D01*
X14087221Y10951573D01*
X14095866Y10956194D01*
X14105245Y10959039D01*
X14115000Y10960000D01*
X14665000Y10960000D01*
X14671111Y10959398D01*
X14689534Y10959398D01*
X14694435Y10959157D01*
X14743266Y10954347D01*
X14748119Y10953627D01*
X14796244Y10944055D01*
X14801005Y10942863D01*
X14847960Y10928619D01*
X14852579Y10926966D01*
X14897912Y10908189D01*
X14902349Y10906091D01*
X14945622Y10882960D01*
X14949829Y10880438D01*
X14990628Y10853178D01*
X14994570Y10850254D01*
X15032499Y10819126D01*
X15036134Y10815831D01*
X15070831Y10781134D01*
X15074126Y10777499D01*
X15105254Y10739570D01*
X15108178Y10735628D01*
X15135438Y10694829D01*
X15137960Y10690622D01*
X15161091Y10647349D01*
X15163189Y10642912D01*
X15181966Y10597579D01*
X15183619Y10592960D01*
X15197863Y10546005D01*
X15199055Y10541244D01*
X15208627Y10493119D01*
X15209347Y10488266D01*
X15214157Y10439435D01*
X15214398Y10434534D01*
X15214398Y10416111D01*
X15215000Y10410000D01*
X15215000Y9910000D01*
X15214398Y9903889D01*
X15214398Y9885466D01*
X15214157Y9880565D01*
X15209347Y9831734D01*
X15208627Y9826881D01*
X15199055Y9778756D01*
X15197863Y9773995D01*
X15183619Y9727040D01*
X15181966Y9722421D01*
X15163189Y9677088D01*
X15161091Y9672651D01*
X15137960Y9629378D01*
X15135438Y9625171D01*
X15108178Y9584372D01*
X15105254Y9580430D01*
X15074126Y9542501D01*
X15070831Y9538866D01*
X15036134Y9504169D01*
X15032499Y9500874D01*
X14994570Y9469746D01*
X14990628Y9466822D01*
X14949829Y9439562D01*
X14945622Y9437040D01*
X14902349Y9413909D01*
X14897912Y9411811D01*
X14852579Y9393034D01*
X14847960Y9391381D01*
X14801005Y9377137D01*
X14796244Y9375945D01*
X14748119Y9366373D01*
X14743266Y9365653D01*
X14694435Y9360843D01*
X14689534Y9360602D01*
X14671111Y9360602D01*
X14665000Y9360000D01*
X14115000Y9360000D01*
X14105245Y9360961D01*
G37*
G04 #@! TD*
D13*
G04 #@! TO.C,JP4*
X13335000Y19050000D03*
D14*
G36*
X12028889Y18250602D02*
G01*
X12010466Y18250602D01*
X12005565Y18250843D01*
X11956734Y18255653D01*
X11951881Y18256373D01*
X11903756Y18265945D01*
X11898995Y18267137D01*
X11852040Y18281381D01*
X11847421Y18283034D01*
X11802088Y18301811D01*
X11797651Y18303909D01*
X11754378Y18327040D01*
X11750171Y18329562D01*
X11709372Y18356822D01*
X11705430Y18359746D01*
X11667501Y18390874D01*
X11663866Y18394169D01*
X11629169Y18428866D01*
X11625874Y18432501D01*
X11594746Y18470430D01*
X11591822Y18474372D01*
X11564562Y18515171D01*
X11562040Y18519378D01*
X11538909Y18562651D01*
X11536811Y18567088D01*
X11518034Y18612421D01*
X11516381Y18617040D01*
X11502137Y18663995D01*
X11500945Y18668756D01*
X11491373Y18716881D01*
X11490653Y18721734D01*
X11485843Y18770565D01*
X11485602Y18775466D01*
X11485602Y18793889D01*
X11485000Y18800000D01*
X11485000Y19300000D01*
X11485602Y19306111D01*
X11485602Y19324534D01*
X11485843Y19329435D01*
X11490653Y19378266D01*
X11491373Y19383119D01*
X11500945Y19431244D01*
X11502137Y19436005D01*
X11516381Y19482960D01*
X11518034Y19487579D01*
X11536811Y19532912D01*
X11538909Y19537349D01*
X11562040Y19580622D01*
X11564562Y19584829D01*
X11591822Y19625628D01*
X11594746Y19629570D01*
X11625874Y19667499D01*
X11629169Y19671134D01*
X11663866Y19705831D01*
X11667501Y19709126D01*
X11705430Y19740254D01*
X11709372Y19743178D01*
X11750171Y19770438D01*
X11754378Y19772960D01*
X11797651Y19796091D01*
X11802088Y19798189D01*
X11847421Y19816966D01*
X11852040Y19818619D01*
X11898995Y19832863D01*
X11903756Y19834055D01*
X11951881Y19843627D01*
X11956734Y19844347D01*
X12005565Y19849157D01*
X12010466Y19849398D01*
X12028889Y19849398D01*
X12035000Y19850000D01*
X12585000Y19850000D01*
X12594755Y19849039D01*
X12604134Y19846194D01*
X12612779Y19841573D01*
X12620355Y19835355D01*
X12626573Y19827779D01*
X12631194Y19819134D01*
X12634039Y19809755D01*
X12635000Y19800000D01*
X12635000Y18300000D01*
X12634039Y18290245D01*
X12631194Y18280866D01*
X12626573Y18272221D01*
X12620355Y18264645D01*
X12612779Y18258427D01*
X12604134Y18253806D01*
X12594755Y18250961D01*
X12585000Y18250000D01*
X12035000Y18250000D01*
X12028889Y18250602D01*
G37*
G36*
X14075245Y18250961D02*
G01*
X14065866Y18253806D01*
X14057221Y18258427D01*
X14049645Y18264645D01*
X14043427Y18272221D01*
X14038806Y18280866D01*
X14035961Y18290245D01*
X14035000Y18300000D01*
X14035000Y19800000D01*
X14035961Y19809755D01*
X14038806Y19819134D01*
X14043427Y19827779D01*
X14049645Y19835355D01*
X14057221Y19841573D01*
X14065866Y19846194D01*
X14075245Y19849039D01*
X14085000Y19850000D01*
X14635000Y19850000D01*
X14641111Y19849398D01*
X14659534Y19849398D01*
X14664435Y19849157D01*
X14713266Y19844347D01*
X14718119Y19843627D01*
X14766244Y19834055D01*
X14771005Y19832863D01*
X14817960Y19818619D01*
X14822579Y19816966D01*
X14867912Y19798189D01*
X14872349Y19796091D01*
X14915622Y19772960D01*
X14919829Y19770438D01*
X14960628Y19743178D01*
X14964570Y19740254D01*
X15002499Y19709126D01*
X15006134Y19705831D01*
X15040831Y19671134D01*
X15044126Y19667499D01*
X15075254Y19629570D01*
X15078178Y19625628D01*
X15105438Y19584829D01*
X15107960Y19580622D01*
X15131091Y19537349D01*
X15133189Y19532912D01*
X15151966Y19487579D01*
X15153619Y19482960D01*
X15167863Y19436005D01*
X15169055Y19431244D01*
X15178627Y19383119D01*
X15179347Y19378266D01*
X15184157Y19329435D01*
X15184398Y19324534D01*
X15184398Y19306111D01*
X15185000Y19300000D01*
X15185000Y18800000D01*
X15184398Y18793889D01*
X15184398Y18775466D01*
X15184157Y18770565D01*
X15179347Y18721734D01*
X15178627Y18716881D01*
X15169055Y18668756D01*
X15167863Y18663995D01*
X15153619Y18617040D01*
X15151966Y18612421D01*
X15133189Y18567088D01*
X15131091Y18562651D01*
X15107960Y18519378D01*
X15105438Y18515171D01*
X15078178Y18474372D01*
X15075254Y18470430D01*
X15044126Y18432501D01*
X15040831Y18428866D01*
X15006134Y18394169D01*
X15002499Y18390874D01*
X14964570Y18359746D01*
X14960628Y18356822D01*
X14919829Y18329562D01*
X14915622Y18327040D01*
X14872349Y18303909D01*
X14867912Y18301811D01*
X14822579Y18283034D01*
X14817960Y18281381D01*
X14771005Y18267137D01*
X14766244Y18265945D01*
X14718119Y18256373D01*
X14713266Y18255653D01*
X14664435Y18250843D01*
X14659534Y18250602D01*
X14641111Y18250602D01*
X14635000Y18250000D01*
X14085000Y18250000D01*
X14075245Y18250961D01*
G37*
G04 #@! TD*
D13*
G04 #@! TO.C,JP3*
X13335000Y14605000D03*
D14*
G36*
X12028889Y13805602D02*
G01*
X12010466Y13805602D01*
X12005565Y13805843D01*
X11956734Y13810653D01*
X11951881Y13811373D01*
X11903756Y13820945D01*
X11898995Y13822137D01*
X11852040Y13836381D01*
X11847421Y13838034D01*
X11802088Y13856811D01*
X11797651Y13858909D01*
X11754378Y13882040D01*
X11750171Y13884562D01*
X11709372Y13911822D01*
X11705430Y13914746D01*
X11667501Y13945874D01*
X11663866Y13949169D01*
X11629169Y13983866D01*
X11625874Y13987501D01*
X11594746Y14025430D01*
X11591822Y14029372D01*
X11564562Y14070171D01*
X11562040Y14074378D01*
X11538909Y14117651D01*
X11536811Y14122088D01*
X11518034Y14167421D01*
X11516381Y14172040D01*
X11502137Y14218995D01*
X11500945Y14223756D01*
X11491373Y14271881D01*
X11490653Y14276734D01*
X11485843Y14325565D01*
X11485602Y14330466D01*
X11485602Y14348889D01*
X11485000Y14355000D01*
X11485000Y14855000D01*
X11485602Y14861111D01*
X11485602Y14879534D01*
X11485843Y14884435D01*
X11490653Y14933266D01*
X11491373Y14938119D01*
X11500945Y14986244D01*
X11502137Y14991005D01*
X11516381Y15037960D01*
X11518034Y15042579D01*
X11536811Y15087912D01*
X11538909Y15092349D01*
X11562040Y15135622D01*
X11564562Y15139829D01*
X11591822Y15180628D01*
X11594746Y15184570D01*
X11625874Y15222499D01*
X11629169Y15226134D01*
X11663866Y15260831D01*
X11667501Y15264126D01*
X11705430Y15295254D01*
X11709372Y15298178D01*
X11750171Y15325438D01*
X11754378Y15327960D01*
X11797651Y15351091D01*
X11802088Y15353189D01*
X11847421Y15371966D01*
X11852040Y15373619D01*
X11898995Y15387863D01*
X11903756Y15389055D01*
X11951881Y15398627D01*
X11956734Y15399347D01*
X12005565Y15404157D01*
X12010466Y15404398D01*
X12028889Y15404398D01*
X12035000Y15405000D01*
X12585000Y15405000D01*
X12594755Y15404039D01*
X12604134Y15401194D01*
X12612779Y15396573D01*
X12620355Y15390355D01*
X12626573Y15382779D01*
X12631194Y15374134D01*
X12634039Y15364755D01*
X12635000Y15355000D01*
X12635000Y13855000D01*
X12634039Y13845245D01*
X12631194Y13835866D01*
X12626573Y13827221D01*
X12620355Y13819645D01*
X12612779Y13813427D01*
X12604134Y13808806D01*
X12594755Y13805961D01*
X12585000Y13805000D01*
X12035000Y13805000D01*
X12028889Y13805602D01*
G37*
G36*
X14075245Y13805961D02*
G01*
X14065866Y13808806D01*
X14057221Y13813427D01*
X14049645Y13819645D01*
X14043427Y13827221D01*
X14038806Y13835866D01*
X14035961Y13845245D01*
X14035000Y13855000D01*
X14035000Y15355000D01*
X14035961Y15364755D01*
X14038806Y15374134D01*
X14043427Y15382779D01*
X14049645Y15390355D01*
X14057221Y15396573D01*
X14065866Y15401194D01*
X14075245Y15404039D01*
X14085000Y15405000D01*
X14635000Y15405000D01*
X14641111Y15404398D01*
X14659534Y15404398D01*
X14664435Y15404157D01*
X14713266Y15399347D01*
X14718119Y15398627D01*
X14766244Y15389055D01*
X14771005Y15387863D01*
X14817960Y15373619D01*
X14822579Y15371966D01*
X14867912Y15353189D01*
X14872349Y15351091D01*
X14915622Y15327960D01*
X14919829Y15325438D01*
X14960628Y15298178D01*
X14964570Y15295254D01*
X15002499Y15264126D01*
X15006134Y15260831D01*
X15040831Y15226134D01*
X15044126Y15222499D01*
X15075254Y15184570D01*
X15078178Y15180628D01*
X15105438Y15139829D01*
X15107960Y15135622D01*
X15131091Y15092349D01*
X15133189Y15087912D01*
X15151966Y15042579D01*
X15153619Y15037960D01*
X15167863Y14991005D01*
X15169055Y14986244D01*
X15178627Y14938119D01*
X15179347Y14933266D01*
X15184157Y14884435D01*
X15184398Y14879534D01*
X15184398Y14861111D01*
X15185000Y14855000D01*
X15185000Y14355000D01*
X15184398Y14348889D01*
X15184398Y14330466D01*
X15184157Y14325565D01*
X15179347Y14276734D01*
X15178627Y14271881D01*
X15169055Y14223756D01*
X15167863Y14218995D01*
X15153619Y14172040D01*
X15151966Y14167421D01*
X15133189Y14122088D01*
X15131091Y14117651D01*
X15107960Y14074378D01*
X15105438Y14070171D01*
X15078178Y14029372D01*
X15075254Y14025430D01*
X15044126Y13987501D01*
X15040831Y13983866D01*
X15006134Y13949169D01*
X15002499Y13945874D01*
X14964570Y13914746D01*
X14960628Y13911822D01*
X14919829Y13884562D01*
X14915622Y13882040D01*
X14872349Y13858909D01*
X14867912Y13856811D01*
X14822579Y13838034D01*
X14817960Y13836381D01*
X14771005Y13822137D01*
X14766244Y13820945D01*
X14718119Y13811373D01*
X14713266Y13810653D01*
X14664435Y13805843D01*
X14659534Y13805602D01*
X14641111Y13805602D01*
X14635000Y13805000D01*
X14085000Y13805000D01*
X14075245Y13805961D01*
G37*
G04 #@! TD*
D11*
G04 #@! TO.C,J7*
X52070000Y15240000D03*
D12*
X52070000Y17780000D03*
G04 #@! TD*
D11*
G04 #@! TO.C,#J9*
X43180000Y10160000D03*
X40640000Y10160000D03*
X38100000Y10160000D03*
X35560000Y10160000D03*
X33020000Y10160000D03*
X30480000Y10160000D03*
X27940000Y10160000D03*
X25400000Y10160000D03*
X22860000Y10160000D03*
D12*
X20320000Y10160000D03*
G04 #@! TD*
G04 #@! TO.C,TP1*
G36*
G01*
X6770000Y29895625D02*
X6770000Y31064375D01*
G75*
G02*
X7035625Y31330000I265625J0D01*
G01*
X8204375Y31330000D01*
G75*
G02*
X8470000Y31064375I0J-265625D01*
G01*
X8470000Y29895625D01*
G75*
G02*
X8204375Y29630000I-265625J0D01*
G01*
X7035625Y29630000D01*
G75*
G02*
X6770000Y29895625I0J265625D01*
G01*
G37*
G04 #@! TD*
G04 #@! TO.C,J3*
X52070000Y34290000D03*
D11*
X49530000Y34290000D03*
X46990000Y34290000D03*
X44450000Y34290000D03*
G04 #@! TD*
G04 #@! TO.C,J6*
X52070000Y5080000D03*
X52070000Y7620000D03*
X52070000Y10160000D03*
D12*
X52070000Y12700000D03*
G04 #@! TD*
D18*
G04 #@! TO.C,JP1*
X47625000Y15240000D03*
D14*
G36*
X48424398Y13933889D02*
G01*
X48424398Y13915466D01*
X48424157Y13910565D01*
X48419347Y13861734D01*
X48418627Y13856881D01*
X48409055Y13808756D01*
X48407863Y13803995D01*
X48393619Y13757040D01*
X48391966Y13752421D01*
X48373189Y13707088D01*
X48371091Y13702651D01*
X48347960Y13659378D01*
X48345438Y13655171D01*
X48318178Y13614372D01*
X48315254Y13610430D01*
X48284126Y13572501D01*
X48280831Y13568866D01*
X48246134Y13534169D01*
X48242499Y13530874D01*
X48204570Y13499746D01*
X48200628Y13496822D01*
X48159829Y13469562D01*
X48155622Y13467040D01*
X48112349Y13443909D01*
X48107912Y13441811D01*
X48062579Y13423034D01*
X48057960Y13421381D01*
X48011005Y13407137D01*
X48006244Y13405945D01*
X47958119Y13396373D01*
X47953266Y13395653D01*
X47904435Y13390843D01*
X47899534Y13390602D01*
X47881111Y13390602D01*
X47875000Y13390000D01*
X47375000Y13390000D01*
X47368889Y13390602D01*
X47350466Y13390602D01*
X47345565Y13390843D01*
X47296734Y13395653D01*
X47291881Y13396373D01*
X47243756Y13405945D01*
X47238995Y13407137D01*
X47192040Y13421381D01*
X47187421Y13423034D01*
X47142088Y13441811D01*
X47137651Y13443909D01*
X47094378Y13467040D01*
X47090171Y13469562D01*
X47049372Y13496822D01*
X47045430Y13499746D01*
X47007501Y13530874D01*
X47003866Y13534169D01*
X46969169Y13568866D01*
X46965874Y13572501D01*
X46934746Y13610430D01*
X46931822Y13614372D01*
X46904562Y13655171D01*
X46902040Y13659378D01*
X46878909Y13702651D01*
X46876811Y13707088D01*
X46858034Y13752421D01*
X46856381Y13757040D01*
X46842137Y13803995D01*
X46840945Y13808756D01*
X46831373Y13856881D01*
X46830653Y13861734D01*
X46825843Y13910565D01*
X46825602Y13915466D01*
X46825602Y13933889D01*
X46825000Y13940000D01*
X46825000Y14490000D01*
X46825961Y14499755D01*
X46828806Y14509134D01*
X46833427Y14517779D01*
X46839645Y14525355D01*
X46847221Y14531573D01*
X46855866Y14536194D01*
X46865245Y14539039D01*
X46875000Y14540000D01*
X48375000Y14540000D01*
X48384755Y14539039D01*
X48394134Y14536194D01*
X48402779Y14531573D01*
X48410355Y14525355D01*
X48416573Y14517779D01*
X48421194Y14509134D01*
X48424039Y14499755D01*
X48425000Y14490000D01*
X48425000Y13940000D01*
X48424398Y13933889D01*
G37*
G36*
X48424039Y15980245D02*
G01*
X48421194Y15970866D01*
X48416573Y15962221D01*
X48410355Y15954645D01*
X48402779Y15948427D01*
X48394134Y15943806D01*
X48384755Y15940961D01*
X48375000Y15940000D01*
X46875000Y15940000D01*
X46865245Y15940961D01*
X46855866Y15943806D01*
X46847221Y15948427D01*
X46839645Y15954645D01*
X46833427Y15962221D01*
X46828806Y15970866D01*
X46825961Y15980245D01*
X46825000Y15990000D01*
X46825000Y16540000D01*
X46825602Y16546111D01*
X46825602Y16564534D01*
X46825843Y16569435D01*
X46830653Y16618266D01*
X46831373Y16623119D01*
X46840945Y16671244D01*
X46842137Y16676005D01*
X46856381Y16722960D01*
X46858034Y16727579D01*
X46876811Y16772912D01*
X46878909Y16777349D01*
X46902040Y16820622D01*
X46904562Y16824829D01*
X46931822Y16865628D01*
X46934746Y16869570D01*
X46965874Y16907499D01*
X46969169Y16911134D01*
X47003866Y16945831D01*
X47007501Y16949126D01*
X47045430Y16980254D01*
X47049372Y16983178D01*
X47090171Y17010438D01*
X47094378Y17012960D01*
X47137651Y17036091D01*
X47142088Y17038189D01*
X47187421Y17056966D01*
X47192040Y17058619D01*
X47238995Y17072863D01*
X47243756Y17074055D01*
X47291881Y17083627D01*
X47296734Y17084347D01*
X47345565Y17089157D01*
X47350466Y17089398D01*
X47368889Y17089398D01*
X47375000Y17090000D01*
X47875000Y17090000D01*
X47881111Y17089398D01*
X47899534Y17089398D01*
X47904435Y17089157D01*
X47953266Y17084347D01*
X47958119Y17083627D01*
X48006244Y17074055D01*
X48011005Y17072863D01*
X48057960Y17058619D01*
X48062579Y17056966D01*
X48107912Y17038189D01*
X48112349Y17036091D01*
X48155622Y17012960D01*
X48159829Y17010438D01*
X48200628Y16983178D01*
X48204570Y16980254D01*
X48242499Y16949126D01*
X48246134Y16945831D01*
X48280831Y16911134D01*
X48284126Y16907499D01*
X48315254Y16869570D01*
X48318178Y16865628D01*
X48345438Y16824829D01*
X48347960Y16820622D01*
X48371091Y16777349D01*
X48373189Y16772912D01*
X48391966Y16727579D01*
X48393619Y16722960D01*
X48407863Y16676005D01*
X48409055Y16671244D01*
X48418627Y16623119D01*
X48419347Y16618266D01*
X48424157Y16569435D01*
X48424398Y16564534D01*
X48424398Y16546111D01*
X48425000Y16540000D01*
X48425000Y15990000D01*
X48424039Y15980245D01*
G37*
G04 #@! TD*
D11*
G04 #@! TO.C,J5*
X12700000Y5080000D03*
X15240000Y5080000D03*
X17780000Y5080000D03*
X20320000Y5080000D03*
X22860000Y5080000D03*
X25400000Y5080000D03*
X27940000Y5080000D03*
X30480000Y5080000D03*
X33020000Y5080000D03*
X35560000Y5080000D03*
X38100000Y5080000D03*
D12*
X40640000Y5080000D03*
G04 #@! TD*
D11*
G04 #@! TO.C,J4*
X12700000Y27940000D03*
X15240000Y27940000D03*
X17780000Y27940000D03*
X20320000Y27940000D03*
X22860000Y27940000D03*
X25400000Y27940000D03*
X27940000Y27940000D03*
X30480000Y27940000D03*
X33020000Y27940000D03*
X35560000Y27940000D03*
X38100000Y27940000D03*
D12*
X40640000Y27940000D03*
G04 #@! TD*
D11*
G04 #@! TO.C,J2*
X55880000Y10160000D03*
X55880000Y12700000D03*
X55880000Y15240000D03*
X55880000Y17780000D03*
X55880000Y20320000D03*
X55880000Y22860000D03*
X55880000Y25400000D03*
D12*
X55880000Y27940000D03*
G04 #@! TD*
D11*
G04 #@! TO.C,J1*
X7620000Y10160000D03*
X7620000Y12700000D03*
X7620000Y15240000D03*
X7620000Y17780000D03*
X7620000Y20320000D03*
X7620000Y22860000D03*
X7620000Y25400000D03*
D12*
X7620000Y27940000D03*
G04 #@! TD*
M02*
