G04 #@! TF.GenerationSoftware,KiCad,Pcbnew,(5.1.6-0-10_14)*
G04 #@! TF.CreationDate,2021-05-03T11:51:11+01:00*
G04 #@! TF.ProjectId,JuntekOnSteroidsTTGO,4a756e74-656b-44f6-9e53-7465726f6964,0.5*
G04 #@! TF.SameCoordinates,PX5faea10PY5734380*
G04 #@! TF.FileFunction,Copper,L2,Bot*
G04 #@! TF.FilePolarity,Positive*
%FSLAX46Y46*%
G04 Gerber Fmt 4.6, Leading zero omitted, Abs format (unit mm)*
G04 Created by KiCad (PCBNEW (5.1.6-0-10_14)) date 2021-05-03 11:51:11*
%MOMM*%
%LPD*%
G01*
G04 APERTURE LIST*
G04 #@! TA.AperFunction,SMDPad,CuDef*
%ADD10R,1.500000X1.000000*%
G04 #@! TD*
G04 #@! TA.AperFunction,SMDPad,CuDef*
%ADD11C,0.100000*%
G04 #@! TD*
G04 #@! TA.AperFunction,ComponentPad*
%ADD12R,1.700000X1.700000*%
G04 #@! TD*
G04 #@! TA.AperFunction,ComponentPad*
%ADD13O,1.700000X1.700000*%
G04 #@! TD*
G04 #@! TA.AperFunction,ComponentPad*
%ADD14O,1.400000X1.400000*%
G04 #@! TD*
G04 #@! TA.AperFunction,ComponentPad*
%ADD15C,1.400000*%
G04 #@! TD*
G04 #@! TA.AperFunction,ComponentPad*
%ADD16C,1.600000*%
G04 #@! TD*
G04 #@! TA.AperFunction,ComponentPad*
%ADD17R,1.600000X1.600000*%
G04 #@! TD*
G04 #@! TA.AperFunction,ViaPad*
%ADD18C,0.800000*%
G04 #@! TD*
G04 #@! TA.AperFunction,Conductor*
%ADD19C,0.250000*%
G04 #@! TD*
G04 APERTURE END LIST*
G04 #@! TO.P,TP1,1*
G04 #@! TO.N,/Vin*
G04 #@! TA.AperFunction,ComponentPad*
G36*
G01*
X4280000Y25485000D02*
X4280000Y26585000D01*
G75*
G02*
X4530000Y26835000I250000J0D01*
G01*
X5630000Y26835000D01*
G75*
G02*
X5880000Y26585000I0J-250000D01*
G01*
X5880000Y25485000D01*
G75*
G02*
X5630000Y25235000I-250000J0D01*
G01*
X4530000Y25235000D01*
G75*
G02*
X4280000Y25485000I0J250000D01*
G01*
G37*
G04 #@! TD.AperFunction*
G04 #@! TD*
D10*
G04 #@! TO.P,JP3,2*
G04 #@! TO.N,Net-(JP3-Pad2)*
X12065000Y19685000D03*
G04 #@! TA.AperFunction,SMDPad,CuDef*
D11*
G04 #@! TO.P,JP3,3*
G04 #@! TO.N,Net-(JP3-Pad3)*
G36*
X12814398Y18385000D02*
G01*
X12814398Y18360466D01*
X12809588Y18311635D01*
X12800016Y18263510D01*
X12785772Y18216555D01*
X12766995Y18171222D01*
X12743864Y18127949D01*
X12716604Y18087150D01*
X12685476Y18049221D01*
X12650779Y18014524D01*
X12612850Y17983396D01*
X12572051Y17956136D01*
X12528778Y17933005D01*
X12483445Y17914228D01*
X12436490Y17899984D01*
X12388365Y17890412D01*
X12339534Y17885602D01*
X12315000Y17885602D01*
X12315000Y17885000D01*
X11815000Y17885000D01*
X11815000Y17885602D01*
X11790466Y17885602D01*
X11741635Y17890412D01*
X11693510Y17899984D01*
X11646555Y17914228D01*
X11601222Y17933005D01*
X11557949Y17956136D01*
X11517150Y17983396D01*
X11479221Y18014524D01*
X11444524Y18049221D01*
X11413396Y18087150D01*
X11386136Y18127949D01*
X11363005Y18171222D01*
X11344228Y18216555D01*
X11329984Y18263510D01*
X11320412Y18311635D01*
X11315602Y18360466D01*
X11315602Y18385000D01*
X11315000Y18385000D01*
X11315000Y18935000D01*
X12815000Y18935000D01*
X12815000Y18385000D01*
X12814398Y18385000D01*
G37*
G04 #@! TD.AperFunction*
G04 #@! TA.AperFunction,SMDPad,CuDef*
G04 #@! TO.P,JP3,1*
G04 #@! TO.N,/Vin_sense*
G36*
X11315000Y20435000D02*
G01*
X11315000Y20985000D01*
X11315602Y20985000D01*
X11315602Y21009534D01*
X11320412Y21058365D01*
X11329984Y21106490D01*
X11344228Y21153445D01*
X11363005Y21198778D01*
X11386136Y21242051D01*
X11413396Y21282850D01*
X11444524Y21320779D01*
X11479221Y21355476D01*
X11517150Y21386604D01*
X11557949Y21413864D01*
X11601222Y21436995D01*
X11646555Y21455772D01*
X11693510Y21470016D01*
X11741635Y21479588D01*
X11790466Y21484398D01*
X11815000Y21484398D01*
X11815000Y21485000D01*
X12315000Y21485000D01*
X12315000Y21484398D01*
X12339534Y21484398D01*
X12388365Y21479588D01*
X12436490Y21470016D01*
X12483445Y21455772D01*
X12528778Y21436995D01*
X12572051Y21413864D01*
X12612850Y21386604D01*
X12650779Y21355476D01*
X12685476Y21320779D01*
X12716604Y21282850D01*
X12743864Y21242051D01*
X12766995Y21198778D01*
X12785772Y21153445D01*
X12800016Y21106490D01*
X12809588Y21058365D01*
X12814398Y21009534D01*
X12814398Y20985000D01*
X12815000Y20985000D01*
X12815000Y20435000D01*
X11315000Y20435000D01*
G37*
G04 #@! TD.AperFunction*
G04 #@! TD*
D12*
G04 #@! TO.P,J3,1*
G04 #@! TO.N,VCC*
X48895000Y26035000D03*
D13*
G04 #@! TO.P,J3,2*
G04 #@! TO.N,/TX*
X46355000Y26035000D03*
G04 #@! TO.P,J3,3*
G04 #@! TO.N,/GND*
X43815000Y26035000D03*
G04 #@! TO.P,J3,4*
G04 #@! TO.N,/RX*
X41275000Y26035000D03*
G04 #@! TD*
G04 #@! TO.P,J6,4*
G04 #@! TO.N,+3V3*
X48895000Y3175000D03*
G04 #@! TO.P,J6,3*
G04 #@! TO.N,/GND*
X46355000Y3175000D03*
G04 #@! TO.P,J6,2*
G04 #@! TO.N,/SCL*
X43815000Y3175000D03*
D12*
G04 #@! TO.P,J6,1*
G04 #@! TO.N,/SDA*
X41275000Y3175000D03*
G04 #@! TD*
D14*
G04 #@! TO.P,R6,2*
G04 #@! TO.N,/GND*
X26035000Y8890000D03*
D15*
G04 #@! TO.P,R6,1*
G04 #@! TO.N,Net-(JP2-Pad3)*
X18415000Y8890000D03*
G04 #@! TD*
D10*
G04 #@! TO.P,JP2,2*
G04 #@! TO.N,/!ON*
X12065000Y10795000D03*
G04 #@! TA.AperFunction,SMDPad,CuDef*
D11*
G04 #@! TO.P,JP2,3*
G04 #@! TO.N,Net-(JP2-Pad3)*
G36*
X12814398Y9495000D02*
G01*
X12814398Y9470466D01*
X12809588Y9421635D01*
X12800016Y9373510D01*
X12785772Y9326555D01*
X12766995Y9281222D01*
X12743864Y9237949D01*
X12716604Y9197150D01*
X12685476Y9159221D01*
X12650779Y9124524D01*
X12612850Y9093396D01*
X12572051Y9066136D01*
X12528778Y9043005D01*
X12483445Y9024228D01*
X12436490Y9009984D01*
X12388365Y9000412D01*
X12339534Y8995602D01*
X12315000Y8995602D01*
X12315000Y8995000D01*
X11815000Y8995000D01*
X11815000Y8995602D01*
X11790466Y8995602D01*
X11741635Y9000412D01*
X11693510Y9009984D01*
X11646555Y9024228D01*
X11601222Y9043005D01*
X11557949Y9066136D01*
X11517150Y9093396D01*
X11479221Y9124524D01*
X11444524Y9159221D01*
X11413396Y9197150D01*
X11386136Y9237949D01*
X11363005Y9281222D01*
X11344228Y9326555D01*
X11329984Y9373510D01*
X11320412Y9421635D01*
X11315602Y9470466D01*
X11315602Y9495000D01*
X11315000Y9495000D01*
X11315000Y10045000D01*
X12815000Y10045000D01*
X12815000Y9495000D01*
X12814398Y9495000D01*
G37*
G04 #@! TD.AperFunction*
G04 #@! TA.AperFunction,SMDPad,CuDef*
G04 #@! TO.P,JP2,1*
G04 #@! TO.N,/GPIO27*
G36*
X11315000Y11545000D02*
G01*
X11315000Y12095000D01*
X11315602Y12095000D01*
X11315602Y12119534D01*
X11320412Y12168365D01*
X11329984Y12216490D01*
X11344228Y12263445D01*
X11363005Y12308778D01*
X11386136Y12352051D01*
X11413396Y12392850D01*
X11444524Y12430779D01*
X11479221Y12465476D01*
X11517150Y12496604D01*
X11557949Y12523864D01*
X11601222Y12546995D01*
X11646555Y12565772D01*
X11693510Y12580016D01*
X11741635Y12589588D01*
X11790466Y12594398D01*
X11815000Y12594398D01*
X11815000Y12595000D01*
X12315000Y12595000D01*
X12315000Y12594398D01*
X12339534Y12594398D01*
X12388365Y12589588D01*
X12436490Y12580016D01*
X12483445Y12565772D01*
X12528778Y12546995D01*
X12572051Y12523864D01*
X12612850Y12496604D01*
X12650779Y12465476D01*
X12685476Y12430779D01*
X12716604Y12392850D01*
X12743864Y12352051D01*
X12766995Y12308778D01*
X12785772Y12263445D01*
X12800016Y12216490D01*
X12809588Y12168365D01*
X12814398Y12119534D01*
X12814398Y12095000D01*
X12815000Y12095000D01*
X12815000Y11545000D01*
X11315000Y11545000D01*
G37*
G04 #@! TD.AperFunction*
G04 #@! TD*
D10*
G04 #@! TO.P,JP1,2*
G04 #@! TO.N,/GND*
X47625000Y15875000D03*
G04 #@! TA.AperFunction,SMDPad,CuDef*
D11*
G04 #@! TO.P,JP1,3*
G04 #@! TO.N,GNDD*
G36*
X48374398Y14575000D02*
G01*
X48374398Y14550466D01*
X48369588Y14501635D01*
X48360016Y14453510D01*
X48345772Y14406555D01*
X48326995Y14361222D01*
X48303864Y14317949D01*
X48276604Y14277150D01*
X48245476Y14239221D01*
X48210779Y14204524D01*
X48172850Y14173396D01*
X48132051Y14146136D01*
X48088778Y14123005D01*
X48043445Y14104228D01*
X47996490Y14089984D01*
X47948365Y14080412D01*
X47899534Y14075602D01*
X47875000Y14075602D01*
X47875000Y14075000D01*
X47375000Y14075000D01*
X47375000Y14075602D01*
X47350466Y14075602D01*
X47301635Y14080412D01*
X47253510Y14089984D01*
X47206555Y14104228D01*
X47161222Y14123005D01*
X47117949Y14146136D01*
X47077150Y14173396D01*
X47039221Y14204524D01*
X47004524Y14239221D01*
X46973396Y14277150D01*
X46946136Y14317949D01*
X46923005Y14361222D01*
X46904228Y14406555D01*
X46889984Y14453510D01*
X46880412Y14501635D01*
X46875602Y14550466D01*
X46875602Y14575000D01*
X46875000Y14575000D01*
X46875000Y15125000D01*
X48375000Y15125000D01*
X48375000Y14575000D01*
X48374398Y14575000D01*
G37*
G04 #@! TD.AperFunction*
G04 #@! TA.AperFunction,SMDPad,CuDef*
G04 #@! TO.P,JP1,1*
G04 #@! TO.N,GNDA*
G36*
X46875000Y16625000D02*
G01*
X46875000Y17175000D01*
X46875602Y17175000D01*
X46875602Y17199534D01*
X46880412Y17248365D01*
X46889984Y17296490D01*
X46904228Y17343445D01*
X46923005Y17388778D01*
X46946136Y17432051D01*
X46973396Y17472850D01*
X47004524Y17510779D01*
X47039221Y17545476D01*
X47077150Y17576604D01*
X47117949Y17603864D01*
X47161222Y17626995D01*
X47206555Y17645772D01*
X47253510Y17660016D01*
X47301635Y17669588D01*
X47350466Y17674398D01*
X47375000Y17674398D01*
X47375000Y17675000D01*
X47875000Y17675000D01*
X47875000Y17674398D01*
X47899534Y17674398D01*
X47948365Y17669588D01*
X47996490Y17660016D01*
X48043445Y17645772D01*
X48088778Y17626995D01*
X48132051Y17603864D01*
X48172850Y17576604D01*
X48210779Y17545476D01*
X48245476Y17510779D01*
X48276604Y17472850D01*
X48303864Y17432051D01*
X48326995Y17388778D01*
X48345772Y17343445D01*
X48360016Y17296490D01*
X48369588Y17248365D01*
X48374398Y17199534D01*
X48374398Y17175000D01*
X48375000Y17175000D01*
X48375000Y16625000D01*
X46875000Y16625000D01*
G37*
G04 #@! TD.AperFunction*
G04 #@! TD*
D16*
G04 #@! TO.P,C31,2*
G04 #@! TO.N,/GND*
X24685000Y12065000D03*
G04 #@! TO.P,C31,1*
G04 #@! TO.N,/ADC12*
X19685000Y12065000D03*
G04 #@! TD*
G04 #@! TO.P,C21,2*
G04 #@! TO.N,/GND*
X24685000Y16510000D03*
G04 #@! TO.P,C21,1*
G04 #@! TO.N,/ADC5*
X19685000Y16510000D03*
G04 #@! TD*
G04 #@! TO.P,C11,2*
G04 #@! TO.N,/GND*
X24685000Y20955000D03*
G04 #@! TO.P,C11,1*
G04 #@! TO.N,/ADC4*
X19685000Y20955000D03*
G04 #@! TD*
G04 #@! TO.P,C3,2*
G04 #@! TO.N,/GND*
X29925000Y22860000D03*
G04 #@! TO.P,C3,1*
G04 #@! TO.N,VCC*
X34925000Y22860000D03*
G04 #@! TD*
D14*
G04 #@! TO.P,R51,2*
G04 #@! TO.N,/GPIO15*
X15875000Y6350000D03*
D15*
G04 #@! TO.P,R51,1*
G04 #@! TO.N,/Vout_set*
X8255000Y6350000D03*
G04 #@! TD*
D14*
G04 #@! TO.P,R41,2*
G04 #@! TO.N,/GPIO13*
X15875000Y8890000D03*
D15*
G04 #@! TO.P,R41,1*
G04 #@! TO.N,/Iout_set*
X8255000Y8890000D03*
G04 #@! TD*
D14*
G04 #@! TO.P,R33,2*
G04 #@! TO.N,/ADC12*
X18415000Y13970000D03*
D15*
G04 #@! TO.P,R33,1*
G04 #@! TO.N,/ADC_pullup*
X26035000Y13970000D03*
G04 #@! TD*
D14*
G04 #@! TO.P,R32,2*
G04 #@! TO.N,/GND*
X8255000Y12065000D03*
D15*
G04 #@! TO.P,R32,1*
G04 #@! TO.N,/ADC12*
X15875000Y12065000D03*
G04 #@! TD*
D14*
G04 #@! TO.P,R31,2*
G04 #@! TO.N,Net-(JP3-Pad2)*
X8255000Y13970000D03*
D15*
G04 #@! TO.P,R31,1*
G04 #@! TO.N,/ADC12*
X15875000Y13970000D03*
G04 #@! TD*
D14*
G04 #@! TO.P,R23,2*
G04 #@! TO.N,/ADC5*
X18415000Y18415000D03*
D15*
G04 #@! TO.P,R23,1*
G04 #@! TO.N,/ADC_pullup*
X26035000Y18415000D03*
G04 #@! TD*
D14*
G04 #@! TO.P,R22,2*
G04 #@! TO.N,/GND*
X8255000Y16510000D03*
D15*
G04 #@! TO.P,R22,1*
G04 #@! TO.N,/ADC5*
X15875000Y16510000D03*
G04 #@! TD*
D14*
G04 #@! TO.P,R21,2*
G04 #@! TO.N,/Vout_sense*
X8255000Y18415000D03*
D15*
G04 #@! TO.P,R21,1*
G04 #@! TO.N,/ADC5*
X15875000Y18415000D03*
G04 #@! TD*
D14*
G04 #@! TO.P,R13,2*
G04 #@! TO.N,/ADC4*
X18415000Y22860000D03*
D15*
G04 #@! TO.P,R13,1*
G04 #@! TO.N,/ADC_pullup*
X26035000Y22860000D03*
G04 #@! TD*
D14*
G04 #@! TO.P,R12,2*
G04 #@! TO.N,/GND*
X8255000Y20955000D03*
D15*
G04 #@! TO.P,R12,1*
G04 #@! TO.N,/ADC4*
X15875000Y20955000D03*
G04 #@! TD*
D14*
G04 #@! TO.P,R11,2*
G04 #@! TO.N,/Iout_sense*
X8255000Y22860000D03*
D15*
G04 #@! TO.P,R11,1*
G04 #@! TO.N,/ADC4*
X15875000Y22860000D03*
G04 #@! TD*
D14*
G04 #@! TO.P,R34,2*
G04 #@! TO.N,Net-(JP3-Pad3)*
X5715000Y15240000D03*
D15*
G04 #@! TO.P,R34,1*
G04 #@! TO.N,/Vin*
X5715000Y22860000D03*
G04 #@! TD*
D14*
G04 #@! TO.P,R1,2*
G04 #@! TO.N,/ADC_pullup*
X28575000Y20320000D03*
D15*
G04 #@! TO.P,R1,1*
G04 #@! TO.N,VCC*
X36195000Y20320000D03*
G04 #@! TD*
D13*
G04 #@! TO.P,J5,12*
G04 #@! TO.N,/GND*
X8255000Y3175000D03*
G04 #@! TO.P,J5,11*
X10795000Y3175000D03*
G04 #@! TO.P,J5,10*
G04 #@! TO.N,/SDA*
X13335000Y3175000D03*
G04 #@! TO.P,J5,9*
G04 #@! TO.N,/SCL*
X15875000Y3175000D03*
G04 #@! TO.P,J5,8*
G04 #@! TO.N,Net-(J5-Pad8)*
X18415000Y3175000D03*
G04 #@! TO.P,J5,7*
G04 #@! TO.N,/ADC12*
X20955000Y3175000D03*
G04 #@! TO.P,J5,6*
G04 #@! TO.N,/GPIO15*
X23495000Y3175000D03*
G04 #@! TO.P,J5,5*
G04 #@! TO.N,/GPIO13*
X26035000Y3175000D03*
G04 #@! TO.P,J5,4*
G04 #@! TO.N,/FAN*
X28575000Y3175000D03*
G04 #@! TO.P,J5,3*
G04 #@! TO.N,/GND*
X31115000Y3175000D03*
G04 #@! TO.P,J5,2*
X33655000Y3175000D03*
D12*
G04 #@! TO.P,J5,1*
G04 #@! TO.N,+3V3*
X36195000Y3175000D03*
G04 #@! TD*
D13*
G04 #@! TO.P,J4,12*
G04 #@! TO.N,+3V3*
X8255000Y26035000D03*
G04 #@! TO.P,J4,11*
G04 #@! TO.N,Net-(J4-Pad11)*
X10795000Y26035000D03*
G04 #@! TO.P,J4,10*
G04 #@! TO.N,Net-(J4-Pad10)*
X13335000Y26035000D03*
G04 #@! TO.P,J4,9*
G04 #@! TO.N,Net-(J4-Pad9)*
X15875000Y26035000D03*
G04 #@! TO.P,J4,8*
G04 #@! TO.N,Net-(J4-Pad8)*
X18415000Y26035000D03*
G04 #@! TO.P,J4,7*
G04 #@! TO.N,/ADC4*
X20955000Y26035000D03*
G04 #@! TO.P,J4,6*
G04 #@! TO.N,/ADC5*
X23495000Y26035000D03*
G04 #@! TO.P,J4,5*
G04 #@! TO.N,Net-(J4-Pad5)*
X26035000Y26035000D03*
G04 #@! TO.P,J4,4*
G04 #@! TO.N,Net-(J4-Pad4)*
X28575000Y26035000D03*
G04 #@! TO.P,J4,3*
G04 #@! TO.N,/GPIO27*
X31115000Y26035000D03*
G04 #@! TO.P,J4,2*
G04 #@! TO.N,/GND*
X33655000Y26035000D03*
D12*
G04 #@! TO.P,J4,1*
G04 #@! TO.N,VCC*
X36195000Y26035000D03*
G04 #@! TD*
D13*
G04 #@! TO.P,J2,8*
G04 #@! TO.N,/RX*
X51435000Y5715000D03*
G04 #@! TO.P,J2,7*
G04 #@! TO.N,/TX*
X51435000Y8255000D03*
G04 #@! TO.P,J2,6*
G04 #@! TO.N,Net-(J2-Pad6)*
X51435000Y10795000D03*
G04 #@! TO.P,J2,5*
G04 #@! TO.N,VCC*
X51435000Y13335000D03*
G04 #@! TO.P,J2,4*
G04 #@! TO.N,GNDD*
X51435000Y15875000D03*
G04 #@! TO.P,J2,3*
X51435000Y18415000D03*
G04 #@! TO.P,J2,2*
G04 #@! TO.N,GNDA*
X51435000Y20955000D03*
D12*
G04 #@! TO.P,J2,1*
X51435000Y23495000D03*
G04 #@! TD*
D13*
G04 #@! TO.P,J1,8*
G04 #@! TO.N,Net-(J1-Pad8)*
X3175000Y5715000D03*
G04 #@! TO.P,J1,7*
G04 #@! TO.N,/FAN*
X3175000Y8255000D03*
G04 #@! TO.P,J1,6*
G04 #@! TO.N,/!ON*
X3175000Y10795000D03*
G04 #@! TO.P,J1,5*
G04 #@! TO.N,/Vout_set*
X3175000Y13335000D03*
G04 #@! TO.P,J1,4*
G04 #@! TO.N,/Iout_set*
X3175000Y15875000D03*
G04 #@! TO.P,J1,3*
G04 #@! TO.N,/Vin_sense*
X3175000Y18415000D03*
G04 #@! TO.P,J1,2*
G04 #@! TO.N,/Vout_sense*
X3175000Y20955000D03*
D12*
G04 #@! TO.P,J1,1*
G04 #@! TO.N,/Iout_sense*
X3175000Y23495000D03*
G04 #@! TD*
D16*
G04 #@! TO.P,C2,2*
G04 #@! TO.N,/GND*
X45720000Y7660000D03*
D17*
G04 #@! TO.P,C2,1*
G04 #@! TO.N,VCC*
X45720000Y10160000D03*
G04 #@! TD*
D16*
G04 #@! TO.P,C1,2*
G04 #@! TO.N,/GND*
X46990000Y20360000D03*
D17*
G04 #@! TO.P,C1,1*
G04 #@! TO.N,/ADC_pullup*
X46990000Y22860000D03*
G04 #@! TD*
D18*
G04 #@! TO.N,/GND*
X45085000Y15875000D03*
G04 #@! TD*
D19*
G04 #@! TO.N,VCC*
X48260000Y10160000D02*
X51435000Y13335000D01*
X45720000Y10160000D02*
X48260000Y10160000D01*
X52610001Y14510001D02*
X51435000Y13335000D01*
X52610001Y21519001D02*
X52610001Y14510001D01*
X51809003Y22319999D02*
X52610001Y21519001D01*
X50324999Y22319999D02*
X51809003Y22319999D01*
X48895000Y23749998D02*
X50324999Y22319999D01*
X48895000Y26035000D02*
X48895000Y23749998D01*
G04 #@! TO.N,/Vin_sense*
X8747001Y19929999D02*
X4689999Y19929999D01*
X4689999Y19929999D02*
X3175000Y18415000D01*
X9802002Y20985000D02*
X9331001Y20513999D01*
X12065000Y20985000D02*
X9802002Y20985000D01*
X9331001Y20513999D02*
X8747001Y19929999D01*
X9525000Y20707998D02*
X9331001Y20513999D01*
G04 #@! TO.N,+3V3*
X48895000Y2540000D02*
X48895000Y3175000D01*
X48895000Y3810000D02*
X48895000Y3175000D01*
G04 #@! TO.N,GNDD*
X50135000Y14575000D02*
X51435000Y15875000D01*
X47625000Y14575000D02*
X50135000Y14575000D01*
G04 #@! TO.N,/GND*
X34830001Y27210001D02*
X33655000Y26035000D01*
X42639999Y27210001D02*
X34830001Y27210001D01*
X43815000Y26035000D02*
X42639999Y27210001D01*
X47625000Y15875000D02*
X45085000Y15875000D01*
X43815000Y23535000D02*
X46990000Y20360000D01*
X43815000Y26035000D02*
X43815000Y23535000D01*
X46355000Y2540000D02*
X46355000Y3175000D01*
X46355000Y3810000D02*
X46355000Y3175000D01*
G04 #@! TO.N,GNDA*
X51405000Y20955000D02*
X51435000Y20955000D01*
X47625000Y17175000D02*
X51405000Y20955000D01*
G04 #@! TO.N,/FAN*
X27399999Y1999999D02*
X28575000Y3175000D01*
X5162999Y4527999D02*
X7690999Y1999999D01*
X7690999Y1999999D02*
X27399999Y1999999D01*
X5162999Y6267001D02*
X5162999Y4527999D01*
X3175000Y8255000D02*
X5162999Y6267001D01*
G04 #@! TO.N,/!ON*
X12065000Y10795000D02*
X3175000Y10795000D01*
G04 #@! TO.N,/GPIO27*
X14849999Y23352001D02*
X16262998Y24765000D01*
X14849999Y14849999D02*
X14849999Y23352001D01*
X13667500Y13667500D02*
X14849999Y14849999D01*
X29845000Y24765000D02*
X31115000Y26035000D01*
X16262998Y24765000D02*
X29845000Y24765000D01*
X13637500Y13667500D02*
X13667500Y13667500D01*
X12065000Y12095000D02*
X13637500Y13667500D01*
G04 #@! TO.N,/SDA*
X14960011Y4800011D02*
X38824991Y4800011D01*
X13335000Y3175000D02*
X14960011Y4800011D01*
X38824991Y4800011D02*
X39275001Y4350001D01*
X41180001Y4350001D02*
X39275001Y4350001D01*
X50005001Y4350001D02*
X41180001Y4350001D01*
X41275000Y2540000D02*
X41275000Y3175000D01*
X41275000Y3810000D02*
X41275000Y3175000D01*
X41275000Y4255002D02*
X41180001Y4350001D01*
X41275000Y3175000D02*
X41275000Y4255002D01*
G04 #@! TO.N,/SCL*
X43909999Y1999999D02*
X50005001Y1999999D01*
X43815000Y3810000D02*
X43815000Y3175000D01*
X43815000Y2540000D02*
X43815000Y3175000D01*
X43815000Y2094998D02*
X43909999Y1999999D01*
X43815000Y3175000D02*
X43815000Y2094998D01*
X17050001Y4350001D02*
X15875000Y3175000D01*
X37814997Y4350001D02*
X17050001Y4350001D01*
X40164999Y1999999D02*
X37814997Y4350001D01*
X43909999Y1999999D02*
X40164999Y1999999D01*
G04 #@! TO.N,Net-(JP2-Pad3)*
X12065000Y9495000D02*
X12065000Y8255000D01*
X17389999Y7864999D02*
X18415000Y8890000D01*
X12455001Y7864999D02*
X17389999Y7864999D01*
X12065000Y8255000D02*
X12455001Y7864999D01*
G04 #@! TO.N,Net-(JP3-Pad2)*
X12065000Y19685000D02*
X13970000Y19685000D01*
X13970000Y19685000D02*
X14399989Y19255011D01*
X14399989Y19255011D02*
X14399989Y15036399D01*
X14399989Y15036399D02*
X13481100Y14117510D01*
X13303590Y13970000D02*
X8255000Y13970000D01*
X13451100Y14117510D02*
X13303590Y13970000D01*
X13481100Y14117510D02*
X13451100Y14117510D01*
G04 #@! TO.N,Net-(JP3-Pad3)*
X5715000Y15240000D02*
X11430000Y15240000D01*
X12065000Y15875000D02*
X12065000Y18385000D01*
X11430000Y15240000D02*
X12065000Y15875000D01*
G04 #@! TD*
M02*
