G04 #@! TF.GenerationSoftware,KiCad,Pcbnew,(5.1.6-0-10_14)*
G04 #@! TF.CreationDate,2021-08-19T15:45:43+01:00*
G04 #@! TF.ProjectId,JuntekOnSteroidsTTGO,4a756e74-656b-44f6-9e53-7465726f6964,2.3*
G04 #@! TF.SameCoordinates,PX5b716c8PY5b716c8*
G04 #@! TF.FileFunction,Copper,L2,Bot*
G04 #@! TF.FilePolarity,Positive*
%FSLAX46Y46*%
G04 Gerber Fmt 4.6, Leading zero omitted, Abs format (unit mm)*
G04 Created by KiCad (PCBNEW (5.1.6-0-10_14)) date 2021-08-19 15:45:43*
%MOMM*%
%LPD*%
G01*
G04 APERTURE LIST*
G04 #@! TA.AperFunction,ComponentPad*
%ADD10C,1.600000*%
G04 #@! TD*
G04 #@! TA.AperFunction,ComponentPad*
%ADD11O,1.700000X1.700000*%
G04 #@! TD*
G04 #@! TA.AperFunction,ComponentPad*
%ADD12R,1.700000X1.700000*%
G04 #@! TD*
G04 #@! TA.AperFunction,ComponentPad*
%ADD13O,1.400000X1.400000*%
G04 #@! TD*
G04 #@! TA.AperFunction,ComponentPad*
%ADD14C,1.400000*%
G04 #@! TD*
G04 #@! TA.AperFunction,ComponentPad*
%ADD15O,1.750000X1.200000*%
G04 #@! TD*
G04 #@! TA.AperFunction,ComponentPad*
%ADD16R,1.600000X1.600000*%
G04 #@! TD*
G04 #@! TA.AperFunction,SMDPad,CuDef*
%ADD17R,1.500000X1.000000*%
G04 #@! TD*
G04 #@! TA.AperFunction,SMDPad,CuDef*
%ADD18C,0.100000*%
G04 #@! TD*
G04 APERTURE END LIST*
D10*
G04 #@! TO.P,C6,2*
G04 #@! TO.N,/+3V3*
X46990000Y10755000D03*
G04 #@! TO.P,C6,1*
G04 #@! TO.N,/GND*
X46990000Y8255000D03*
G04 #@! TD*
G04 #@! TO.P,C5,2*
G04 #@! TO.N,/+3V3*
X12065000Y33060000D03*
G04 #@! TO.P,C5,1*
G04 #@! TO.N,/GND*
X12065000Y35560000D03*
G04 #@! TD*
D11*
G04 #@! TO.P,J22,4*
G04 #@! TO.N,/ADC3*
X12700000Y21590000D03*
G04 #@! TO.P,J22,3*
G04 #@! TO.N,/ADC2*
X12700000Y24130000D03*
G04 #@! TO.P,J22,2*
G04 #@! TO.N,/ADC1*
X12700000Y26670000D03*
D12*
G04 #@! TO.P,J22,1*
G04 #@! TO.N,/ADC0*
X12700000Y29210000D03*
G04 #@! TD*
D11*
G04 #@! TO.P,J21,4*
G04 #@! TO.N,Net-(J21-Pad4)*
X10160000Y21590000D03*
G04 #@! TO.P,J21,3*
G04 #@! TO.N,/A2*
X10160000Y24130000D03*
G04 #@! TO.P,J21,2*
G04 #@! TO.N,/A1*
X10160000Y26670000D03*
D12*
G04 #@! TO.P,J21,1*
G04 #@! TO.N,/A0*
X10160000Y29210000D03*
G04 #@! TD*
D11*
G04 #@! TO.P,J61,2*
G04 #@! TO.N,/J6.3*
X5080000Y31750000D03*
D12*
G04 #@! TO.P,J61,1*
G04 #@! TO.N,/J6.2*
X5080000Y34290000D03*
G04 #@! TD*
D11*
G04 #@! TO.P,J12,3*
G04 #@! TO.N,/J1.8*
X5080000Y11430000D03*
G04 #@! TO.P,J12,2*
G04 #@! TO.N,/J1.7*
X5080000Y13970000D03*
D12*
G04 #@! TO.P,J12,1*
G04 #@! TO.N,/J1.6*
X5080000Y16510000D03*
G04 #@! TD*
D11*
G04 #@! TO.P,J11,3*
G04 #@! TO.N,/J1.3*
X5080000Y21590000D03*
G04 #@! TO.P,J11,2*
G04 #@! TO.N,/J1.2*
X5080000Y24130000D03*
D12*
G04 #@! TO.P,J11,1*
G04 #@! TO.N,/J1.1*
X5080000Y26670000D03*
G04 #@! TD*
D11*
G04 #@! TO.P,J23,2*
G04 #@! TO.N,/FanPWM*
X10160000Y11430000D03*
D12*
G04 #@! TO.P,J23,1*
G04 #@! TO.N,/NotEnable*
X10160000Y13970000D03*
G04 #@! TD*
D11*
G04 #@! TO.P,J30,21*
G04 #@! TO.N,Net-(J30-Pad21)*
X55880000Y5080000D03*
G04 #@! TO.P,J30,20*
G04 #@! TO.N,Net-(J30-Pad20)*
X53340000Y5080000D03*
G04 #@! TO.P,J30,19*
G04 #@! TO.N,Net-(J30-Pad19)*
X50800000Y5080000D03*
G04 #@! TO.P,J30,18*
G04 #@! TO.N,Net-(J30-Pad18)*
X48260000Y5080000D03*
G04 #@! TO.P,J30,17*
G04 #@! TO.N,Net-(J30-Pad17)*
X45720000Y5080000D03*
G04 #@! TO.P,J30,16*
G04 #@! TO.N,Net-(J30-Pad16)*
X43180000Y5080000D03*
G04 #@! TO.P,J30,15*
G04 #@! TO.N,Net-(J30-Pad15)*
X40640000Y5080000D03*
G04 #@! TO.P,J30,14*
G04 #@! TO.N,Net-(J30-Pad14)*
X38100000Y5080000D03*
G04 #@! TO.P,J30,13*
G04 #@! TO.N,Net-(J30-Pad13)*
X35560000Y5080000D03*
G04 #@! TO.P,J30,12*
G04 #@! TO.N,Net-(J30-Pad12)*
X33020000Y5080000D03*
G04 #@! TO.P,J30,11*
G04 #@! TO.N,Net-(J30-Pad11)*
X30480000Y5080000D03*
G04 #@! TO.P,J30,10*
G04 #@! TO.N,Net-(J30-Pad10)*
X27940000Y5080000D03*
G04 #@! TO.P,J30,9*
G04 #@! TO.N,Net-(J30-Pad9)*
X25400000Y5080000D03*
G04 #@! TO.P,J30,8*
G04 #@! TO.N,Net-(J30-Pad8)*
X22860000Y5080000D03*
G04 #@! TO.P,J30,7*
G04 #@! TO.N,Net-(J30-Pad7)*
X20320000Y5080000D03*
G04 #@! TO.P,J30,6*
G04 #@! TO.N,Net-(J30-Pad6)*
X17780000Y5080000D03*
G04 #@! TO.P,J30,5*
G04 #@! TO.N,Net-(J30-Pad5)*
X15240000Y5080000D03*
G04 #@! TO.P,J30,4*
G04 #@! TO.N,Net-(J30-Pad4)*
X12700000Y5080000D03*
G04 #@! TO.P,J30,3*
G04 #@! TO.N,Net-(J30-Pad3)*
X10160000Y5080000D03*
G04 #@! TO.P,J30,2*
G04 #@! TO.N,Net-(J30-Pad2)*
X7620000Y5080000D03*
D12*
G04 #@! TO.P,J30,1*
G04 #@! TO.N,Net-(J30-Pad1)*
X5080000Y5080000D03*
G04 #@! TD*
D13*
G04 #@! TO.P,R20,2*
G04 #@! TO.N,/GND*
X26670000Y29210000D03*
D14*
G04 #@! TO.P,R20,1*
G04 #@! TO.N,/ADC0*
X19050000Y29210000D03*
G04 #@! TD*
D13*
G04 #@! TO.P,R19,2*
G04 #@! TO.N,/GND*
X39370000Y21590000D03*
D14*
G04 #@! TO.P,R19,1*
G04 #@! TO.N,/GPIO12*
X31750000Y21590000D03*
G04 #@! TD*
D13*
G04 #@! TO.P,R18,2*
G04 #@! TO.N,/GPIO15*
X31750000Y25400000D03*
D14*
G04 #@! TO.P,R18,1*
G04 #@! TO.N,/FanPWM*
X39370000Y25400000D03*
G04 #@! TD*
D13*
G04 #@! TO.P,R17,2*
G04 #@! TO.N,/A3*
X39370000Y17780000D03*
D14*
G04 #@! TO.P,R17,1*
G04 #@! TO.N,Net-(J21-Pad4)*
X31750000Y17780000D03*
G04 #@! TD*
D13*
G04 #@! TO.P,R16,2*
G04 #@! TO.N,/GPIO2*
X31750000Y29210000D03*
D14*
G04 #@! TO.P,R16,1*
G04 #@! TO.N,/NotEnable*
X39370000Y29210000D03*
G04 #@! TD*
D13*
G04 #@! TO.P,R15,2*
G04 #@! TO.N,/GND*
X43180000Y21590000D03*
D14*
G04 #@! TO.P,R15,1*
G04 #@! TO.N,/NotEnable*
X43180000Y29210000D03*
G04 #@! TD*
D13*
G04 #@! TO.P,R12,2*
G04 #@! TO.N,/J1.4*
X19050000Y17780000D03*
D14*
G04 #@! TO.P,R12,1*
G04 #@! TO.N,/GPIO33*
X26670000Y17780000D03*
G04 #@! TD*
D13*
G04 #@! TO.P,R11,2*
G04 #@! TO.N,/J1.5*
X19050000Y21590000D03*
D14*
G04 #@! TO.P,R11,1*
G04 #@! TO.N,/GPIO32*
X26670000Y21590000D03*
G04 #@! TD*
D10*
G04 #@! TO.P,C3,2*
G04 #@! TO.N,/GND*
X34250000Y35560000D03*
G04 #@! TO.P,C3,1*
G04 #@! TO.N,/ADC2*
X31750000Y35560000D03*
G04 #@! TD*
G04 #@! TO.P,C2,2*
G04 #@! TO.N,/GND*
X24170000Y35560000D03*
G04 #@! TO.P,C2,1*
G04 #@! TO.N,/ADC1*
X26670000Y35560000D03*
G04 #@! TD*
G04 #@! TO.P,C1,2*
G04 #@! TO.N,/GND*
X19010000Y35560000D03*
G04 #@! TO.P,C1,1*
G04 #@! TO.N,/ADC0*
X16510000Y35560000D03*
G04 #@! TD*
D11*
G04 #@! TO.P,#J9,10*
G04 #@! TO.N,/A3*
X40640000Y13970000D03*
G04 #@! TO.P,#J9,9*
G04 #@! TO.N,/A2*
X38100000Y13970000D03*
G04 #@! TO.P,#J9,8*
G04 #@! TO.N,/A1*
X35560000Y13970000D03*
G04 #@! TO.P,#J9,7*
G04 #@! TO.N,/A0*
X33020000Y13970000D03*
G04 #@! TO.P,#J9,6*
G04 #@! TO.N,/ALRT*
X30480000Y13970000D03*
G04 #@! TO.P,#J9,5*
G04 #@! TO.N,/ADDR*
X27940000Y13970000D03*
G04 #@! TO.P,#J9,4*
G04 #@! TO.N,/SDA*
X25400000Y13970000D03*
G04 #@! TO.P,#J9,3*
G04 #@! TO.N,/SCL*
X22860000Y13970000D03*
G04 #@! TO.P,#J9,2*
G04 #@! TO.N,/GND*
X20320000Y13970000D03*
D12*
G04 #@! TO.P,#J9,1*
G04 #@! TO.N,VCC*
X17780000Y13970000D03*
G04 #@! TD*
D13*
G04 #@! TO.P,R14,2*
G04 #@! TO.N,/ADC3*
X26670000Y25400000D03*
D14*
G04 #@! TO.P,R14,1*
G04 #@! TO.N,/GND*
X19050000Y25400000D03*
G04 #@! TD*
D11*
G04 #@! TO.P,J6,3*
G04 #@! TO.N,/J6.3*
X7620000Y30480000D03*
G04 #@! TO.P,J6,2*
G04 #@! TO.N,/J6.2*
X7620000Y33020000D03*
D12*
G04 #@! TO.P,J6,1*
G04 #@! TO.N,/GPIO12*
X7620000Y35560000D03*
G04 #@! TD*
D10*
G04 #@! TO.P,C8,2*
G04 #@! TO.N,/GND*
X44450000Y14010000D03*
G04 #@! TO.P,C8,1*
G04 #@! TO.N,VCC*
X44450000Y16510000D03*
G04 #@! TD*
D15*
G04 #@! TO.P,J7,4*
G04 #@! TO.N,/GND*
X52070000Y9240000D03*
G04 #@! TO.P,J7,3*
G04 #@! TO.N,/+3V3*
X52070000Y11240000D03*
G04 #@! TO.P,J7,2*
G04 #@! TO.N,/SDA*
X52070000Y13240000D03*
G04 #@! TO.P,J7,1*
G04 #@! TO.N,/SCL*
G04 #@! TA.AperFunction,ComponentPad*
G36*
G01*
X51444999Y15840000D02*
X52695001Y15840000D01*
G75*
G02*
X52945000Y15590001I0J-249999D01*
G01*
X52945000Y14889999D01*
G75*
G02*
X52695001Y14640000I-249999J0D01*
G01*
X51444999Y14640000D01*
G75*
G02*
X51195000Y14889999I0J249999D01*
G01*
X51195000Y15590001D01*
G75*
G02*
X51444999Y15840000I249999J0D01*
G01*
G37*
G04 #@! TD.AperFunction*
G04 #@! TD*
D10*
G04 #@! TO.P,C4,2*
G04 #@! TO.N,/GND*
X39410000Y35560000D03*
G04 #@! TO.P,C4,1*
G04 #@! TO.N,/ADC3*
X41910000Y35560000D03*
G04 #@! TD*
G04 #@! TO.P,C7,2*
G04 #@! TO.N,/GND*
X51125000Y19685000D03*
D16*
G04 #@! TO.P,C7,1*
G04 #@! TO.N,VCC*
X47625000Y19685000D03*
G04 #@! TD*
D17*
G04 #@! TO.P,JP1,2*
G04 #@! TO.N,/GND*
X53340000Y22860000D03*
G04 #@! TA.AperFunction,SMDPad,CuDef*
D18*
G04 #@! TO.P,JP1,3*
G04 #@! TO.N,GNDD*
G36*
X54089398Y21560000D02*
G01*
X54089398Y21535466D01*
X54084588Y21486635D01*
X54075016Y21438510D01*
X54060772Y21391555D01*
X54041995Y21346222D01*
X54018864Y21302949D01*
X53991604Y21262150D01*
X53960476Y21224221D01*
X53925779Y21189524D01*
X53887850Y21158396D01*
X53847051Y21131136D01*
X53803778Y21108005D01*
X53758445Y21089228D01*
X53711490Y21074984D01*
X53663365Y21065412D01*
X53614534Y21060602D01*
X53590000Y21060602D01*
X53590000Y21060000D01*
X53090000Y21060000D01*
X53090000Y21060602D01*
X53065466Y21060602D01*
X53016635Y21065412D01*
X52968510Y21074984D01*
X52921555Y21089228D01*
X52876222Y21108005D01*
X52832949Y21131136D01*
X52792150Y21158396D01*
X52754221Y21189524D01*
X52719524Y21224221D01*
X52688396Y21262150D01*
X52661136Y21302949D01*
X52638005Y21346222D01*
X52619228Y21391555D01*
X52604984Y21438510D01*
X52595412Y21486635D01*
X52590602Y21535466D01*
X52590602Y21560000D01*
X52590000Y21560000D01*
X52590000Y22110000D01*
X54090000Y22110000D01*
X54090000Y21560000D01*
X54089398Y21560000D01*
G37*
G04 #@! TD.AperFunction*
G04 #@! TA.AperFunction,SMDPad,CuDef*
G04 #@! TO.P,JP1,1*
G04 #@! TO.N,GNDA*
G36*
X52590000Y23610000D02*
G01*
X52590000Y24160000D01*
X52590602Y24160000D01*
X52590602Y24184534D01*
X52595412Y24233365D01*
X52604984Y24281490D01*
X52619228Y24328445D01*
X52638005Y24373778D01*
X52661136Y24417051D01*
X52688396Y24457850D01*
X52719524Y24495779D01*
X52754221Y24530476D01*
X52792150Y24561604D01*
X52832949Y24588864D01*
X52876222Y24611995D01*
X52921555Y24630772D01*
X52968510Y24645016D01*
X53016635Y24654588D01*
X53065466Y24659398D01*
X53090000Y24659398D01*
X53090000Y24660000D01*
X53590000Y24660000D01*
X53590000Y24659398D01*
X53614534Y24659398D01*
X53663365Y24654588D01*
X53711490Y24645016D01*
X53758445Y24630772D01*
X53803778Y24611995D01*
X53847051Y24588864D01*
X53887850Y24561604D01*
X53925779Y24530476D01*
X53960476Y24495779D01*
X53991604Y24457850D01*
X54018864Y24417051D01*
X54041995Y24373778D01*
X54060772Y24328445D01*
X54075016Y24281490D01*
X54084588Y24233365D01*
X54089398Y24184534D01*
X54089398Y24160000D01*
X54090000Y24160000D01*
X54090000Y23610000D01*
X52590000Y23610000D01*
G37*
G04 #@! TD.AperFunction*
G04 #@! TD*
D11*
G04 #@! TO.P,J5,12*
G04 #@! TO.N,/GND*
X15240000Y10160000D03*
G04 #@! TO.P,J5,11*
X17780000Y10160000D03*
G04 #@! TO.P,J5,10*
G04 #@! TO.N,/SDA*
X20320000Y10160000D03*
G04 #@! TO.P,J5,9*
G04 #@! TO.N,/SCL*
X22860000Y10160000D03*
G04 #@! TO.P,J5,8*
G04 #@! TO.N,/GPIO17*
X25400000Y10160000D03*
G04 #@! TO.P,J5,7*
G04 #@! TO.N,/GPIO2*
X27940000Y10160000D03*
G04 #@! TO.P,J5,6*
G04 #@! TO.N,/GPIO15*
X30480000Y10160000D03*
G04 #@! TO.P,J5,5*
G04 #@! TO.N,/GPIO13*
X33020000Y10160000D03*
G04 #@! TO.P,J5,4*
G04 #@! TO.N,/GPIO12*
X35560000Y10160000D03*
G04 #@! TO.P,J5,3*
G04 #@! TO.N,/GND*
X38100000Y10160000D03*
G04 #@! TO.P,J5,2*
X40640000Y10160000D03*
D12*
G04 #@! TO.P,J5,1*
G04 #@! TO.N,/+3V3*
X43180000Y10160000D03*
G04 #@! TD*
D11*
G04 #@! TO.P,J4,12*
G04 #@! TO.N,/+3V3*
X15240000Y33020000D03*
G04 #@! TO.P,J4,11*
G04 #@! TO.N,/ADC0*
X17780000Y33020000D03*
G04 #@! TO.P,J4,10*
G04 #@! TO.N,/ADC1*
X20320000Y33020000D03*
G04 #@! TO.P,J4,9*
G04 #@! TO.N,/ADC2*
X22860000Y33020000D03*
G04 #@! TO.P,J4,8*
G04 #@! TO.N,/ADC3*
X25400000Y33020000D03*
G04 #@! TO.P,J4,7*
G04 #@! TO.N,/GPIO32*
X27940000Y33020000D03*
G04 #@! TO.P,J4,6*
G04 #@! TO.N,/GPIO33*
X30480000Y33020000D03*
G04 #@! TO.P,J4,5*
G04 #@! TO.N,/GPIO25*
X33020000Y33020000D03*
G04 #@! TO.P,J4,4*
G04 #@! TO.N,/GPIO26*
X35560000Y33020000D03*
G04 #@! TO.P,J4,3*
G04 #@! TO.N,/GPIO27*
X38100000Y33020000D03*
G04 #@! TO.P,J4,2*
G04 #@! TO.N,/GND*
X40640000Y33020000D03*
D12*
G04 #@! TO.P,J4,1*
G04 #@! TO.N,VCC*
X43180000Y33020000D03*
G04 #@! TD*
D11*
G04 #@! TO.P,J2,8*
G04 #@! TO.N,/GPIO13*
X55880000Y10160000D03*
G04 #@! TO.P,J2,7*
G04 #@! TO.N,/GPIO17*
X55880000Y12700000D03*
G04 #@! TO.P,J2,6*
G04 #@! TO.N,VCC*
X55880000Y15240000D03*
G04 #@! TO.P,J2,5*
X55880000Y17780000D03*
G04 #@! TO.P,J2,4*
G04 #@! TO.N,GNDD*
X55880000Y20320000D03*
G04 #@! TO.P,J2,3*
X55880000Y22860000D03*
G04 #@! TO.P,J2,2*
G04 #@! TO.N,GNDA*
X55880000Y25400000D03*
D12*
G04 #@! TO.P,J2,1*
X55880000Y27940000D03*
G04 #@! TD*
D11*
G04 #@! TO.P,J1,8*
G04 #@! TO.N,/J1.8*
X7620000Y10160000D03*
G04 #@! TO.P,J1,7*
G04 #@! TO.N,/J1.7*
X7620000Y12700000D03*
G04 #@! TO.P,J1,6*
G04 #@! TO.N,/J1.6*
X7620000Y15240000D03*
G04 #@! TO.P,J1,5*
G04 #@! TO.N,/J1.5*
X7620000Y17780000D03*
G04 #@! TO.P,J1,4*
G04 #@! TO.N,/J1.4*
X7620000Y20320000D03*
G04 #@! TO.P,J1,3*
G04 #@! TO.N,/J1.3*
X7620000Y22860000D03*
G04 #@! TO.P,J1,2*
G04 #@! TO.N,/J1.2*
X7620000Y25400000D03*
D12*
G04 #@! TO.P,J1,1*
G04 #@! TO.N,/J1.1*
X7620000Y27940000D03*
G04 #@! TD*
M02*
