G04 #@! TF.GenerationSoftware,KiCad,Pcbnew,(5.1.6-0-10_14)*
G04 #@! TF.CreationDate,2021-08-21T17:12:07+01:00*
G04 #@! TF.ProjectId,JuntekOnSteroidsTTGO,4a756e74-656b-44f6-9e53-7465726f6964,2.4*
G04 #@! TF.SameCoordinates,PX5b716c8PY5b716c8*
G04 #@! TF.FileFunction,Legend,Top*
G04 #@! TF.FilePolarity,Positive*
%FSLAX46Y46*%
G04 Gerber Fmt 4.6, Leading zero omitted, Abs format (unit mm)*
G04 Created by KiCad (PCBNEW (5.1.6-0-10_14)) date 2021-08-21 17:12:07*
%MOMM*%
%LPD*%
G01*
G04 APERTURE LIST*
%ADD10C,0.150000*%
%ADD11C,0.120000*%
G04 APERTURE END LIST*
D10*
X55697380Y8548810D02*
X54697380Y8548810D01*
X54792619Y8977381D02*
X54745000Y9025000D01*
X54697380Y9120239D01*
X54697380Y9358334D01*
X54745000Y9453572D01*
X54792619Y9501191D01*
X54887857Y9548810D01*
X54983095Y9548810D01*
X55125952Y9501191D01*
X55697380Y8929762D01*
X55697380Y9548810D01*
X55602142Y10548810D02*
X55649761Y10501191D01*
X55697380Y10358334D01*
X55697380Y10263096D01*
X55649761Y10120239D01*
X55554523Y10025000D01*
X55459285Y9977381D01*
X55268809Y9929762D01*
X55125952Y9929762D01*
X54935476Y9977381D01*
X54840238Y10025000D01*
X54745000Y10120239D01*
X54697380Y10263096D01*
X54697380Y10358334D01*
X54745000Y10501191D01*
X54792619Y10548810D01*
X26759523Y15106667D02*
X27140476Y15106667D01*
X26683333Y14878096D02*
X26950000Y15678096D01*
X27216666Y14878096D01*
X27483333Y14878096D02*
X27483333Y15678096D01*
X27673809Y15678096D01*
X27788095Y15640000D01*
X27864285Y15563810D01*
X27902380Y15487620D01*
X27940476Y15335239D01*
X27940476Y15220953D01*
X27902380Y15068572D01*
X27864285Y14992381D01*
X27788095Y14916191D01*
X27673809Y14878096D01*
X27483333Y14878096D01*
X28740476Y14954286D02*
X28702380Y14916191D01*
X28588095Y14878096D01*
X28511904Y14878096D01*
X28397619Y14916191D01*
X28321428Y14992381D01*
X28283333Y15068572D01*
X28245238Y15220953D01*
X28245238Y15335239D01*
X28283333Y15487620D01*
X28321428Y15563810D01*
X28397619Y15640000D01*
X28511904Y15678096D01*
X28588095Y15678096D01*
X28702380Y15640000D01*
X28740476Y15601905D01*
X29502380Y14878096D02*
X29045238Y14878096D01*
X29273809Y14878096D02*
X29273809Y15678096D01*
X29197619Y15563810D01*
X29121428Y15487620D01*
X29045238Y15449524D01*
X30264285Y14878096D02*
X29807142Y14878096D01*
X30035714Y14878096D02*
X30035714Y15678096D01*
X29959523Y15563810D01*
X29883333Y15487620D01*
X29807142Y15449524D01*
X31026190Y14878096D02*
X30569047Y14878096D01*
X30797619Y14878096D02*
X30797619Y15678096D01*
X30721428Y15563810D01*
X30645238Y15487620D01*
X30569047Y15449524D01*
X31750000Y15678096D02*
X31369047Y15678096D01*
X31330952Y15297143D01*
X31369047Y15335239D01*
X31445238Y15373334D01*
X31635714Y15373334D01*
X31711904Y15335239D01*
X31750000Y15297143D01*
X31788095Y15220953D01*
X31788095Y15030477D01*
X31750000Y14954286D01*
X31711904Y14916191D01*
X31635714Y14878096D01*
X31445238Y14878096D01*
X31369047Y14916191D01*
X31330952Y14954286D01*
X32740476Y14878096D02*
X32740476Y15411429D01*
X32740476Y15335239D02*
X32778571Y15373334D01*
X32854761Y15411429D01*
X32969047Y15411429D01*
X33045238Y15373334D01*
X33083333Y15297143D01*
X33083333Y14878096D01*
X33083333Y15297143D02*
X33121428Y15373334D01*
X33197619Y15411429D01*
X33311904Y15411429D01*
X33388095Y15373334D01*
X33426190Y15297143D01*
X33426190Y14878096D01*
X33921428Y14878096D02*
X33845238Y14916191D01*
X33807142Y14954286D01*
X33769047Y15030477D01*
X33769047Y15259048D01*
X33807142Y15335239D01*
X33845238Y15373334D01*
X33921428Y15411429D01*
X34035714Y15411429D01*
X34111904Y15373334D01*
X34150000Y15335239D01*
X34188095Y15259048D01*
X34188095Y15030477D01*
X34150000Y14954286D01*
X34111904Y14916191D01*
X34035714Y14878096D01*
X33921428Y14878096D01*
X34873809Y14878096D02*
X34873809Y15678096D01*
X34873809Y14916191D02*
X34797619Y14878096D01*
X34645238Y14878096D01*
X34569047Y14916191D01*
X34530952Y14954286D01*
X34492857Y15030477D01*
X34492857Y15259048D01*
X34530952Y15335239D01*
X34569047Y15373334D01*
X34645238Y15411429D01*
X34797619Y15411429D01*
X34873809Y15373334D01*
X35597619Y15411429D02*
X35597619Y14878096D01*
X35254761Y15411429D02*
X35254761Y14992381D01*
X35292857Y14916191D01*
X35369047Y14878096D01*
X35483333Y14878096D01*
X35559523Y14916191D01*
X35597619Y14954286D01*
X36092857Y14878096D02*
X36016666Y14916191D01*
X35978571Y14992381D01*
X35978571Y15678096D01*
X36702380Y14916191D02*
X36626190Y14878096D01*
X36473809Y14878096D01*
X36397619Y14916191D01*
X36359523Y14992381D01*
X36359523Y15297143D01*
X36397619Y15373334D01*
X36473809Y15411429D01*
X36626190Y15411429D01*
X36702380Y15373334D01*
X36740476Y15297143D01*
X36740476Y15220953D01*
X36359523Y15144762D01*
X20124047Y7042143D02*
X20390714Y7042143D01*
X20505000Y6623096D02*
X20124047Y6623096D01*
X20124047Y7423096D01*
X20505000Y7423096D01*
X20809761Y6661191D02*
X20924047Y6623096D01*
X21114523Y6623096D01*
X21190714Y6661191D01*
X21228809Y6699286D01*
X21266904Y6775477D01*
X21266904Y6851667D01*
X21228809Y6927858D01*
X21190714Y6965953D01*
X21114523Y7004048D01*
X20962142Y7042143D01*
X20885952Y7080239D01*
X20847857Y7118334D01*
X20809761Y7194524D01*
X20809761Y7270715D01*
X20847857Y7346905D01*
X20885952Y7385000D01*
X20962142Y7423096D01*
X21152619Y7423096D01*
X21266904Y7385000D01*
X21609761Y6623096D02*
X21609761Y7423096D01*
X21914523Y7423096D01*
X21990714Y7385000D01*
X22028809Y7346905D01*
X22066904Y7270715D01*
X22066904Y7156429D01*
X22028809Y7080239D01*
X21990714Y7042143D01*
X21914523Y7004048D01*
X21609761Y7004048D01*
X22333571Y7423096D02*
X22828809Y7423096D01*
X22562142Y7118334D01*
X22676428Y7118334D01*
X22752619Y7080239D01*
X22790714Y7042143D01*
X22828809Y6965953D01*
X22828809Y6775477D01*
X22790714Y6699286D01*
X22752619Y6661191D01*
X22676428Y6623096D01*
X22447857Y6623096D01*
X22371666Y6661191D01*
X22333571Y6699286D01*
X23133571Y7346905D02*
X23171666Y7385000D01*
X23247857Y7423096D01*
X23438333Y7423096D01*
X23514523Y7385000D01*
X23552619Y7346905D01*
X23590714Y7270715D01*
X23590714Y7194524D01*
X23552619Y7080239D01*
X23095476Y6623096D01*
X23590714Y6623096D01*
X24428809Y7423096D02*
X24885952Y7423096D01*
X24657380Y6623096D02*
X24657380Y7423096D01*
X25038333Y7423096D02*
X25495476Y7423096D01*
X25266904Y6623096D02*
X25266904Y7423096D01*
X26181190Y7385000D02*
X26105000Y7423096D01*
X25990714Y7423096D01*
X25876428Y7385000D01*
X25800238Y7308810D01*
X25762142Y7232620D01*
X25724047Y7080239D01*
X25724047Y6965953D01*
X25762142Y6813572D01*
X25800238Y6737381D01*
X25876428Y6661191D01*
X25990714Y6623096D01*
X26066904Y6623096D01*
X26181190Y6661191D01*
X26219285Y6699286D01*
X26219285Y6965953D01*
X26066904Y6965953D01*
X26714523Y7423096D02*
X26866904Y7423096D01*
X26943095Y7385000D01*
X27019285Y7308810D01*
X27057380Y7156429D01*
X27057380Y6889762D01*
X27019285Y6737381D01*
X26943095Y6661191D01*
X26866904Y6623096D01*
X26714523Y6623096D01*
X26638333Y6661191D01*
X26562142Y6737381D01*
X26524047Y6889762D01*
X26524047Y7156429D01*
X26562142Y7308810D01*
X26638333Y7385000D01*
X26714523Y7423096D01*
X27895476Y7423096D02*
X28352619Y7423096D01*
X28124047Y6623096D02*
X28124047Y7423096D01*
X28885952Y7042143D02*
X28619285Y7042143D01*
X28619285Y6623096D02*
X28619285Y7423096D01*
X29000238Y7423096D01*
X29190714Y7423096D02*
X29647857Y7423096D01*
X29419285Y6623096D02*
X29419285Y7423096D01*
X30524047Y6623096D02*
X30524047Y7156429D01*
X30524047Y7080239D02*
X30562142Y7118334D01*
X30638333Y7156429D01*
X30752619Y7156429D01*
X30828809Y7118334D01*
X30866904Y7042143D01*
X30866904Y6623096D01*
X30866904Y7042143D02*
X30905000Y7118334D01*
X30981190Y7156429D01*
X31095476Y7156429D01*
X31171666Y7118334D01*
X31209761Y7042143D01*
X31209761Y6623096D01*
X31705000Y6623096D02*
X31628809Y6661191D01*
X31590714Y6699286D01*
X31552619Y6775477D01*
X31552619Y7004048D01*
X31590714Y7080239D01*
X31628809Y7118334D01*
X31705000Y7156429D01*
X31819285Y7156429D01*
X31895476Y7118334D01*
X31933571Y7080239D01*
X31971666Y7004048D01*
X31971666Y6775477D01*
X31933571Y6699286D01*
X31895476Y6661191D01*
X31819285Y6623096D01*
X31705000Y6623096D01*
X32657380Y6623096D02*
X32657380Y7423096D01*
X32657380Y6661191D02*
X32581190Y6623096D01*
X32428809Y6623096D01*
X32352619Y6661191D01*
X32314523Y6699286D01*
X32276428Y6775477D01*
X32276428Y7004048D01*
X32314523Y7080239D01*
X32352619Y7118334D01*
X32428809Y7156429D01*
X32581190Y7156429D01*
X32657380Y7118334D01*
X33381190Y7156429D02*
X33381190Y6623096D01*
X33038333Y7156429D02*
X33038333Y6737381D01*
X33076428Y6661191D01*
X33152619Y6623096D01*
X33266904Y6623096D01*
X33343095Y6661191D01*
X33381190Y6699286D01*
X33876428Y6623096D02*
X33800238Y6661191D01*
X33762142Y6737381D01*
X33762142Y7423096D01*
X34485952Y6661191D02*
X34409761Y6623096D01*
X34257380Y6623096D01*
X34181190Y6661191D01*
X34143095Y6737381D01*
X34143095Y7042143D01*
X34181190Y7118334D01*
X34257380Y7156429D01*
X34409761Y7156429D01*
X34485952Y7118334D01*
X34524047Y7042143D01*
X34524047Y6965953D01*
X34143095Y6889762D01*
X8917142Y9253572D02*
X8717142Y9539286D01*
X8574285Y9253572D02*
X8574285Y9853572D01*
X8802857Y9853572D01*
X8860000Y9825000D01*
X8888571Y9796429D01*
X8917142Y9739286D01*
X8917142Y9653572D01*
X8888571Y9596429D01*
X8860000Y9567858D01*
X8802857Y9539286D01*
X8574285Y9539286D01*
X9402857Y9282143D02*
X9345714Y9253572D01*
X9231428Y9253572D01*
X9174285Y9282143D01*
X9145714Y9339286D01*
X9145714Y9567858D01*
X9174285Y9625000D01*
X9231428Y9653572D01*
X9345714Y9653572D01*
X9402857Y9625000D01*
X9431428Y9567858D01*
X9431428Y9510715D01*
X9145714Y9453572D01*
X9631428Y9653572D02*
X9774285Y9253572D01*
X9917142Y9653572D01*
X10574285Y9796429D02*
X10602857Y9825000D01*
X10660000Y9853572D01*
X10802857Y9853572D01*
X10860000Y9825000D01*
X10888571Y9796429D01*
X10917142Y9739286D01*
X10917142Y9682143D01*
X10888571Y9596429D01*
X10545714Y9253572D01*
X10917142Y9253572D01*
X11174285Y9310715D02*
X11202857Y9282143D01*
X11174285Y9253572D01*
X11145714Y9282143D01*
X11174285Y9310715D01*
X11174285Y9253572D01*
X11717142Y9653572D02*
X11717142Y9253572D01*
X11574285Y9882143D02*
X11431428Y9453572D01*
X11802857Y9453572D01*
D11*
G04 #@! TO.C,J21*
X9355000Y16450000D02*
X9355000Y26730000D01*
X9355000Y26730000D02*
X6695000Y26730000D01*
X6695000Y26730000D02*
X6695000Y16450000D01*
X6695000Y16450000D02*
X9355000Y16450000D01*
X6695000Y17400000D02*
X695000Y17400000D01*
X695000Y17400000D02*
X695000Y18160000D01*
X695000Y18160000D02*
X6695000Y18160000D01*
X6695000Y17460000D02*
X695000Y17460000D01*
X6695000Y17580000D02*
X695000Y17580000D01*
X6695000Y17700000D02*
X695000Y17700000D01*
X6695000Y17820000D02*
X695000Y17820000D01*
X6695000Y17940000D02*
X695000Y17940000D01*
X6695000Y18060000D02*
X695000Y18060000D01*
X9752071Y17400000D02*
X9355000Y17400000D01*
X9752071Y18160000D02*
X9355000Y18160000D01*
X12225000Y17400000D02*
X11837929Y17400000D01*
X12225000Y18160000D02*
X11837929Y18160000D01*
X9355000Y19050000D02*
X6695000Y19050000D01*
X6695000Y19940000D02*
X695000Y19940000D01*
X695000Y19940000D02*
X695000Y20700000D01*
X695000Y20700000D02*
X6695000Y20700000D01*
X9752071Y19940000D02*
X9355000Y19940000D01*
X9752071Y20700000D02*
X9355000Y20700000D01*
X12292071Y19940000D02*
X11837929Y19940000D01*
X12292071Y20700000D02*
X11837929Y20700000D01*
X9355000Y21590000D02*
X6695000Y21590000D01*
X6695000Y22480000D02*
X695000Y22480000D01*
X695000Y22480000D02*
X695000Y23240000D01*
X695000Y23240000D02*
X6695000Y23240000D01*
X9752071Y22480000D02*
X9355000Y22480000D01*
X9752071Y23240000D02*
X9355000Y23240000D01*
X12292071Y22480000D02*
X11837929Y22480000D01*
X12292071Y23240000D02*
X11837929Y23240000D01*
X9355000Y24130000D02*
X6695000Y24130000D01*
X6695000Y25020000D02*
X695000Y25020000D01*
X695000Y25020000D02*
X695000Y25780000D01*
X695000Y25780000D02*
X6695000Y25780000D01*
X9752071Y25020000D02*
X9355000Y25020000D01*
X9752071Y25780000D02*
X9355000Y25780000D01*
X12292071Y25020000D02*
X11837929Y25020000D01*
X12292071Y25780000D02*
X11837929Y25780000D01*
X14605000Y17780000D02*
X14605000Y16510000D01*
X14605000Y16510000D02*
X13335000Y16510000D01*
G04 #@! TO.C,J61*
X9355000Y29150000D02*
X9355000Y34350000D01*
X9355000Y34350000D02*
X6695000Y34350000D01*
X6695000Y34350000D02*
X6695000Y29150000D01*
X6695000Y29150000D02*
X9355000Y29150000D01*
X6695000Y30100000D02*
X695000Y30100000D01*
X695000Y30100000D02*
X695000Y30860000D01*
X695000Y30860000D02*
X6695000Y30860000D01*
X6695000Y30160000D02*
X695000Y30160000D01*
X6695000Y30280000D02*
X695000Y30280000D01*
X6695000Y30400000D02*
X695000Y30400000D01*
X6695000Y30520000D02*
X695000Y30520000D01*
X6695000Y30640000D02*
X695000Y30640000D01*
X6695000Y30760000D02*
X695000Y30760000D01*
X9685000Y30100000D02*
X9355000Y30100000D01*
X9685000Y30860000D02*
X9355000Y30860000D01*
X9355000Y31750000D02*
X6695000Y31750000D01*
X6695000Y32640000D02*
X695000Y32640000D01*
X695000Y32640000D02*
X695000Y33400000D01*
X695000Y33400000D02*
X6695000Y33400000D01*
X9752071Y32640000D02*
X9355000Y32640000D01*
X9752071Y33400000D02*
X9355000Y33400000D01*
X12065000Y30480000D02*
X12065000Y29210000D01*
X12065000Y29210000D02*
X10795000Y29210000D01*
G04 #@! TO.C,J22*
X9355000Y10735000D02*
X9355000Y15935000D01*
X9355000Y15935000D02*
X6695000Y15935000D01*
X6695000Y15935000D02*
X6695000Y10735000D01*
X6695000Y10735000D02*
X9355000Y10735000D01*
X6695000Y11685000D02*
X695000Y11685000D01*
X695000Y11685000D02*
X695000Y12445000D01*
X695000Y12445000D02*
X6695000Y12445000D01*
X6695000Y11745000D02*
X695000Y11745000D01*
X6695000Y11865000D02*
X695000Y11865000D01*
X6695000Y11985000D02*
X695000Y11985000D01*
X6695000Y12105000D02*
X695000Y12105000D01*
X6695000Y12225000D02*
X695000Y12225000D01*
X6695000Y12345000D02*
X695000Y12345000D01*
X9685000Y11685000D02*
X9355000Y11685000D01*
X9685000Y12445000D02*
X9355000Y12445000D01*
X9355000Y13335000D02*
X6695000Y13335000D01*
X6695000Y14225000D02*
X695000Y14225000D01*
X695000Y14225000D02*
X695000Y14985000D01*
X695000Y14985000D02*
X6695000Y14985000D01*
X9752071Y14225000D02*
X9355000Y14225000D01*
X9752071Y14985000D02*
X9355000Y14985000D01*
X12065000Y12065000D02*
X12065000Y10795000D01*
X12065000Y10795000D02*
X10795000Y10795000D01*
G04 #@! TO.C,C6*
X46070000Y8876000D02*
X46070000Y10134000D01*
X47910000Y8876000D02*
X47910000Y10134000D01*
G04 #@! TO.C,C5*
X16484000Y34005000D02*
X15226000Y34005000D01*
X16484000Y35845000D02*
X15226000Y35845000D01*
G04 #@! TO.C,R20*
X20940000Y29495000D02*
X20940000Y27655000D01*
X20940000Y27655000D02*
X24780000Y27655000D01*
X24780000Y27655000D02*
X24780000Y29495000D01*
X24780000Y29495000D02*
X20940000Y29495000D01*
X19990000Y28575000D02*
X20940000Y28575000D01*
X25730000Y28575000D02*
X24780000Y28575000D01*
G04 #@! TO.C,R19*
X33640000Y21875000D02*
X33640000Y20035000D01*
X33640000Y20035000D02*
X37480000Y20035000D01*
X37480000Y20035000D02*
X37480000Y21875000D01*
X37480000Y21875000D02*
X33640000Y21875000D01*
X32690000Y20955000D02*
X33640000Y20955000D01*
X38430000Y20955000D02*
X37480000Y20955000D01*
G04 #@! TO.C,R18*
X20940000Y18065000D02*
X20940000Y16225000D01*
X20940000Y16225000D02*
X24780000Y16225000D01*
X24780000Y16225000D02*
X24780000Y18065000D01*
X24780000Y18065000D02*
X20940000Y18065000D01*
X19990000Y17145000D02*
X20940000Y17145000D01*
X25730000Y17145000D02*
X24780000Y17145000D01*
G04 #@! TO.C,R17*
X33640000Y18065000D02*
X33640000Y16225000D01*
X33640000Y16225000D02*
X37480000Y16225000D01*
X37480000Y16225000D02*
X37480000Y18065000D01*
X37480000Y18065000D02*
X33640000Y18065000D01*
X32690000Y17145000D02*
X33640000Y17145000D01*
X38430000Y17145000D02*
X37480000Y17145000D01*
G04 #@! TO.C,R16*
X24780000Y20035000D02*
X24780000Y21875000D01*
X24780000Y21875000D02*
X20940000Y21875000D01*
X20940000Y21875000D02*
X20940000Y20035000D01*
X20940000Y20035000D02*
X24780000Y20035000D01*
X25730000Y20955000D02*
X24780000Y20955000D01*
X19990000Y20955000D02*
X20940000Y20955000D01*
G04 #@! TO.C,R15*
X42260000Y22845000D02*
X44100000Y22845000D01*
X44100000Y22845000D02*
X44100000Y26685000D01*
X44100000Y26685000D02*
X42260000Y26685000D01*
X42260000Y26685000D02*
X42260000Y22845000D01*
X43180000Y21895000D02*
X43180000Y22845000D01*
X43180000Y27635000D02*
X43180000Y26685000D01*
G04 #@! TO.C,R12*
X37480000Y27655000D02*
X37480000Y29495000D01*
X37480000Y29495000D02*
X33640000Y29495000D01*
X33640000Y29495000D02*
X33640000Y27655000D01*
X33640000Y27655000D02*
X37480000Y27655000D01*
X38430000Y28575000D02*
X37480000Y28575000D01*
X32690000Y28575000D02*
X33640000Y28575000D01*
G04 #@! TO.C,R11*
X37480000Y23845000D02*
X37480000Y25685000D01*
X37480000Y25685000D02*
X33640000Y25685000D01*
X33640000Y25685000D02*
X33640000Y23845000D01*
X33640000Y23845000D02*
X37480000Y23845000D01*
X38430000Y24765000D02*
X37480000Y24765000D01*
X32690000Y24765000D02*
X33640000Y24765000D01*
G04 #@! TO.C,C3*
X37491000Y35845000D02*
X38749000Y35845000D01*
X37491000Y34005000D02*
X38749000Y34005000D01*
G04 #@! TO.C,C2*
X31129000Y34005000D02*
X29871000Y34005000D01*
X31129000Y35845000D02*
X29871000Y35845000D01*
G04 #@! TO.C,C1*
X22211000Y35845000D02*
X23469000Y35845000D01*
X22211000Y34005000D02*
X23469000Y34005000D01*
G04 #@! TO.C,#J9*
X19050000Y12005000D02*
X19050000Y14665000D01*
X19050000Y12005000D02*
X41970000Y12005000D01*
X41970000Y12005000D02*
X41970000Y14665000D01*
X19050000Y14665000D02*
X41970000Y14665000D01*
X16450000Y14665000D02*
X17780000Y14665000D01*
X16450000Y13335000D02*
X16450000Y14665000D01*
G04 #@! TO.C,R14*
X20940000Y25685000D02*
X20940000Y23845000D01*
X20940000Y23845000D02*
X24780000Y23845000D01*
X24780000Y23845000D02*
X24780000Y25685000D01*
X24780000Y25685000D02*
X20940000Y25685000D01*
X19990000Y24765000D02*
X20940000Y24765000D01*
X25730000Y24765000D02*
X24780000Y24765000D01*
G04 #@! TO.C,C8*
X45370000Y15889000D02*
X45370000Y14631000D01*
X43530000Y15889000D02*
X43530000Y14631000D01*
G04 #@! TO.C,J7*
X54180000Y17600000D02*
X52930000Y17600000D01*
X54180000Y16350000D02*
X54180000Y17600000D01*
X49770000Y10240000D02*
X50270000Y10240000D01*
X50270000Y10140000D02*
X49770000Y10140000D01*
X50270000Y10340000D02*
X50270000Y10140000D01*
X49770000Y10340000D02*
X50270000Y10340000D01*
X49770000Y12240000D02*
X50270000Y12240000D01*
X50270000Y12140000D02*
X49770000Y12140000D01*
X50270000Y12340000D02*
X50270000Y12140000D01*
X49770000Y12340000D02*
X50270000Y12340000D01*
X49770000Y14240000D02*
X50270000Y14240000D01*
X50270000Y14140000D02*
X49770000Y14140000D01*
X50270000Y14340000D02*
X50270000Y14140000D01*
X49770000Y14340000D02*
X50270000Y14340000D01*
X51270000Y7180000D02*
X51270000Y7790000D01*
X52570000Y7180000D02*
X52570000Y7790000D01*
X51270000Y17300000D02*
X51270000Y16690000D01*
X52570000Y17300000D02*
X52570000Y16690000D01*
X53270000Y9740000D02*
X53880000Y9740000D01*
X53270000Y7790000D02*
X53270000Y9740000D01*
X49770000Y7790000D02*
X53270000Y7790000D01*
X49770000Y16690000D02*
X49770000Y7790000D01*
X53270000Y16690000D02*
X49770000Y16690000D01*
X53270000Y14740000D02*
X53270000Y16690000D01*
X53880000Y14740000D02*
X53270000Y14740000D01*
X53980000Y15540000D02*
X53980000Y15840000D01*
X54080000Y15840000D02*
X53880000Y15840000D01*
X54080000Y15540000D02*
X54080000Y15840000D01*
X53880000Y15540000D02*
X54080000Y15540000D01*
X53880000Y7180000D02*
X53880000Y17300000D01*
X49160000Y7180000D02*
X53880000Y7180000D01*
X49160000Y17300000D02*
X49160000Y7180000D01*
X53880000Y17300000D02*
X49160000Y17300000D01*
G04 #@! TO.C,C4*
X46329000Y34005000D02*
X45071000Y34005000D01*
X46329000Y35845000D02*
X45071000Y35845000D01*
G04 #@! TO.C,C7*
X53495000Y19685000D02*
G75*
G03*
X53495000Y19685000I-4120000J0D01*
G01*
X49375000Y23765000D02*
X49375000Y15605000D01*
X49415000Y23765000D02*
X49415000Y15605000D01*
X49455000Y23765000D02*
X49455000Y15605000D01*
X49495000Y23764000D02*
X49495000Y15606000D01*
X49535000Y23762000D02*
X49535000Y15608000D01*
X49575000Y23761000D02*
X49575000Y15609000D01*
X49615000Y23759000D02*
X49615000Y15611000D01*
X49655000Y23756000D02*
X49655000Y15614000D01*
X49695000Y23753000D02*
X49695000Y15617000D01*
X49735000Y23750000D02*
X49735000Y15620000D01*
X49775000Y23746000D02*
X49775000Y15624000D01*
X49815000Y23742000D02*
X49815000Y15628000D01*
X49855000Y23737000D02*
X49855000Y15633000D01*
X49895000Y23733000D02*
X49895000Y15637000D01*
X49935000Y23727000D02*
X49935000Y15643000D01*
X49975000Y23722000D02*
X49975000Y15648000D01*
X50015000Y23715000D02*
X50015000Y15655000D01*
X50055000Y23709000D02*
X50055000Y15661000D01*
X50096000Y23702000D02*
X50096000Y20725000D01*
X50096000Y18645000D02*
X50096000Y15668000D01*
X50136000Y23695000D02*
X50136000Y20725000D01*
X50136000Y18645000D02*
X50136000Y15675000D01*
X50176000Y23687000D02*
X50176000Y20725000D01*
X50176000Y18645000D02*
X50176000Y15683000D01*
X50216000Y23679000D02*
X50216000Y20725000D01*
X50216000Y18645000D02*
X50216000Y15691000D01*
X50256000Y23670000D02*
X50256000Y20725000D01*
X50256000Y18645000D02*
X50256000Y15700000D01*
X50296000Y23661000D02*
X50296000Y20725000D01*
X50296000Y18645000D02*
X50296000Y15709000D01*
X50336000Y23652000D02*
X50336000Y20725000D01*
X50336000Y18645000D02*
X50336000Y15718000D01*
X50376000Y23642000D02*
X50376000Y20725000D01*
X50376000Y18645000D02*
X50376000Y15728000D01*
X50416000Y23632000D02*
X50416000Y20725000D01*
X50416000Y18645000D02*
X50416000Y15738000D01*
X50456000Y23621000D02*
X50456000Y20725000D01*
X50456000Y18645000D02*
X50456000Y15749000D01*
X50496000Y23610000D02*
X50496000Y20725000D01*
X50496000Y18645000D02*
X50496000Y15760000D01*
X50536000Y23599000D02*
X50536000Y20725000D01*
X50536000Y18645000D02*
X50536000Y15771000D01*
X50576000Y23587000D02*
X50576000Y20725000D01*
X50576000Y18645000D02*
X50576000Y15783000D01*
X50616000Y23574000D02*
X50616000Y20725000D01*
X50616000Y18645000D02*
X50616000Y15796000D01*
X50656000Y23562000D02*
X50656000Y20725000D01*
X50656000Y18645000D02*
X50656000Y15808000D01*
X50696000Y23548000D02*
X50696000Y20725000D01*
X50696000Y18645000D02*
X50696000Y15822000D01*
X50736000Y23535000D02*
X50736000Y20725000D01*
X50736000Y18645000D02*
X50736000Y15835000D01*
X50776000Y23520000D02*
X50776000Y20725000D01*
X50776000Y18645000D02*
X50776000Y15850000D01*
X50816000Y23506000D02*
X50816000Y20725000D01*
X50816000Y18645000D02*
X50816000Y15864000D01*
X50856000Y23490000D02*
X50856000Y20725000D01*
X50856000Y18645000D02*
X50856000Y15880000D01*
X50896000Y23475000D02*
X50896000Y20725000D01*
X50896000Y18645000D02*
X50896000Y15895000D01*
X50936000Y23459000D02*
X50936000Y20725000D01*
X50936000Y18645000D02*
X50936000Y15911000D01*
X50976000Y23442000D02*
X50976000Y20725000D01*
X50976000Y18645000D02*
X50976000Y15928000D01*
X51016000Y23425000D02*
X51016000Y20725000D01*
X51016000Y18645000D02*
X51016000Y15945000D01*
X51056000Y23407000D02*
X51056000Y20725000D01*
X51056000Y18645000D02*
X51056000Y15963000D01*
X51096000Y23389000D02*
X51096000Y20725000D01*
X51096000Y18645000D02*
X51096000Y15981000D01*
X51136000Y23371000D02*
X51136000Y20725000D01*
X51136000Y18645000D02*
X51136000Y15999000D01*
X51176000Y23351000D02*
X51176000Y20725000D01*
X51176000Y18645000D02*
X51176000Y16019000D01*
X51216000Y23332000D02*
X51216000Y20725000D01*
X51216000Y18645000D02*
X51216000Y16038000D01*
X51256000Y23312000D02*
X51256000Y20725000D01*
X51256000Y18645000D02*
X51256000Y16058000D01*
X51296000Y23291000D02*
X51296000Y20725000D01*
X51296000Y18645000D02*
X51296000Y16079000D01*
X51336000Y23269000D02*
X51336000Y20725000D01*
X51336000Y18645000D02*
X51336000Y16101000D01*
X51376000Y23247000D02*
X51376000Y20725000D01*
X51376000Y18645000D02*
X51376000Y16123000D01*
X51416000Y23225000D02*
X51416000Y20725000D01*
X51416000Y18645000D02*
X51416000Y16145000D01*
X51456000Y23202000D02*
X51456000Y20725000D01*
X51456000Y18645000D02*
X51456000Y16168000D01*
X51496000Y23178000D02*
X51496000Y20725000D01*
X51496000Y18645000D02*
X51496000Y16192000D01*
X51536000Y23154000D02*
X51536000Y20725000D01*
X51536000Y18645000D02*
X51536000Y16216000D01*
X51576000Y23129000D02*
X51576000Y20725000D01*
X51576000Y18645000D02*
X51576000Y16241000D01*
X51616000Y23103000D02*
X51616000Y20725000D01*
X51616000Y18645000D02*
X51616000Y16267000D01*
X51656000Y23077000D02*
X51656000Y20725000D01*
X51656000Y18645000D02*
X51656000Y16293000D01*
X51696000Y23050000D02*
X51696000Y20725000D01*
X51696000Y18645000D02*
X51696000Y16320000D01*
X51736000Y23023000D02*
X51736000Y20725000D01*
X51736000Y18645000D02*
X51736000Y16347000D01*
X51776000Y22994000D02*
X51776000Y20725000D01*
X51776000Y18645000D02*
X51776000Y16376000D01*
X51816000Y22965000D02*
X51816000Y20725000D01*
X51816000Y18645000D02*
X51816000Y16405000D01*
X51856000Y22935000D02*
X51856000Y20725000D01*
X51856000Y18645000D02*
X51856000Y16435000D01*
X51896000Y22905000D02*
X51896000Y20725000D01*
X51896000Y18645000D02*
X51896000Y16465000D01*
X51936000Y22874000D02*
X51936000Y20725000D01*
X51936000Y18645000D02*
X51936000Y16496000D01*
X51976000Y22841000D02*
X51976000Y20725000D01*
X51976000Y18645000D02*
X51976000Y16529000D01*
X52016000Y22809000D02*
X52016000Y20725000D01*
X52016000Y18645000D02*
X52016000Y16561000D01*
X52056000Y22775000D02*
X52056000Y20725000D01*
X52056000Y18645000D02*
X52056000Y16595000D01*
X52096000Y22740000D02*
X52096000Y20725000D01*
X52096000Y18645000D02*
X52096000Y16630000D01*
X52136000Y22704000D02*
X52136000Y20725000D01*
X52136000Y18645000D02*
X52136000Y16666000D01*
X52176000Y22668000D02*
X52176000Y16702000D01*
X52216000Y22630000D02*
X52216000Y16740000D01*
X52256000Y22592000D02*
X52256000Y16778000D01*
X52296000Y22552000D02*
X52296000Y16818000D01*
X52336000Y22511000D02*
X52336000Y16859000D01*
X52376000Y22469000D02*
X52376000Y16901000D01*
X52416000Y22426000D02*
X52416000Y16944000D01*
X52456000Y22382000D02*
X52456000Y16988000D01*
X52496000Y22336000D02*
X52496000Y17034000D01*
X52536000Y22289000D02*
X52536000Y17081000D01*
X52576000Y22241000D02*
X52576000Y17129000D01*
X52616000Y22190000D02*
X52616000Y17180000D01*
X52656000Y22139000D02*
X52656000Y17231000D01*
X52696000Y22085000D02*
X52696000Y17285000D01*
X52736000Y22030000D02*
X52736000Y17340000D01*
X52776000Y21972000D02*
X52776000Y17398000D01*
X52816000Y21913000D02*
X52816000Y17457000D01*
X52856000Y21851000D02*
X52856000Y17519000D01*
X52896000Y21787000D02*
X52896000Y17583000D01*
X52936000Y21719000D02*
X52936000Y17651000D01*
X52976000Y21649000D02*
X52976000Y17721000D01*
X53016000Y21575000D02*
X53016000Y17795000D01*
X53056000Y21498000D02*
X53056000Y17872000D01*
X53096000Y21416000D02*
X53096000Y17954000D01*
X53136000Y21330000D02*
X53136000Y18040000D01*
X53176000Y21237000D02*
X53176000Y18133000D01*
X53216000Y21138000D02*
X53216000Y18232000D01*
X53256000Y21031000D02*
X53256000Y18339000D01*
X53296000Y20914000D02*
X53296000Y18456000D01*
X53336000Y20783000D02*
X53336000Y18587000D01*
X53376000Y20633000D02*
X53376000Y18737000D01*
X53416000Y20453000D02*
X53416000Y18917000D01*
X53456000Y20218000D02*
X53456000Y19152000D01*
X44965302Y22000000D02*
X45765302Y22000000D01*
X45365302Y22400000D02*
X45365302Y21600000D01*
G04 #@! TO.C,J5*
X44510000Y9525000D02*
X44510000Y8195000D01*
X44510000Y8195000D02*
X43180000Y8195000D01*
X41910000Y8195000D02*
X13910000Y8195000D01*
X13910000Y10855000D02*
X13910000Y8195000D01*
X41910000Y10855000D02*
X13910000Y10855000D01*
X41910000Y10855000D02*
X41910000Y8195000D01*
G04 #@! TO.C,J4*
X44510000Y32385000D02*
X44510000Y31055000D01*
X44510000Y31055000D02*
X43180000Y31055000D01*
X41910000Y31055000D02*
X13910000Y31055000D01*
X13910000Y33715000D02*
X13910000Y31055000D01*
X41910000Y33715000D02*
X13910000Y33715000D01*
X41910000Y33715000D02*
X41910000Y31055000D01*
G04 #@! TO.C,J21*
D10*
X11255476Y27852620D02*
X11255476Y27138334D01*
X11207857Y26995477D01*
X11112619Y26900239D01*
X10969761Y26852620D01*
X10874523Y26852620D01*
X11684047Y27757381D02*
X11731666Y27805000D01*
X11826904Y27852620D01*
X12065000Y27852620D01*
X12160238Y27805000D01*
X12207857Y27757381D01*
X12255476Y27662143D01*
X12255476Y27566905D01*
X12207857Y27424048D01*
X11636428Y26852620D01*
X12255476Y26852620D01*
X13207857Y26852620D02*
X12636428Y26852620D01*
X12922142Y26852620D02*
X12922142Y27852620D01*
X12826904Y27709762D01*
X12731666Y27614524D01*
X12636428Y27566905D01*
G04 #@! TO.C,J61*
X5600476Y28757620D02*
X5600476Y28043334D01*
X5552857Y27900477D01*
X5457619Y27805239D01*
X5314761Y27757620D01*
X5219523Y27757620D01*
X6505238Y28757620D02*
X6314761Y28757620D01*
X6219523Y28710000D01*
X6171904Y28662381D01*
X6076666Y28519524D01*
X6029047Y28329048D01*
X6029047Y27948096D01*
X6076666Y27852858D01*
X6124285Y27805239D01*
X6219523Y27757620D01*
X6410000Y27757620D01*
X6505238Y27805239D01*
X6552857Y27852858D01*
X6600476Y27948096D01*
X6600476Y28186191D01*
X6552857Y28281429D01*
X6505238Y28329048D01*
X6410000Y28376667D01*
X6219523Y28376667D01*
X6124285Y28329048D01*
X6076666Y28281429D01*
X6029047Y28186191D01*
X7552857Y27757620D02*
X6981428Y27757620D01*
X7267142Y27757620D02*
X7267142Y28757620D01*
X7171904Y28614762D01*
X7076666Y28519524D01*
X6981428Y28471905D01*
G04 #@! TO.C,J22*
X5600476Y10342620D02*
X5600476Y9628334D01*
X5552857Y9485477D01*
X5457619Y9390239D01*
X5314761Y9342620D01*
X5219523Y9342620D01*
X6029047Y10247381D02*
X6076666Y10295000D01*
X6171904Y10342620D01*
X6410000Y10342620D01*
X6505238Y10295000D01*
X6552857Y10247381D01*
X6600476Y10152143D01*
X6600476Y10056905D01*
X6552857Y9914048D01*
X5981428Y9342620D01*
X6600476Y9342620D01*
X6981428Y10247381D02*
X7029047Y10295000D01*
X7124285Y10342620D01*
X7362380Y10342620D01*
X7457619Y10295000D01*
X7505238Y10247381D01*
X7552857Y10152143D01*
X7552857Y10056905D01*
X7505238Y9914048D01*
X6933809Y9342620D01*
X7552857Y9342620D01*
G04 #@! TO.C,C6*
X46712142Y12533334D02*
X46759761Y12485715D01*
X46807380Y12342858D01*
X46807380Y12247620D01*
X46759761Y12104762D01*
X46664523Y12009524D01*
X46569285Y11961905D01*
X46378809Y11914286D01*
X46235952Y11914286D01*
X46045476Y11961905D01*
X45950238Y12009524D01*
X45855000Y12104762D01*
X45807380Y12247620D01*
X45807380Y12342858D01*
X45855000Y12485715D01*
X45902619Y12533334D01*
X45807380Y13390477D02*
X45807380Y13200000D01*
X45855000Y13104762D01*
X45902619Y13057143D01*
X46045476Y12961905D01*
X46235952Y12914286D01*
X46616904Y12914286D01*
X46712142Y12961905D01*
X46759761Y13009524D01*
X46807380Y13104762D01*
X46807380Y13295239D01*
X46759761Y13390477D01*
X46712142Y13438096D01*
X46616904Y13485715D01*
X46378809Y13485715D01*
X46283571Y13438096D01*
X46235952Y13390477D01*
X46188333Y13295239D01*
X46188333Y13104762D01*
X46235952Y13009524D01*
X46283571Y12961905D01*
X46378809Y12914286D01*
G04 #@! TO.C,C5*
X18843333Y34567858D02*
X18795714Y34520239D01*
X18652857Y34472620D01*
X18557619Y34472620D01*
X18414761Y34520239D01*
X18319523Y34615477D01*
X18271904Y34710715D01*
X18224285Y34901191D01*
X18224285Y35044048D01*
X18271904Y35234524D01*
X18319523Y35329762D01*
X18414761Y35425000D01*
X18557619Y35472620D01*
X18652857Y35472620D01*
X18795714Y35425000D01*
X18843333Y35377381D01*
X19748095Y35472620D02*
X19271904Y35472620D01*
X19224285Y34996429D01*
X19271904Y35044048D01*
X19367142Y35091667D01*
X19605238Y35091667D01*
X19700476Y35044048D01*
X19748095Y34996429D01*
X19795714Y34901191D01*
X19795714Y34663096D01*
X19748095Y34567858D01*
X19700476Y34520239D01*
X19605238Y34472620D01*
X19367142Y34472620D01*
X19271904Y34520239D01*
X19224285Y34567858D01*
G04 #@! TO.C,R20*
X22217142Y30042620D02*
X21883809Y30518810D01*
X21645714Y30042620D02*
X21645714Y31042620D01*
X22026666Y31042620D01*
X22121904Y30995000D01*
X22169523Y30947381D01*
X22217142Y30852143D01*
X22217142Y30709286D01*
X22169523Y30614048D01*
X22121904Y30566429D01*
X22026666Y30518810D01*
X21645714Y30518810D01*
X22598095Y30947381D02*
X22645714Y30995000D01*
X22740952Y31042620D01*
X22979047Y31042620D01*
X23074285Y30995000D01*
X23121904Y30947381D01*
X23169523Y30852143D01*
X23169523Y30756905D01*
X23121904Y30614048D01*
X22550476Y30042620D01*
X23169523Y30042620D01*
X23788571Y31042620D02*
X23883809Y31042620D01*
X23979047Y30995000D01*
X24026666Y30947381D01*
X24074285Y30852143D01*
X24121904Y30661667D01*
X24121904Y30423572D01*
X24074285Y30233096D01*
X24026666Y30137858D01*
X23979047Y30090239D01*
X23883809Y30042620D01*
X23788571Y30042620D01*
X23693333Y30090239D01*
X23645714Y30137858D01*
X23598095Y30233096D01*
X23550476Y30423572D01*
X23550476Y30661667D01*
X23598095Y30852143D01*
X23645714Y30947381D01*
X23693333Y30995000D01*
X23788571Y31042620D01*
G04 #@! TO.C,R19*
X34917142Y22422620D02*
X34583809Y22898810D01*
X34345714Y22422620D02*
X34345714Y23422620D01*
X34726666Y23422620D01*
X34821904Y23375000D01*
X34869523Y23327381D01*
X34917142Y23232143D01*
X34917142Y23089286D01*
X34869523Y22994048D01*
X34821904Y22946429D01*
X34726666Y22898810D01*
X34345714Y22898810D01*
X35869523Y22422620D02*
X35298095Y22422620D01*
X35583809Y22422620D02*
X35583809Y23422620D01*
X35488571Y23279762D01*
X35393333Y23184524D01*
X35298095Y23136905D01*
X36345714Y22422620D02*
X36536190Y22422620D01*
X36631428Y22470239D01*
X36679047Y22517858D01*
X36774285Y22660715D01*
X36821904Y22851191D01*
X36821904Y23232143D01*
X36774285Y23327381D01*
X36726666Y23375000D01*
X36631428Y23422620D01*
X36440952Y23422620D01*
X36345714Y23375000D01*
X36298095Y23327381D01*
X36250476Y23232143D01*
X36250476Y22994048D01*
X36298095Y22898810D01*
X36345714Y22851191D01*
X36440952Y22803572D01*
X36631428Y22803572D01*
X36726666Y22851191D01*
X36774285Y22898810D01*
X36821904Y22994048D01*
G04 #@! TO.C,R18*
X22217142Y14787620D02*
X21883809Y15263810D01*
X21645714Y14787620D02*
X21645714Y15787620D01*
X22026666Y15787620D01*
X22121904Y15740000D01*
X22169523Y15692381D01*
X22217142Y15597143D01*
X22217142Y15454286D01*
X22169523Y15359048D01*
X22121904Y15311429D01*
X22026666Y15263810D01*
X21645714Y15263810D01*
X23169523Y14787620D02*
X22598095Y14787620D01*
X22883809Y14787620D02*
X22883809Y15787620D01*
X22788571Y15644762D01*
X22693333Y15549524D01*
X22598095Y15501905D01*
X23740952Y15359048D02*
X23645714Y15406667D01*
X23598095Y15454286D01*
X23550476Y15549524D01*
X23550476Y15597143D01*
X23598095Y15692381D01*
X23645714Y15740000D01*
X23740952Y15787620D01*
X23931428Y15787620D01*
X24026666Y15740000D01*
X24074285Y15692381D01*
X24121904Y15597143D01*
X24121904Y15549524D01*
X24074285Y15454286D01*
X24026666Y15406667D01*
X23931428Y15359048D01*
X23740952Y15359048D01*
X23645714Y15311429D01*
X23598095Y15263810D01*
X23550476Y15168572D01*
X23550476Y14978096D01*
X23598095Y14882858D01*
X23645714Y14835239D01*
X23740952Y14787620D01*
X23931428Y14787620D01*
X24026666Y14835239D01*
X24074285Y14882858D01*
X24121904Y14978096D01*
X24121904Y15168572D01*
X24074285Y15263810D01*
X24026666Y15311429D01*
X23931428Y15359048D01*
G04 #@! TO.C,R17*
X34917142Y18612620D02*
X34583809Y19088810D01*
X34345714Y18612620D02*
X34345714Y19612620D01*
X34726666Y19612620D01*
X34821904Y19565000D01*
X34869523Y19517381D01*
X34917142Y19422143D01*
X34917142Y19279286D01*
X34869523Y19184048D01*
X34821904Y19136429D01*
X34726666Y19088810D01*
X34345714Y19088810D01*
X35869523Y18612620D02*
X35298095Y18612620D01*
X35583809Y18612620D02*
X35583809Y19612620D01*
X35488571Y19469762D01*
X35393333Y19374524D01*
X35298095Y19326905D01*
X36202857Y19612620D02*
X36869523Y19612620D01*
X36440952Y18612620D01*
G04 #@! TO.C,R16*
X22217142Y22407620D02*
X21883809Y22883810D01*
X21645714Y22407620D02*
X21645714Y23407620D01*
X22026666Y23407620D01*
X22121904Y23360000D01*
X22169523Y23312381D01*
X22217142Y23217143D01*
X22217142Y23074286D01*
X22169523Y22979048D01*
X22121904Y22931429D01*
X22026666Y22883810D01*
X21645714Y22883810D01*
X23169523Y22407620D02*
X22598095Y22407620D01*
X22883809Y22407620D02*
X22883809Y23407620D01*
X22788571Y23264762D01*
X22693333Y23169524D01*
X22598095Y23121905D01*
X24026666Y23407620D02*
X23836190Y23407620D01*
X23740952Y23360000D01*
X23693333Y23312381D01*
X23598095Y23169524D01*
X23550476Y22979048D01*
X23550476Y22598096D01*
X23598095Y22502858D01*
X23645714Y22455239D01*
X23740952Y22407620D01*
X23931428Y22407620D01*
X24026666Y22455239D01*
X24074285Y22502858D01*
X24121904Y22598096D01*
X24121904Y22836191D01*
X24074285Y22931429D01*
X24026666Y22979048D01*
X23931428Y23026667D01*
X23740952Y23026667D01*
X23645714Y22979048D01*
X23598095Y22931429D01*
X23550476Y22836191D01*
G04 #@! TO.C,R15*
X45537380Y24122143D02*
X45061190Y23788810D01*
X45537380Y23550715D02*
X44537380Y23550715D01*
X44537380Y23931667D01*
X44585000Y24026905D01*
X44632619Y24074524D01*
X44727857Y24122143D01*
X44870714Y24122143D01*
X44965952Y24074524D01*
X45013571Y24026905D01*
X45061190Y23931667D01*
X45061190Y23550715D01*
X45537380Y25074524D02*
X45537380Y24503096D01*
X45537380Y24788810D02*
X44537380Y24788810D01*
X44680238Y24693572D01*
X44775476Y24598334D01*
X44823095Y24503096D01*
X44537380Y25979286D02*
X44537380Y25503096D01*
X45013571Y25455477D01*
X44965952Y25503096D01*
X44918333Y25598334D01*
X44918333Y25836429D01*
X44965952Y25931667D01*
X45013571Y25979286D01*
X45108809Y26026905D01*
X45346904Y26026905D01*
X45442142Y25979286D01*
X45489761Y25931667D01*
X45537380Y25836429D01*
X45537380Y25598334D01*
X45489761Y25503096D01*
X45442142Y25455477D01*
G04 #@! TO.C,R12*
X34917142Y30027620D02*
X34583809Y30503810D01*
X34345714Y30027620D02*
X34345714Y31027620D01*
X34726666Y31027620D01*
X34821904Y30980000D01*
X34869523Y30932381D01*
X34917142Y30837143D01*
X34917142Y30694286D01*
X34869523Y30599048D01*
X34821904Y30551429D01*
X34726666Y30503810D01*
X34345714Y30503810D01*
X35869523Y30027620D02*
X35298095Y30027620D01*
X35583809Y30027620D02*
X35583809Y31027620D01*
X35488571Y30884762D01*
X35393333Y30789524D01*
X35298095Y30741905D01*
X36250476Y30932381D02*
X36298095Y30980000D01*
X36393333Y31027620D01*
X36631428Y31027620D01*
X36726666Y30980000D01*
X36774285Y30932381D01*
X36821904Y30837143D01*
X36821904Y30741905D01*
X36774285Y30599048D01*
X36202857Y30027620D01*
X36821904Y30027620D01*
G04 #@! TO.C,R11*
X34917142Y26217620D02*
X34583809Y26693810D01*
X34345714Y26217620D02*
X34345714Y27217620D01*
X34726666Y27217620D01*
X34821904Y27170000D01*
X34869523Y27122381D01*
X34917142Y27027143D01*
X34917142Y26884286D01*
X34869523Y26789048D01*
X34821904Y26741429D01*
X34726666Y26693810D01*
X34345714Y26693810D01*
X35869523Y26217620D02*
X35298095Y26217620D01*
X35583809Y26217620D02*
X35583809Y27217620D01*
X35488571Y27074762D01*
X35393333Y26979524D01*
X35298095Y26931905D01*
X36821904Y26217620D02*
X36250476Y26217620D01*
X36536190Y26217620D02*
X36536190Y27217620D01*
X36440952Y27074762D01*
X36345714Y26979524D01*
X36250476Y26931905D01*
G04 #@! TO.C,C3*
X41108333Y34567858D02*
X41060714Y34520239D01*
X40917857Y34472620D01*
X40822619Y34472620D01*
X40679761Y34520239D01*
X40584523Y34615477D01*
X40536904Y34710715D01*
X40489285Y34901191D01*
X40489285Y35044048D01*
X40536904Y35234524D01*
X40584523Y35329762D01*
X40679761Y35425000D01*
X40822619Y35472620D01*
X40917857Y35472620D01*
X41060714Y35425000D01*
X41108333Y35377381D01*
X41441666Y35472620D02*
X42060714Y35472620D01*
X41727380Y35091667D01*
X41870238Y35091667D01*
X41965476Y35044048D01*
X42013095Y34996429D01*
X42060714Y34901191D01*
X42060714Y34663096D01*
X42013095Y34567858D01*
X41965476Y34520239D01*
X41870238Y34472620D01*
X41584523Y34472620D01*
X41489285Y34520239D01*
X41441666Y34567858D01*
G04 #@! TO.C,C2*
X33488333Y34567858D02*
X33440714Y34520239D01*
X33297857Y34472620D01*
X33202619Y34472620D01*
X33059761Y34520239D01*
X32964523Y34615477D01*
X32916904Y34710715D01*
X32869285Y34901191D01*
X32869285Y35044048D01*
X32916904Y35234524D01*
X32964523Y35329762D01*
X33059761Y35425000D01*
X33202619Y35472620D01*
X33297857Y35472620D01*
X33440714Y35425000D01*
X33488333Y35377381D01*
X33869285Y35377381D02*
X33916904Y35425000D01*
X34012142Y35472620D01*
X34250238Y35472620D01*
X34345476Y35425000D01*
X34393095Y35377381D01*
X34440714Y35282143D01*
X34440714Y35186905D01*
X34393095Y35044048D01*
X33821666Y34472620D01*
X34440714Y34472620D01*
G04 #@! TO.C,C1*
X25868333Y34567858D02*
X25820714Y34520239D01*
X25677857Y34472620D01*
X25582619Y34472620D01*
X25439761Y34520239D01*
X25344523Y34615477D01*
X25296904Y34710715D01*
X25249285Y34901191D01*
X25249285Y35044048D01*
X25296904Y35234524D01*
X25344523Y35329762D01*
X25439761Y35425000D01*
X25582619Y35472620D01*
X25677857Y35472620D01*
X25820714Y35425000D01*
X25868333Y35377381D01*
X26820714Y34472620D02*
X26249285Y34472620D01*
X26535000Y34472620D02*
X26535000Y35472620D01*
X26439761Y35329762D01*
X26344523Y35234524D01*
X26249285Y35186905D01*
G04 #@! TO.C,#J9*
X14795714Y12168334D02*
X14795714Y12882620D01*
X14367142Y12454048D02*
X15652857Y12168334D01*
X15224285Y12787381D02*
X15224285Y12073096D01*
X15652857Y12501667D02*
X14367142Y12787381D01*
X14462380Y13501667D02*
X15176666Y13501667D01*
X15319523Y13454048D01*
X15414761Y13358810D01*
X15462380Y13215953D01*
X15462380Y13120715D01*
X15462380Y14025477D02*
X15462380Y14215953D01*
X15414761Y14311191D01*
X15367142Y14358810D01*
X15224285Y14454048D01*
X15033809Y14501667D01*
X14652857Y14501667D01*
X14557619Y14454048D01*
X14510000Y14406429D01*
X14462380Y14311191D01*
X14462380Y14120715D01*
X14510000Y14025477D01*
X14557619Y13977858D01*
X14652857Y13930239D01*
X14890952Y13930239D01*
X14986190Y13977858D01*
X15033809Y14025477D01*
X15081428Y14120715D01*
X15081428Y14311191D01*
X15033809Y14406429D01*
X14986190Y14454048D01*
X14890952Y14501667D01*
G04 #@! TO.C,R14*
X22217142Y26232620D02*
X21883809Y26708810D01*
X21645714Y26232620D02*
X21645714Y27232620D01*
X22026666Y27232620D01*
X22121904Y27185000D01*
X22169523Y27137381D01*
X22217142Y27042143D01*
X22217142Y26899286D01*
X22169523Y26804048D01*
X22121904Y26756429D01*
X22026666Y26708810D01*
X21645714Y26708810D01*
X23169523Y26232620D02*
X22598095Y26232620D01*
X22883809Y26232620D02*
X22883809Y27232620D01*
X22788571Y27089762D01*
X22693333Y26994524D01*
X22598095Y26946905D01*
X24026666Y26899286D02*
X24026666Y26232620D01*
X23788571Y27280239D02*
X23550476Y26565953D01*
X24169523Y26565953D01*
G04 #@! TO.C,C8*
X43537142Y17613334D02*
X43584761Y17565715D01*
X43632380Y17422858D01*
X43632380Y17327620D01*
X43584761Y17184762D01*
X43489523Y17089524D01*
X43394285Y17041905D01*
X43203809Y16994286D01*
X43060952Y16994286D01*
X42870476Y17041905D01*
X42775238Y17089524D01*
X42680000Y17184762D01*
X42632380Y17327620D01*
X42632380Y17422858D01*
X42680000Y17565715D01*
X42727619Y17613334D01*
X43060952Y18184762D02*
X43013333Y18089524D01*
X42965714Y18041905D01*
X42870476Y17994286D01*
X42822857Y17994286D01*
X42727619Y18041905D01*
X42680000Y18089524D01*
X42632380Y18184762D01*
X42632380Y18375239D01*
X42680000Y18470477D01*
X42727619Y18518096D01*
X42822857Y18565715D01*
X42870476Y18565715D01*
X42965714Y18518096D01*
X43013333Y18470477D01*
X43060952Y18375239D01*
X43060952Y18184762D01*
X43108571Y18089524D01*
X43156190Y18041905D01*
X43251428Y17994286D01*
X43441904Y17994286D01*
X43537142Y18041905D01*
X43584761Y18089524D01*
X43632380Y18184762D01*
X43632380Y18375239D01*
X43584761Y18470477D01*
X43537142Y18518096D01*
X43441904Y18565715D01*
X43251428Y18565715D01*
X43156190Y18518096D01*
X43108571Y18470477D01*
X43060952Y18375239D01*
G04 #@! TO.C,J7*
X47712380Y13636667D02*
X48426666Y13636667D01*
X48569523Y13589048D01*
X48664761Y13493810D01*
X48712380Y13350953D01*
X48712380Y13255715D01*
X47712380Y14017620D02*
X47712380Y14684286D01*
X48712380Y14255715D01*
G04 #@! TO.C,C4*
X48728333Y34567858D02*
X48680714Y34520239D01*
X48537857Y34472620D01*
X48442619Y34472620D01*
X48299761Y34520239D01*
X48204523Y34615477D01*
X48156904Y34710715D01*
X48109285Y34901191D01*
X48109285Y35044048D01*
X48156904Y35234524D01*
X48204523Y35329762D01*
X48299761Y35425000D01*
X48442619Y35472620D01*
X48537857Y35472620D01*
X48680714Y35425000D01*
X48728333Y35377381D01*
X49585476Y35139286D02*
X49585476Y34472620D01*
X49347380Y35520239D02*
X49109285Y34805953D01*
X49728333Y34805953D01*
G04 #@! TO.C,C7*
X49208333Y24577858D02*
X49160714Y24530239D01*
X49017857Y24482620D01*
X48922619Y24482620D01*
X48779761Y24530239D01*
X48684523Y24625477D01*
X48636904Y24720715D01*
X48589285Y24911191D01*
X48589285Y25054048D01*
X48636904Y25244524D01*
X48684523Y25339762D01*
X48779761Y25435000D01*
X48922619Y25482620D01*
X49017857Y25482620D01*
X49160714Y25435000D01*
X49208333Y25387381D01*
X49541666Y25482620D02*
X50208333Y25482620D01*
X49779761Y24482620D01*
G04 #@! TO.C,FID3*
X55237142Y6392858D02*
X55037142Y6392858D01*
X55037142Y6078572D02*
X55037142Y6678572D01*
X55322857Y6678572D01*
X55551428Y6078572D02*
X55551428Y6678572D01*
X55837142Y6078572D02*
X55837142Y6678572D01*
X55980000Y6678572D01*
X56065714Y6650000D01*
X56122857Y6592858D01*
X56151428Y6535715D01*
X56180000Y6421429D01*
X56180000Y6335715D01*
X56151428Y6221429D01*
X56122857Y6164286D01*
X56065714Y6107143D01*
X55980000Y6078572D01*
X55837142Y6078572D01*
X56380000Y6678572D02*
X56751428Y6678572D01*
X56551428Y6450000D01*
X56637142Y6450000D01*
X56694285Y6421429D01*
X56722857Y6392858D01*
X56751428Y6335715D01*
X56751428Y6192858D01*
X56722857Y6135715D01*
X56694285Y6107143D01*
X56637142Y6078572D01*
X56465714Y6078572D01*
X56408571Y6107143D01*
X56380000Y6135715D01*
G04 #@! TO.C,FID2*
X8847142Y32377143D02*
X8847142Y32177143D01*
X9161428Y32177143D02*
X8561428Y32177143D01*
X8561428Y32462858D01*
X9161428Y32691429D02*
X8561428Y32691429D01*
X9161428Y32977143D02*
X8561428Y32977143D01*
X8561428Y33120000D01*
X8590000Y33205715D01*
X8647142Y33262858D01*
X8704285Y33291429D01*
X8818571Y33320000D01*
X8904285Y33320000D01*
X9018571Y33291429D01*
X9075714Y33262858D01*
X9132857Y33205715D01*
X9161428Y33120000D01*
X9161428Y32977143D01*
X8618571Y33548572D02*
X8590000Y33577143D01*
X8561428Y33634286D01*
X8561428Y33777143D01*
X8590000Y33834286D01*
X8618571Y33862858D01*
X8675714Y33891429D01*
X8732857Y33891429D01*
X8818571Y33862858D01*
X9161428Y33520000D01*
X9161428Y33891429D01*
G04 #@! TO.C,FID1*
X8882142Y7662858D02*
X8682142Y7662858D01*
X8682142Y7348572D02*
X8682142Y7948572D01*
X8967857Y7948572D01*
X9196428Y7348572D02*
X9196428Y7948572D01*
X9482142Y7348572D02*
X9482142Y7948572D01*
X9625000Y7948572D01*
X9710714Y7920000D01*
X9767857Y7862858D01*
X9796428Y7805715D01*
X9825000Y7691429D01*
X9825000Y7605715D01*
X9796428Y7491429D01*
X9767857Y7434286D01*
X9710714Y7377143D01*
X9625000Y7348572D01*
X9482142Y7348572D01*
X10396428Y7348572D02*
X10053571Y7348572D01*
X10225000Y7348572D02*
X10225000Y7948572D01*
X10167857Y7862858D01*
X10110714Y7805715D01*
X10053571Y7777143D01*
G04 #@! TO.C,J5*
X42846666Y7532620D02*
X42846666Y6818334D01*
X42799047Y6675477D01*
X42703809Y6580239D01*
X42560952Y6532620D01*
X42465714Y6532620D01*
X43799047Y7532620D02*
X43322857Y7532620D01*
X43275238Y7056429D01*
X43322857Y7104048D01*
X43418095Y7151667D01*
X43656190Y7151667D01*
X43751428Y7104048D01*
X43799047Y7056429D01*
X43846666Y6961191D01*
X43846666Y6723096D01*
X43799047Y6627858D01*
X43751428Y6580239D01*
X43656190Y6532620D01*
X43418095Y6532620D01*
X43322857Y6580239D01*
X43275238Y6627858D01*
G04 #@! TO.C,J4*
X44116666Y35472620D02*
X44116666Y34758334D01*
X44069047Y34615477D01*
X43973809Y34520239D01*
X43830952Y34472620D01*
X43735714Y34472620D01*
X45021428Y35139286D02*
X45021428Y34472620D01*
X44783333Y35520239D02*
X44545238Y34805953D01*
X45164285Y34805953D01*
G04 #@! TD*
M02*
