M48
INCH,TZ
T1C0.0236
T2C0.0276
T3C0.0315
T4C0.0394
%
G90
G05
T1
X2000Y11000
X2000Y10000
T2
X31426Y6570
X10000Y9000
X10000Y6000
X12000Y9000
X12000Y6000
X8000Y9000
X8000Y6000
X28426Y6570
X15750Y9000
X15750Y6000
X14000Y9000
X14000Y6000
X28426Y4090
X31426Y4090
X28426Y5330
X31426Y5330
T3
X18031Y4000
X20000Y4000
X18500Y9000
X19878Y9000
T4
X22000Y11000
X22000Y10000
X22000Y9000
X22000Y8000
X22000Y7000
X22000Y6000
X22000Y5000
X22000Y4000
X7000Y4000
X8000Y4000
X9000Y4000
X10000Y4000
X11000Y4000
X12000Y4000
X13000Y4000
X14000Y4000
X15000Y4000
X16000Y4000
X2000Y8000
X2000Y7000
X2000Y6000
X2000Y5000
X4000Y14250
X4000Y13250
X5000Y14250
X5000Y13250
X6000Y14250
X6000Y13250
X7000Y14250
X7000Y13250
X8000Y14250
X8000Y13250
X9000Y14250
X9000Y13250
X10000Y14250
X10000Y13250
X11000Y14250
X11000Y13250
X12000Y14250
X12000Y13250
X13000Y14250
X13000Y13250
X14000Y14250
X14000Y13250
X15000Y14250
X15000Y13250
X3000Y11000
X3000Y10000
X3000Y9000
X3000Y8000
X3000Y7000
X3000Y6000
X3000Y5000
X3000Y4000
X2000Y4000
X2000Y3000
X5000Y11000
X6000Y11000
X7000Y11000
X8000Y11000
X9000Y11000
X10000Y11000
X11000Y11000
X12000Y11000
X13000Y11000
X14000Y11000
X15000Y11000
X16000Y11000
X18000Y2000
X19000Y2000
X20000Y2000
X21000Y2000
X5000Y2000
X6000Y2000
X7000Y2000
X8000Y2000
X9000Y2000
X10000Y2000
X11000Y2000
X12000Y2000
X13000Y2000
X14000Y2000
X15000Y2000
X16000Y2000
T0
M30
