G04 #@! TF.GenerationSoftware,KiCad,Pcbnew,(5.1.6-0-10_14)*
G04 #@! TF.CreationDate,2021-08-22T22:59:51+01:00*
G04 #@! TF.ProjectId,JuntekOnSteroidsTTGO,4a756e74-656b-44f6-9e53-7465726f6964,2.4*
G04 #@! TF.SameCoordinates,PX5b716c8PY5b716c8*
G04 #@! TF.FileFunction,Copper,L1,Top*
G04 #@! TF.FilePolarity,Positive*
%FSLAX46Y46*%
G04 Gerber Fmt 4.6, Leading zero omitted, Abs format (unit mm)*
G04 Created by KiCad (PCBNEW (5.1.6-0-10_14)) date 2021-08-22 22:59:51*
%MOMM*%
%LPD*%
G01*
G04 APERTURE LIST*
G04 #@! TA.AperFunction,ComponentPad*
%ADD10O,1.400000X1.400000*%
G04 #@! TD*
G04 #@! TA.AperFunction,ComponentPad*
%ADD11C,1.400000*%
G04 #@! TD*
G04 #@! TA.AperFunction,ComponentPad*
%ADD12O,1.700000X1.700000*%
G04 #@! TD*
G04 #@! TA.AperFunction,ComponentPad*
%ADD13R,1.700000X1.700000*%
G04 #@! TD*
G04 #@! TA.AperFunction,ComponentPad*
%ADD14C,1.600000*%
G04 #@! TD*
G04 #@! TA.AperFunction,ComponentPad*
%ADD15O,1.750000X1.200000*%
G04 #@! TD*
G04 #@! TA.AperFunction,ComponentPad*
%ADD16R,1.600000X1.600000*%
G04 #@! TD*
G04 #@! TA.AperFunction,SMDPad,CuDef*
%ADD17C,0.500000*%
G04 #@! TD*
G04 #@! TA.AperFunction,ViaPad*
%ADD18C,0.800000*%
G04 #@! TD*
G04 #@! TA.AperFunction,Conductor*
%ADD19C,0.570000*%
G04 #@! TD*
G04 #@! TA.AperFunction,Conductor*
%ADD20C,0.220000*%
G04 #@! TD*
G04 #@! TA.AperFunction,Conductor*
%ADD21C,0.254000*%
G04 #@! TD*
G04 APERTURE END LIST*
D10*
G04 #@! TO.P,R13,2*
G04 #@! TO.N,/A2*
X39370000Y20955000D03*
D11*
G04 #@! TO.P,R13,1*
G04 #@! TO.N,Net-(J21-Pad5)*
X31750000Y20955000D03*
G04 #@! TD*
D12*
G04 #@! TO.P,J61,3*
G04 #@! TO.N,/J6.1*
X10795000Y33020000D03*
G04 #@! TO.P,J61,2*
G04 #@! TO.N,/J6.2*
X10795000Y30480000D03*
D13*
G04 #@! TO.P,J61,1*
G04 #@! TO.N,/J6.3*
X10795000Y27940000D03*
G04 #@! TD*
D12*
G04 #@! TO.P,J21,8*
G04 #@! TO.N,/ADC3*
X10795000Y22860000D03*
G04 #@! TO.P,J21,7*
G04 #@! TO.N,Net-(J21-Pad7)*
X13335000Y22860000D03*
G04 #@! TO.P,J21,6*
G04 #@! TO.N,/ADC2*
X10795000Y20320000D03*
G04 #@! TO.P,J21,5*
G04 #@! TO.N,Net-(J21-Pad5)*
X13335000Y20320000D03*
G04 #@! TO.P,J21,4*
G04 #@! TO.N,/ADC1*
X10795000Y17780000D03*
G04 #@! TO.P,J21,3*
G04 #@! TO.N,/A1*
X13335000Y17780000D03*
G04 #@! TO.P,J21,2*
G04 #@! TO.N,/ADC0*
X10795000Y15240000D03*
D13*
G04 #@! TO.P,J21,1*
G04 #@! TO.N,/A0*
X13335000Y15240000D03*
G04 #@! TD*
D12*
G04 #@! TO.P,J22,2*
G04 #@! TO.N,/NotEnable*
X10795000Y12700000D03*
D13*
G04 #@! TO.P,J22,1*
G04 #@! TO.N,/FanPWM*
X10795000Y10160000D03*
G04 #@! TD*
D12*
G04 #@! TO.P,J12,3*
G04 #@! TO.N,/J1.8*
X5080000Y10795000D03*
G04 #@! TO.P,J12,2*
G04 #@! TO.N,/J1.7*
X5080000Y13335000D03*
D13*
G04 #@! TO.P,J12,1*
G04 #@! TO.N,/J1.6*
X5080000Y15875000D03*
G04 #@! TD*
D12*
G04 #@! TO.P,J11,3*
G04 #@! TO.N,/J1.3*
X5080000Y19050000D03*
G04 #@! TO.P,J11,2*
G04 #@! TO.N,/J1.2*
X5080000Y21590000D03*
D13*
G04 #@! TO.P,J11,1*
G04 #@! TO.N,/J1.1*
X5080000Y24130000D03*
G04 #@! TD*
D14*
G04 #@! TO.P,C6,2*
G04 #@! TO.N,/+3V3*
X46990000Y10755000D03*
G04 #@! TO.P,C6,1*
G04 #@! TO.N,/GND*
X46990000Y8255000D03*
G04 #@! TD*
G04 #@! TO.P,C5,2*
G04 #@! TO.N,/+3V3*
X13375000Y34925000D03*
G04 #@! TO.P,C5,1*
G04 #@! TO.N,/GND*
X15875000Y34925000D03*
G04 #@! TD*
D12*
G04 #@! TO.P,J30,21*
G04 #@! TO.N,Net-(J30-Pad21)*
X55880000Y5080000D03*
G04 #@! TO.P,J30,20*
G04 #@! TO.N,Net-(J30-Pad20)*
X53340000Y5080000D03*
G04 #@! TO.P,J30,19*
G04 #@! TO.N,Net-(J30-Pad19)*
X50800000Y5080000D03*
G04 #@! TO.P,J30,18*
G04 #@! TO.N,Net-(J30-Pad18)*
X48260000Y5080000D03*
G04 #@! TO.P,J30,17*
G04 #@! TO.N,Net-(J30-Pad17)*
X45720000Y5080000D03*
G04 #@! TO.P,J30,16*
G04 #@! TO.N,Net-(J30-Pad16)*
X43180000Y5080000D03*
G04 #@! TO.P,J30,15*
G04 #@! TO.N,Net-(J30-Pad15)*
X40640000Y5080000D03*
G04 #@! TO.P,J30,14*
G04 #@! TO.N,Net-(J30-Pad14)*
X38100000Y5080000D03*
G04 #@! TO.P,J30,13*
G04 #@! TO.N,Net-(J30-Pad13)*
X35560000Y5080000D03*
G04 #@! TO.P,J30,12*
G04 #@! TO.N,VCC*
X33020000Y5080000D03*
G04 #@! TO.P,J30,11*
G04 #@! TO.N,/GPIO27*
X30480000Y5080000D03*
G04 #@! TO.P,J30,10*
G04 #@! TO.N,/GPIO26*
X27940000Y5080000D03*
G04 #@! TO.P,J30,9*
G04 #@! TO.N,/GPIO25*
X25400000Y5080000D03*
G04 #@! TO.P,J30,8*
G04 #@! TO.N,/GPIO12*
X22860000Y5080000D03*
G04 #@! TO.P,J30,7*
G04 #@! TO.N,/GPIO2*
X20320000Y5080000D03*
G04 #@! TO.P,J30,6*
G04 #@! TO.N,/GPIO13*
X17780000Y5080000D03*
G04 #@! TO.P,J30,5*
G04 #@! TO.N,/GPIO17*
X15240000Y5080000D03*
G04 #@! TO.P,J30,4*
G04 #@! TO.N,/SCL*
X12700000Y5080000D03*
G04 #@! TO.P,J30,3*
G04 #@! TO.N,/SDA*
X10160000Y5080000D03*
G04 #@! TO.P,J30,2*
G04 #@! TO.N,/+3V3*
X7620000Y5080000D03*
D13*
G04 #@! TO.P,J30,1*
G04 #@! TO.N,/GND*
X5080000Y5080000D03*
G04 #@! TD*
D10*
G04 #@! TO.P,R20,2*
G04 #@! TO.N,/GND*
X26670000Y28575000D03*
D11*
G04 #@! TO.P,R20,1*
G04 #@! TO.N,/J6.1*
X19050000Y28575000D03*
G04 #@! TD*
D10*
G04 #@! TO.P,R18,2*
G04 #@! TO.N,/GPIO15*
X26670000Y17145000D03*
D11*
G04 #@! TO.P,R18,1*
G04 #@! TO.N,/FanPWM*
X19050000Y17145000D03*
G04 #@! TD*
D10*
G04 #@! TO.P,R17,2*
G04 #@! TO.N,/A3*
X39370000Y17145000D03*
D11*
G04 #@! TO.P,R17,1*
G04 #@! TO.N,Net-(J21-Pad7)*
X31750000Y17145000D03*
G04 #@! TD*
D10*
G04 #@! TO.P,R16,2*
G04 #@! TO.N,/GPIO2*
X19050000Y20955000D03*
D11*
G04 #@! TO.P,R16,1*
G04 #@! TO.N,/NotEnable*
X26670000Y20955000D03*
G04 #@! TD*
D10*
G04 #@! TO.P,R15,2*
G04 #@! TO.N,/GND*
X43180000Y28575000D03*
D11*
G04 #@! TO.P,R15,1*
G04 #@! TO.N,/NotEnable*
X43180000Y20955000D03*
G04 #@! TD*
D10*
G04 #@! TO.P,R12,2*
G04 #@! TO.N,/J1.4*
X31750000Y28575000D03*
D11*
G04 #@! TO.P,R12,1*
G04 #@! TO.N,/GPIO33*
X39370000Y28575000D03*
G04 #@! TD*
D10*
G04 #@! TO.P,R11,2*
G04 #@! TO.N,/J1.5*
X31750000Y24765000D03*
D11*
G04 #@! TO.P,R11,1*
G04 #@! TO.N,/GPIO32*
X39370000Y24765000D03*
G04 #@! TD*
D14*
G04 #@! TO.P,C3,2*
G04 #@! TO.N,/GND*
X36790000Y34925000D03*
G04 #@! TO.P,C3,1*
G04 #@! TO.N,/ADC2*
X34290000Y34925000D03*
G04 #@! TD*
G04 #@! TO.P,C2,2*
G04 #@! TO.N,/GND*
X27305000Y34925000D03*
G04 #@! TO.P,C2,1*
G04 #@! TO.N,/ADC1*
X29805000Y34925000D03*
G04 #@! TD*
G04 #@! TO.P,C1,2*
G04 #@! TO.N,/GND*
X22820000Y34925000D03*
G04 #@! TO.P,C1,1*
G04 #@! TO.N,/ADC0*
X20320000Y34925000D03*
G04 #@! TD*
D12*
G04 #@! TO.P,#J9,10*
G04 #@! TO.N,/A3*
X40640000Y13335000D03*
G04 #@! TO.P,#J9,9*
G04 #@! TO.N,/A2*
X38100000Y13335000D03*
G04 #@! TO.P,#J9,8*
G04 #@! TO.N,/A1*
X35560000Y13335000D03*
G04 #@! TO.P,#J9,7*
G04 #@! TO.N,/A0*
X33020000Y13335000D03*
G04 #@! TO.P,#J9,6*
G04 #@! TO.N,/ALRT*
X30480000Y13335000D03*
G04 #@! TO.P,#J9,5*
G04 #@! TO.N,/ADDR*
X27940000Y13335000D03*
G04 #@! TO.P,#J9,4*
G04 #@! TO.N,/SDA*
X25400000Y13335000D03*
G04 #@! TO.P,#J9,3*
G04 #@! TO.N,/SCL*
X22860000Y13335000D03*
G04 #@! TO.P,#J9,2*
G04 #@! TO.N,/GND*
X20320000Y13335000D03*
D13*
G04 #@! TO.P,#J9,1*
G04 #@! TO.N,VCC*
X17780000Y13335000D03*
G04 #@! TD*
D10*
G04 #@! TO.P,R14,2*
G04 #@! TO.N,/ADC3*
X26670000Y24765000D03*
D11*
G04 #@! TO.P,R14,1*
G04 #@! TO.N,/GND*
X19050000Y24765000D03*
G04 #@! TD*
D12*
G04 #@! TO.P,J6,3*
G04 #@! TO.N,/J6.3*
X5080000Y29210000D03*
G04 #@! TO.P,J6,2*
G04 #@! TO.N,/J6.2*
X5080000Y31750000D03*
D13*
G04 #@! TO.P,J6,1*
G04 #@! TO.N,/J6.1*
X5080000Y34290000D03*
G04 #@! TD*
D14*
G04 #@! TO.P,C8,2*
G04 #@! TO.N,/GND*
X44450000Y14010000D03*
G04 #@! TO.P,C8,1*
G04 #@! TO.N,VCC*
X44450000Y16510000D03*
G04 #@! TD*
D15*
G04 #@! TO.P,J7,4*
G04 #@! TO.N,/GND*
X52070000Y9240000D03*
G04 #@! TO.P,J7,3*
G04 #@! TO.N,/+3V3*
X52070000Y11240000D03*
G04 #@! TO.P,J7,2*
G04 #@! TO.N,/SDA*
X52070000Y13240000D03*
G04 #@! TO.P,J7,1*
G04 #@! TO.N,/SCL*
G04 #@! TA.AperFunction,ComponentPad*
G36*
G01*
X51444999Y15840000D02*
X52695001Y15840000D01*
G75*
G02*
X52945000Y15590001I0J-249999D01*
G01*
X52945000Y14889999D01*
G75*
G02*
X52695001Y14640000I-249999J0D01*
G01*
X51444999Y14640000D01*
G75*
G02*
X51195000Y14889999I0J249999D01*
G01*
X51195000Y15590001D01*
G75*
G02*
X51444999Y15840000I249999J0D01*
G01*
G37*
G04 #@! TD.AperFunction*
G04 #@! TD*
D14*
G04 #@! TO.P,C4,2*
G04 #@! TO.N,/GND*
X41315000Y34925000D03*
G04 #@! TO.P,C4,1*
G04 #@! TO.N,/ADC3*
X43815000Y34925000D03*
G04 #@! TD*
G04 #@! TO.P,C7,2*
G04 #@! TO.N,/GND*
X51125000Y19685000D03*
D16*
G04 #@! TO.P,C7,1*
G04 #@! TO.N,VCC*
X47625000Y19685000D03*
G04 #@! TD*
D17*
G04 #@! TO.P,FID3,*
G04 #@! TO.N,*
X55880000Y7620000D03*
G04 #@! TD*
G04 #@! TO.P,FID2,*
G04 #@! TO.N,*
X7620000Y33020000D03*
G04 #@! TD*
G04 #@! TO.P,FID1,*
G04 #@! TO.N,*
X7620000Y7620000D03*
G04 #@! TD*
D12*
G04 #@! TO.P,J5,12*
G04 #@! TO.N,/GND*
X15240000Y9525000D03*
G04 #@! TO.P,J5,11*
X17780000Y9525000D03*
G04 #@! TO.P,J5,10*
G04 #@! TO.N,/SDA*
X20320000Y9525000D03*
G04 #@! TO.P,J5,9*
G04 #@! TO.N,/SCL*
X22860000Y9525000D03*
G04 #@! TO.P,J5,8*
G04 #@! TO.N,/GPIO17*
X25400000Y9525000D03*
G04 #@! TO.P,J5,7*
G04 #@! TO.N,/GPIO2*
X27940000Y9525000D03*
G04 #@! TO.P,J5,6*
G04 #@! TO.N,/GPIO15*
X30480000Y9525000D03*
G04 #@! TO.P,J5,5*
G04 #@! TO.N,/GPIO13*
X33020000Y9525000D03*
G04 #@! TO.P,J5,4*
G04 #@! TO.N,/GPIO12*
X35560000Y9525000D03*
G04 #@! TO.P,J5,3*
G04 #@! TO.N,/GND*
X38100000Y9525000D03*
G04 #@! TO.P,J5,2*
X40640000Y9525000D03*
D13*
G04 #@! TO.P,J5,1*
G04 #@! TO.N,/+3V3*
X43180000Y9525000D03*
G04 #@! TD*
D12*
G04 #@! TO.P,J4,12*
G04 #@! TO.N,/+3V3*
X15240000Y32385000D03*
G04 #@! TO.P,J4,11*
G04 #@! TO.N,/ADC0*
X17780000Y32385000D03*
G04 #@! TO.P,J4,10*
G04 #@! TO.N,/ADC1*
X20320000Y32385000D03*
G04 #@! TO.P,J4,9*
G04 #@! TO.N,/ADC2*
X22860000Y32385000D03*
G04 #@! TO.P,J4,8*
G04 #@! TO.N,/ADC3*
X25400000Y32385000D03*
G04 #@! TO.P,J4,7*
G04 #@! TO.N,/GPIO32*
X27940000Y32385000D03*
G04 #@! TO.P,J4,6*
G04 #@! TO.N,/GPIO33*
X30480000Y32385000D03*
G04 #@! TO.P,J4,5*
G04 #@! TO.N,/GPIO25*
X33020000Y32385000D03*
G04 #@! TO.P,J4,4*
G04 #@! TO.N,/GPIO26*
X35560000Y32385000D03*
G04 #@! TO.P,J4,3*
G04 #@! TO.N,/GPIO27*
X38100000Y32385000D03*
G04 #@! TO.P,J4,2*
G04 #@! TO.N,/GND*
X40640000Y32385000D03*
D13*
G04 #@! TO.P,J4,1*
G04 #@! TO.N,VCC*
X43180000Y32385000D03*
G04 #@! TD*
D12*
G04 #@! TO.P,J2,8*
G04 #@! TO.N,/GPIO13*
X55880000Y12700000D03*
G04 #@! TO.P,J2,7*
G04 #@! TO.N,/GPIO17*
X55880000Y15240000D03*
G04 #@! TO.P,J2,6*
G04 #@! TO.N,VCC*
X55880000Y17780000D03*
G04 #@! TO.P,J2,5*
X55880000Y20320000D03*
G04 #@! TO.P,J2,4*
G04 #@! TO.N,GNDD*
X55880000Y22860000D03*
G04 #@! TO.P,J2,3*
X55880000Y25400000D03*
G04 #@! TO.P,J2,2*
G04 #@! TO.N,GNDA*
X55880000Y27940000D03*
D13*
G04 #@! TO.P,J2,1*
X55880000Y30480000D03*
G04 #@! TD*
D12*
G04 #@! TO.P,J1,8*
G04 #@! TO.N,/J1.8*
X7620000Y12700000D03*
G04 #@! TO.P,J1,7*
G04 #@! TO.N,/J1.7*
X7620000Y15240000D03*
G04 #@! TO.P,J1,6*
G04 #@! TO.N,/J1.6*
X7620000Y17780000D03*
G04 #@! TO.P,J1,5*
G04 #@! TO.N,/J1.5*
X7620000Y20320000D03*
G04 #@! TO.P,J1,4*
G04 #@! TO.N,/J1.4*
X7620000Y22860000D03*
G04 #@! TO.P,J1,3*
G04 #@! TO.N,/J1.3*
X7620000Y25400000D03*
G04 #@! TO.P,J1,2*
G04 #@! TO.N,/J1.2*
X7620000Y27940000D03*
D13*
G04 #@! TO.P,J1,1*
G04 #@! TO.N,/J1.1*
X7620000Y30480000D03*
G04 #@! TD*
D18*
G04 #@! TO.N,VCC*
X39370000Y6985000D03*
X33655000Y19050000D03*
G04 #@! TD*
D19*
G04 #@! TO.N,VCC*
X17780000Y17525202D02*
X17780000Y13335000D01*
X34925000Y6985000D02*
X33020000Y5080000D01*
X39370000Y6985000D02*
X34925000Y6985000D01*
X43180000Y32385000D02*
X45085000Y30480000D01*
X45085000Y22225000D02*
X47625000Y19685000D01*
X45085000Y30480000D02*
X45085000Y22225000D01*
X19304798Y19050000D02*
X17780000Y17525202D01*
X33655000Y19050000D02*
X19304798Y19050000D01*
D20*
G04 #@! TO.N,/GPIO15*
X29030001Y10974999D02*
X30480000Y9525000D01*
X29030001Y14784999D02*
X29030001Y10974999D01*
X26670000Y17145000D02*
X29030001Y14784999D01*
D19*
G04 #@! TO.N,/GND*
X24125001Y31119999D02*
X26670000Y28575000D01*
X51085000Y8255000D02*
X52070000Y9240000D01*
X46990000Y8255000D02*
X51085000Y8255000D01*
X53360010Y17449990D02*
X51125000Y19685000D01*
X53360010Y10530010D02*
X53360010Y17449990D01*
X52070000Y9240000D02*
X53360010Y10530010D01*
X19050000Y26044998D02*
X24125001Y31119999D01*
X19050000Y24765000D02*
X19050000Y26044998D01*
X45450000Y14010000D02*
X44450000Y14010000D01*
X51125000Y19685000D02*
X45450000Y14010000D01*
X12060001Y6345001D02*
X15240000Y9525000D01*
X6345001Y6345001D02*
X12060001Y6345001D01*
X5080000Y5080000D02*
X6345001Y6345001D01*
X43180000Y29845000D02*
X40640000Y32385000D01*
X43180000Y28575000D02*
X43180000Y29845000D01*
X21604999Y33709999D02*
X22820000Y34925000D01*
X17090001Y33709999D02*
X21604999Y33709999D01*
X15875000Y34925000D02*
X17090001Y33709999D01*
X22820000Y34925000D02*
X27305000Y34925000D01*
X36790000Y34925000D02*
X41315000Y34925000D01*
X24125001Y33619999D02*
X22820000Y34925000D01*
X24125001Y31119999D02*
X24125001Y33619999D01*
D20*
G04 #@! TO.N,/GPIO27*
X33020000Y7620000D02*
X30480000Y5080000D01*
X37465000Y7620000D02*
X33020000Y7620000D01*
X38100000Y7620000D02*
X37465000Y7620000D01*
X38303190Y7620000D02*
X37465000Y7620000D01*
X39118189Y8434999D02*
X38303190Y7620000D01*
X41730001Y9001799D02*
X41163201Y8434999D01*
X41163201Y8434999D02*
X39118189Y8434999D01*
X41730001Y10048201D02*
X41730001Y9001799D01*
X39549999Y12228203D02*
X41730001Y10048201D01*
X39549999Y13498203D02*
X39549999Y12228203D01*
X38100000Y14948202D02*
X39549999Y13498203D01*
X38100000Y32385000D02*
X38100000Y14948202D01*
G04 #@! TO.N,/ADC3*
X25400000Y32385000D02*
X26899999Y33884999D01*
X43815000Y34925000D02*
X42774999Y33884999D01*
X26899999Y33884999D02*
X42774999Y33884999D01*
G04 #@! TO.N,/GPIO25*
X36650001Y9001799D02*
X36083201Y8434999D01*
X36650001Y10048201D02*
X36650001Y9001799D01*
X34469999Y12228203D02*
X36650001Y10048201D01*
X34469999Y30935001D02*
X34469999Y12228203D01*
X33020000Y32385000D02*
X34469999Y30935001D01*
X28754999Y8434999D02*
X25400000Y5080000D01*
X36083201Y8434999D02*
X28754999Y8434999D01*
G04 #@! TO.N,/GPIO26*
X36650001Y12588201D02*
X39190001Y10048201D01*
X39190001Y9001799D02*
X38273191Y8084989D01*
X39190001Y10048201D02*
X39190001Y9001799D01*
X36650001Y31294999D02*
X36650001Y12588201D01*
X35560000Y32385000D02*
X36650001Y31294999D01*
X30944989Y8084989D02*
X27940000Y5080000D01*
X38273191Y8084989D02*
X30944989Y8084989D01*
G04 #@! TO.N,/A3*
X40640000Y15875000D02*
X39370000Y17145000D01*
X40640000Y13335000D02*
X40640000Y15875000D01*
D19*
G04 #@! TO.N,/+3V3*
X41914999Y4482797D02*
X41914999Y8259999D01*
X41247201Y3814999D02*
X41914999Y4482797D01*
X8885001Y3814999D02*
X41247201Y3814999D01*
X41914999Y8259999D02*
X43180000Y9525000D01*
X7620000Y5080000D02*
X8885001Y3814999D01*
X45760000Y9525000D02*
X46990000Y10755000D01*
X43180000Y9525000D02*
X45760000Y9525000D01*
X51585000Y10755000D02*
X52070000Y11240000D01*
X46990000Y10755000D02*
X51585000Y10755000D01*
D20*
G04 #@! TO.N,/GPIO2*
X19050000Y20955000D02*
X18460009Y20365009D01*
X18460009Y20278019D02*
X15875000Y17693010D01*
X18460009Y20365009D02*
X18460009Y20278019D01*
X26849999Y10615001D02*
X27940000Y9525000D01*
X18367997Y10615001D02*
X26849999Y10615001D01*
X15875000Y13107998D02*
X18367997Y10615001D01*
X15875000Y17693010D02*
X15875000Y13107998D01*
G04 #@! TO.N,/J1.5*
X9069999Y21769999D02*
X7620000Y20320000D01*
X14149999Y21769999D02*
X9069999Y21769999D01*
X15240000Y22860000D02*
X14149999Y21769999D01*
X29845000Y22860000D02*
X15240000Y22860000D01*
X31750000Y24765000D02*
X29845000Y22860000D01*
G04 #@! TO.N,/J1.4*
X7620000Y22860000D02*
X8710001Y23950001D01*
X8710001Y23950001D02*
X15419999Y23950001D01*
X15419999Y23950001D02*
X16159990Y23210010D01*
X31750000Y28575000D02*
X31750000Y26670000D01*
X31750000Y26670000D02*
X28290010Y23210010D01*
X16159990Y23210010D02*
X28290010Y23210010D01*
G04 #@! TO.N,/J6.2*
X9752002Y30480000D02*
X10795000Y30480000D01*
X8482002Y31750000D02*
X9752002Y30480000D01*
X5080000Y31750000D02*
X8482002Y31750000D01*
G04 #@! TO.N,/J6.3*
X9525000Y29210000D02*
X10795000Y27940000D01*
X5080000Y29210000D02*
X9525000Y29210000D01*
G04 #@! TO.N,/NotEnable*
X25729999Y21895001D02*
X26670000Y20955000D01*
X18598799Y21895001D02*
X25729999Y21895001D01*
X18109999Y21406201D02*
X18598799Y21895001D01*
X18109999Y20422997D02*
X18109999Y21406201D01*
X15524990Y14889990D02*
X13335000Y12700000D01*
X13335000Y12700000D02*
X10795000Y12700000D01*
X15524990Y17837988D02*
X15524990Y14889990D01*
X18109999Y20422997D02*
X15524990Y17837988D01*
G04 #@! TO.N,/J6.1*
X9525000Y34290000D02*
X10795000Y33020000D01*
X5080000Y34290000D02*
X9525000Y34290000D01*
X15240000Y28575000D02*
X19050000Y28575000D01*
X10795000Y33020000D02*
X15240000Y28575000D01*
G04 #@! TD*
D21*
G04 #@! TO.N,/GND*
G36*
X9479010Y21023411D02*
G01*
X9367068Y20753158D01*
X9310000Y20466260D01*
X9310000Y20173740D01*
X9367068Y19886842D01*
X9479010Y19616589D01*
X9641525Y19373368D01*
X9848368Y19166525D01*
X10022760Y19050000D01*
X9848368Y18933475D01*
X9641525Y18726632D01*
X9479010Y18483411D01*
X9367068Y18213158D01*
X9310000Y17926260D01*
X9310000Y17633740D01*
X9367068Y17346842D01*
X9479010Y17076589D01*
X9641525Y16833368D01*
X9848368Y16626525D01*
X10022760Y16510000D01*
X9848368Y16393475D01*
X9641525Y16186632D01*
X9479010Y15943411D01*
X9367068Y15673158D01*
X9310000Y15386260D01*
X9310000Y15093740D01*
X9367068Y14806842D01*
X9479010Y14536589D01*
X9641525Y14293368D01*
X9848368Y14086525D01*
X10022760Y13970000D01*
X9848368Y13853475D01*
X9641525Y13646632D01*
X9479010Y13403411D01*
X9367068Y13133158D01*
X9310000Y12846260D01*
X9310000Y12553740D01*
X9367068Y12266842D01*
X9479010Y11996589D01*
X9641525Y11753368D01*
X9773380Y11621513D01*
X9700820Y11599502D01*
X9590506Y11540537D01*
X9493815Y11461185D01*
X9414463Y11364494D01*
X9355498Y11254180D01*
X9319188Y11134482D01*
X9306928Y11010000D01*
X9306928Y9310000D01*
X9319188Y9185518D01*
X9355498Y9065820D01*
X9414463Y8955506D01*
X9493815Y8858815D01*
X9590506Y8779463D01*
X9700820Y8720498D01*
X9820518Y8684188D01*
X9945000Y8671928D01*
X11645000Y8671928D01*
X11769482Y8684188D01*
X11889180Y8720498D01*
X11999494Y8779463D01*
X12096185Y8858815D01*
X12175537Y8955506D01*
X12234502Y9065820D01*
X12265531Y9168109D01*
X13798519Y9168109D01*
X13895843Y8893748D01*
X14044822Y8643645D01*
X14239731Y8427412D01*
X14473080Y8253359D01*
X14735901Y8128175D01*
X14883110Y8083524D01*
X15113000Y8204845D01*
X15113000Y9398000D01*
X15367000Y9398000D01*
X15367000Y8204845D01*
X15596890Y8083524D01*
X15744099Y8128175D01*
X16006920Y8253359D01*
X16240269Y8427412D01*
X16435178Y8643645D01*
X16510000Y8769255D01*
X16584822Y8643645D01*
X16779731Y8427412D01*
X17013080Y8253359D01*
X17275901Y8128175D01*
X17423110Y8083524D01*
X17653000Y8204845D01*
X17653000Y9398000D01*
X15367000Y9398000D01*
X15113000Y9398000D01*
X13919186Y9398000D01*
X13798519Y9168109D01*
X12265531Y9168109D01*
X12270812Y9185518D01*
X12283072Y9310000D01*
X12283072Y9881891D01*
X13798519Y9881891D01*
X13919186Y9652000D01*
X15113000Y9652000D01*
X15113000Y10845155D01*
X14883110Y10966476D01*
X14735901Y10921825D01*
X14473080Y10796641D01*
X14239731Y10622588D01*
X14044822Y10406355D01*
X13895843Y10156252D01*
X13798519Y9881891D01*
X12283072Y9881891D01*
X12283072Y11010000D01*
X12270812Y11134482D01*
X12234502Y11254180D01*
X12175537Y11364494D01*
X12096185Y11461185D01*
X11999494Y11540537D01*
X11889180Y11599502D01*
X11816620Y11621513D01*
X11948475Y11753368D01*
X12083201Y11955000D01*
X13298410Y11955000D01*
X13335000Y11951396D01*
X13371590Y11955000D01*
X13371592Y11955000D01*
X13481045Y11965780D01*
X13621478Y12008380D01*
X13750902Y12077559D01*
X13864343Y12170657D01*
X13887669Y12199080D01*
X15130001Y13441412D01*
X15130001Y13144598D01*
X15126396Y13107998D01*
X15140781Y12961953D01*
X15183381Y12821520D01*
X15252559Y12692096D01*
X15322331Y12607078D01*
X15322337Y12607072D01*
X15345658Y12578655D01*
X15374075Y12555334D01*
X17094152Y10835257D01*
X17013080Y10796641D01*
X16779731Y10622588D01*
X16584822Y10406355D01*
X16510000Y10280745D01*
X16435178Y10406355D01*
X16240269Y10622588D01*
X16006920Y10796641D01*
X15744099Y10921825D01*
X15596890Y10966476D01*
X15367000Y10845155D01*
X15367000Y9652000D01*
X17653000Y9652000D01*
X17653000Y9672000D01*
X17907000Y9672000D01*
X17907000Y9652000D01*
X17927000Y9652000D01*
X17927000Y9398000D01*
X17907000Y9398000D01*
X17907000Y8204845D01*
X18136890Y8083524D01*
X18284099Y8128175D01*
X18546920Y8253359D01*
X18780269Y8427412D01*
X18975178Y8643645D01*
X19044805Y8760534D01*
X19166525Y8578368D01*
X19373368Y8371525D01*
X19616589Y8209010D01*
X19886842Y8097068D01*
X20173740Y8040000D01*
X20466260Y8040000D01*
X20753158Y8097068D01*
X21023411Y8209010D01*
X21266632Y8371525D01*
X21473475Y8578368D01*
X21590000Y8752760D01*
X21706525Y8578368D01*
X21913368Y8371525D01*
X22156589Y8209010D01*
X22426842Y8097068D01*
X22713740Y8040000D01*
X23006260Y8040000D01*
X23293158Y8097068D01*
X23563411Y8209010D01*
X23806632Y8371525D01*
X24013475Y8578368D01*
X24130000Y8752760D01*
X24246525Y8578368D01*
X24453368Y8371525D01*
X24696589Y8209010D01*
X24966842Y8097068D01*
X25253740Y8040000D01*
X25546260Y8040000D01*
X25833158Y8097068D01*
X26103411Y8209010D01*
X26346632Y8371525D01*
X26553475Y8578368D01*
X26670000Y8752760D01*
X26786525Y8578368D01*
X26993368Y8371525D01*
X27236589Y8209010D01*
X27405469Y8139058D01*
X25784101Y6517690D01*
X25546260Y6565000D01*
X25253740Y6565000D01*
X24966842Y6507932D01*
X24696589Y6395990D01*
X24453368Y6233475D01*
X24246525Y6026632D01*
X24130000Y5852240D01*
X24013475Y6026632D01*
X23806632Y6233475D01*
X23563411Y6395990D01*
X23293158Y6507932D01*
X23006260Y6565000D01*
X22713740Y6565000D01*
X22426842Y6507932D01*
X22156589Y6395990D01*
X21913368Y6233475D01*
X21706525Y6026632D01*
X21590000Y5852240D01*
X21473475Y6026632D01*
X21266632Y6233475D01*
X21023411Y6395990D01*
X20753158Y6507932D01*
X20466260Y6565000D01*
X20173740Y6565000D01*
X19886842Y6507932D01*
X19616589Y6395990D01*
X19373368Y6233475D01*
X19166525Y6026632D01*
X19050000Y5852240D01*
X18933475Y6026632D01*
X18726632Y6233475D01*
X18483411Y6395990D01*
X18213158Y6507932D01*
X17926260Y6565000D01*
X17633740Y6565000D01*
X17346842Y6507932D01*
X17076589Y6395990D01*
X16833368Y6233475D01*
X16626525Y6026632D01*
X16510000Y5852240D01*
X16393475Y6026632D01*
X16186632Y6233475D01*
X15943411Y6395990D01*
X15673158Y6507932D01*
X15386260Y6565000D01*
X15093740Y6565000D01*
X14806842Y6507932D01*
X14536589Y6395990D01*
X14293368Y6233475D01*
X14086525Y6026632D01*
X13970000Y5852240D01*
X13853475Y6026632D01*
X13646632Y6233475D01*
X13403411Y6395990D01*
X13133158Y6507932D01*
X12846260Y6565000D01*
X12553740Y6565000D01*
X12266842Y6507932D01*
X11996589Y6395990D01*
X11753368Y6233475D01*
X11546525Y6026632D01*
X11430000Y5852240D01*
X11313475Y6026632D01*
X11106632Y6233475D01*
X10863411Y6395990D01*
X10593158Y6507932D01*
X10306260Y6565000D01*
X10013740Y6565000D01*
X9726842Y6507932D01*
X9456589Y6395990D01*
X9213368Y6233475D01*
X9006525Y6026632D01*
X8890000Y5852240D01*
X8773475Y6026632D01*
X8566632Y6233475D01*
X8323411Y6395990D01*
X8053158Y6507932D01*
X7766260Y6565000D01*
X7473740Y6565000D01*
X7186842Y6507932D01*
X6916589Y6395990D01*
X6673368Y6233475D01*
X6541513Y6101620D01*
X6519502Y6174180D01*
X6460537Y6284494D01*
X6381185Y6381185D01*
X6284494Y6460537D01*
X6174180Y6519502D01*
X6054482Y6555812D01*
X5930000Y6568072D01*
X5365750Y6565000D01*
X5207000Y6406250D01*
X5207000Y5207000D01*
X5227000Y5207000D01*
X5227000Y4953000D01*
X5207000Y4953000D01*
X5207000Y4933000D01*
X4953000Y4933000D01*
X4953000Y4953000D01*
X4933000Y4953000D01*
X4933000Y5207000D01*
X4953000Y5207000D01*
X4953000Y6406250D01*
X4794250Y6565000D01*
X4230000Y6568072D01*
X4105518Y6555812D01*
X3985820Y6519502D01*
X3875506Y6460537D01*
X3835000Y6427295D01*
X3835000Y7707165D01*
X6735000Y7707165D01*
X6735000Y7532835D01*
X6769010Y7361855D01*
X6835723Y7200795D01*
X6932576Y7055845D01*
X7055845Y6932576D01*
X7200795Y6835723D01*
X7361855Y6769010D01*
X7532835Y6735000D01*
X7707165Y6735000D01*
X7878145Y6769010D01*
X8039205Y6835723D01*
X8184155Y6932576D01*
X8307424Y7055845D01*
X8404277Y7200795D01*
X8470990Y7361855D01*
X8505000Y7532835D01*
X8505000Y7707165D01*
X8470990Y7878145D01*
X8404277Y8039205D01*
X8307424Y8184155D01*
X8184155Y8307424D01*
X8039205Y8404277D01*
X7878145Y8470990D01*
X7707165Y8505000D01*
X7532835Y8505000D01*
X7361855Y8470990D01*
X7200795Y8404277D01*
X7055845Y8307424D01*
X6932576Y8184155D01*
X6835723Y8039205D01*
X6769010Y7878145D01*
X6735000Y7707165D01*
X3835000Y7707165D01*
X3835000Y9985345D01*
X3926525Y9848368D01*
X4133368Y9641525D01*
X4376589Y9479010D01*
X4646842Y9367068D01*
X4933740Y9310000D01*
X5226260Y9310000D01*
X5513158Y9367068D01*
X5783411Y9479010D01*
X6026632Y9641525D01*
X6233475Y9848368D01*
X6395990Y10091589D01*
X6507932Y10361842D01*
X6565000Y10648740D01*
X6565000Y10941260D01*
X6507932Y11228158D01*
X6395990Y11498411D01*
X6233475Y11741632D01*
X6026632Y11948475D01*
X5852240Y12065000D01*
X6026632Y12181525D01*
X6178775Y12333668D01*
X6192068Y12266842D01*
X6304010Y11996589D01*
X6466525Y11753368D01*
X6673368Y11546525D01*
X6916589Y11384010D01*
X7186842Y11272068D01*
X7473740Y11215000D01*
X7766260Y11215000D01*
X8053158Y11272068D01*
X8323411Y11384010D01*
X8566632Y11546525D01*
X8773475Y11753368D01*
X8935990Y11996589D01*
X9047932Y12266842D01*
X9105000Y12553740D01*
X9105000Y12846260D01*
X9047932Y13133158D01*
X8935990Y13403411D01*
X8773475Y13646632D01*
X8566632Y13853475D01*
X8392240Y13970000D01*
X8566632Y14086525D01*
X8773475Y14293368D01*
X8935990Y14536589D01*
X9047932Y14806842D01*
X9105000Y15093740D01*
X9105000Y15386260D01*
X9047932Y15673158D01*
X8935990Y15943411D01*
X8773475Y16186632D01*
X8566632Y16393475D01*
X8392240Y16510000D01*
X8566632Y16626525D01*
X8773475Y16833368D01*
X8935990Y17076589D01*
X9047932Y17346842D01*
X9105000Y17633740D01*
X9105000Y17926260D01*
X9047932Y18213158D01*
X8935990Y18483411D01*
X8773475Y18726632D01*
X8566632Y18933475D01*
X8392240Y19050000D01*
X8566632Y19166525D01*
X8773475Y19373368D01*
X8935990Y19616589D01*
X9047932Y19886842D01*
X9105000Y20173740D01*
X9105000Y20466260D01*
X9057690Y20704101D01*
X9378588Y21024999D01*
X9480071Y21024999D01*
X9479010Y21023411D01*
G37*
X9479010Y21023411D02*
X9367068Y20753158D01*
X9310000Y20466260D01*
X9310000Y20173740D01*
X9367068Y19886842D01*
X9479010Y19616589D01*
X9641525Y19373368D01*
X9848368Y19166525D01*
X10022760Y19050000D01*
X9848368Y18933475D01*
X9641525Y18726632D01*
X9479010Y18483411D01*
X9367068Y18213158D01*
X9310000Y17926260D01*
X9310000Y17633740D01*
X9367068Y17346842D01*
X9479010Y17076589D01*
X9641525Y16833368D01*
X9848368Y16626525D01*
X10022760Y16510000D01*
X9848368Y16393475D01*
X9641525Y16186632D01*
X9479010Y15943411D01*
X9367068Y15673158D01*
X9310000Y15386260D01*
X9310000Y15093740D01*
X9367068Y14806842D01*
X9479010Y14536589D01*
X9641525Y14293368D01*
X9848368Y14086525D01*
X10022760Y13970000D01*
X9848368Y13853475D01*
X9641525Y13646632D01*
X9479010Y13403411D01*
X9367068Y13133158D01*
X9310000Y12846260D01*
X9310000Y12553740D01*
X9367068Y12266842D01*
X9479010Y11996589D01*
X9641525Y11753368D01*
X9773380Y11621513D01*
X9700820Y11599502D01*
X9590506Y11540537D01*
X9493815Y11461185D01*
X9414463Y11364494D01*
X9355498Y11254180D01*
X9319188Y11134482D01*
X9306928Y11010000D01*
X9306928Y9310000D01*
X9319188Y9185518D01*
X9355498Y9065820D01*
X9414463Y8955506D01*
X9493815Y8858815D01*
X9590506Y8779463D01*
X9700820Y8720498D01*
X9820518Y8684188D01*
X9945000Y8671928D01*
X11645000Y8671928D01*
X11769482Y8684188D01*
X11889180Y8720498D01*
X11999494Y8779463D01*
X12096185Y8858815D01*
X12175537Y8955506D01*
X12234502Y9065820D01*
X12265531Y9168109D01*
X13798519Y9168109D01*
X13895843Y8893748D01*
X14044822Y8643645D01*
X14239731Y8427412D01*
X14473080Y8253359D01*
X14735901Y8128175D01*
X14883110Y8083524D01*
X15113000Y8204845D01*
X15113000Y9398000D01*
X15367000Y9398000D01*
X15367000Y8204845D01*
X15596890Y8083524D01*
X15744099Y8128175D01*
X16006920Y8253359D01*
X16240269Y8427412D01*
X16435178Y8643645D01*
X16510000Y8769255D01*
X16584822Y8643645D01*
X16779731Y8427412D01*
X17013080Y8253359D01*
X17275901Y8128175D01*
X17423110Y8083524D01*
X17653000Y8204845D01*
X17653000Y9398000D01*
X15367000Y9398000D01*
X15113000Y9398000D01*
X13919186Y9398000D01*
X13798519Y9168109D01*
X12265531Y9168109D01*
X12270812Y9185518D01*
X12283072Y9310000D01*
X12283072Y9881891D01*
X13798519Y9881891D01*
X13919186Y9652000D01*
X15113000Y9652000D01*
X15113000Y10845155D01*
X14883110Y10966476D01*
X14735901Y10921825D01*
X14473080Y10796641D01*
X14239731Y10622588D01*
X14044822Y10406355D01*
X13895843Y10156252D01*
X13798519Y9881891D01*
X12283072Y9881891D01*
X12283072Y11010000D01*
X12270812Y11134482D01*
X12234502Y11254180D01*
X12175537Y11364494D01*
X12096185Y11461185D01*
X11999494Y11540537D01*
X11889180Y11599502D01*
X11816620Y11621513D01*
X11948475Y11753368D01*
X12083201Y11955000D01*
X13298410Y11955000D01*
X13335000Y11951396D01*
X13371590Y11955000D01*
X13371592Y11955000D01*
X13481045Y11965780D01*
X13621478Y12008380D01*
X13750902Y12077559D01*
X13864343Y12170657D01*
X13887669Y12199080D01*
X15130001Y13441412D01*
X15130001Y13144598D01*
X15126396Y13107998D01*
X15140781Y12961953D01*
X15183381Y12821520D01*
X15252559Y12692096D01*
X15322331Y12607078D01*
X15322337Y12607072D01*
X15345658Y12578655D01*
X15374075Y12555334D01*
X17094152Y10835257D01*
X17013080Y10796641D01*
X16779731Y10622588D01*
X16584822Y10406355D01*
X16510000Y10280745D01*
X16435178Y10406355D01*
X16240269Y10622588D01*
X16006920Y10796641D01*
X15744099Y10921825D01*
X15596890Y10966476D01*
X15367000Y10845155D01*
X15367000Y9652000D01*
X17653000Y9652000D01*
X17653000Y9672000D01*
X17907000Y9672000D01*
X17907000Y9652000D01*
X17927000Y9652000D01*
X17927000Y9398000D01*
X17907000Y9398000D01*
X17907000Y8204845D01*
X18136890Y8083524D01*
X18284099Y8128175D01*
X18546920Y8253359D01*
X18780269Y8427412D01*
X18975178Y8643645D01*
X19044805Y8760534D01*
X19166525Y8578368D01*
X19373368Y8371525D01*
X19616589Y8209010D01*
X19886842Y8097068D01*
X20173740Y8040000D01*
X20466260Y8040000D01*
X20753158Y8097068D01*
X21023411Y8209010D01*
X21266632Y8371525D01*
X21473475Y8578368D01*
X21590000Y8752760D01*
X21706525Y8578368D01*
X21913368Y8371525D01*
X22156589Y8209010D01*
X22426842Y8097068D01*
X22713740Y8040000D01*
X23006260Y8040000D01*
X23293158Y8097068D01*
X23563411Y8209010D01*
X23806632Y8371525D01*
X24013475Y8578368D01*
X24130000Y8752760D01*
X24246525Y8578368D01*
X24453368Y8371525D01*
X24696589Y8209010D01*
X24966842Y8097068D01*
X25253740Y8040000D01*
X25546260Y8040000D01*
X25833158Y8097068D01*
X26103411Y8209010D01*
X26346632Y8371525D01*
X26553475Y8578368D01*
X26670000Y8752760D01*
X26786525Y8578368D01*
X26993368Y8371525D01*
X27236589Y8209010D01*
X27405469Y8139058D01*
X25784101Y6517690D01*
X25546260Y6565000D01*
X25253740Y6565000D01*
X24966842Y6507932D01*
X24696589Y6395990D01*
X24453368Y6233475D01*
X24246525Y6026632D01*
X24130000Y5852240D01*
X24013475Y6026632D01*
X23806632Y6233475D01*
X23563411Y6395990D01*
X23293158Y6507932D01*
X23006260Y6565000D01*
X22713740Y6565000D01*
X22426842Y6507932D01*
X22156589Y6395990D01*
X21913368Y6233475D01*
X21706525Y6026632D01*
X21590000Y5852240D01*
X21473475Y6026632D01*
X21266632Y6233475D01*
X21023411Y6395990D01*
X20753158Y6507932D01*
X20466260Y6565000D01*
X20173740Y6565000D01*
X19886842Y6507932D01*
X19616589Y6395990D01*
X19373368Y6233475D01*
X19166525Y6026632D01*
X19050000Y5852240D01*
X18933475Y6026632D01*
X18726632Y6233475D01*
X18483411Y6395990D01*
X18213158Y6507932D01*
X17926260Y6565000D01*
X17633740Y6565000D01*
X17346842Y6507932D01*
X17076589Y6395990D01*
X16833368Y6233475D01*
X16626525Y6026632D01*
X16510000Y5852240D01*
X16393475Y6026632D01*
X16186632Y6233475D01*
X15943411Y6395990D01*
X15673158Y6507932D01*
X15386260Y6565000D01*
X15093740Y6565000D01*
X14806842Y6507932D01*
X14536589Y6395990D01*
X14293368Y6233475D01*
X14086525Y6026632D01*
X13970000Y5852240D01*
X13853475Y6026632D01*
X13646632Y6233475D01*
X13403411Y6395990D01*
X13133158Y6507932D01*
X12846260Y6565000D01*
X12553740Y6565000D01*
X12266842Y6507932D01*
X11996589Y6395990D01*
X11753368Y6233475D01*
X11546525Y6026632D01*
X11430000Y5852240D01*
X11313475Y6026632D01*
X11106632Y6233475D01*
X10863411Y6395990D01*
X10593158Y6507932D01*
X10306260Y6565000D01*
X10013740Y6565000D01*
X9726842Y6507932D01*
X9456589Y6395990D01*
X9213368Y6233475D01*
X9006525Y6026632D01*
X8890000Y5852240D01*
X8773475Y6026632D01*
X8566632Y6233475D01*
X8323411Y6395990D01*
X8053158Y6507932D01*
X7766260Y6565000D01*
X7473740Y6565000D01*
X7186842Y6507932D01*
X6916589Y6395990D01*
X6673368Y6233475D01*
X6541513Y6101620D01*
X6519502Y6174180D01*
X6460537Y6284494D01*
X6381185Y6381185D01*
X6284494Y6460537D01*
X6174180Y6519502D01*
X6054482Y6555812D01*
X5930000Y6568072D01*
X5365750Y6565000D01*
X5207000Y6406250D01*
X5207000Y5207000D01*
X5227000Y5207000D01*
X5227000Y4953000D01*
X5207000Y4953000D01*
X5207000Y4933000D01*
X4953000Y4933000D01*
X4953000Y4953000D01*
X4933000Y4953000D01*
X4933000Y5207000D01*
X4953000Y5207000D01*
X4953000Y6406250D01*
X4794250Y6565000D01*
X4230000Y6568072D01*
X4105518Y6555812D01*
X3985820Y6519502D01*
X3875506Y6460537D01*
X3835000Y6427295D01*
X3835000Y7707165D01*
X6735000Y7707165D01*
X6735000Y7532835D01*
X6769010Y7361855D01*
X6835723Y7200795D01*
X6932576Y7055845D01*
X7055845Y6932576D01*
X7200795Y6835723D01*
X7361855Y6769010D01*
X7532835Y6735000D01*
X7707165Y6735000D01*
X7878145Y6769010D01*
X8039205Y6835723D01*
X8184155Y6932576D01*
X8307424Y7055845D01*
X8404277Y7200795D01*
X8470990Y7361855D01*
X8505000Y7532835D01*
X8505000Y7707165D01*
X8470990Y7878145D01*
X8404277Y8039205D01*
X8307424Y8184155D01*
X8184155Y8307424D01*
X8039205Y8404277D01*
X7878145Y8470990D01*
X7707165Y8505000D01*
X7532835Y8505000D01*
X7361855Y8470990D01*
X7200795Y8404277D01*
X7055845Y8307424D01*
X6932576Y8184155D01*
X6835723Y8039205D01*
X6769010Y7878145D01*
X6735000Y7707165D01*
X3835000Y7707165D01*
X3835000Y9985345D01*
X3926525Y9848368D01*
X4133368Y9641525D01*
X4376589Y9479010D01*
X4646842Y9367068D01*
X4933740Y9310000D01*
X5226260Y9310000D01*
X5513158Y9367068D01*
X5783411Y9479010D01*
X6026632Y9641525D01*
X6233475Y9848368D01*
X6395990Y10091589D01*
X6507932Y10361842D01*
X6565000Y10648740D01*
X6565000Y10941260D01*
X6507932Y11228158D01*
X6395990Y11498411D01*
X6233475Y11741632D01*
X6026632Y11948475D01*
X5852240Y12065000D01*
X6026632Y12181525D01*
X6178775Y12333668D01*
X6192068Y12266842D01*
X6304010Y11996589D01*
X6466525Y11753368D01*
X6673368Y11546525D01*
X6916589Y11384010D01*
X7186842Y11272068D01*
X7473740Y11215000D01*
X7766260Y11215000D01*
X8053158Y11272068D01*
X8323411Y11384010D01*
X8566632Y11546525D01*
X8773475Y11753368D01*
X8935990Y11996589D01*
X9047932Y12266842D01*
X9105000Y12553740D01*
X9105000Y12846260D01*
X9047932Y13133158D01*
X8935990Y13403411D01*
X8773475Y13646632D01*
X8566632Y13853475D01*
X8392240Y13970000D01*
X8566632Y14086525D01*
X8773475Y14293368D01*
X8935990Y14536589D01*
X9047932Y14806842D01*
X9105000Y15093740D01*
X9105000Y15386260D01*
X9047932Y15673158D01*
X8935990Y15943411D01*
X8773475Y16186632D01*
X8566632Y16393475D01*
X8392240Y16510000D01*
X8566632Y16626525D01*
X8773475Y16833368D01*
X8935990Y17076589D01*
X9047932Y17346842D01*
X9105000Y17633740D01*
X9105000Y17926260D01*
X9047932Y18213158D01*
X8935990Y18483411D01*
X8773475Y18726632D01*
X8566632Y18933475D01*
X8392240Y19050000D01*
X8566632Y19166525D01*
X8773475Y19373368D01*
X8935990Y19616589D01*
X9047932Y19886842D01*
X9105000Y20173740D01*
X9105000Y20466260D01*
X9057690Y20704101D01*
X9378588Y21024999D01*
X9480071Y21024999D01*
X9479010Y21023411D01*
G36*
X52822869Y35520278D02*
G01*
X52936246Y35486047D01*
X53040819Y35430445D01*
X53132596Y35355593D01*
X53208091Y35264336D01*
X53264419Y35160156D01*
X53299440Y35047024D01*
X53317855Y34871812D01*
X53317747Y34856318D01*
X53318646Y34847147D01*
X53344554Y34600643D01*
X53356589Y34542014D01*
X53367792Y34483284D01*
X53370456Y34474462D01*
X53443751Y34237686D01*
X53466931Y34182543D01*
X53489339Y34127080D01*
X53493665Y34118946D01*
X53493667Y34118941D01*
X53493670Y34118936D01*
X53611553Y33900914D01*
X53644988Y33851346D01*
X53677759Y33801265D01*
X53683584Y33794124D01*
X53841577Y33603144D01*
X53884012Y33561005D01*
X53925875Y33518255D01*
X53932976Y33512382D01*
X54125053Y33355727D01*
X54174875Y33322626D01*
X54224237Y33288827D01*
X54232343Y33284444D01*
X54451191Y33168081D01*
X54506479Y33145293D01*
X54561475Y33121721D01*
X54570278Y33118997D01*
X54807559Y33047357D01*
X54866246Y33035736D01*
X54924752Y33023300D01*
X54933915Y33022337D01*
X54933917Y33022337D01*
X55180595Y32998150D01*
X55180598Y32998150D01*
X55212581Y32995000D01*
X56482721Y32995000D01*
X56632869Y32980278D01*
X56746246Y32946047D01*
X56850819Y32890445D01*
X56942596Y32815593D01*
X57018091Y32724336D01*
X57074419Y32620156D01*
X57109440Y32507024D01*
X57125001Y32358969D01*
X57125001Y31827294D01*
X57084494Y31860537D01*
X56974180Y31919502D01*
X56854482Y31955812D01*
X56730000Y31968072D01*
X55030000Y31968072D01*
X54905518Y31955812D01*
X54785820Y31919502D01*
X54675506Y31860537D01*
X54578815Y31781185D01*
X54499463Y31684494D01*
X54440498Y31574180D01*
X54404188Y31454482D01*
X54391928Y31330000D01*
X54391928Y29630000D01*
X54404188Y29505518D01*
X54440498Y29385820D01*
X54499463Y29275506D01*
X54578815Y29178815D01*
X54675506Y29099463D01*
X54785820Y29040498D01*
X54858380Y29018487D01*
X54726525Y28886632D01*
X54564010Y28643411D01*
X54452068Y28373158D01*
X54395000Y28086260D01*
X54395000Y27793740D01*
X54452068Y27506842D01*
X54564010Y27236589D01*
X54726525Y26993368D01*
X54933368Y26786525D01*
X55107760Y26670000D01*
X54933368Y26553475D01*
X54726525Y26346632D01*
X54564010Y26103411D01*
X54452068Y25833158D01*
X54395000Y25546260D01*
X54395000Y25253740D01*
X54452068Y24966842D01*
X54564010Y24696589D01*
X54726525Y24453368D01*
X54933368Y24246525D01*
X55107760Y24130000D01*
X54933368Y24013475D01*
X54726525Y23806632D01*
X54564010Y23563411D01*
X54452068Y23293158D01*
X54395000Y23006260D01*
X54395000Y22713740D01*
X54452068Y22426842D01*
X54564010Y22156589D01*
X54726525Y21913368D01*
X54933368Y21706525D01*
X55107760Y21590000D01*
X54933368Y21473475D01*
X54726525Y21266632D01*
X54564010Y21023411D01*
X54452068Y20753158D01*
X54395000Y20466260D01*
X54395000Y20173740D01*
X54452068Y19886842D01*
X54564010Y19616589D01*
X54726525Y19373368D01*
X54933368Y19166525D01*
X55107760Y19050000D01*
X54933368Y18933475D01*
X54726525Y18726632D01*
X54564010Y18483411D01*
X54452068Y18213158D01*
X54395000Y17926260D01*
X54395000Y17633740D01*
X54452068Y17346842D01*
X54564010Y17076589D01*
X54726525Y16833368D01*
X54933368Y16626525D01*
X55107760Y16510000D01*
X54933368Y16393475D01*
X54726525Y16186632D01*
X54564010Y15943411D01*
X54452068Y15673158D01*
X54395000Y15386260D01*
X54395000Y15093740D01*
X54452068Y14806842D01*
X54564010Y14536589D01*
X54726525Y14293368D01*
X54933368Y14086525D01*
X55107760Y13970000D01*
X54933368Y13853475D01*
X54726525Y13646632D01*
X54564010Y13403411D01*
X54452068Y13133158D01*
X54395000Y12846260D01*
X54395000Y12553740D01*
X54452068Y12266842D01*
X54564010Y11996589D01*
X54726525Y11753368D01*
X54933368Y11546525D01*
X55176589Y11384010D01*
X55446842Y11272068D01*
X55733740Y11215000D01*
X56026260Y11215000D01*
X56313158Y11272068D01*
X56583411Y11384010D01*
X56826632Y11546525D01*
X57033475Y11753368D01*
X57125000Y11890345D01*
X57125000Y5889655D01*
X57033475Y6026632D01*
X56826632Y6233475D01*
X56583411Y6395990D01*
X56313158Y6507932D01*
X56026260Y6565000D01*
X55733740Y6565000D01*
X55446842Y6507932D01*
X55176589Y6395990D01*
X54933368Y6233475D01*
X54726525Y6026632D01*
X54610000Y5852240D01*
X54493475Y6026632D01*
X54286632Y6233475D01*
X54043411Y6395990D01*
X53773158Y6507932D01*
X53486260Y6565000D01*
X53193740Y6565000D01*
X52906842Y6507932D01*
X52636589Y6395990D01*
X52393368Y6233475D01*
X52186525Y6026632D01*
X52070000Y5852240D01*
X51953475Y6026632D01*
X51746632Y6233475D01*
X51503411Y6395990D01*
X51233158Y6507932D01*
X50946260Y6565000D01*
X50653740Y6565000D01*
X50366842Y6507932D01*
X50096589Y6395990D01*
X49853368Y6233475D01*
X49646525Y6026632D01*
X49530000Y5852240D01*
X49413475Y6026632D01*
X49206632Y6233475D01*
X48963411Y6395990D01*
X48693158Y6507932D01*
X48406260Y6565000D01*
X48113740Y6565000D01*
X47826842Y6507932D01*
X47556589Y6395990D01*
X47313368Y6233475D01*
X47106525Y6026632D01*
X46990000Y5852240D01*
X46873475Y6026632D01*
X46666632Y6233475D01*
X46423411Y6395990D01*
X46153158Y6507932D01*
X45866260Y6565000D01*
X45573740Y6565000D01*
X45286842Y6507932D01*
X45016589Y6395990D01*
X44773368Y6233475D01*
X44566525Y6026632D01*
X44450000Y5852240D01*
X44333475Y6026632D01*
X44126632Y6233475D01*
X43883411Y6395990D01*
X43613158Y6507932D01*
X43326260Y6565000D01*
X43033740Y6565000D01*
X42834999Y6525468D01*
X42834999Y7262298D01*
X46176903Y7262298D01*
X46248486Y7018329D01*
X46503996Y6897429D01*
X46778184Y6828700D01*
X47060512Y6814783D01*
X47340130Y6856213D01*
X47606292Y6951397D01*
X47731514Y7018329D01*
X47803097Y7262298D01*
X46990000Y8075395D01*
X46176903Y7262298D01*
X42834999Y7262298D01*
X42834999Y7878924D01*
X42993004Y8036928D01*
X44030000Y8036928D01*
X44154482Y8049188D01*
X44274180Y8085498D01*
X44384494Y8144463D01*
X44481185Y8223815D01*
X44560537Y8320506D01*
X44619502Y8430820D01*
X44655812Y8550518D01*
X44661178Y8605000D01*
X45598338Y8605000D01*
X45563700Y8466816D01*
X45549783Y8184488D01*
X45591213Y7904870D01*
X45686397Y7638708D01*
X45753329Y7513486D01*
X45997298Y7441903D01*
X46810395Y8255000D01*
X47169605Y8255000D01*
X47982702Y7441903D01*
X48226671Y7513486D01*
X48318314Y7707165D01*
X54995000Y7707165D01*
X54995000Y7532835D01*
X55029010Y7361855D01*
X55095723Y7200795D01*
X55192576Y7055845D01*
X55315845Y6932576D01*
X55460795Y6835723D01*
X55621855Y6769010D01*
X55792835Y6735000D01*
X55967165Y6735000D01*
X56138145Y6769010D01*
X56299205Y6835723D01*
X56444155Y6932576D01*
X56567424Y7055845D01*
X56664277Y7200795D01*
X56730990Y7361855D01*
X56765000Y7532835D01*
X56765000Y7707165D01*
X56730990Y7878145D01*
X56664277Y8039205D01*
X56567424Y8184155D01*
X56444155Y8307424D01*
X56299205Y8404277D01*
X56138145Y8470990D01*
X55967165Y8505000D01*
X55792835Y8505000D01*
X55621855Y8470990D01*
X55460795Y8404277D01*
X55315845Y8307424D01*
X55192576Y8184155D01*
X55095723Y8039205D01*
X55029010Y7878145D01*
X54995000Y7707165D01*
X48318314Y7707165D01*
X48347571Y7768996D01*
X48416300Y8043184D01*
X48430217Y8325512D01*
X48388787Y8605130D01*
X48293603Y8871292D01*
X48266291Y8922391D01*
X50601538Y8922391D01*
X50605409Y8884718D01*
X50697579Y8659467D01*
X50831922Y8456526D01*
X51003275Y8283693D01*
X51205054Y8147610D01*
X51429504Y8053507D01*
X51668000Y8005000D01*
X51943000Y8005000D01*
X51943000Y9113000D01*
X52197000Y9113000D01*
X52197000Y8005000D01*
X52472000Y8005000D01*
X52710496Y8053507D01*
X52934946Y8147610D01*
X53136725Y8283693D01*
X53308078Y8456526D01*
X53442421Y8659467D01*
X53534591Y8884718D01*
X53538462Y8922391D01*
X53413731Y9113000D01*
X52197000Y9113000D01*
X51943000Y9113000D01*
X50726269Y9113000D01*
X50601538Y8922391D01*
X48266291Y8922391D01*
X48226671Y8996514D01*
X47982702Y9068097D01*
X47169605Y8255000D01*
X46810395Y8255000D01*
X46796253Y8269142D01*
X46975858Y8448747D01*
X46990000Y8434605D01*
X47803097Y9247702D01*
X47731514Y9491671D01*
X47702659Y9505324D01*
X47904759Y9640363D01*
X48099396Y9835000D01*
X50707156Y9835000D01*
X50697579Y9820533D01*
X50605409Y9595282D01*
X50601538Y9557609D01*
X50726269Y9367000D01*
X51943000Y9367000D01*
X51943000Y9387000D01*
X52197000Y9387000D01*
X52197000Y9367000D01*
X53413731Y9367000D01*
X53538462Y9557609D01*
X53534591Y9595282D01*
X53442421Y9820533D01*
X53308078Y10023474D01*
X53136725Y10196307D01*
X53072652Y10239519D01*
X53222502Y10362498D01*
X53376833Y10550551D01*
X53491511Y10765099D01*
X53562130Y10997898D01*
X53585975Y11240000D01*
X53562130Y11482102D01*
X53491511Y11714901D01*
X53376833Y11929449D01*
X53222502Y12117502D01*
X53073238Y12240000D01*
X53222502Y12362498D01*
X53376833Y12550551D01*
X53491511Y12765099D01*
X53562130Y12997898D01*
X53585975Y13240000D01*
X53562130Y13482102D01*
X53491511Y13714901D01*
X53376833Y13929449D01*
X53222502Y14117502D01*
X53183889Y14149191D01*
X53188387Y14151595D01*
X53322962Y14262038D01*
X53433405Y14396613D01*
X53515472Y14550149D01*
X53566008Y14716745D01*
X53583072Y14889999D01*
X53583072Y15590001D01*
X53566008Y15763255D01*
X53515472Y15929851D01*
X53433405Y16083387D01*
X53322962Y16217962D01*
X53188387Y16328405D01*
X53034851Y16410472D01*
X52868255Y16461008D01*
X52695001Y16478072D01*
X51444999Y16478072D01*
X51271745Y16461008D01*
X51105149Y16410472D01*
X50951613Y16328405D01*
X50817038Y16217962D01*
X50706595Y16083387D01*
X50624528Y15929851D01*
X50573992Y15763255D01*
X50556928Y15590001D01*
X50556928Y14889999D01*
X50573992Y14716745D01*
X50624528Y14550149D01*
X50706595Y14396613D01*
X50817038Y14262038D01*
X50951613Y14151595D01*
X50956111Y14149191D01*
X50917498Y14117502D01*
X50763167Y13929449D01*
X50648489Y13714901D01*
X50577870Y13482102D01*
X50554025Y13240000D01*
X50577870Y12997898D01*
X50648489Y12765099D01*
X50763167Y12550551D01*
X50917498Y12362498D01*
X51066762Y12240000D01*
X50917498Y12117502D01*
X50763167Y11929449D01*
X50648489Y11714901D01*
X50636385Y11675000D01*
X48099396Y11675000D01*
X47904759Y11869637D01*
X47669727Y12026680D01*
X47408574Y12134853D01*
X47131335Y12190000D01*
X46848665Y12190000D01*
X46571426Y12134853D01*
X46310273Y12026680D01*
X46075241Y11869637D01*
X45875363Y11669759D01*
X45718320Y11434727D01*
X45610147Y11173574D01*
X45555000Y10896335D01*
X45555000Y10621076D01*
X45378925Y10445000D01*
X44661178Y10445000D01*
X44655812Y10499482D01*
X44619502Y10619180D01*
X44560537Y10729494D01*
X44481185Y10826185D01*
X44384494Y10905537D01*
X44274180Y10964502D01*
X44154482Y11000812D01*
X44030000Y11013072D01*
X42330000Y11013072D01*
X42205518Y11000812D01*
X42085820Y10964502D01*
X41975506Y10905537D01*
X41948455Y10883336D01*
X40949350Y11882441D01*
X41073158Y11907068D01*
X41343411Y12019010D01*
X41586632Y12181525D01*
X41793475Y12388368D01*
X41955990Y12631589D01*
X42067932Y12901842D01*
X42090897Y13017298D01*
X43636903Y13017298D01*
X43708486Y12773329D01*
X43963996Y12652429D01*
X44238184Y12583700D01*
X44520512Y12569783D01*
X44800130Y12611213D01*
X45066292Y12706397D01*
X45191514Y12773329D01*
X45263097Y13017298D01*
X44450000Y13830395D01*
X43636903Y13017298D01*
X42090897Y13017298D01*
X42125000Y13188740D01*
X42125000Y13481260D01*
X42067932Y13768158D01*
X41996966Y13939488D01*
X43009783Y13939488D01*
X43051213Y13659870D01*
X43146397Y13393708D01*
X43213329Y13268486D01*
X43457298Y13196903D01*
X44270395Y14010000D01*
X44629605Y14010000D01*
X45442702Y13196903D01*
X45686671Y13268486D01*
X45807571Y13523996D01*
X45876300Y13798184D01*
X45890217Y14080512D01*
X45848787Y14360130D01*
X45753603Y14626292D01*
X45686671Y14751514D01*
X45442702Y14823097D01*
X44629605Y14010000D01*
X44270395Y14010000D01*
X43457298Y14823097D01*
X43213329Y14751514D01*
X43092429Y14496004D01*
X43023700Y14221816D01*
X43009783Y13939488D01*
X41996966Y13939488D01*
X41955990Y14038411D01*
X41793475Y14281632D01*
X41586632Y14488475D01*
X41385000Y14623201D01*
X41385000Y15838419D01*
X41388603Y15875001D01*
X41385000Y15911583D01*
X41385000Y15911592D01*
X41374220Y16021045D01*
X41331620Y16161478D01*
X41299418Y16221724D01*
X41262441Y16290903D01*
X41192668Y16375921D01*
X41169343Y16404343D01*
X41140920Y16427669D01*
X40917254Y16651335D01*
X43015000Y16651335D01*
X43015000Y16368665D01*
X43070147Y16091426D01*
X43178320Y15830273D01*
X43335363Y15595241D01*
X43535241Y15395363D01*
X43735869Y15261308D01*
X43708486Y15246671D01*
X43636903Y15002702D01*
X44450000Y14189605D01*
X45263097Y15002702D01*
X45191514Y15246671D01*
X45162659Y15260324D01*
X45364759Y15395363D01*
X45564637Y15595241D01*
X45721680Y15830273D01*
X45829853Y16091426D01*
X45885000Y16368665D01*
X45885000Y16651335D01*
X45829853Y16928574D01*
X45721680Y17189727D01*
X45564637Y17424759D01*
X45364759Y17624637D01*
X45129727Y17781680D01*
X44868574Y17889853D01*
X44591335Y17945000D01*
X44308665Y17945000D01*
X44031426Y17889853D01*
X43770273Y17781680D01*
X43535241Y17624637D01*
X43335363Y17424759D01*
X43178320Y17189727D01*
X43070147Y16928574D01*
X43015000Y16651335D01*
X40917254Y16651335D01*
X40680126Y16888463D01*
X40705000Y17013514D01*
X40705000Y17276486D01*
X40653696Y17534405D01*
X40553061Y17777359D01*
X40406962Y17996013D01*
X40221013Y18181962D01*
X40002359Y18328061D01*
X39759405Y18428696D01*
X39501486Y18480000D01*
X39238514Y18480000D01*
X38980595Y18428696D01*
X38845000Y18372531D01*
X38845000Y19727469D01*
X38980595Y19671304D01*
X39238514Y19620000D01*
X39501486Y19620000D01*
X39759405Y19671304D01*
X40002359Y19771939D01*
X40221013Y19918038D01*
X40406962Y20103987D01*
X40553061Y20322641D01*
X40653696Y20565595D01*
X40705000Y20823514D01*
X40705000Y21086486D01*
X41845000Y21086486D01*
X41845000Y20823514D01*
X41896304Y20565595D01*
X41996939Y20322641D01*
X42143038Y20103987D01*
X42328987Y19918038D01*
X42547641Y19771939D01*
X42790595Y19671304D01*
X43048514Y19620000D01*
X43311486Y19620000D01*
X43569405Y19671304D01*
X43812359Y19771939D01*
X44031013Y19918038D01*
X44216962Y20103987D01*
X44363061Y20322641D01*
X44463696Y20565595D01*
X44515000Y20823514D01*
X44515000Y21086486D01*
X44463696Y21344405D01*
X44363061Y21587359D01*
X44216962Y21806013D01*
X44031013Y21991962D01*
X43812359Y22138061D01*
X43569405Y22238696D01*
X43311486Y22290000D01*
X43048514Y22290000D01*
X42790595Y22238696D01*
X42547641Y22138061D01*
X42328987Y21991962D01*
X42143038Y21806013D01*
X41996939Y21587359D01*
X41896304Y21344405D01*
X41845000Y21086486D01*
X40705000Y21086486D01*
X40653696Y21344405D01*
X40553061Y21587359D01*
X40406962Y21806013D01*
X40221013Y21991962D01*
X40002359Y22138061D01*
X39759405Y22238696D01*
X39501486Y22290000D01*
X39238514Y22290000D01*
X38980595Y22238696D01*
X38845000Y22182531D01*
X38845000Y23537469D01*
X38980595Y23481304D01*
X39238514Y23430000D01*
X39501486Y23430000D01*
X39759405Y23481304D01*
X40002359Y23581939D01*
X40221013Y23728038D01*
X40406962Y23913987D01*
X40553061Y24132641D01*
X40653696Y24375595D01*
X40705000Y24633514D01*
X40705000Y24896486D01*
X40653696Y25154405D01*
X40553061Y25397359D01*
X40406962Y25616013D01*
X40221013Y25801962D01*
X40002359Y25948061D01*
X39759405Y26048696D01*
X39501486Y26100000D01*
X39238514Y26100000D01*
X38980595Y26048696D01*
X38845000Y25992531D01*
X38845000Y27347469D01*
X38980595Y27291304D01*
X39238514Y27240000D01*
X39501486Y27240000D01*
X39759405Y27291304D01*
X40002359Y27391939D01*
X40221013Y27538038D01*
X40406962Y27723987D01*
X40553061Y27942641D01*
X40653696Y28185595D01*
X40664850Y28241670D01*
X41887278Y28241670D01*
X41977147Y27995877D01*
X42113241Y27772340D01*
X42290330Y27579649D01*
X42501608Y27425208D01*
X42738956Y27314953D01*
X42846671Y27282284D01*
X43053000Y27405626D01*
X43053000Y28448000D01*
X42009799Y28448000D01*
X41887278Y28241670D01*
X40664850Y28241670D01*
X40705000Y28443514D01*
X40705000Y28706486D01*
X40664851Y28908330D01*
X41887278Y28908330D01*
X42009799Y28702000D01*
X43053000Y28702000D01*
X43053000Y29744374D01*
X42846671Y29867716D01*
X42738956Y29835047D01*
X42501608Y29724792D01*
X42290330Y29570351D01*
X42113241Y29377660D01*
X41977147Y29154123D01*
X41887278Y28908330D01*
X40664851Y28908330D01*
X40653696Y28964405D01*
X40553061Y29207359D01*
X40406962Y29426013D01*
X40221013Y29611962D01*
X40002359Y29758061D01*
X39759405Y29858696D01*
X39501486Y29910000D01*
X39238514Y29910000D01*
X38980595Y29858696D01*
X38845000Y29802531D01*
X38845000Y31096799D01*
X39046632Y31231525D01*
X39253475Y31438368D01*
X39375195Y31620534D01*
X39444822Y31503645D01*
X39639731Y31287412D01*
X39873080Y31113359D01*
X40135901Y30988175D01*
X40283110Y30943524D01*
X40513000Y31064845D01*
X40513000Y32258000D01*
X40493000Y32258000D01*
X40493000Y32512000D01*
X40513000Y32512000D01*
X40513000Y32532000D01*
X40767000Y32532000D01*
X40767000Y32512000D01*
X40787000Y32512000D01*
X40787000Y32258000D01*
X40767000Y32258000D01*
X40767000Y31064845D01*
X40996890Y30943524D01*
X41144099Y30988175D01*
X41406920Y31113359D01*
X41640269Y31287412D01*
X41716034Y31371466D01*
X41740498Y31290820D01*
X41799463Y31180506D01*
X41878815Y31083815D01*
X41975506Y31004463D01*
X42085820Y30945498D01*
X42205518Y30909188D01*
X42330000Y30896928D01*
X43366997Y30896928D01*
X44165000Y30098924D01*
X44165000Y29466622D01*
X44069670Y29570351D01*
X43858392Y29724792D01*
X43621044Y29835047D01*
X43513329Y29867716D01*
X43307000Y29744374D01*
X43307000Y28702000D01*
X43327000Y28702000D01*
X43327000Y28448000D01*
X43307000Y28448000D01*
X43307000Y27405626D01*
X43513329Y27282284D01*
X43621044Y27314953D01*
X43858392Y27425208D01*
X44069670Y27579649D01*
X44165000Y27683378D01*
X44165001Y22270199D01*
X44160549Y22225000D01*
X44178313Y22044649D01*
X44230919Y21871229D01*
X44296823Y21747932D01*
X44316348Y21711403D01*
X44431315Y21571314D01*
X44466424Y21542501D01*
X46186928Y19821996D01*
X46186928Y18885000D01*
X46199188Y18760518D01*
X46235498Y18640820D01*
X46294463Y18530506D01*
X46373815Y18433815D01*
X46470506Y18354463D01*
X46580820Y18295498D01*
X46700518Y18259188D01*
X46825000Y18246928D01*
X48425000Y18246928D01*
X48549482Y18259188D01*
X48669180Y18295498D01*
X48779494Y18354463D01*
X48876185Y18433815D01*
X48955537Y18530506D01*
X49014502Y18640820D01*
X49030117Y18692298D01*
X50311903Y18692298D01*
X50383486Y18448329D01*
X50638996Y18327429D01*
X50913184Y18258700D01*
X51195512Y18244783D01*
X51475130Y18286213D01*
X51741292Y18381397D01*
X51866514Y18448329D01*
X51938097Y18692298D01*
X51125000Y19505395D01*
X50311903Y18692298D01*
X49030117Y18692298D01*
X49050812Y18760518D01*
X49063072Y18885000D01*
X49063072Y19614488D01*
X49684783Y19614488D01*
X49726213Y19334870D01*
X49821397Y19068708D01*
X49888329Y18943486D01*
X50132298Y18871903D01*
X50945395Y19685000D01*
X51304605Y19685000D01*
X52117702Y18871903D01*
X52361671Y18943486D01*
X52482571Y19198996D01*
X52551300Y19473184D01*
X52565217Y19755512D01*
X52523787Y20035130D01*
X52428603Y20301292D01*
X52361671Y20426514D01*
X52117702Y20498097D01*
X51304605Y19685000D01*
X50945395Y19685000D01*
X50132298Y20498097D01*
X49888329Y20426514D01*
X49767429Y20171004D01*
X49698700Y19896816D01*
X49684783Y19614488D01*
X49063072Y19614488D01*
X49063072Y20485000D01*
X49050812Y20609482D01*
X49030118Y20677702D01*
X50311903Y20677702D01*
X51125000Y19864605D01*
X51938097Y20677702D01*
X51866514Y20921671D01*
X51611004Y21042571D01*
X51336816Y21111300D01*
X51054488Y21125217D01*
X50774870Y21083787D01*
X50508708Y20988603D01*
X50383486Y20921671D01*
X50311903Y20677702D01*
X49030118Y20677702D01*
X49014502Y20729180D01*
X48955537Y20839494D01*
X48876185Y20936185D01*
X48779494Y21015537D01*
X48669180Y21074502D01*
X48549482Y21110812D01*
X48425000Y21123072D01*
X47488004Y21123072D01*
X46005000Y22606075D01*
X46005000Y30434811D01*
X46009451Y30480000D01*
X46004921Y30525990D01*
X45991688Y30660351D01*
X45939081Y30833772D01*
X45853653Y30993597D01*
X45738686Y31133686D01*
X45703578Y31162498D01*
X44668072Y32198003D01*
X44668072Y33235000D01*
X44655812Y33359482D01*
X44619502Y33479180D01*
X44560537Y33589494D01*
X44503400Y33659115D01*
X44729759Y33810363D01*
X44929637Y34010241D01*
X45086680Y34245273D01*
X45194853Y34506426D01*
X45250000Y34783665D01*
X45250000Y35066335D01*
X45194853Y35343574D01*
X45115562Y35535000D01*
X52672721Y35535000D01*
X52822869Y35520278D01*
G37*
X52822869Y35520278D02*
X52936246Y35486047D01*
X53040819Y35430445D01*
X53132596Y35355593D01*
X53208091Y35264336D01*
X53264419Y35160156D01*
X53299440Y35047024D01*
X53317855Y34871812D01*
X53317747Y34856318D01*
X53318646Y34847147D01*
X53344554Y34600643D01*
X53356589Y34542014D01*
X53367792Y34483284D01*
X53370456Y34474462D01*
X53443751Y34237686D01*
X53466931Y34182543D01*
X53489339Y34127080D01*
X53493665Y34118946D01*
X53493667Y34118941D01*
X53493670Y34118936D01*
X53611553Y33900914D01*
X53644988Y33851346D01*
X53677759Y33801265D01*
X53683584Y33794124D01*
X53841577Y33603144D01*
X53884012Y33561005D01*
X53925875Y33518255D01*
X53932976Y33512382D01*
X54125053Y33355727D01*
X54174875Y33322626D01*
X54224237Y33288827D01*
X54232343Y33284444D01*
X54451191Y33168081D01*
X54506479Y33145293D01*
X54561475Y33121721D01*
X54570278Y33118997D01*
X54807559Y33047357D01*
X54866246Y33035736D01*
X54924752Y33023300D01*
X54933915Y33022337D01*
X54933917Y33022337D01*
X55180595Y32998150D01*
X55180598Y32998150D01*
X55212581Y32995000D01*
X56482721Y32995000D01*
X56632869Y32980278D01*
X56746246Y32946047D01*
X56850819Y32890445D01*
X56942596Y32815593D01*
X57018091Y32724336D01*
X57074419Y32620156D01*
X57109440Y32507024D01*
X57125001Y32358969D01*
X57125001Y31827294D01*
X57084494Y31860537D01*
X56974180Y31919502D01*
X56854482Y31955812D01*
X56730000Y31968072D01*
X55030000Y31968072D01*
X54905518Y31955812D01*
X54785820Y31919502D01*
X54675506Y31860537D01*
X54578815Y31781185D01*
X54499463Y31684494D01*
X54440498Y31574180D01*
X54404188Y31454482D01*
X54391928Y31330000D01*
X54391928Y29630000D01*
X54404188Y29505518D01*
X54440498Y29385820D01*
X54499463Y29275506D01*
X54578815Y29178815D01*
X54675506Y29099463D01*
X54785820Y29040498D01*
X54858380Y29018487D01*
X54726525Y28886632D01*
X54564010Y28643411D01*
X54452068Y28373158D01*
X54395000Y28086260D01*
X54395000Y27793740D01*
X54452068Y27506842D01*
X54564010Y27236589D01*
X54726525Y26993368D01*
X54933368Y26786525D01*
X55107760Y26670000D01*
X54933368Y26553475D01*
X54726525Y26346632D01*
X54564010Y26103411D01*
X54452068Y25833158D01*
X54395000Y25546260D01*
X54395000Y25253740D01*
X54452068Y24966842D01*
X54564010Y24696589D01*
X54726525Y24453368D01*
X54933368Y24246525D01*
X55107760Y24130000D01*
X54933368Y24013475D01*
X54726525Y23806632D01*
X54564010Y23563411D01*
X54452068Y23293158D01*
X54395000Y23006260D01*
X54395000Y22713740D01*
X54452068Y22426842D01*
X54564010Y22156589D01*
X54726525Y21913368D01*
X54933368Y21706525D01*
X55107760Y21590000D01*
X54933368Y21473475D01*
X54726525Y21266632D01*
X54564010Y21023411D01*
X54452068Y20753158D01*
X54395000Y20466260D01*
X54395000Y20173740D01*
X54452068Y19886842D01*
X54564010Y19616589D01*
X54726525Y19373368D01*
X54933368Y19166525D01*
X55107760Y19050000D01*
X54933368Y18933475D01*
X54726525Y18726632D01*
X54564010Y18483411D01*
X54452068Y18213158D01*
X54395000Y17926260D01*
X54395000Y17633740D01*
X54452068Y17346842D01*
X54564010Y17076589D01*
X54726525Y16833368D01*
X54933368Y16626525D01*
X55107760Y16510000D01*
X54933368Y16393475D01*
X54726525Y16186632D01*
X54564010Y15943411D01*
X54452068Y15673158D01*
X54395000Y15386260D01*
X54395000Y15093740D01*
X54452068Y14806842D01*
X54564010Y14536589D01*
X54726525Y14293368D01*
X54933368Y14086525D01*
X55107760Y13970000D01*
X54933368Y13853475D01*
X54726525Y13646632D01*
X54564010Y13403411D01*
X54452068Y13133158D01*
X54395000Y12846260D01*
X54395000Y12553740D01*
X54452068Y12266842D01*
X54564010Y11996589D01*
X54726525Y11753368D01*
X54933368Y11546525D01*
X55176589Y11384010D01*
X55446842Y11272068D01*
X55733740Y11215000D01*
X56026260Y11215000D01*
X56313158Y11272068D01*
X56583411Y11384010D01*
X56826632Y11546525D01*
X57033475Y11753368D01*
X57125000Y11890345D01*
X57125000Y5889655D01*
X57033475Y6026632D01*
X56826632Y6233475D01*
X56583411Y6395990D01*
X56313158Y6507932D01*
X56026260Y6565000D01*
X55733740Y6565000D01*
X55446842Y6507932D01*
X55176589Y6395990D01*
X54933368Y6233475D01*
X54726525Y6026632D01*
X54610000Y5852240D01*
X54493475Y6026632D01*
X54286632Y6233475D01*
X54043411Y6395990D01*
X53773158Y6507932D01*
X53486260Y6565000D01*
X53193740Y6565000D01*
X52906842Y6507932D01*
X52636589Y6395990D01*
X52393368Y6233475D01*
X52186525Y6026632D01*
X52070000Y5852240D01*
X51953475Y6026632D01*
X51746632Y6233475D01*
X51503411Y6395990D01*
X51233158Y6507932D01*
X50946260Y6565000D01*
X50653740Y6565000D01*
X50366842Y6507932D01*
X50096589Y6395990D01*
X49853368Y6233475D01*
X49646525Y6026632D01*
X49530000Y5852240D01*
X49413475Y6026632D01*
X49206632Y6233475D01*
X48963411Y6395990D01*
X48693158Y6507932D01*
X48406260Y6565000D01*
X48113740Y6565000D01*
X47826842Y6507932D01*
X47556589Y6395990D01*
X47313368Y6233475D01*
X47106525Y6026632D01*
X46990000Y5852240D01*
X46873475Y6026632D01*
X46666632Y6233475D01*
X46423411Y6395990D01*
X46153158Y6507932D01*
X45866260Y6565000D01*
X45573740Y6565000D01*
X45286842Y6507932D01*
X45016589Y6395990D01*
X44773368Y6233475D01*
X44566525Y6026632D01*
X44450000Y5852240D01*
X44333475Y6026632D01*
X44126632Y6233475D01*
X43883411Y6395990D01*
X43613158Y6507932D01*
X43326260Y6565000D01*
X43033740Y6565000D01*
X42834999Y6525468D01*
X42834999Y7262298D01*
X46176903Y7262298D01*
X46248486Y7018329D01*
X46503996Y6897429D01*
X46778184Y6828700D01*
X47060512Y6814783D01*
X47340130Y6856213D01*
X47606292Y6951397D01*
X47731514Y7018329D01*
X47803097Y7262298D01*
X46990000Y8075395D01*
X46176903Y7262298D01*
X42834999Y7262298D01*
X42834999Y7878924D01*
X42993004Y8036928D01*
X44030000Y8036928D01*
X44154482Y8049188D01*
X44274180Y8085498D01*
X44384494Y8144463D01*
X44481185Y8223815D01*
X44560537Y8320506D01*
X44619502Y8430820D01*
X44655812Y8550518D01*
X44661178Y8605000D01*
X45598338Y8605000D01*
X45563700Y8466816D01*
X45549783Y8184488D01*
X45591213Y7904870D01*
X45686397Y7638708D01*
X45753329Y7513486D01*
X45997298Y7441903D01*
X46810395Y8255000D01*
X47169605Y8255000D01*
X47982702Y7441903D01*
X48226671Y7513486D01*
X48318314Y7707165D01*
X54995000Y7707165D01*
X54995000Y7532835D01*
X55029010Y7361855D01*
X55095723Y7200795D01*
X55192576Y7055845D01*
X55315845Y6932576D01*
X55460795Y6835723D01*
X55621855Y6769010D01*
X55792835Y6735000D01*
X55967165Y6735000D01*
X56138145Y6769010D01*
X56299205Y6835723D01*
X56444155Y6932576D01*
X56567424Y7055845D01*
X56664277Y7200795D01*
X56730990Y7361855D01*
X56765000Y7532835D01*
X56765000Y7707165D01*
X56730990Y7878145D01*
X56664277Y8039205D01*
X56567424Y8184155D01*
X56444155Y8307424D01*
X56299205Y8404277D01*
X56138145Y8470990D01*
X55967165Y8505000D01*
X55792835Y8505000D01*
X55621855Y8470990D01*
X55460795Y8404277D01*
X55315845Y8307424D01*
X55192576Y8184155D01*
X55095723Y8039205D01*
X55029010Y7878145D01*
X54995000Y7707165D01*
X48318314Y7707165D01*
X48347571Y7768996D01*
X48416300Y8043184D01*
X48430217Y8325512D01*
X48388787Y8605130D01*
X48293603Y8871292D01*
X48266291Y8922391D01*
X50601538Y8922391D01*
X50605409Y8884718D01*
X50697579Y8659467D01*
X50831922Y8456526D01*
X51003275Y8283693D01*
X51205054Y8147610D01*
X51429504Y8053507D01*
X51668000Y8005000D01*
X51943000Y8005000D01*
X51943000Y9113000D01*
X52197000Y9113000D01*
X52197000Y8005000D01*
X52472000Y8005000D01*
X52710496Y8053507D01*
X52934946Y8147610D01*
X53136725Y8283693D01*
X53308078Y8456526D01*
X53442421Y8659467D01*
X53534591Y8884718D01*
X53538462Y8922391D01*
X53413731Y9113000D01*
X52197000Y9113000D01*
X51943000Y9113000D01*
X50726269Y9113000D01*
X50601538Y8922391D01*
X48266291Y8922391D01*
X48226671Y8996514D01*
X47982702Y9068097D01*
X47169605Y8255000D01*
X46810395Y8255000D01*
X46796253Y8269142D01*
X46975858Y8448747D01*
X46990000Y8434605D01*
X47803097Y9247702D01*
X47731514Y9491671D01*
X47702659Y9505324D01*
X47904759Y9640363D01*
X48099396Y9835000D01*
X50707156Y9835000D01*
X50697579Y9820533D01*
X50605409Y9595282D01*
X50601538Y9557609D01*
X50726269Y9367000D01*
X51943000Y9367000D01*
X51943000Y9387000D01*
X52197000Y9387000D01*
X52197000Y9367000D01*
X53413731Y9367000D01*
X53538462Y9557609D01*
X53534591Y9595282D01*
X53442421Y9820533D01*
X53308078Y10023474D01*
X53136725Y10196307D01*
X53072652Y10239519D01*
X53222502Y10362498D01*
X53376833Y10550551D01*
X53491511Y10765099D01*
X53562130Y10997898D01*
X53585975Y11240000D01*
X53562130Y11482102D01*
X53491511Y11714901D01*
X53376833Y11929449D01*
X53222502Y12117502D01*
X53073238Y12240000D01*
X53222502Y12362498D01*
X53376833Y12550551D01*
X53491511Y12765099D01*
X53562130Y12997898D01*
X53585975Y13240000D01*
X53562130Y13482102D01*
X53491511Y13714901D01*
X53376833Y13929449D01*
X53222502Y14117502D01*
X53183889Y14149191D01*
X53188387Y14151595D01*
X53322962Y14262038D01*
X53433405Y14396613D01*
X53515472Y14550149D01*
X53566008Y14716745D01*
X53583072Y14889999D01*
X53583072Y15590001D01*
X53566008Y15763255D01*
X53515472Y15929851D01*
X53433405Y16083387D01*
X53322962Y16217962D01*
X53188387Y16328405D01*
X53034851Y16410472D01*
X52868255Y16461008D01*
X52695001Y16478072D01*
X51444999Y16478072D01*
X51271745Y16461008D01*
X51105149Y16410472D01*
X50951613Y16328405D01*
X50817038Y16217962D01*
X50706595Y16083387D01*
X50624528Y15929851D01*
X50573992Y15763255D01*
X50556928Y15590001D01*
X50556928Y14889999D01*
X50573992Y14716745D01*
X50624528Y14550149D01*
X50706595Y14396613D01*
X50817038Y14262038D01*
X50951613Y14151595D01*
X50956111Y14149191D01*
X50917498Y14117502D01*
X50763167Y13929449D01*
X50648489Y13714901D01*
X50577870Y13482102D01*
X50554025Y13240000D01*
X50577870Y12997898D01*
X50648489Y12765099D01*
X50763167Y12550551D01*
X50917498Y12362498D01*
X51066762Y12240000D01*
X50917498Y12117502D01*
X50763167Y11929449D01*
X50648489Y11714901D01*
X50636385Y11675000D01*
X48099396Y11675000D01*
X47904759Y11869637D01*
X47669727Y12026680D01*
X47408574Y12134853D01*
X47131335Y12190000D01*
X46848665Y12190000D01*
X46571426Y12134853D01*
X46310273Y12026680D01*
X46075241Y11869637D01*
X45875363Y11669759D01*
X45718320Y11434727D01*
X45610147Y11173574D01*
X45555000Y10896335D01*
X45555000Y10621076D01*
X45378925Y10445000D01*
X44661178Y10445000D01*
X44655812Y10499482D01*
X44619502Y10619180D01*
X44560537Y10729494D01*
X44481185Y10826185D01*
X44384494Y10905537D01*
X44274180Y10964502D01*
X44154482Y11000812D01*
X44030000Y11013072D01*
X42330000Y11013072D01*
X42205518Y11000812D01*
X42085820Y10964502D01*
X41975506Y10905537D01*
X41948455Y10883336D01*
X40949350Y11882441D01*
X41073158Y11907068D01*
X41343411Y12019010D01*
X41586632Y12181525D01*
X41793475Y12388368D01*
X41955990Y12631589D01*
X42067932Y12901842D01*
X42090897Y13017298D01*
X43636903Y13017298D01*
X43708486Y12773329D01*
X43963996Y12652429D01*
X44238184Y12583700D01*
X44520512Y12569783D01*
X44800130Y12611213D01*
X45066292Y12706397D01*
X45191514Y12773329D01*
X45263097Y13017298D01*
X44450000Y13830395D01*
X43636903Y13017298D01*
X42090897Y13017298D01*
X42125000Y13188740D01*
X42125000Y13481260D01*
X42067932Y13768158D01*
X41996966Y13939488D01*
X43009783Y13939488D01*
X43051213Y13659870D01*
X43146397Y13393708D01*
X43213329Y13268486D01*
X43457298Y13196903D01*
X44270395Y14010000D01*
X44629605Y14010000D01*
X45442702Y13196903D01*
X45686671Y13268486D01*
X45807571Y13523996D01*
X45876300Y13798184D01*
X45890217Y14080512D01*
X45848787Y14360130D01*
X45753603Y14626292D01*
X45686671Y14751514D01*
X45442702Y14823097D01*
X44629605Y14010000D01*
X44270395Y14010000D01*
X43457298Y14823097D01*
X43213329Y14751514D01*
X43092429Y14496004D01*
X43023700Y14221816D01*
X43009783Y13939488D01*
X41996966Y13939488D01*
X41955990Y14038411D01*
X41793475Y14281632D01*
X41586632Y14488475D01*
X41385000Y14623201D01*
X41385000Y15838419D01*
X41388603Y15875001D01*
X41385000Y15911583D01*
X41385000Y15911592D01*
X41374220Y16021045D01*
X41331620Y16161478D01*
X41299418Y16221724D01*
X41262441Y16290903D01*
X41192668Y16375921D01*
X41169343Y16404343D01*
X41140920Y16427669D01*
X40917254Y16651335D01*
X43015000Y16651335D01*
X43015000Y16368665D01*
X43070147Y16091426D01*
X43178320Y15830273D01*
X43335363Y15595241D01*
X43535241Y15395363D01*
X43735869Y15261308D01*
X43708486Y15246671D01*
X43636903Y15002702D01*
X44450000Y14189605D01*
X45263097Y15002702D01*
X45191514Y15246671D01*
X45162659Y15260324D01*
X45364759Y15395363D01*
X45564637Y15595241D01*
X45721680Y15830273D01*
X45829853Y16091426D01*
X45885000Y16368665D01*
X45885000Y16651335D01*
X45829853Y16928574D01*
X45721680Y17189727D01*
X45564637Y17424759D01*
X45364759Y17624637D01*
X45129727Y17781680D01*
X44868574Y17889853D01*
X44591335Y17945000D01*
X44308665Y17945000D01*
X44031426Y17889853D01*
X43770273Y17781680D01*
X43535241Y17624637D01*
X43335363Y17424759D01*
X43178320Y17189727D01*
X43070147Y16928574D01*
X43015000Y16651335D01*
X40917254Y16651335D01*
X40680126Y16888463D01*
X40705000Y17013514D01*
X40705000Y17276486D01*
X40653696Y17534405D01*
X40553061Y17777359D01*
X40406962Y17996013D01*
X40221013Y18181962D01*
X40002359Y18328061D01*
X39759405Y18428696D01*
X39501486Y18480000D01*
X39238514Y18480000D01*
X38980595Y18428696D01*
X38845000Y18372531D01*
X38845000Y19727469D01*
X38980595Y19671304D01*
X39238514Y19620000D01*
X39501486Y19620000D01*
X39759405Y19671304D01*
X40002359Y19771939D01*
X40221013Y19918038D01*
X40406962Y20103987D01*
X40553061Y20322641D01*
X40653696Y20565595D01*
X40705000Y20823514D01*
X40705000Y21086486D01*
X41845000Y21086486D01*
X41845000Y20823514D01*
X41896304Y20565595D01*
X41996939Y20322641D01*
X42143038Y20103987D01*
X42328987Y19918038D01*
X42547641Y19771939D01*
X42790595Y19671304D01*
X43048514Y19620000D01*
X43311486Y19620000D01*
X43569405Y19671304D01*
X43812359Y19771939D01*
X44031013Y19918038D01*
X44216962Y20103987D01*
X44363061Y20322641D01*
X44463696Y20565595D01*
X44515000Y20823514D01*
X44515000Y21086486D01*
X44463696Y21344405D01*
X44363061Y21587359D01*
X44216962Y21806013D01*
X44031013Y21991962D01*
X43812359Y22138061D01*
X43569405Y22238696D01*
X43311486Y22290000D01*
X43048514Y22290000D01*
X42790595Y22238696D01*
X42547641Y22138061D01*
X42328987Y21991962D01*
X42143038Y21806013D01*
X41996939Y21587359D01*
X41896304Y21344405D01*
X41845000Y21086486D01*
X40705000Y21086486D01*
X40653696Y21344405D01*
X40553061Y21587359D01*
X40406962Y21806013D01*
X40221013Y21991962D01*
X40002359Y22138061D01*
X39759405Y22238696D01*
X39501486Y22290000D01*
X39238514Y22290000D01*
X38980595Y22238696D01*
X38845000Y22182531D01*
X38845000Y23537469D01*
X38980595Y23481304D01*
X39238514Y23430000D01*
X39501486Y23430000D01*
X39759405Y23481304D01*
X40002359Y23581939D01*
X40221013Y23728038D01*
X40406962Y23913987D01*
X40553061Y24132641D01*
X40653696Y24375595D01*
X40705000Y24633514D01*
X40705000Y24896486D01*
X40653696Y25154405D01*
X40553061Y25397359D01*
X40406962Y25616013D01*
X40221013Y25801962D01*
X40002359Y25948061D01*
X39759405Y26048696D01*
X39501486Y26100000D01*
X39238514Y26100000D01*
X38980595Y26048696D01*
X38845000Y25992531D01*
X38845000Y27347469D01*
X38980595Y27291304D01*
X39238514Y27240000D01*
X39501486Y27240000D01*
X39759405Y27291304D01*
X40002359Y27391939D01*
X40221013Y27538038D01*
X40406962Y27723987D01*
X40553061Y27942641D01*
X40653696Y28185595D01*
X40664850Y28241670D01*
X41887278Y28241670D01*
X41977147Y27995877D01*
X42113241Y27772340D01*
X42290330Y27579649D01*
X42501608Y27425208D01*
X42738956Y27314953D01*
X42846671Y27282284D01*
X43053000Y27405626D01*
X43053000Y28448000D01*
X42009799Y28448000D01*
X41887278Y28241670D01*
X40664850Y28241670D01*
X40705000Y28443514D01*
X40705000Y28706486D01*
X40664851Y28908330D01*
X41887278Y28908330D01*
X42009799Y28702000D01*
X43053000Y28702000D01*
X43053000Y29744374D01*
X42846671Y29867716D01*
X42738956Y29835047D01*
X42501608Y29724792D01*
X42290330Y29570351D01*
X42113241Y29377660D01*
X41977147Y29154123D01*
X41887278Y28908330D01*
X40664851Y28908330D01*
X40653696Y28964405D01*
X40553061Y29207359D01*
X40406962Y29426013D01*
X40221013Y29611962D01*
X40002359Y29758061D01*
X39759405Y29858696D01*
X39501486Y29910000D01*
X39238514Y29910000D01*
X38980595Y29858696D01*
X38845000Y29802531D01*
X38845000Y31096799D01*
X39046632Y31231525D01*
X39253475Y31438368D01*
X39375195Y31620534D01*
X39444822Y31503645D01*
X39639731Y31287412D01*
X39873080Y31113359D01*
X40135901Y30988175D01*
X40283110Y30943524D01*
X40513000Y31064845D01*
X40513000Y32258000D01*
X40493000Y32258000D01*
X40493000Y32512000D01*
X40513000Y32512000D01*
X40513000Y32532000D01*
X40767000Y32532000D01*
X40767000Y32512000D01*
X40787000Y32512000D01*
X40787000Y32258000D01*
X40767000Y32258000D01*
X40767000Y31064845D01*
X40996890Y30943524D01*
X41144099Y30988175D01*
X41406920Y31113359D01*
X41640269Y31287412D01*
X41716034Y31371466D01*
X41740498Y31290820D01*
X41799463Y31180506D01*
X41878815Y31083815D01*
X41975506Y31004463D01*
X42085820Y30945498D01*
X42205518Y30909188D01*
X42330000Y30896928D01*
X43366997Y30896928D01*
X44165000Y30098924D01*
X44165000Y29466622D01*
X44069670Y29570351D01*
X43858392Y29724792D01*
X43621044Y29835047D01*
X43513329Y29867716D01*
X43307000Y29744374D01*
X43307000Y28702000D01*
X43327000Y28702000D01*
X43327000Y28448000D01*
X43307000Y28448000D01*
X43307000Y27405626D01*
X43513329Y27282284D01*
X43621044Y27314953D01*
X43858392Y27425208D01*
X44069670Y27579649D01*
X44165000Y27683378D01*
X44165001Y22270199D01*
X44160549Y22225000D01*
X44178313Y22044649D01*
X44230919Y21871229D01*
X44296823Y21747932D01*
X44316348Y21711403D01*
X44431315Y21571314D01*
X44466424Y21542501D01*
X46186928Y19821996D01*
X46186928Y18885000D01*
X46199188Y18760518D01*
X46235498Y18640820D01*
X46294463Y18530506D01*
X46373815Y18433815D01*
X46470506Y18354463D01*
X46580820Y18295498D01*
X46700518Y18259188D01*
X46825000Y18246928D01*
X48425000Y18246928D01*
X48549482Y18259188D01*
X48669180Y18295498D01*
X48779494Y18354463D01*
X48876185Y18433815D01*
X48955537Y18530506D01*
X49014502Y18640820D01*
X49030117Y18692298D01*
X50311903Y18692298D01*
X50383486Y18448329D01*
X50638996Y18327429D01*
X50913184Y18258700D01*
X51195512Y18244783D01*
X51475130Y18286213D01*
X51741292Y18381397D01*
X51866514Y18448329D01*
X51938097Y18692298D01*
X51125000Y19505395D01*
X50311903Y18692298D01*
X49030117Y18692298D01*
X49050812Y18760518D01*
X49063072Y18885000D01*
X49063072Y19614488D01*
X49684783Y19614488D01*
X49726213Y19334870D01*
X49821397Y19068708D01*
X49888329Y18943486D01*
X50132298Y18871903D01*
X50945395Y19685000D01*
X51304605Y19685000D01*
X52117702Y18871903D01*
X52361671Y18943486D01*
X52482571Y19198996D01*
X52551300Y19473184D01*
X52565217Y19755512D01*
X52523787Y20035130D01*
X52428603Y20301292D01*
X52361671Y20426514D01*
X52117702Y20498097D01*
X51304605Y19685000D01*
X50945395Y19685000D01*
X50132298Y20498097D01*
X49888329Y20426514D01*
X49767429Y20171004D01*
X49698700Y19896816D01*
X49684783Y19614488D01*
X49063072Y19614488D01*
X49063072Y20485000D01*
X49050812Y20609482D01*
X49030118Y20677702D01*
X50311903Y20677702D01*
X51125000Y19864605D01*
X51938097Y20677702D01*
X51866514Y20921671D01*
X51611004Y21042571D01*
X51336816Y21111300D01*
X51054488Y21125217D01*
X50774870Y21083787D01*
X50508708Y20988603D01*
X50383486Y20921671D01*
X50311903Y20677702D01*
X49030118Y20677702D01*
X49014502Y20729180D01*
X48955537Y20839494D01*
X48876185Y20936185D01*
X48779494Y21015537D01*
X48669180Y21074502D01*
X48549482Y21110812D01*
X48425000Y21123072D01*
X47488004Y21123072D01*
X46005000Y22606075D01*
X46005000Y30434811D01*
X46009451Y30480000D01*
X46004921Y30525990D01*
X45991688Y30660351D01*
X45939081Y30833772D01*
X45853653Y30993597D01*
X45738686Y31133686D01*
X45703578Y31162498D01*
X44668072Y32198003D01*
X44668072Y33235000D01*
X44655812Y33359482D01*
X44619502Y33479180D01*
X44560537Y33589494D01*
X44503400Y33659115D01*
X44729759Y33810363D01*
X44929637Y34010241D01*
X45086680Y34245273D01*
X45194853Y34506426D01*
X45250000Y34783665D01*
X45250000Y35066335D01*
X45194853Y35343574D01*
X45115562Y35535000D01*
X52672721Y35535000D01*
X52822869Y35520278D01*
G36*
X38227000Y9652000D02*
G01*
X38247000Y9652000D01*
X38247000Y9398000D01*
X38227000Y9398000D01*
X38227000Y9378000D01*
X37973000Y9378000D01*
X37973000Y9398000D01*
X37953000Y9398000D01*
X37953000Y9652000D01*
X37973000Y9652000D01*
X37973000Y9672000D01*
X38227000Y9672000D01*
X38227000Y9652000D01*
G37*
X38227000Y9652000D02*
X38247000Y9652000D01*
X38247000Y9398000D01*
X38227000Y9398000D01*
X38227000Y9378000D01*
X37973000Y9378000D01*
X37973000Y9398000D01*
X37953000Y9398000D01*
X37953000Y9652000D01*
X37973000Y9652000D01*
X37973000Y9672000D01*
X38227000Y9672000D01*
X38227000Y9652000D01*
G36*
X40767000Y9652000D02*
G01*
X40787000Y9652000D01*
X40787000Y9398000D01*
X40767000Y9398000D01*
X40767000Y9378000D01*
X40513000Y9378000D01*
X40513000Y9398000D01*
X40493000Y9398000D01*
X40493000Y9652000D01*
X40513000Y9652000D01*
X40513000Y9672000D01*
X40767000Y9672000D01*
X40767000Y9652000D01*
G37*
X40767000Y9652000D02*
X40787000Y9652000D01*
X40787000Y9398000D01*
X40767000Y9398000D01*
X40767000Y9378000D01*
X40513000Y9378000D01*
X40513000Y9398000D01*
X40493000Y9398000D01*
X40493000Y9652000D01*
X40513000Y9652000D01*
X40513000Y9672000D01*
X40767000Y9672000D01*
X40767000Y9652000D01*
G36*
X25633038Y17996013D02*
G01*
X25486939Y17777359D01*
X25386304Y17534405D01*
X25335000Y17276486D01*
X25335000Y17013514D01*
X25386304Y16755595D01*
X25486939Y16512641D01*
X25633038Y16293987D01*
X25818987Y16108038D01*
X26037641Y15961939D01*
X26280595Y15861304D01*
X26538514Y15810000D01*
X26801486Y15810000D01*
X26926537Y15834874D01*
X27941411Y14820000D01*
X27793740Y14820000D01*
X27506842Y14762932D01*
X27236589Y14650990D01*
X26993368Y14488475D01*
X26786525Y14281632D01*
X26670000Y14107240D01*
X26553475Y14281632D01*
X26346632Y14488475D01*
X26103411Y14650990D01*
X25833158Y14762932D01*
X25546260Y14820000D01*
X25253740Y14820000D01*
X24966842Y14762932D01*
X24696589Y14650990D01*
X24453368Y14488475D01*
X24246525Y14281632D01*
X24130000Y14107240D01*
X24013475Y14281632D01*
X23806632Y14488475D01*
X23563411Y14650990D01*
X23293158Y14762932D01*
X23006260Y14820000D01*
X22713740Y14820000D01*
X22426842Y14762932D01*
X22156589Y14650990D01*
X21913368Y14488475D01*
X21706525Y14281632D01*
X21584805Y14099466D01*
X21515178Y14216355D01*
X21320269Y14432588D01*
X21086920Y14606641D01*
X20824099Y14731825D01*
X20676890Y14776476D01*
X20447000Y14655155D01*
X20447000Y13462000D01*
X20467000Y13462000D01*
X20467000Y13208000D01*
X20447000Y13208000D01*
X20447000Y12014845D01*
X20676890Y11893524D01*
X20824099Y11938175D01*
X21086920Y12063359D01*
X21320269Y12237412D01*
X21515178Y12453645D01*
X21584805Y12570534D01*
X21706525Y12388368D01*
X21913368Y12181525D01*
X22156589Y12019010D01*
X22426842Y11907068D01*
X22713740Y11850000D01*
X23006260Y11850000D01*
X23293158Y11907068D01*
X23563411Y12019010D01*
X23806632Y12181525D01*
X24013475Y12388368D01*
X24130000Y12562760D01*
X24246525Y12388368D01*
X24453368Y12181525D01*
X24696589Y12019010D01*
X24966842Y11907068D01*
X25253740Y11850000D01*
X25546260Y11850000D01*
X25833158Y11907068D01*
X26103411Y12019010D01*
X26346632Y12181525D01*
X26553475Y12388368D01*
X26670000Y12562760D01*
X26786525Y12388368D01*
X26993368Y12181525D01*
X27236589Y12019010D01*
X27506842Y11907068D01*
X27793740Y11850000D01*
X28086260Y11850000D01*
X28285002Y11889532D01*
X28285002Y11011599D01*
X28281397Y10974999D01*
X28281780Y10971108D01*
X28086260Y11010000D01*
X27793740Y11010000D01*
X27555899Y10962690D01*
X27402667Y11115922D01*
X27379342Y11144344D01*
X27265901Y11237442D01*
X27136477Y11306621D01*
X26996044Y11349221D01*
X26886591Y11360001D01*
X26886589Y11360001D01*
X26849999Y11363605D01*
X26813409Y11360001D01*
X18676586Y11360001D01*
X18189659Y11846928D01*
X18630000Y11846928D01*
X18754482Y11859188D01*
X18874180Y11895498D01*
X18984494Y11954463D01*
X19081185Y12033815D01*
X19160537Y12130506D01*
X19219502Y12240820D01*
X19243966Y12321466D01*
X19319731Y12237412D01*
X19553080Y12063359D01*
X19815901Y11938175D01*
X19963110Y11893524D01*
X20193000Y12014845D01*
X20193000Y13208000D01*
X20173000Y13208000D01*
X20173000Y13462000D01*
X20193000Y13462000D01*
X20193000Y14655155D01*
X19963110Y14776476D01*
X19815901Y14731825D01*
X19553080Y14606641D01*
X19319731Y14432588D01*
X19243966Y14348534D01*
X19219502Y14429180D01*
X19160537Y14539494D01*
X19081185Y14636185D01*
X18984494Y14715537D01*
X18874180Y14774502D01*
X18754482Y14810812D01*
X18700000Y14816178D01*
X18700000Y15853466D01*
X18918514Y15810000D01*
X19181486Y15810000D01*
X19439405Y15861304D01*
X19682359Y15961939D01*
X19901013Y16108038D01*
X20086962Y16293987D01*
X20233061Y16512641D01*
X20333696Y16755595D01*
X20385000Y17013514D01*
X20385000Y17276486D01*
X20333696Y17534405D01*
X20233061Y17777359D01*
X20086962Y17996013D01*
X19952975Y18130000D01*
X25767025Y18130000D01*
X25633038Y17996013D01*
G37*
X25633038Y17996013D02*
X25486939Y17777359D01*
X25386304Y17534405D01*
X25335000Y17276486D01*
X25335000Y17013514D01*
X25386304Y16755595D01*
X25486939Y16512641D01*
X25633038Y16293987D01*
X25818987Y16108038D01*
X26037641Y15961939D01*
X26280595Y15861304D01*
X26538514Y15810000D01*
X26801486Y15810000D01*
X26926537Y15834874D01*
X27941411Y14820000D01*
X27793740Y14820000D01*
X27506842Y14762932D01*
X27236589Y14650990D01*
X26993368Y14488475D01*
X26786525Y14281632D01*
X26670000Y14107240D01*
X26553475Y14281632D01*
X26346632Y14488475D01*
X26103411Y14650990D01*
X25833158Y14762932D01*
X25546260Y14820000D01*
X25253740Y14820000D01*
X24966842Y14762932D01*
X24696589Y14650990D01*
X24453368Y14488475D01*
X24246525Y14281632D01*
X24130000Y14107240D01*
X24013475Y14281632D01*
X23806632Y14488475D01*
X23563411Y14650990D01*
X23293158Y14762932D01*
X23006260Y14820000D01*
X22713740Y14820000D01*
X22426842Y14762932D01*
X22156589Y14650990D01*
X21913368Y14488475D01*
X21706525Y14281632D01*
X21584805Y14099466D01*
X21515178Y14216355D01*
X21320269Y14432588D01*
X21086920Y14606641D01*
X20824099Y14731825D01*
X20676890Y14776476D01*
X20447000Y14655155D01*
X20447000Y13462000D01*
X20467000Y13462000D01*
X20467000Y13208000D01*
X20447000Y13208000D01*
X20447000Y12014845D01*
X20676890Y11893524D01*
X20824099Y11938175D01*
X21086920Y12063359D01*
X21320269Y12237412D01*
X21515178Y12453645D01*
X21584805Y12570534D01*
X21706525Y12388368D01*
X21913368Y12181525D01*
X22156589Y12019010D01*
X22426842Y11907068D01*
X22713740Y11850000D01*
X23006260Y11850000D01*
X23293158Y11907068D01*
X23563411Y12019010D01*
X23806632Y12181525D01*
X24013475Y12388368D01*
X24130000Y12562760D01*
X24246525Y12388368D01*
X24453368Y12181525D01*
X24696589Y12019010D01*
X24966842Y11907068D01*
X25253740Y11850000D01*
X25546260Y11850000D01*
X25833158Y11907068D01*
X26103411Y12019010D01*
X26346632Y12181525D01*
X26553475Y12388368D01*
X26670000Y12562760D01*
X26786525Y12388368D01*
X26993368Y12181525D01*
X27236589Y12019010D01*
X27506842Y11907068D01*
X27793740Y11850000D01*
X28086260Y11850000D01*
X28285002Y11889532D01*
X28285002Y11011599D01*
X28281397Y10974999D01*
X28281780Y10971108D01*
X28086260Y11010000D01*
X27793740Y11010000D01*
X27555899Y10962690D01*
X27402667Y11115922D01*
X27379342Y11144344D01*
X27265901Y11237442D01*
X27136477Y11306621D01*
X26996044Y11349221D01*
X26886591Y11360001D01*
X26886589Y11360001D01*
X26849999Y11363605D01*
X26813409Y11360001D01*
X18676586Y11360001D01*
X18189659Y11846928D01*
X18630000Y11846928D01*
X18754482Y11859188D01*
X18874180Y11895498D01*
X18984494Y11954463D01*
X19081185Y12033815D01*
X19160537Y12130506D01*
X19219502Y12240820D01*
X19243966Y12321466D01*
X19319731Y12237412D01*
X19553080Y12063359D01*
X19815901Y11938175D01*
X19963110Y11893524D01*
X20193000Y12014845D01*
X20193000Y13208000D01*
X20173000Y13208000D01*
X20173000Y13462000D01*
X20193000Y13462000D01*
X20193000Y14655155D01*
X19963110Y14776476D01*
X19815901Y14731825D01*
X19553080Y14606641D01*
X19319731Y14432588D01*
X19243966Y14348534D01*
X19219502Y14429180D01*
X19160537Y14539494D01*
X19081185Y14636185D01*
X18984494Y14715537D01*
X18874180Y14774502D01*
X18754482Y14810812D01*
X18700000Y14816178D01*
X18700000Y15853466D01*
X18918514Y15810000D01*
X19181486Y15810000D01*
X19439405Y15861304D01*
X19682359Y15961939D01*
X19901013Y16108038D01*
X20086962Y16293987D01*
X20233061Y16512641D01*
X20333696Y16755595D01*
X20385000Y17013514D01*
X20385000Y17276486D01*
X20333696Y17534405D01*
X20233061Y17777359D01*
X20086962Y17996013D01*
X19952975Y18130000D01*
X25767025Y18130000D01*
X25633038Y17996013D01*
G36*
X11995147Y35343574D02*
G01*
X11940000Y35066335D01*
X11940000Y34783665D01*
X11995147Y34506426D01*
X12103320Y34245273D01*
X12260363Y34010241D01*
X12460241Y33810363D01*
X12695273Y33653320D01*
X12956426Y33545147D01*
X13233665Y33490000D01*
X13516335Y33490000D01*
X13793574Y33545147D01*
X14054727Y33653320D01*
X14289759Y33810363D01*
X14489637Y34010241D01*
X14623692Y34210869D01*
X14638329Y34183486D01*
X14882298Y34111903D01*
X15695395Y34925000D01*
X15681253Y34939142D01*
X15860858Y35118747D01*
X15875000Y35104605D01*
X15889143Y35118747D01*
X16068748Y34939142D01*
X16054605Y34925000D01*
X16867702Y34111903D01*
X17111671Y34183486D01*
X17232571Y34438996D01*
X17301300Y34713184D01*
X17315217Y34995512D01*
X17273787Y35275130D01*
X17180853Y35535000D01*
X19019438Y35535000D01*
X18940147Y35343574D01*
X18885000Y35066335D01*
X18885000Y34783665D01*
X18940147Y34506426D01*
X19048320Y34245273D01*
X19205363Y34010241D01*
X19405241Y33810363D01*
X19592759Y33685068D01*
X19373368Y33538475D01*
X19166525Y33331632D01*
X19050000Y33157240D01*
X18933475Y33331632D01*
X18726632Y33538475D01*
X18483411Y33700990D01*
X18213158Y33812932D01*
X17926260Y33870000D01*
X17633740Y33870000D01*
X17346842Y33812932D01*
X17076589Y33700990D01*
X16833368Y33538475D01*
X16626525Y33331632D01*
X16510000Y33157240D01*
X16393475Y33331632D01*
X16202280Y33522827D01*
X16225130Y33526213D01*
X16491292Y33621397D01*
X16616514Y33688329D01*
X16688097Y33932298D01*
X15875000Y34745395D01*
X15061903Y33932298D01*
X15080930Y33867452D01*
X14806842Y33812932D01*
X14536589Y33700990D01*
X14293368Y33538475D01*
X14086525Y33331632D01*
X13924010Y33088411D01*
X13812068Y32818158D01*
X13755000Y32531260D01*
X13755000Y32238740D01*
X13812068Y31951842D01*
X13924010Y31681589D01*
X14086525Y31438368D01*
X14293368Y31231525D01*
X14536589Y31069010D01*
X14806842Y30957068D01*
X15093740Y30900000D01*
X15386260Y30900000D01*
X15673158Y30957068D01*
X15943411Y31069010D01*
X16186632Y31231525D01*
X16393475Y31438368D01*
X16510000Y31612760D01*
X16626525Y31438368D01*
X16833368Y31231525D01*
X17076589Y31069010D01*
X17346842Y30957068D01*
X17633740Y30900000D01*
X17926260Y30900000D01*
X18213158Y30957068D01*
X18483411Y31069010D01*
X18726632Y31231525D01*
X18933475Y31438368D01*
X19050000Y31612760D01*
X19166525Y31438368D01*
X19373368Y31231525D01*
X19616589Y31069010D01*
X19886842Y30957068D01*
X20173740Y30900000D01*
X20466260Y30900000D01*
X20753158Y30957068D01*
X21023411Y31069010D01*
X21266632Y31231525D01*
X21473475Y31438368D01*
X21590000Y31612760D01*
X21706525Y31438368D01*
X21913368Y31231525D01*
X22156589Y31069010D01*
X22426842Y30957068D01*
X22713740Y30900000D01*
X23006260Y30900000D01*
X23293158Y30957068D01*
X23563411Y31069010D01*
X23806632Y31231525D01*
X24013475Y31438368D01*
X24130000Y31612760D01*
X24246525Y31438368D01*
X24453368Y31231525D01*
X24696589Y31069010D01*
X24966842Y30957068D01*
X25253740Y30900000D01*
X25546260Y30900000D01*
X25833158Y30957068D01*
X26103411Y31069010D01*
X26346632Y31231525D01*
X26553475Y31438368D01*
X26670000Y31612760D01*
X26786525Y31438368D01*
X26993368Y31231525D01*
X27236589Y31069010D01*
X27506842Y30957068D01*
X27793740Y30900000D01*
X28086260Y30900000D01*
X28373158Y30957068D01*
X28643411Y31069010D01*
X28886632Y31231525D01*
X29093475Y31438368D01*
X29210000Y31612760D01*
X29326525Y31438368D01*
X29533368Y31231525D01*
X29776589Y31069010D01*
X30046842Y30957068D01*
X30333740Y30900000D01*
X30626260Y30900000D01*
X30913158Y30957068D01*
X31183411Y31069010D01*
X31426632Y31231525D01*
X31633475Y31438368D01*
X31750000Y31612760D01*
X31866525Y31438368D01*
X32073368Y31231525D01*
X32316589Y31069010D01*
X32586842Y30957068D01*
X32873740Y30900000D01*
X33166260Y30900000D01*
X33404101Y30947310D01*
X33724999Y30626412D01*
X33725000Y20085000D01*
X33553061Y20085000D01*
X33353102Y20045226D01*
X33171492Y19970000D01*
X32652975Y19970000D01*
X32786962Y20103987D01*
X32933061Y20322641D01*
X33033696Y20565595D01*
X33085000Y20823514D01*
X33085000Y21086486D01*
X33033696Y21344405D01*
X32933061Y21587359D01*
X32786962Y21806013D01*
X32601013Y21991962D01*
X32382359Y22138061D01*
X32139405Y22238696D01*
X31881486Y22290000D01*
X31618514Y22290000D01*
X31360595Y22238696D01*
X31117641Y22138061D01*
X30898987Y21991962D01*
X30713038Y21806013D01*
X30566939Y21587359D01*
X30466304Y21344405D01*
X30415000Y21086486D01*
X30415000Y20823514D01*
X30466304Y20565595D01*
X30566939Y20322641D01*
X30713038Y20103987D01*
X30847025Y19970000D01*
X27572975Y19970000D01*
X27706962Y20103987D01*
X27853061Y20322641D01*
X27953696Y20565595D01*
X28005000Y20823514D01*
X28005000Y21086486D01*
X27953696Y21344405D01*
X27853061Y21587359D01*
X27706962Y21806013D01*
X27521013Y21991962D01*
X27336872Y22115000D01*
X29808410Y22115000D01*
X29845000Y22111396D01*
X29881590Y22115000D01*
X29881592Y22115000D01*
X29991045Y22125780D01*
X30131478Y22168380D01*
X30260902Y22237559D01*
X30374343Y22330657D01*
X30397669Y22359080D01*
X31493463Y23454874D01*
X31618514Y23430000D01*
X31881486Y23430000D01*
X32139405Y23481304D01*
X32382359Y23581939D01*
X32601013Y23728038D01*
X32786962Y23913987D01*
X32933061Y24132641D01*
X33033696Y24375595D01*
X33085000Y24633514D01*
X33085000Y24896486D01*
X33033696Y25154405D01*
X32933061Y25397359D01*
X32786962Y25616013D01*
X32601013Y25801962D01*
X32382359Y25948061D01*
X32169726Y26036137D01*
X32250920Y26117331D01*
X32279343Y26140657D01*
X32302669Y26169080D01*
X32372441Y26254097D01*
X32441619Y26383521D01*
X32441620Y26383522D01*
X32484220Y26523955D01*
X32495000Y26633408D01*
X32495000Y26633410D01*
X32498604Y26670000D01*
X32495000Y26706590D01*
X32495000Y27467203D01*
X32601013Y27538038D01*
X32786962Y27723987D01*
X32933061Y27942641D01*
X33033696Y28185595D01*
X33085000Y28443514D01*
X33085000Y28706486D01*
X33033696Y28964405D01*
X32933061Y29207359D01*
X32786962Y29426013D01*
X32601013Y29611962D01*
X32382359Y29758061D01*
X32139405Y29858696D01*
X31881486Y29910000D01*
X31618514Y29910000D01*
X31360595Y29858696D01*
X31117641Y29758061D01*
X30898987Y29611962D01*
X30713038Y29426013D01*
X30566939Y29207359D01*
X30466304Y28964405D01*
X30415000Y28706486D01*
X30415000Y28443514D01*
X30466304Y28185595D01*
X30566939Y27942641D01*
X30713038Y27723987D01*
X30898987Y27538038D01*
X31005001Y27467202D01*
X31005001Y26978590D01*
X27981421Y23955010D01*
X27734373Y23955010D01*
X27853061Y24132641D01*
X27953696Y24375595D01*
X28005000Y24633514D01*
X28005000Y24896486D01*
X27953696Y25154405D01*
X27853061Y25397359D01*
X27706962Y25616013D01*
X27521013Y25801962D01*
X27302359Y25948061D01*
X27059405Y26048696D01*
X26801486Y26100000D01*
X26538514Y26100000D01*
X26280595Y26048696D01*
X26037641Y25948061D01*
X25818987Y25801962D01*
X25633038Y25616013D01*
X25486939Y25397359D01*
X25386304Y25154405D01*
X25335000Y24896486D01*
X25335000Y24633514D01*
X25386304Y24375595D01*
X25486939Y24132641D01*
X25605627Y23955010D01*
X20039598Y23955010D01*
X19971271Y24023337D01*
X20205037Y24082797D01*
X20315934Y24321242D01*
X20378183Y24576740D01*
X20389390Y24839473D01*
X20349125Y25099344D01*
X20258935Y25346366D01*
X20205037Y25447203D01*
X19971269Y25506664D01*
X19229605Y24765000D01*
X19243748Y24750857D01*
X19064143Y24571252D01*
X19050000Y24585395D01*
X19035858Y24571252D01*
X18856253Y24750857D01*
X18870395Y24765000D01*
X18128731Y25506664D01*
X17894963Y25447203D01*
X17784066Y25208758D01*
X17721817Y24953260D01*
X17710610Y24690527D01*
X17750875Y24430656D01*
X17841065Y24183634D01*
X17894963Y24082797D01*
X18128729Y24023337D01*
X18060402Y23955010D01*
X16468579Y23955010D01*
X15972668Y24450921D01*
X15949342Y24479344D01*
X15835901Y24572442D01*
X15706477Y24641621D01*
X15566044Y24684221D01*
X15456591Y24695001D01*
X15456589Y24695001D01*
X15419999Y24698605D01*
X15383409Y24695001D01*
X8934929Y24695001D01*
X8935990Y24696589D01*
X9047932Y24966842D01*
X9105000Y25253740D01*
X9105000Y25546260D01*
X9077151Y25686269D01*
X18308336Y25686269D01*
X19050000Y24944605D01*
X19791664Y25686269D01*
X19732203Y25920037D01*
X19493758Y26030934D01*
X19238260Y26093183D01*
X18975527Y26104390D01*
X18715656Y26064125D01*
X18468634Y25973935D01*
X18367797Y25920037D01*
X18308336Y25686269D01*
X9077151Y25686269D01*
X9047932Y25833158D01*
X8935990Y26103411D01*
X8773475Y26346632D01*
X8566632Y26553475D01*
X8392240Y26670000D01*
X8566632Y26786525D01*
X8773475Y26993368D01*
X8935990Y27236589D01*
X9047932Y27506842D01*
X9105000Y27793740D01*
X9105000Y28086260D01*
X9047932Y28373158D01*
X9009890Y28465000D01*
X9216411Y28465000D01*
X9306928Y28374483D01*
X9306928Y27090000D01*
X9319188Y26965518D01*
X9355498Y26845820D01*
X9414463Y26735506D01*
X9493815Y26638815D01*
X9590506Y26559463D01*
X9700820Y26500498D01*
X9820518Y26464188D01*
X9945000Y26451928D01*
X11645000Y26451928D01*
X11769482Y26464188D01*
X11889180Y26500498D01*
X11999494Y26559463D01*
X12096185Y26638815D01*
X12175537Y26735506D01*
X12234502Y26845820D01*
X12270812Y26965518D01*
X12283072Y27090000D01*
X12283072Y28790000D01*
X12270812Y28914482D01*
X12234502Y29034180D01*
X12175537Y29144494D01*
X12096185Y29241185D01*
X11999494Y29320537D01*
X11889180Y29379502D01*
X11816620Y29401513D01*
X11948475Y29533368D01*
X12110990Y29776589D01*
X12222932Y30046842D01*
X12280000Y30333740D01*
X12280000Y30481411D01*
X14687331Y28074080D01*
X14710657Y28045657D01*
X14739079Y28022332D01*
X14824097Y27952559D01*
X14847592Y27940001D01*
X14953522Y27883380D01*
X15093955Y27840780D01*
X15203408Y27830000D01*
X15203417Y27830000D01*
X15239999Y27826397D01*
X15276581Y27830000D01*
X17942203Y27830000D01*
X18013038Y27723987D01*
X18198987Y27538038D01*
X18417641Y27391939D01*
X18660595Y27291304D01*
X18918514Y27240000D01*
X19181486Y27240000D01*
X19439405Y27291304D01*
X19682359Y27391939D01*
X19901013Y27538038D01*
X20086962Y27723987D01*
X20233061Y27942641D01*
X20333696Y28185595D01*
X20344850Y28241671D01*
X25377284Y28241671D01*
X25409953Y28133956D01*
X25520208Y27896608D01*
X25674649Y27685330D01*
X25867340Y27508241D01*
X26090877Y27372147D01*
X26336670Y27282278D01*
X26543000Y27404799D01*
X26543000Y28448000D01*
X26797000Y28448000D01*
X26797000Y27404799D01*
X27003330Y27282278D01*
X27249123Y27372147D01*
X27472660Y27508241D01*
X27665351Y27685330D01*
X27819792Y27896608D01*
X27930047Y28133956D01*
X27962716Y28241671D01*
X27839374Y28448000D01*
X26797000Y28448000D01*
X26543000Y28448000D01*
X25500626Y28448000D01*
X25377284Y28241671D01*
X20344850Y28241671D01*
X20385000Y28443514D01*
X20385000Y28706486D01*
X20344851Y28908329D01*
X25377284Y28908329D01*
X25500626Y28702000D01*
X26543000Y28702000D01*
X26543000Y29745201D01*
X26797000Y29745201D01*
X26797000Y28702000D01*
X27839374Y28702000D01*
X27962716Y28908329D01*
X27930047Y29016044D01*
X27819792Y29253392D01*
X27665351Y29464670D01*
X27472660Y29641759D01*
X27249123Y29777853D01*
X27003330Y29867722D01*
X26797000Y29745201D01*
X26543000Y29745201D01*
X26336670Y29867722D01*
X26090877Y29777853D01*
X25867340Y29641759D01*
X25674649Y29464670D01*
X25520208Y29253392D01*
X25409953Y29016044D01*
X25377284Y28908329D01*
X20344851Y28908329D01*
X20333696Y28964405D01*
X20233061Y29207359D01*
X20086962Y29426013D01*
X19901013Y29611962D01*
X19682359Y29758061D01*
X19439405Y29858696D01*
X19181486Y29910000D01*
X18918514Y29910000D01*
X18660595Y29858696D01*
X18417641Y29758061D01*
X18198987Y29611962D01*
X18013038Y29426013D01*
X17942203Y29320000D01*
X15548589Y29320000D01*
X12232690Y32635899D01*
X12280000Y32873740D01*
X12280000Y33166260D01*
X12222932Y33453158D01*
X12110990Y33723411D01*
X11948475Y33966632D01*
X11741632Y34173475D01*
X11498411Y34335990D01*
X11228158Y34447932D01*
X10941260Y34505000D01*
X10648740Y34505000D01*
X10410899Y34457690D01*
X10077669Y34790920D01*
X10054343Y34819343D01*
X9940902Y34912441D01*
X9811478Y34981620D01*
X9671045Y35024220D01*
X9561592Y35035000D01*
X9561590Y35035000D01*
X9525000Y35038604D01*
X9488410Y35035000D01*
X6568072Y35035000D01*
X6568072Y35140000D01*
X6555812Y35264482D01*
X6519502Y35384180D01*
X6460537Y35494494D01*
X6427295Y35535000D01*
X12074438Y35535000D01*
X11995147Y35343574D01*
G37*
X11995147Y35343574D02*
X11940000Y35066335D01*
X11940000Y34783665D01*
X11995147Y34506426D01*
X12103320Y34245273D01*
X12260363Y34010241D01*
X12460241Y33810363D01*
X12695273Y33653320D01*
X12956426Y33545147D01*
X13233665Y33490000D01*
X13516335Y33490000D01*
X13793574Y33545147D01*
X14054727Y33653320D01*
X14289759Y33810363D01*
X14489637Y34010241D01*
X14623692Y34210869D01*
X14638329Y34183486D01*
X14882298Y34111903D01*
X15695395Y34925000D01*
X15681253Y34939142D01*
X15860858Y35118747D01*
X15875000Y35104605D01*
X15889143Y35118747D01*
X16068748Y34939142D01*
X16054605Y34925000D01*
X16867702Y34111903D01*
X17111671Y34183486D01*
X17232571Y34438996D01*
X17301300Y34713184D01*
X17315217Y34995512D01*
X17273787Y35275130D01*
X17180853Y35535000D01*
X19019438Y35535000D01*
X18940147Y35343574D01*
X18885000Y35066335D01*
X18885000Y34783665D01*
X18940147Y34506426D01*
X19048320Y34245273D01*
X19205363Y34010241D01*
X19405241Y33810363D01*
X19592759Y33685068D01*
X19373368Y33538475D01*
X19166525Y33331632D01*
X19050000Y33157240D01*
X18933475Y33331632D01*
X18726632Y33538475D01*
X18483411Y33700990D01*
X18213158Y33812932D01*
X17926260Y33870000D01*
X17633740Y33870000D01*
X17346842Y33812932D01*
X17076589Y33700990D01*
X16833368Y33538475D01*
X16626525Y33331632D01*
X16510000Y33157240D01*
X16393475Y33331632D01*
X16202280Y33522827D01*
X16225130Y33526213D01*
X16491292Y33621397D01*
X16616514Y33688329D01*
X16688097Y33932298D01*
X15875000Y34745395D01*
X15061903Y33932298D01*
X15080930Y33867452D01*
X14806842Y33812932D01*
X14536589Y33700990D01*
X14293368Y33538475D01*
X14086525Y33331632D01*
X13924010Y33088411D01*
X13812068Y32818158D01*
X13755000Y32531260D01*
X13755000Y32238740D01*
X13812068Y31951842D01*
X13924010Y31681589D01*
X14086525Y31438368D01*
X14293368Y31231525D01*
X14536589Y31069010D01*
X14806842Y30957068D01*
X15093740Y30900000D01*
X15386260Y30900000D01*
X15673158Y30957068D01*
X15943411Y31069010D01*
X16186632Y31231525D01*
X16393475Y31438368D01*
X16510000Y31612760D01*
X16626525Y31438368D01*
X16833368Y31231525D01*
X17076589Y31069010D01*
X17346842Y30957068D01*
X17633740Y30900000D01*
X17926260Y30900000D01*
X18213158Y30957068D01*
X18483411Y31069010D01*
X18726632Y31231525D01*
X18933475Y31438368D01*
X19050000Y31612760D01*
X19166525Y31438368D01*
X19373368Y31231525D01*
X19616589Y31069010D01*
X19886842Y30957068D01*
X20173740Y30900000D01*
X20466260Y30900000D01*
X20753158Y30957068D01*
X21023411Y31069010D01*
X21266632Y31231525D01*
X21473475Y31438368D01*
X21590000Y31612760D01*
X21706525Y31438368D01*
X21913368Y31231525D01*
X22156589Y31069010D01*
X22426842Y30957068D01*
X22713740Y30900000D01*
X23006260Y30900000D01*
X23293158Y30957068D01*
X23563411Y31069010D01*
X23806632Y31231525D01*
X24013475Y31438368D01*
X24130000Y31612760D01*
X24246525Y31438368D01*
X24453368Y31231525D01*
X24696589Y31069010D01*
X24966842Y30957068D01*
X25253740Y30900000D01*
X25546260Y30900000D01*
X25833158Y30957068D01*
X26103411Y31069010D01*
X26346632Y31231525D01*
X26553475Y31438368D01*
X26670000Y31612760D01*
X26786525Y31438368D01*
X26993368Y31231525D01*
X27236589Y31069010D01*
X27506842Y30957068D01*
X27793740Y30900000D01*
X28086260Y30900000D01*
X28373158Y30957068D01*
X28643411Y31069010D01*
X28886632Y31231525D01*
X29093475Y31438368D01*
X29210000Y31612760D01*
X29326525Y31438368D01*
X29533368Y31231525D01*
X29776589Y31069010D01*
X30046842Y30957068D01*
X30333740Y30900000D01*
X30626260Y30900000D01*
X30913158Y30957068D01*
X31183411Y31069010D01*
X31426632Y31231525D01*
X31633475Y31438368D01*
X31750000Y31612760D01*
X31866525Y31438368D01*
X32073368Y31231525D01*
X32316589Y31069010D01*
X32586842Y30957068D01*
X32873740Y30900000D01*
X33166260Y30900000D01*
X33404101Y30947310D01*
X33724999Y30626412D01*
X33725000Y20085000D01*
X33553061Y20085000D01*
X33353102Y20045226D01*
X33171492Y19970000D01*
X32652975Y19970000D01*
X32786962Y20103987D01*
X32933061Y20322641D01*
X33033696Y20565595D01*
X33085000Y20823514D01*
X33085000Y21086486D01*
X33033696Y21344405D01*
X32933061Y21587359D01*
X32786962Y21806013D01*
X32601013Y21991962D01*
X32382359Y22138061D01*
X32139405Y22238696D01*
X31881486Y22290000D01*
X31618514Y22290000D01*
X31360595Y22238696D01*
X31117641Y22138061D01*
X30898987Y21991962D01*
X30713038Y21806013D01*
X30566939Y21587359D01*
X30466304Y21344405D01*
X30415000Y21086486D01*
X30415000Y20823514D01*
X30466304Y20565595D01*
X30566939Y20322641D01*
X30713038Y20103987D01*
X30847025Y19970000D01*
X27572975Y19970000D01*
X27706962Y20103987D01*
X27853061Y20322641D01*
X27953696Y20565595D01*
X28005000Y20823514D01*
X28005000Y21086486D01*
X27953696Y21344405D01*
X27853061Y21587359D01*
X27706962Y21806013D01*
X27521013Y21991962D01*
X27336872Y22115000D01*
X29808410Y22115000D01*
X29845000Y22111396D01*
X29881590Y22115000D01*
X29881592Y22115000D01*
X29991045Y22125780D01*
X30131478Y22168380D01*
X30260902Y22237559D01*
X30374343Y22330657D01*
X30397669Y22359080D01*
X31493463Y23454874D01*
X31618514Y23430000D01*
X31881486Y23430000D01*
X32139405Y23481304D01*
X32382359Y23581939D01*
X32601013Y23728038D01*
X32786962Y23913987D01*
X32933061Y24132641D01*
X33033696Y24375595D01*
X33085000Y24633514D01*
X33085000Y24896486D01*
X33033696Y25154405D01*
X32933061Y25397359D01*
X32786962Y25616013D01*
X32601013Y25801962D01*
X32382359Y25948061D01*
X32169726Y26036137D01*
X32250920Y26117331D01*
X32279343Y26140657D01*
X32302669Y26169080D01*
X32372441Y26254097D01*
X32441619Y26383521D01*
X32441620Y26383522D01*
X32484220Y26523955D01*
X32495000Y26633408D01*
X32495000Y26633410D01*
X32498604Y26670000D01*
X32495000Y26706590D01*
X32495000Y27467203D01*
X32601013Y27538038D01*
X32786962Y27723987D01*
X32933061Y27942641D01*
X33033696Y28185595D01*
X33085000Y28443514D01*
X33085000Y28706486D01*
X33033696Y28964405D01*
X32933061Y29207359D01*
X32786962Y29426013D01*
X32601013Y29611962D01*
X32382359Y29758061D01*
X32139405Y29858696D01*
X31881486Y29910000D01*
X31618514Y29910000D01*
X31360595Y29858696D01*
X31117641Y29758061D01*
X30898987Y29611962D01*
X30713038Y29426013D01*
X30566939Y29207359D01*
X30466304Y28964405D01*
X30415000Y28706486D01*
X30415000Y28443514D01*
X30466304Y28185595D01*
X30566939Y27942641D01*
X30713038Y27723987D01*
X30898987Y27538038D01*
X31005001Y27467202D01*
X31005001Y26978590D01*
X27981421Y23955010D01*
X27734373Y23955010D01*
X27853061Y24132641D01*
X27953696Y24375595D01*
X28005000Y24633514D01*
X28005000Y24896486D01*
X27953696Y25154405D01*
X27853061Y25397359D01*
X27706962Y25616013D01*
X27521013Y25801962D01*
X27302359Y25948061D01*
X27059405Y26048696D01*
X26801486Y26100000D01*
X26538514Y26100000D01*
X26280595Y26048696D01*
X26037641Y25948061D01*
X25818987Y25801962D01*
X25633038Y25616013D01*
X25486939Y25397359D01*
X25386304Y25154405D01*
X25335000Y24896486D01*
X25335000Y24633514D01*
X25386304Y24375595D01*
X25486939Y24132641D01*
X25605627Y23955010D01*
X20039598Y23955010D01*
X19971271Y24023337D01*
X20205037Y24082797D01*
X20315934Y24321242D01*
X20378183Y24576740D01*
X20389390Y24839473D01*
X20349125Y25099344D01*
X20258935Y25346366D01*
X20205037Y25447203D01*
X19971269Y25506664D01*
X19229605Y24765000D01*
X19243748Y24750857D01*
X19064143Y24571252D01*
X19050000Y24585395D01*
X19035858Y24571252D01*
X18856253Y24750857D01*
X18870395Y24765000D01*
X18128731Y25506664D01*
X17894963Y25447203D01*
X17784066Y25208758D01*
X17721817Y24953260D01*
X17710610Y24690527D01*
X17750875Y24430656D01*
X17841065Y24183634D01*
X17894963Y24082797D01*
X18128729Y24023337D01*
X18060402Y23955010D01*
X16468579Y23955010D01*
X15972668Y24450921D01*
X15949342Y24479344D01*
X15835901Y24572442D01*
X15706477Y24641621D01*
X15566044Y24684221D01*
X15456591Y24695001D01*
X15456589Y24695001D01*
X15419999Y24698605D01*
X15383409Y24695001D01*
X8934929Y24695001D01*
X8935990Y24696589D01*
X9047932Y24966842D01*
X9105000Y25253740D01*
X9105000Y25546260D01*
X9077151Y25686269D01*
X18308336Y25686269D01*
X19050000Y24944605D01*
X19791664Y25686269D01*
X19732203Y25920037D01*
X19493758Y26030934D01*
X19238260Y26093183D01*
X18975527Y26104390D01*
X18715656Y26064125D01*
X18468634Y25973935D01*
X18367797Y25920037D01*
X18308336Y25686269D01*
X9077151Y25686269D01*
X9047932Y25833158D01*
X8935990Y26103411D01*
X8773475Y26346632D01*
X8566632Y26553475D01*
X8392240Y26670000D01*
X8566632Y26786525D01*
X8773475Y26993368D01*
X8935990Y27236589D01*
X9047932Y27506842D01*
X9105000Y27793740D01*
X9105000Y28086260D01*
X9047932Y28373158D01*
X9009890Y28465000D01*
X9216411Y28465000D01*
X9306928Y28374483D01*
X9306928Y27090000D01*
X9319188Y26965518D01*
X9355498Y26845820D01*
X9414463Y26735506D01*
X9493815Y26638815D01*
X9590506Y26559463D01*
X9700820Y26500498D01*
X9820518Y26464188D01*
X9945000Y26451928D01*
X11645000Y26451928D01*
X11769482Y26464188D01*
X11889180Y26500498D01*
X11999494Y26559463D01*
X12096185Y26638815D01*
X12175537Y26735506D01*
X12234502Y26845820D01*
X12270812Y26965518D01*
X12283072Y27090000D01*
X12283072Y28790000D01*
X12270812Y28914482D01*
X12234502Y29034180D01*
X12175537Y29144494D01*
X12096185Y29241185D01*
X11999494Y29320537D01*
X11889180Y29379502D01*
X11816620Y29401513D01*
X11948475Y29533368D01*
X12110990Y29776589D01*
X12222932Y30046842D01*
X12280000Y30333740D01*
X12280000Y30481411D01*
X14687331Y28074080D01*
X14710657Y28045657D01*
X14739079Y28022332D01*
X14824097Y27952559D01*
X14847592Y27940001D01*
X14953522Y27883380D01*
X15093955Y27840780D01*
X15203408Y27830000D01*
X15203417Y27830000D01*
X15239999Y27826397D01*
X15276581Y27830000D01*
X17942203Y27830000D01*
X18013038Y27723987D01*
X18198987Y27538038D01*
X18417641Y27391939D01*
X18660595Y27291304D01*
X18918514Y27240000D01*
X19181486Y27240000D01*
X19439405Y27291304D01*
X19682359Y27391939D01*
X19901013Y27538038D01*
X20086962Y27723987D01*
X20233061Y27942641D01*
X20333696Y28185595D01*
X20344850Y28241671D01*
X25377284Y28241671D01*
X25409953Y28133956D01*
X25520208Y27896608D01*
X25674649Y27685330D01*
X25867340Y27508241D01*
X26090877Y27372147D01*
X26336670Y27282278D01*
X26543000Y27404799D01*
X26543000Y28448000D01*
X26797000Y28448000D01*
X26797000Y27404799D01*
X27003330Y27282278D01*
X27249123Y27372147D01*
X27472660Y27508241D01*
X27665351Y27685330D01*
X27819792Y27896608D01*
X27930047Y28133956D01*
X27962716Y28241671D01*
X27839374Y28448000D01*
X26797000Y28448000D01*
X26543000Y28448000D01*
X25500626Y28448000D01*
X25377284Y28241671D01*
X20344850Y28241671D01*
X20385000Y28443514D01*
X20385000Y28706486D01*
X20344851Y28908329D01*
X25377284Y28908329D01*
X25500626Y28702000D01*
X26543000Y28702000D01*
X26543000Y29745201D01*
X26797000Y29745201D01*
X26797000Y28702000D01*
X27839374Y28702000D01*
X27962716Y28908329D01*
X27930047Y29016044D01*
X27819792Y29253392D01*
X27665351Y29464670D01*
X27472660Y29641759D01*
X27249123Y29777853D01*
X27003330Y29867722D01*
X26797000Y29745201D01*
X26543000Y29745201D01*
X26336670Y29867722D01*
X26090877Y29777853D01*
X25867340Y29641759D01*
X25674649Y29464670D01*
X25520208Y29253392D01*
X25409953Y29016044D01*
X25377284Y28908329D01*
X20344851Y28908329D01*
X20333696Y28964405D01*
X20233061Y29207359D01*
X20086962Y29426013D01*
X19901013Y29611962D01*
X19682359Y29758061D01*
X19439405Y29858696D01*
X19181486Y29910000D01*
X18918514Y29910000D01*
X18660595Y29858696D01*
X18417641Y29758061D01*
X18198987Y29611962D01*
X18013038Y29426013D01*
X17942203Y29320000D01*
X15548589Y29320000D01*
X12232690Y32635899D01*
X12280000Y32873740D01*
X12280000Y33166260D01*
X12222932Y33453158D01*
X12110990Y33723411D01*
X11948475Y33966632D01*
X11741632Y34173475D01*
X11498411Y34335990D01*
X11228158Y34447932D01*
X10941260Y34505000D01*
X10648740Y34505000D01*
X10410899Y34457690D01*
X10077669Y34790920D01*
X10054343Y34819343D01*
X9940902Y34912441D01*
X9811478Y34981620D01*
X9671045Y35024220D01*
X9561592Y35035000D01*
X9561590Y35035000D01*
X9525000Y35038604D01*
X9488410Y35035000D01*
X6568072Y35035000D01*
X6568072Y35140000D01*
X6555812Y35264482D01*
X6519502Y35384180D01*
X6460537Y35494494D01*
X6427295Y35535000D01*
X12074438Y35535000D01*
X11995147Y35343574D01*
G36*
X25947429Y35411004D02*
G01*
X25878700Y35136816D01*
X25864783Y34854488D01*
X25906213Y34574870D01*
X26001397Y34308708D01*
X26068329Y34183486D01*
X26127527Y34166117D01*
X25784101Y33822690D01*
X25546260Y33870000D01*
X25253740Y33870000D01*
X24966842Y33812932D01*
X24696589Y33700990D01*
X24453368Y33538475D01*
X24246525Y33331632D01*
X24130000Y33157240D01*
X24013475Y33331632D01*
X23806632Y33538475D01*
X23564931Y33699974D01*
X23633097Y33932298D01*
X22820000Y34745395D01*
X22006903Y33932298D01*
X22078486Y33688329D01*
X22113117Y33671943D01*
X21913368Y33538475D01*
X21706525Y33331632D01*
X21590000Y33157240D01*
X21473475Y33331632D01*
X21266632Y33538475D01*
X21047241Y33685068D01*
X21234759Y33810363D01*
X21434637Y34010241D01*
X21568692Y34210869D01*
X21583329Y34183486D01*
X21827298Y34111903D01*
X22640395Y34925000D01*
X22626253Y34939142D01*
X22805858Y35118747D01*
X22820000Y35104605D01*
X22834143Y35118747D01*
X23013748Y34939142D01*
X22999605Y34925000D01*
X23812702Y34111903D01*
X24056671Y34183486D01*
X24177571Y34438996D01*
X24246300Y34713184D01*
X24260217Y34995512D01*
X24218787Y35275130D01*
X24125853Y35535000D01*
X26006100Y35535000D01*
X25947429Y35411004D01*
G37*
X25947429Y35411004D02*
X25878700Y35136816D01*
X25864783Y34854488D01*
X25906213Y34574870D01*
X26001397Y34308708D01*
X26068329Y34183486D01*
X26127527Y34166117D01*
X25784101Y33822690D01*
X25546260Y33870000D01*
X25253740Y33870000D01*
X24966842Y33812932D01*
X24696589Y33700990D01*
X24453368Y33538475D01*
X24246525Y33331632D01*
X24130000Y33157240D01*
X24013475Y33331632D01*
X23806632Y33538475D01*
X23564931Y33699974D01*
X23633097Y33932298D01*
X22820000Y34745395D01*
X22006903Y33932298D01*
X22078486Y33688329D01*
X22113117Y33671943D01*
X21913368Y33538475D01*
X21706525Y33331632D01*
X21590000Y33157240D01*
X21473475Y33331632D01*
X21266632Y33538475D01*
X21047241Y33685068D01*
X21234759Y33810363D01*
X21434637Y34010241D01*
X21568692Y34210869D01*
X21583329Y34183486D01*
X21827298Y34111903D01*
X22640395Y34925000D01*
X22626253Y34939142D01*
X22805858Y35118747D01*
X22820000Y35104605D01*
X22834143Y35118747D01*
X23013748Y34939142D01*
X22999605Y34925000D01*
X23812702Y34111903D01*
X24056671Y34183486D01*
X24177571Y34438996D01*
X24246300Y34713184D01*
X24260217Y34995512D01*
X24218787Y35275130D01*
X24125853Y35535000D01*
X26006100Y35535000D01*
X25947429Y35411004D01*
G36*
X27498748Y34939142D02*
G01*
X27484605Y34925000D01*
X27498748Y34910857D01*
X27319143Y34731252D01*
X27305000Y34745395D01*
X27290858Y34731252D01*
X27111253Y34910857D01*
X27125395Y34925000D01*
X27111253Y34939142D01*
X27290858Y35118747D01*
X27305000Y35104605D01*
X27319143Y35118747D01*
X27498748Y34939142D01*
G37*
X27498748Y34939142D02*
X27484605Y34925000D01*
X27498748Y34910857D01*
X27319143Y34731252D01*
X27305000Y34745395D01*
X27290858Y34731252D01*
X27111253Y34910857D01*
X27125395Y34925000D01*
X27111253Y34939142D01*
X27290858Y35118747D01*
X27305000Y35104605D01*
X27319143Y35118747D01*
X27498748Y34939142D01*
G36*
X36983748Y34939142D02*
G01*
X36969605Y34925000D01*
X36983748Y34910857D01*
X36804143Y34731252D01*
X36790000Y34745395D01*
X36775858Y34731252D01*
X36596253Y34910857D01*
X36610395Y34925000D01*
X36596253Y34939142D01*
X36775858Y35118747D01*
X36790000Y35104605D01*
X36804143Y35118747D01*
X36983748Y34939142D01*
G37*
X36983748Y34939142D02*
X36969605Y34925000D01*
X36983748Y34910857D01*
X36804143Y34731252D01*
X36790000Y34745395D01*
X36775858Y34731252D01*
X36596253Y34910857D01*
X36610395Y34925000D01*
X36596253Y34939142D01*
X36775858Y35118747D01*
X36790000Y35104605D01*
X36804143Y35118747D01*
X36983748Y34939142D01*
G36*
X41508748Y34939142D02*
G01*
X41494605Y34925000D01*
X41508748Y34910857D01*
X41329143Y34731252D01*
X41315000Y34745395D01*
X41300858Y34731252D01*
X41121253Y34910857D01*
X41135395Y34925000D01*
X41121253Y34939142D01*
X41300858Y35118747D01*
X41315000Y35104605D01*
X41329143Y35118747D01*
X41508748Y34939142D01*
G37*
X41508748Y34939142D02*
X41494605Y34925000D01*
X41508748Y34910857D01*
X41329143Y34731252D01*
X41315000Y34745395D01*
X41300858Y34731252D01*
X41121253Y34910857D01*
X41135395Y34925000D01*
X41121253Y34939142D01*
X41300858Y35118747D01*
X41315000Y35104605D01*
X41329143Y35118747D01*
X41508748Y34939142D01*
G04 #@! TD*
M02*
