M48
INCH,TZ
T1C0.0276
T2C0.0295
T3C0.0315
T4C0.0394
%
G90
G05
T1
X7500Y10000
X10500Y10000
X7500Y8500
X10500Y8500
X12500Y11500
X15500Y11500
X7500Y7000
X10500Y7000
X12500Y7000
X15500Y7000
X17000Y11500
X17000Y8500
X12500Y10000
X15500Y10000
X12500Y8500
X15500Y8500
X7500Y11500
X10500Y11500
T2
X20500Y6000
X20500Y5213
X20500Y4425
X20500Y3638
T3
X17500Y6500
X17500Y5516
X6500Y14000
X7484Y14000
X18500Y4234
X18500Y3250
X9516Y14000
X10500Y14000
X12500Y14000
X13484Y14000
X4750Y14000
X4750Y13016
X18750Y7750
X20128Y7750
X15516Y14000
X16500Y14000
T4
X6000Y4000
X7000Y4000
X8000Y4000
X9000Y4000
X10000Y4000
X11000Y4000
X12000Y4000
X13000Y4000
X14000Y4000
X15000Y4000
X16000Y4000
X17000Y4000
X22000Y11000
X22000Y10000
X22000Y9000
X22000Y8000
X22000Y7000
X22000Y6000
X22000Y5000
X22000Y4000
X2000Y2000
X3000Y2000
X4000Y2000
X5000Y2000
X6000Y2000
X7000Y2000
X8000Y2000
X9000Y2000
X10000Y2000
X11000Y2000
X12000Y2000
X13000Y2000
X14000Y2000
X15000Y2000
X16000Y2000
X17000Y2000
X18000Y2000
X19000Y2000
X20000Y2000
X21000Y2000
X22000Y2000
X2000Y13500
X2000Y12500
X3000Y11000
X3000Y10000
X3000Y9000
X3000Y8000
X3000Y7000
X3000Y6000
X3000Y5000
X3000Y4000
X4000Y11500
X4000Y10500
X4000Y9500
X4000Y8500
X4000Y5500
X4000Y4500
X6000Y13000
X7000Y13000
X8000Y13000
X9000Y13000
X10000Y13000
X11000Y13000
X12000Y13000
X13000Y13000
X14000Y13000
X15000Y13000
X16000Y13000
X17000Y13000
X2000Y10500
X2000Y9500
X2000Y8500
X5000Y11500
X5000Y10500
X5000Y9500
X5000Y8500
X3000Y14000
X3000Y13000
X3000Y12000
X2000Y6500
X2000Y5500
X2000Y4500
X7000Y5500
X8000Y5500
X9000Y5500
X10000Y5500
X11000Y5500
X12000Y5500
X13000Y5500
X14000Y5500
X15000Y5500
X16000Y5500
T0
M30
