G04 #@! TF.GenerationSoftware,KiCad,Pcbnew,(5.1.6-0-10_14)*
G04 #@! TF.CreationDate,2021-05-22T11:08:59+01:00*
G04 #@! TF.ProjectId,JuntekOnSteroidsTTGO,4a756e74-656b-44f6-9e53-7465726f6964,2.0*
G04 #@! TF.SameCoordinates,PX5b716c8PY5b716c8*
G04 #@! TF.FileFunction,Legend,Bot*
G04 #@! TF.FilePolarity,Positive*
%FSLAX46Y46*%
G04 Gerber Fmt 4.6, Leading zero omitted, Abs format (unit mm)*
G04 Created by KiCad (PCBNEW (5.1.6-0-10_14)) date 2021-05-22 11:08:59*
%MOMM*%
%LPD*%
G01*
G04 APERTURE LIST*
%ADD10C,0.150000*%
%ADD11C,0.120000*%
G04 APERTURE END LIST*
D10*
X50526904Y17398810D02*
X50526904Y17855953D01*
X50526904Y17627381D02*
X49726904Y17627381D01*
X49841190Y17703572D01*
X49917380Y17779762D01*
X49955476Y17855953D01*
X49803095Y17094048D02*
X49765000Y17055953D01*
X49726904Y16979762D01*
X49726904Y16789286D01*
X49765000Y16713096D01*
X49803095Y16675000D01*
X49879285Y16636905D01*
X49955476Y16636905D01*
X50069761Y16675000D01*
X50526904Y17132143D01*
X50526904Y16636905D01*
X49726904Y15151191D02*
X49726904Y14655953D01*
X50031666Y14922620D01*
X50031666Y14808334D01*
X50069761Y14732143D01*
X50107857Y14694048D01*
X50184047Y14655953D01*
X50374523Y14655953D01*
X50450714Y14694048D01*
X50488809Y14732143D01*
X50526904Y14808334D01*
X50526904Y15036905D01*
X50488809Y15113096D01*
X50450714Y15151191D01*
X49993571Y13970239D02*
X50526904Y13970239D01*
X49688809Y14160715D02*
X50260238Y14351191D01*
X50260238Y13855953D01*
X10208333Y20638334D02*
X10208333Y21338334D01*
X9908333Y21271667D02*
X9875000Y21305000D01*
X9808333Y21338334D01*
X9641666Y21338334D01*
X9575000Y21305000D01*
X9541666Y21271667D01*
X9508333Y21205000D01*
X9508333Y21138334D01*
X9541666Y21038334D01*
X9941666Y20638334D01*
X9508333Y20638334D01*
X8808333Y20705000D02*
X8841666Y20671667D01*
X8941666Y20638334D01*
X9008333Y20638334D01*
X9108333Y20671667D01*
X9175000Y20738334D01*
X9208333Y20805000D01*
X9241666Y20938334D01*
X9241666Y21038334D01*
X9208333Y21171667D01*
X9175000Y21238334D01*
X9108333Y21305000D01*
X9008333Y21338334D01*
X8941666Y21338334D01*
X8841666Y21305000D01*
X8808333Y21271667D01*
X53523571Y-7677142D02*
X52914047Y-7677142D01*
X53218809Y-7981904D02*
X53218809Y-7372380D01*
X52152142Y-7181904D02*
X52533095Y-7181904D01*
X52571190Y-7562857D01*
X52533095Y-7524761D01*
X52456904Y-7486666D01*
X52266428Y-7486666D01*
X52190238Y-7524761D01*
X52152142Y-7562857D01*
X52114047Y-7639047D01*
X52114047Y-7829523D01*
X52152142Y-7905714D01*
X52190238Y-7943809D01*
X52266428Y-7981904D01*
X52456904Y-7981904D01*
X52533095Y-7943809D01*
X52571190Y-7905714D01*
X51885476Y-7181904D02*
X51618809Y-7981904D01*
X51352142Y-7181904D01*
X50590238Y-7181904D02*
X50133095Y-7181904D01*
X50361666Y-7981904D02*
X50361666Y-7181904D01*
X49942619Y-7181904D02*
X49409285Y-7981904D01*
X49409285Y-7181904D02*
X49942619Y-7981904D01*
X48075952Y-7220000D02*
X48152142Y-7181904D01*
X48266428Y-7181904D01*
X48380714Y-7220000D01*
X48456904Y-7296190D01*
X48495000Y-7372380D01*
X48533095Y-7524761D01*
X48533095Y-7639047D01*
X48495000Y-7791428D01*
X48456904Y-7867619D01*
X48380714Y-7943809D01*
X48266428Y-7981904D01*
X48190238Y-7981904D01*
X48075952Y-7943809D01*
X48037857Y-7905714D01*
X48037857Y-7639047D01*
X48190238Y-7639047D01*
X47695000Y-7981904D02*
X47695000Y-7181904D01*
X47237857Y-7981904D01*
X47237857Y-7181904D01*
X46856904Y-7981904D02*
X46856904Y-7181904D01*
X46666428Y-7181904D01*
X46552142Y-7220000D01*
X46475952Y-7296190D01*
X46437857Y-7372380D01*
X46399761Y-7524761D01*
X46399761Y-7639047D01*
X46437857Y-7791428D01*
X46475952Y-7867619D01*
X46552142Y-7943809D01*
X46666428Y-7981904D01*
X46856904Y-7981904D01*
X44990238Y-7981904D02*
X45256904Y-7600952D01*
X45447380Y-7981904D02*
X45447380Y-7181904D01*
X45142619Y-7181904D01*
X45066428Y-7220000D01*
X45028333Y-7258095D01*
X44990238Y-7334285D01*
X44990238Y-7448571D01*
X45028333Y-7524761D01*
X45066428Y-7562857D01*
X45142619Y-7600952D01*
X45447380Y-7600952D01*
X44723571Y-7181904D02*
X44190238Y-7981904D01*
X44190238Y-7181904D02*
X44723571Y-7981904D01*
X39407142Y12338096D02*
X39407142Y13138096D01*
X39216666Y13138096D01*
X39102380Y13100000D01*
X39026190Y13023810D01*
X38988095Y12947620D01*
X38950000Y12795239D01*
X38950000Y12680953D01*
X38988095Y12528572D01*
X39026190Y12452381D01*
X39102380Y12376191D01*
X39216666Y12338096D01*
X39407142Y12338096D01*
X38607142Y12338096D02*
X38607142Y12871429D01*
X38607142Y12719048D02*
X38569047Y12795239D01*
X38530952Y12833334D01*
X38454761Y12871429D01*
X38378571Y12871429D01*
X37997619Y12338096D02*
X38073809Y12376191D01*
X38111904Y12414286D01*
X38150000Y12490477D01*
X38150000Y12719048D01*
X38111904Y12795239D01*
X38073809Y12833334D01*
X37997619Y12871429D01*
X37883333Y12871429D01*
X37807142Y12833334D01*
X37769047Y12795239D01*
X37730952Y12719048D01*
X37730952Y12490477D01*
X37769047Y12414286D01*
X37807142Y12376191D01*
X37883333Y12338096D01*
X37997619Y12338096D01*
X37388095Y12338096D02*
X37388095Y13138096D01*
X37311904Y12642858D02*
X37083333Y12338096D01*
X37083333Y12871429D02*
X37388095Y12566667D01*
X36740476Y12642858D02*
X36130952Y12642858D01*
X35521428Y13138096D02*
X35521428Y12566667D01*
X35559523Y12452381D01*
X35635714Y12376191D01*
X35750000Y12338096D01*
X35826190Y12338096D01*
X34797619Y12871429D02*
X34797619Y12338096D01*
X35140476Y12871429D02*
X35140476Y12452381D01*
X35102380Y12376191D01*
X35026190Y12338096D01*
X34911904Y12338096D01*
X34835714Y12376191D01*
X34797619Y12414286D01*
X34416666Y12871429D02*
X34416666Y12338096D01*
X34416666Y12795239D02*
X34378571Y12833334D01*
X34302380Y12871429D01*
X34188095Y12871429D01*
X34111904Y12833334D01*
X34073809Y12757143D01*
X34073809Y12338096D01*
X33807142Y12871429D02*
X33502380Y12871429D01*
X33692857Y13138096D02*
X33692857Y12452381D01*
X33654761Y12376191D01*
X33578571Y12338096D01*
X33502380Y12338096D01*
X32930952Y12376191D02*
X33007142Y12338096D01*
X33159523Y12338096D01*
X33235714Y12376191D01*
X33273809Y12452381D01*
X33273809Y12757143D01*
X33235714Y12833334D01*
X33159523Y12871429D01*
X33007142Y12871429D01*
X32930952Y12833334D01*
X32892857Y12757143D01*
X32892857Y12680953D01*
X33273809Y12604762D01*
X32550000Y12338096D02*
X32550000Y13138096D01*
X32473809Y12642858D02*
X32245238Y12338096D01*
X32245238Y12871429D02*
X32550000Y12566667D01*
X31902380Y12642858D02*
X31292857Y12642858D01*
X30797619Y12338096D02*
X30873809Y12376191D01*
X30911904Y12414286D01*
X30950000Y12490477D01*
X30950000Y12719048D01*
X30911904Y12795239D01*
X30873809Y12833334D01*
X30797619Y12871429D01*
X30683333Y12871429D01*
X30607142Y12833334D01*
X30569047Y12795239D01*
X30530952Y12719048D01*
X30530952Y12490477D01*
X30569047Y12414286D01*
X30607142Y12376191D01*
X30683333Y12338096D01*
X30797619Y12338096D01*
X30188095Y12871429D02*
X30188095Y12338096D01*
X30188095Y12795239D02*
X30150000Y12833334D01*
X30073809Y12871429D01*
X29959523Y12871429D01*
X29883333Y12833334D01*
X29845238Y12757143D01*
X29845238Y12338096D01*
X29464285Y12642858D02*
X28854761Y12642858D01*
X28511904Y12376191D02*
X28435714Y12338096D01*
X28283333Y12338096D01*
X28207142Y12376191D01*
X28169047Y12452381D01*
X28169047Y12490477D01*
X28207142Y12566667D01*
X28283333Y12604762D01*
X28397619Y12604762D01*
X28473809Y12642858D01*
X28511904Y12719048D01*
X28511904Y12757143D01*
X28473809Y12833334D01*
X28397619Y12871429D01*
X28283333Y12871429D01*
X28207142Y12833334D01*
X27940476Y12871429D02*
X27635714Y12871429D01*
X27826190Y13138096D02*
X27826190Y12452381D01*
X27788095Y12376191D01*
X27711904Y12338096D01*
X27635714Y12338096D01*
X27064285Y12376191D02*
X27140476Y12338096D01*
X27292857Y12338096D01*
X27369047Y12376191D01*
X27407142Y12452381D01*
X27407142Y12757143D01*
X27369047Y12833334D01*
X27292857Y12871429D01*
X27140476Y12871429D01*
X27064285Y12833334D01*
X27026190Y12757143D01*
X27026190Y12680953D01*
X27407142Y12604762D01*
X26683333Y12338096D02*
X26683333Y12871429D01*
X26683333Y12719048D02*
X26645238Y12795239D01*
X26607142Y12833334D01*
X26530952Y12871429D01*
X26454761Y12871429D01*
X26073809Y12338096D02*
X26150000Y12376191D01*
X26188095Y12414286D01*
X26226190Y12490477D01*
X26226190Y12719048D01*
X26188095Y12795239D01*
X26150000Y12833334D01*
X26073809Y12871429D01*
X25959523Y12871429D01*
X25883333Y12833334D01*
X25845238Y12795239D01*
X25807142Y12719048D01*
X25807142Y12490477D01*
X25845238Y12414286D01*
X25883333Y12376191D01*
X25959523Y12338096D01*
X26073809Y12338096D01*
X25464285Y12338096D02*
X25464285Y12871429D01*
X25464285Y13138096D02*
X25502380Y13100000D01*
X25464285Y13061905D01*
X25426190Y13100000D01*
X25464285Y13138096D01*
X25464285Y13061905D01*
X24740476Y12338096D02*
X24740476Y13138096D01*
X24740476Y12376191D02*
X24816666Y12338096D01*
X24969047Y12338096D01*
X25045238Y12376191D01*
X25083333Y12414286D01*
X25121428Y12490477D01*
X25121428Y12719048D01*
X25083333Y12795239D01*
X25045238Y12833334D01*
X24969047Y12871429D01*
X24816666Y12871429D01*
X24740476Y12833334D01*
X24397619Y12376191D02*
X24321428Y12338096D01*
X24169047Y12338096D01*
X24092857Y12376191D01*
X24054761Y12452381D01*
X24054761Y12490477D01*
X24092857Y12566667D01*
X24169047Y12604762D01*
X24283333Y12604762D01*
X24359523Y12642858D01*
X24397619Y12719048D01*
X24397619Y12757143D01*
X24359523Y12833334D01*
X24283333Y12871429D01*
X24169047Y12871429D01*
X24092857Y12833334D01*
D11*
G04 #@! TO.C,JP6*
X46860000Y29480000D02*
X49660000Y29480000D01*
X50310000Y30180000D02*
X50310000Y30780000D01*
X49660000Y31480000D02*
X46860000Y31480000D01*
X46210000Y30780000D02*
X46210000Y30180000D01*
X47060000Y31680000D02*
X46760000Y31980000D01*
X46760000Y31980000D02*
X47360000Y31980000D01*
X47060000Y31680000D02*
X47360000Y31980000D01*
X46210000Y30180000D02*
G75*
G03*
X46910000Y29480000I700000J0D01*
G01*
X46910000Y31480000D02*
G75*
G03*
X46210000Y30780000I0J-700000D01*
G01*
X50310000Y30780000D02*
G75*
G03*
X49610000Y31480000I-700000J0D01*
G01*
X49610000Y29480000D02*
G75*
G03*
X50310000Y30180000I0J700000D01*
G01*
G04 #@! TO.C,JP2*
X14735000Y24495000D02*
X11935000Y24495000D01*
X11285000Y23795000D02*
X11285000Y23195000D01*
X11935000Y22495000D02*
X14735000Y22495000D01*
X15385000Y23195000D02*
X15385000Y23795000D01*
X14535000Y22295000D02*
X14835000Y21995000D01*
X14835000Y21995000D02*
X14235000Y21995000D01*
X14535000Y22295000D02*
X14235000Y21995000D01*
X15385000Y23795000D02*
G75*
G03*
X14685000Y24495000I-700000J0D01*
G01*
X14685000Y22495000D02*
G75*
G03*
X15385000Y23195000I0J700000D01*
G01*
X11285000Y23195000D02*
G75*
G03*
X11985000Y22495000I700000J0D01*
G01*
X11985000Y24495000D02*
G75*
G03*
X11285000Y23795000I0J-700000D01*
G01*
G04 #@! TO.C,JP5*
X14765000Y11160000D02*
X11965000Y11160000D01*
X11315000Y10460000D02*
X11315000Y9860000D01*
X11965000Y9160000D02*
X14765000Y9160000D01*
X15415000Y9860000D02*
X15415000Y10460000D01*
X14565000Y8960000D02*
X14865000Y8660000D01*
X14865000Y8660000D02*
X14265000Y8660000D01*
X14565000Y8960000D02*
X14265000Y8660000D01*
X15415000Y10460000D02*
G75*
G03*
X14715000Y11160000I-700000J0D01*
G01*
X14715000Y9160000D02*
G75*
G03*
X15415000Y9860000I0J700000D01*
G01*
X11315000Y9860000D02*
G75*
G03*
X12015000Y9160000I700000J0D01*
G01*
X12015000Y11160000D02*
G75*
G03*
X11315000Y10460000I0J-700000D01*
G01*
G04 #@! TO.C,JP4*
X14735000Y20050000D02*
X11935000Y20050000D01*
X11285000Y19350000D02*
X11285000Y18750000D01*
X11935000Y18050000D02*
X14735000Y18050000D01*
X15385000Y18750000D02*
X15385000Y19350000D01*
X14535000Y17850000D02*
X14835000Y17550000D01*
X14835000Y17550000D02*
X14235000Y17550000D01*
X14535000Y17850000D02*
X14235000Y17550000D01*
X15385000Y19350000D02*
G75*
G03*
X14685000Y20050000I-700000J0D01*
G01*
X14685000Y18050000D02*
G75*
G03*
X15385000Y18750000I0J700000D01*
G01*
X11285000Y18750000D02*
G75*
G03*
X11985000Y18050000I700000J0D01*
G01*
X11985000Y20050000D02*
G75*
G03*
X11285000Y19350000I0J-700000D01*
G01*
G04 #@! TO.C,JP3*
X14735000Y15605000D02*
X11935000Y15605000D01*
X11285000Y14905000D02*
X11285000Y14305000D01*
X11935000Y13605000D02*
X14735000Y13605000D01*
X15385000Y14305000D02*
X15385000Y14905000D01*
X14535000Y13405000D02*
X14835000Y13105000D01*
X14835000Y13105000D02*
X14235000Y13105000D01*
X14535000Y13405000D02*
X14235000Y13105000D01*
X15385000Y14905000D02*
G75*
G03*
X14685000Y15605000I-700000J0D01*
G01*
X14685000Y13605000D02*
G75*
G03*
X15385000Y14305000I0J700000D01*
G01*
X11285000Y14305000D02*
G75*
G03*
X11985000Y13605000I700000J0D01*
G01*
X11985000Y15605000D02*
G75*
G03*
X11285000Y14905000I0J-700000D01*
G01*
G04 #@! TO.C,JP1*
X48825000Y16440000D02*
X49125000Y16140000D01*
X49125000Y16740000D02*
X49125000Y16140000D01*
X48825000Y16440000D02*
X49125000Y16740000D01*
X47925000Y17290000D02*
X47325000Y17290000D01*
X48625000Y13840000D02*
X48625000Y16640000D01*
X47325000Y13190000D02*
X47925000Y13190000D01*
X46625000Y16640000D02*
X46625000Y13840000D01*
X47325000Y17290000D02*
G75*
G03*
X46625000Y16590000I0J-700000D01*
G01*
X48625000Y16590000D02*
G75*
G03*
X47925000Y17290000I-700000J0D01*
G01*
X47925000Y13190000D02*
G75*
G03*
X48625000Y13890000I0J700000D01*
G01*
X46625000Y13890000D02*
G75*
G03*
X47325000Y13190000I700000J0D01*
G01*
G04 #@! TO.C,J2*
X57210000Y8830000D02*
X54550000Y8830000D01*
X57210000Y26670000D02*
X57210000Y8830000D01*
X54550000Y26670000D02*
X54550000Y8830000D01*
X57210000Y26670000D02*
X54550000Y26670000D01*
X57210000Y27940000D02*
X57210000Y29270000D01*
X57210000Y29270000D02*
X55880000Y29270000D01*
G04 #@! TO.C,J1*
X8950000Y8830000D02*
X6290000Y8830000D01*
X8950000Y26670000D02*
X8950000Y8830000D01*
X6290000Y26670000D02*
X6290000Y8830000D01*
X8950000Y26670000D02*
X6290000Y26670000D01*
X8950000Y27940000D02*
X8950000Y29270000D01*
X8950000Y29270000D02*
X7620000Y29270000D01*
G04 #@! TO.C,JP6*
D10*
X49093333Y29227620D02*
X49093333Y28513334D01*
X49140952Y28370477D01*
X49236190Y28275239D01*
X49379047Y28227620D01*
X49474285Y28227620D01*
X48617142Y28227620D02*
X48617142Y29227620D01*
X48236190Y29227620D01*
X48140952Y29180000D01*
X48093333Y29132381D01*
X48045714Y29037143D01*
X48045714Y28894286D01*
X48093333Y28799048D01*
X48140952Y28751429D01*
X48236190Y28703810D01*
X48617142Y28703810D01*
X47188571Y29227620D02*
X47379047Y29227620D01*
X47474285Y29180000D01*
X47521904Y29132381D01*
X47617142Y28989524D01*
X47664761Y28799048D01*
X47664761Y28418096D01*
X47617142Y28322858D01*
X47569523Y28275239D01*
X47474285Y28227620D01*
X47283809Y28227620D01*
X47188571Y28275239D01*
X47140952Y28322858D01*
X47093333Y28418096D01*
X47093333Y28656191D01*
X47140952Y28751429D01*
X47188571Y28799048D01*
X47283809Y28846667D01*
X47474285Y28846667D01*
X47569523Y28799048D01*
X47617142Y28751429D01*
X47664761Y28656191D01*
G04 #@! TO.C,JP2*
X14168333Y25842620D02*
X14168333Y25128334D01*
X14215952Y24985477D01*
X14311190Y24890239D01*
X14454047Y24842620D01*
X14549285Y24842620D01*
X13692142Y24842620D02*
X13692142Y25842620D01*
X13311190Y25842620D01*
X13215952Y25795000D01*
X13168333Y25747381D01*
X13120714Y25652143D01*
X13120714Y25509286D01*
X13168333Y25414048D01*
X13215952Y25366429D01*
X13311190Y25318810D01*
X13692142Y25318810D01*
X12739761Y25747381D02*
X12692142Y25795000D01*
X12596904Y25842620D01*
X12358809Y25842620D01*
X12263571Y25795000D01*
X12215952Y25747381D01*
X12168333Y25652143D01*
X12168333Y25556905D01*
X12215952Y25414048D01*
X12787380Y24842620D01*
X12168333Y24842620D01*
G04 #@! TO.C,JP5*
X14198333Y12507620D02*
X14198333Y11793334D01*
X14245952Y11650477D01*
X14341190Y11555239D01*
X14484047Y11507620D01*
X14579285Y11507620D01*
X13722142Y11507620D02*
X13722142Y12507620D01*
X13341190Y12507620D01*
X13245952Y12460000D01*
X13198333Y12412381D01*
X13150714Y12317143D01*
X13150714Y12174286D01*
X13198333Y12079048D01*
X13245952Y12031429D01*
X13341190Y11983810D01*
X13722142Y11983810D01*
X12245952Y12507620D02*
X12722142Y12507620D01*
X12769761Y12031429D01*
X12722142Y12079048D01*
X12626904Y12126667D01*
X12388809Y12126667D01*
X12293571Y12079048D01*
X12245952Y12031429D01*
X12198333Y11936191D01*
X12198333Y11698096D01*
X12245952Y11602858D01*
X12293571Y11555239D01*
X12388809Y11507620D01*
X12626904Y11507620D01*
X12722142Y11555239D01*
X12769761Y11602858D01*
G04 #@! TO.C,JP4*
X14168333Y21397620D02*
X14168333Y20683334D01*
X14215952Y20540477D01*
X14311190Y20445239D01*
X14454047Y20397620D01*
X14549285Y20397620D01*
X13692142Y20397620D02*
X13692142Y21397620D01*
X13311190Y21397620D01*
X13215952Y21350000D01*
X13168333Y21302381D01*
X13120714Y21207143D01*
X13120714Y21064286D01*
X13168333Y20969048D01*
X13215952Y20921429D01*
X13311190Y20873810D01*
X13692142Y20873810D01*
X12263571Y21064286D02*
X12263571Y20397620D01*
X12501666Y21445239D02*
X12739761Y20730953D01*
X12120714Y20730953D01*
G04 #@! TO.C,JP3*
X14168333Y16952620D02*
X14168333Y16238334D01*
X14215952Y16095477D01*
X14311190Y16000239D01*
X14454047Y15952620D01*
X14549285Y15952620D01*
X13692142Y15952620D02*
X13692142Y16952620D01*
X13311190Y16952620D01*
X13215952Y16905000D01*
X13168333Y16857381D01*
X13120714Y16762143D01*
X13120714Y16619286D01*
X13168333Y16524048D01*
X13215952Y16476429D01*
X13311190Y16428810D01*
X13692142Y16428810D01*
X12787380Y16952620D02*
X12168333Y16952620D01*
X12501666Y16571667D01*
X12358809Y16571667D01*
X12263571Y16524048D01*
X12215952Y16476429D01*
X12168333Y16381191D01*
X12168333Y16143096D01*
X12215952Y16047858D01*
X12263571Y16000239D01*
X12358809Y15952620D01*
X12644523Y15952620D01*
X12739761Y16000239D01*
X12787380Y16047858D01*
G04 #@! TO.C,JP1*
X49146666Y15823334D02*
X49646666Y15823334D01*
X49746666Y15856667D01*
X49813333Y15923334D01*
X49846666Y16023334D01*
X49846666Y16090000D01*
X49846666Y15490000D02*
X49146666Y15490000D01*
X49146666Y15223334D01*
X49180000Y15156667D01*
X49213333Y15123334D01*
X49280000Y15090000D01*
X49380000Y15090000D01*
X49446666Y15123334D01*
X49480000Y15156667D01*
X49513333Y15223334D01*
X49513333Y15490000D01*
X49846666Y14423334D02*
X49846666Y14823334D01*
X49846666Y14623334D02*
X49146666Y14623334D01*
X49246666Y14690000D01*
X49313333Y14756667D01*
X49346666Y14823334D01*
G04 #@! TO.C,J2*
X56848333Y8802620D02*
X56848333Y8088334D01*
X56895952Y7945477D01*
X56991190Y7850239D01*
X57134047Y7802620D01*
X57229285Y7802620D01*
X56419761Y8707381D02*
X56372142Y8755000D01*
X56276904Y8802620D01*
X56038809Y8802620D01*
X55943571Y8755000D01*
X55895952Y8707381D01*
X55848333Y8612143D01*
X55848333Y8516905D01*
X55895952Y8374048D01*
X56467380Y7802620D01*
X55848333Y7802620D01*
G04 #@! TO.C,J1*
X7953333Y8802620D02*
X7953333Y8088334D01*
X8000952Y7945477D01*
X8096190Y7850239D01*
X8239047Y7802620D01*
X8334285Y7802620D01*
X6953333Y7802620D02*
X7524761Y7802620D01*
X7239047Y7802620D02*
X7239047Y8802620D01*
X7334285Y8659762D01*
X7429523Y8564524D01*
X7524761Y8516905D01*
G04 #@! TD*
M02*
