G04 #@! TF.GenerationSoftware,KiCad,Pcbnew,(5.1.6-0-10_14)*
G04 #@! TF.CreationDate,2021-08-19T15:45:43+01:00*
G04 #@! TF.ProjectId,JuntekOnSteroidsTTGO,4a756e74-656b-44f6-9e53-7465726f6964,2.3*
G04 #@! TF.SameCoordinates,PX5b716c8PY5b716c8*
G04 #@! TF.FileFunction,Legend,Top*
G04 #@! TF.FilePolarity,Positive*
%FSLAX46Y46*%
G04 Gerber Fmt 4.6, Leading zero omitted, Abs format (unit mm)*
G04 Created by KiCad (PCBNEW (5.1.6-0-10_14)) date 2021-08-19 15:45:43*
%MOMM*%
%LPD*%
G01*
G04 APERTURE LIST*
%ADD10C,0.150000*%
%ADD11C,0.120000*%
G04 APERTURE END LIST*
D10*
X26759523Y15741667D02*
X27140476Y15741667D01*
X26683333Y15513096D02*
X26950000Y16313096D01*
X27216666Y15513096D01*
X27483333Y15513096D02*
X27483333Y16313096D01*
X27673809Y16313096D01*
X27788095Y16275000D01*
X27864285Y16198810D01*
X27902380Y16122620D01*
X27940476Y15970239D01*
X27940476Y15855953D01*
X27902380Y15703572D01*
X27864285Y15627381D01*
X27788095Y15551191D01*
X27673809Y15513096D01*
X27483333Y15513096D01*
X28740476Y15589286D02*
X28702380Y15551191D01*
X28588095Y15513096D01*
X28511904Y15513096D01*
X28397619Y15551191D01*
X28321428Y15627381D01*
X28283333Y15703572D01*
X28245238Y15855953D01*
X28245238Y15970239D01*
X28283333Y16122620D01*
X28321428Y16198810D01*
X28397619Y16275000D01*
X28511904Y16313096D01*
X28588095Y16313096D01*
X28702380Y16275000D01*
X28740476Y16236905D01*
X29502380Y15513096D02*
X29045238Y15513096D01*
X29273809Y15513096D02*
X29273809Y16313096D01*
X29197619Y16198810D01*
X29121428Y16122620D01*
X29045238Y16084524D01*
X30264285Y15513096D02*
X29807142Y15513096D01*
X30035714Y15513096D02*
X30035714Y16313096D01*
X29959523Y16198810D01*
X29883333Y16122620D01*
X29807142Y16084524D01*
X31026190Y15513096D02*
X30569047Y15513096D01*
X30797619Y15513096D02*
X30797619Y16313096D01*
X30721428Y16198810D01*
X30645238Y16122620D01*
X30569047Y16084524D01*
X31750000Y16313096D02*
X31369047Y16313096D01*
X31330952Y15932143D01*
X31369047Y15970239D01*
X31445238Y16008334D01*
X31635714Y16008334D01*
X31711904Y15970239D01*
X31750000Y15932143D01*
X31788095Y15855953D01*
X31788095Y15665477D01*
X31750000Y15589286D01*
X31711904Y15551191D01*
X31635714Y15513096D01*
X31445238Y15513096D01*
X31369047Y15551191D01*
X31330952Y15589286D01*
X32740476Y15513096D02*
X32740476Y16046429D01*
X32740476Y15970239D02*
X32778571Y16008334D01*
X32854761Y16046429D01*
X32969047Y16046429D01*
X33045238Y16008334D01*
X33083333Y15932143D01*
X33083333Y15513096D01*
X33083333Y15932143D02*
X33121428Y16008334D01*
X33197619Y16046429D01*
X33311904Y16046429D01*
X33388095Y16008334D01*
X33426190Y15932143D01*
X33426190Y15513096D01*
X33921428Y15513096D02*
X33845238Y15551191D01*
X33807142Y15589286D01*
X33769047Y15665477D01*
X33769047Y15894048D01*
X33807142Y15970239D01*
X33845238Y16008334D01*
X33921428Y16046429D01*
X34035714Y16046429D01*
X34111904Y16008334D01*
X34150000Y15970239D01*
X34188095Y15894048D01*
X34188095Y15665477D01*
X34150000Y15589286D01*
X34111904Y15551191D01*
X34035714Y15513096D01*
X33921428Y15513096D01*
X34873809Y15513096D02*
X34873809Y16313096D01*
X34873809Y15551191D02*
X34797619Y15513096D01*
X34645238Y15513096D01*
X34569047Y15551191D01*
X34530952Y15589286D01*
X34492857Y15665477D01*
X34492857Y15894048D01*
X34530952Y15970239D01*
X34569047Y16008334D01*
X34645238Y16046429D01*
X34797619Y16046429D01*
X34873809Y16008334D01*
X35597619Y16046429D02*
X35597619Y15513096D01*
X35254761Y16046429D02*
X35254761Y15627381D01*
X35292857Y15551191D01*
X35369047Y15513096D01*
X35483333Y15513096D01*
X35559523Y15551191D01*
X35597619Y15589286D01*
X36092857Y15513096D02*
X36016666Y15551191D01*
X35978571Y15627381D01*
X35978571Y16313096D01*
X36702380Y15551191D02*
X36626190Y15513096D01*
X36473809Y15513096D01*
X36397619Y15551191D01*
X36359523Y15627381D01*
X36359523Y15932143D01*
X36397619Y16008334D01*
X36473809Y16046429D01*
X36626190Y16046429D01*
X36702380Y16008334D01*
X36740476Y15932143D01*
X36740476Y15855953D01*
X36359523Y15779762D01*
X20124047Y7677143D02*
X20390714Y7677143D01*
X20505000Y7258096D02*
X20124047Y7258096D01*
X20124047Y8058096D01*
X20505000Y8058096D01*
X20809761Y7296191D02*
X20924047Y7258096D01*
X21114523Y7258096D01*
X21190714Y7296191D01*
X21228809Y7334286D01*
X21266904Y7410477D01*
X21266904Y7486667D01*
X21228809Y7562858D01*
X21190714Y7600953D01*
X21114523Y7639048D01*
X20962142Y7677143D01*
X20885952Y7715239D01*
X20847857Y7753334D01*
X20809761Y7829524D01*
X20809761Y7905715D01*
X20847857Y7981905D01*
X20885952Y8020000D01*
X20962142Y8058096D01*
X21152619Y8058096D01*
X21266904Y8020000D01*
X21609761Y7258096D02*
X21609761Y8058096D01*
X21914523Y8058096D01*
X21990714Y8020000D01*
X22028809Y7981905D01*
X22066904Y7905715D01*
X22066904Y7791429D01*
X22028809Y7715239D01*
X21990714Y7677143D01*
X21914523Y7639048D01*
X21609761Y7639048D01*
X22333571Y8058096D02*
X22828809Y8058096D01*
X22562142Y7753334D01*
X22676428Y7753334D01*
X22752619Y7715239D01*
X22790714Y7677143D01*
X22828809Y7600953D01*
X22828809Y7410477D01*
X22790714Y7334286D01*
X22752619Y7296191D01*
X22676428Y7258096D01*
X22447857Y7258096D01*
X22371666Y7296191D01*
X22333571Y7334286D01*
X23133571Y7981905D02*
X23171666Y8020000D01*
X23247857Y8058096D01*
X23438333Y8058096D01*
X23514523Y8020000D01*
X23552619Y7981905D01*
X23590714Y7905715D01*
X23590714Y7829524D01*
X23552619Y7715239D01*
X23095476Y7258096D01*
X23590714Y7258096D01*
X24428809Y8058096D02*
X24885952Y8058096D01*
X24657380Y7258096D02*
X24657380Y8058096D01*
X25038333Y8058096D02*
X25495476Y8058096D01*
X25266904Y7258096D02*
X25266904Y8058096D01*
X26181190Y8020000D02*
X26105000Y8058096D01*
X25990714Y8058096D01*
X25876428Y8020000D01*
X25800238Y7943810D01*
X25762142Y7867620D01*
X25724047Y7715239D01*
X25724047Y7600953D01*
X25762142Y7448572D01*
X25800238Y7372381D01*
X25876428Y7296191D01*
X25990714Y7258096D01*
X26066904Y7258096D01*
X26181190Y7296191D01*
X26219285Y7334286D01*
X26219285Y7600953D01*
X26066904Y7600953D01*
X26714523Y8058096D02*
X26866904Y8058096D01*
X26943095Y8020000D01*
X27019285Y7943810D01*
X27057380Y7791429D01*
X27057380Y7524762D01*
X27019285Y7372381D01*
X26943095Y7296191D01*
X26866904Y7258096D01*
X26714523Y7258096D01*
X26638333Y7296191D01*
X26562142Y7372381D01*
X26524047Y7524762D01*
X26524047Y7791429D01*
X26562142Y7943810D01*
X26638333Y8020000D01*
X26714523Y8058096D01*
X27895476Y8058096D02*
X28352619Y8058096D01*
X28124047Y7258096D02*
X28124047Y8058096D01*
X28885952Y7677143D02*
X28619285Y7677143D01*
X28619285Y7258096D02*
X28619285Y8058096D01*
X29000238Y8058096D01*
X29190714Y8058096D02*
X29647857Y8058096D01*
X29419285Y7258096D02*
X29419285Y8058096D01*
X30524047Y7258096D02*
X30524047Y7791429D01*
X30524047Y7715239D02*
X30562142Y7753334D01*
X30638333Y7791429D01*
X30752619Y7791429D01*
X30828809Y7753334D01*
X30866904Y7677143D01*
X30866904Y7258096D01*
X30866904Y7677143D02*
X30905000Y7753334D01*
X30981190Y7791429D01*
X31095476Y7791429D01*
X31171666Y7753334D01*
X31209761Y7677143D01*
X31209761Y7258096D01*
X31705000Y7258096D02*
X31628809Y7296191D01*
X31590714Y7334286D01*
X31552619Y7410477D01*
X31552619Y7639048D01*
X31590714Y7715239D01*
X31628809Y7753334D01*
X31705000Y7791429D01*
X31819285Y7791429D01*
X31895476Y7753334D01*
X31933571Y7715239D01*
X31971666Y7639048D01*
X31971666Y7410477D01*
X31933571Y7334286D01*
X31895476Y7296191D01*
X31819285Y7258096D01*
X31705000Y7258096D01*
X32657380Y7258096D02*
X32657380Y8058096D01*
X32657380Y7296191D02*
X32581190Y7258096D01*
X32428809Y7258096D01*
X32352619Y7296191D01*
X32314523Y7334286D01*
X32276428Y7410477D01*
X32276428Y7639048D01*
X32314523Y7715239D01*
X32352619Y7753334D01*
X32428809Y7791429D01*
X32581190Y7791429D01*
X32657380Y7753334D01*
X33381190Y7791429D02*
X33381190Y7258096D01*
X33038333Y7791429D02*
X33038333Y7372381D01*
X33076428Y7296191D01*
X33152619Y7258096D01*
X33266904Y7258096D01*
X33343095Y7296191D01*
X33381190Y7334286D01*
X33876428Y7258096D02*
X33800238Y7296191D01*
X33762142Y7372381D01*
X33762142Y8058096D01*
X34485952Y7296191D02*
X34409761Y7258096D01*
X34257380Y7258096D01*
X34181190Y7296191D01*
X34143095Y7372381D01*
X34143095Y7677143D01*
X34181190Y7753334D01*
X34257380Y7791429D01*
X34409761Y7791429D01*
X34485952Y7753334D01*
X34524047Y7677143D01*
X34524047Y7600953D01*
X34143095Y7524762D01*
X4692857Y7258096D02*
X4426190Y7639048D01*
X4235714Y7258096D02*
X4235714Y8058096D01*
X4540476Y8058096D01*
X4616666Y8020000D01*
X4654761Y7981905D01*
X4692857Y7905715D01*
X4692857Y7791429D01*
X4654761Y7715239D01*
X4616666Y7677143D01*
X4540476Y7639048D01*
X4235714Y7639048D01*
X5340476Y7296191D02*
X5264285Y7258096D01*
X5111904Y7258096D01*
X5035714Y7296191D01*
X4997619Y7372381D01*
X4997619Y7677143D01*
X5035714Y7753334D01*
X5111904Y7791429D01*
X5264285Y7791429D01*
X5340476Y7753334D01*
X5378571Y7677143D01*
X5378571Y7600953D01*
X4997619Y7524762D01*
X5645238Y7791429D02*
X5835714Y7258096D01*
X6026190Y7791429D01*
X6902380Y7981905D02*
X6940476Y8020000D01*
X7016666Y8058096D01*
X7207142Y8058096D01*
X7283333Y8020000D01*
X7321428Y7981905D01*
X7359523Y7905715D01*
X7359523Y7829524D01*
X7321428Y7715239D01*
X6864285Y7258096D01*
X7359523Y7258096D01*
X7702380Y7334286D02*
X7740476Y7296191D01*
X7702380Y7258096D01*
X7664285Y7296191D01*
X7702380Y7334286D01*
X7702380Y7258096D01*
X8007142Y8058096D02*
X8502380Y8058096D01*
X8235714Y7753334D01*
X8350000Y7753334D01*
X8426190Y7715239D01*
X8464285Y7677143D01*
X8502380Y7600953D01*
X8502380Y7410477D01*
X8464285Y7334286D01*
X8426190Y7296191D01*
X8350000Y7258096D01*
X8121428Y7258096D01*
X8045238Y7296191D01*
X8007142Y7334286D01*
D11*
G04 #@! TO.C,C6*
X46070000Y8876000D02*
X46070000Y10134000D01*
X47910000Y8876000D02*
X47910000Y10134000D01*
G04 #@! TO.C,C5*
X12985000Y34939000D02*
X12985000Y33681000D01*
X11145000Y34939000D02*
X11145000Y33681000D01*
G04 #@! TO.C,J22*
X11370000Y20260000D02*
X14030000Y20260000D01*
X11370000Y27940000D02*
X11370000Y20260000D01*
X14030000Y27940000D02*
X14030000Y20260000D01*
X11370000Y27940000D02*
X14030000Y27940000D01*
X11370000Y29210000D02*
X11370000Y30540000D01*
X11370000Y30540000D02*
X12700000Y30540000D01*
G04 #@! TO.C,J21*
X8830000Y20260000D02*
X11490000Y20260000D01*
X8830000Y27940000D02*
X8830000Y20260000D01*
X11490000Y27940000D02*
X11490000Y20260000D01*
X8830000Y27940000D02*
X11490000Y27940000D01*
X8830000Y29210000D02*
X8830000Y30540000D01*
X8830000Y30540000D02*
X10160000Y30540000D01*
G04 #@! TO.C,J61*
X3750000Y30420000D02*
X6410000Y30420000D01*
X3750000Y33020000D02*
X3750000Y30420000D01*
X6410000Y33020000D02*
X6410000Y30420000D01*
X3750000Y33020000D02*
X6410000Y33020000D01*
X3750000Y34290000D02*
X3750000Y35620000D01*
X3750000Y35620000D02*
X5080000Y35620000D01*
G04 #@! TO.C,J12*
X3750000Y10100000D02*
X6410000Y10100000D01*
X3750000Y15240000D02*
X3750000Y10100000D01*
X6410000Y15240000D02*
X6410000Y10100000D01*
X3750000Y15240000D02*
X6410000Y15240000D01*
X3750000Y16510000D02*
X3750000Y17840000D01*
X3750000Y17840000D02*
X5080000Y17840000D01*
G04 #@! TO.C,J11*
X3750000Y20260000D02*
X6410000Y20260000D01*
X3750000Y25400000D02*
X3750000Y20260000D01*
X6410000Y25400000D02*
X6410000Y20260000D01*
X3750000Y25400000D02*
X6410000Y25400000D01*
X3750000Y26670000D02*
X3750000Y28000000D01*
X3750000Y28000000D02*
X5080000Y28000000D01*
G04 #@! TO.C,J23*
X8830000Y10100000D02*
X11490000Y10100000D01*
X8830000Y12700000D02*
X8830000Y10100000D01*
X11490000Y12700000D02*
X11490000Y10100000D01*
X8830000Y12700000D02*
X11490000Y12700000D01*
X8830000Y13970000D02*
X8830000Y15300000D01*
X8830000Y15300000D02*
X10160000Y15300000D01*
G04 #@! TO.C,R20*
X20940000Y30130000D02*
X20940000Y28290000D01*
X20940000Y28290000D02*
X24780000Y28290000D01*
X24780000Y28290000D02*
X24780000Y30130000D01*
X24780000Y30130000D02*
X20940000Y30130000D01*
X19990000Y29210000D02*
X20940000Y29210000D01*
X25730000Y29210000D02*
X24780000Y29210000D01*
G04 #@! TO.C,R19*
X33640000Y22510000D02*
X33640000Y20670000D01*
X33640000Y20670000D02*
X37480000Y20670000D01*
X37480000Y20670000D02*
X37480000Y22510000D01*
X37480000Y22510000D02*
X33640000Y22510000D01*
X32690000Y21590000D02*
X33640000Y21590000D01*
X38430000Y21590000D02*
X37480000Y21590000D01*
G04 #@! TO.C,R18*
X37480000Y24480000D02*
X37480000Y26320000D01*
X37480000Y26320000D02*
X33640000Y26320000D01*
X33640000Y26320000D02*
X33640000Y24480000D01*
X33640000Y24480000D02*
X37480000Y24480000D01*
X38430000Y25400000D02*
X37480000Y25400000D01*
X32690000Y25400000D02*
X33640000Y25400000D01*
G04 #@! TO.C,R17*
X33640000Y18700000D02*
X33640000Y16860000D01*
X33640000Y16860000D02*
X37480000Y16860000D01*
X37480000Y16860000D02*
X37480000Y18700000D01*
X37480000Y18700000D02*
X33640000Y18700000D01*
X32690000Y17780000D02*
X33640000Y17780000D01*
X38430000Y17780000D02*
X37480000Y17780000D01*
G04 #@! TO.C,R16*
X37480000Y28290000D02*
X37480000Y30130000D01*
X37480000Y30130000D02*
X33640000Y30130000D01*
X33640000Y30130000D02*
X33640000Y28290000D01*
X33640000Y28290000D02*
X37480000Y28290000D01*
X38430000Y29210000D02*
X37480000Y29210000D01*
X32690000Y29210000D02*
X33640000Y29210000D01*
G04 #@! TO.C,R15*
X44100000Y27320000D02*
X42260000Y27320000D01*
X42260000Y27320000D02*
X42260000Y23480000D01*
X42260000Y23480000D02*
X44100000Y23480000D01*
X44100000Y23480000D02*
X44100000Y27320000D01*
X43180000Y28270000D02*
X43180000Y27320000D01*
X43180000Y22530000D02*
X43180000Y23480000D01*
G04 #@! TO.C,R12*
X24780000Y16860000D02*
X24780000Y18700000D01*
X24780000Y18700000D02*
X20940000Y18700000D01*
X20940000Y18700000D02*
X20940000Y16860000D01*
X20940000Y16860000D02*
X24780000Y16860000D01*
X25730000Y17780000D02*
X24780000Y17780000D01*
X19990000Y17780000D02*
X20940000Y17780000D01*
G04 #@! TO.C,R11*
X24780000Y20670000D02*
X24780000Y22510000D01*
X24780000Y22510000D02*
X20940000Y22510000D01*
X20940000Y22510000D02*
X20940000Y20670000D01*
X20940000Y20670000D02*
X24780000Y20670000D01*
X25730000Y21590000D02*
X24780000Y21590000D01*
X19990000Y21590000D02*
X20940000Y21590000D01*
G04 #@! TO.C,C3*
X32371000Y36480000D02*
X33629000Y36480000D01*
X32371000Y34640000D02*
X33629000Y34640000D01*
G04 #@! TO.C,C2*
X26049000Y34640000D02*
X24791000Y34640000D01*
X26049000Y36480000D02*
X24791000Y36480000D01*
G04 #@! TO.C,C1*
X17131000Y36480000D02*
X18389000Y36480000D01*
X17131000Y34640000D02*
X18389000Y34640000D01*
G04 #@! TO.C,#J9*
X19050000Y12640000D02*
X19050000Y15300000D01*
X19050000Y12640000D02*
X41970000Y12640000D01*
X41970000Y12640000D02*
X41970000Y15300000D01*
X19050000Y15300000D02*
X41970000Y15300000D01*
X16450000Y15300000D02*
X17780000Y15300000D01*
X16450000Y13970000D02*
X16450000Y15300000D01*
G04 #@! TO.C,R14*
X20940000Y26320000D02*
X20940000Y24480000D01*
X20940000Y24480000D02*
X24780000Y24480000D01*
X24780000Y24480000D02*
X24780000Y26320000D01*
X24780000Y26320000D02*
X20940000Y26320000D01*
X19990000Y25400000D02*
X20940000Y25400000D01*
X25730000Y25400000D02*
X24780000Y25400000D01*
G04 #@! TO.C,C8*
X45370000Y15889000D02*
X45370000Y14631000D01*
X43530000Y15889000D02*
X43530000Y14631000D01*
G04 #@! TO.C,J7*
X54180000Y17600000D02*
X52930000Y17600000D01*
X54180000Y16350000D02*
X54180000Y17600000D01*
X49770000Y10240000D02*
X50270000Y10240000D01*
X50270000Y10140000D02*
X49770000Y10140000D01*
X50270000Y10340000D02*
X50270000Y10140000D01*
X49770000Y10340000D02*
X50270000Y10340000D01*
X49770000Y12240000D02*
X50270000Y12240000D01*
X50270000Y12140000D02*
X49770000Y12140000D01*
X50270000Y12340000D02*
X50270000Y12140000D01*
X49770000Y12340000D02*
X50270000Y12340000D01*
X49770000Y14240000D02*
X50270000Y14240000D01*
X50270000Y14140000D02*
X49770000Y14140000D01*
X50270000Y14340000D02*
X50270000Y14140000D01*
X49770000Y14340000D02*
X50270000Y14340000D01*
X51270000Y7180000D02*
X51270000Y7790000D01*
X52570000Y7180000D02*
X52570000Y7790000D01*
X51270000Y17300000D02*
X51270000Y16690000D01*
X52570000Y17300000D02*
X52570000Y16690000D01*
X53270000Y9740000D02*
X53880000Y9740000D01*
X53270000Y7790000D02*
X53270000Y9740000D01*
X49770000Y7790000D02*
X53270000Y7790000D01*
X49770000Y16690000D02*
X49770000Y7790000D01*
X53270000Y16690000D02*
X49770000Y16690000D01*
X53270000Y14740000D02*
X53270000Y16690000D01*
X53880000Y14740000D02*
X53270000Y14740000D01*
X53980000Y15540000D02*
X53980000Y15840000D01*
X54080000Y15840000D02*
X53880000Y15840000D01*
X54080000Y15540000D02*
X54080000Y15840000D01*
X53880000Y15540000D02*
X54080000Y15540000D01*
X53880000Y7180000D02*
X53880000Y17300000D01*
X49160000Y7180000D02*
X53880000Y7180000D01*
X49160000Y17300000D02*
X49160000Y7180000D01*
X53880000Y17300000D02*
X49160000Y17300000D01*
G04 #@! TO.C,C4*
X41289000Y34640000D02*
X40031000Y34640000D01*
X41289000Y36480000D02*
X40031000Y36480000D01*
G04 #@! TO.C,C7*
X53495000Y19685000D02*
G75*
G03*
X53495000Y19685000I-4120000J0D01*
G01*
X49375000Y23765000D02*
X49375000Y15605000D01*
X49415000Y23765000D02*
X49415000Y15605000D01*
X49455000Y23765000D02*
X49455000Y15605000D01*
X49495000Y23764000D02*
X49495000Y15606000D01*
X49535000Y23762000D02*
X49535000Y15608000D01*
X49575000Y23761000D02*
X49575000Y15609000D01*
X49615000Y23759000D02*
X49615000Y15611000D01*
X49655000Y23756000D02*
X49655000Y15614000D01*
X49695000Y23753000D02*
X49695000Y15617000D01*
X49735000Y23750000D02*
X49735000Y15620000D01*
X49775000Y23746000D02*
X49775000Y15624000D01*
X49815000Y23742000D02*
X49815000Y15628000D01*
X49855000Y23737000D02*
X49855000Y15633000D01*
X49895000Y23733000D02*
X49895000Y15637000D01*
X49935000Y23727000D02*
X49935000Y15643000D01*
X49975000Y23722000D02*
X49975000Y15648000D01*
X50015000Y23715000D02*
X50015000Y15655000D01*
X50055000Y23709000D02*
X50055000Y15661000D01*
X50096000Y23702000D02*
X50096000Y20725000D01*
X50096000Y18645000D02*
X50096000Y15668000D01*
X50136000Y23695000D02*
X50136000Y20725000D01*
X50136000Y18645000D02*
X50136000Y15675000D01*
X50176000Y23687000D02*
X50176000Y20725000D01*
X50176000Y18645000D02*
X50176000Y15683000D01*
X50216000Y23679000D02*
X50216000Y20725000D01*
X50216000Y18645000D02*
X50216000Y15691000D01*
X50256000Y23670000D02*
X50256000Y20725000D01*
X50256000Y18645000D02*
X50256000Y15700000D01*
X50296000Y23661000D02*
X50296000Y20725000D01*
X50296000Y18645000D02*
X50296000Y15709000D01*
X50336000Y23652000D02*
X50336000Y20725000D01*
X50336000Y18645000D02*
X50336000Y15718000D01*
X50376000Y23642000D02*
X50376000Y20725000D01*
X50376000Y18645000D02*
X50376000Y15728000D01*
X50416000Y23632000D02*
X50416000Y20725000D01*
X50416000Y18645000D02*
X50416000Y15738000D01*
X50456000Y23621000D02*
X50456000Y20725000D01*
X50456000Y18645000D02*
X50456000Y15749000D01*
X50496000Y23610000D02*
X50496000Y20725000D01*
X50496000Y18645000D02*
X50496000Y15760000D01*
X50536000Y23599000D02*
X50536000Y20725000D01*
X50536000Y18645000D02*
X50536000Y15771000D01*
X50576000Y23587000D02*
X50576000Y20725000D01*
X50576000Y18645000D02*
X50576000Y15783000D01*
X50616000Y23574000D02*
X50616000Y20725000D01*
X50616000Y18645000D02*
X50616000Y15796000D01*
X50656000Y23562000D02*
X50656000Y20725000D01*
X50656000Y18645000D02*
X50656000Y15808000D01*
X50696000Y23548000D02*
X50696000Y20725000D01*
X50696000Y18645000D02*
X50696000Y15822000D01*
X50736000Y23535000D02*
X50736000Y20725000D01*
X50736000Y18645000D02*
X50736000Y15835000D01*
X50776000Y23520000D02*
X50776000Y20725000D01*
X50776000Y18645000D02*
X50776000Y15850000D01*
X50816000Y23506000D02*
X50816000Y20725000D01*
X50816000Y18645000D02*
X50816000Y15864000D01*
X50856000Y23490000D02*
X50856000Y20725000D01*
X50856000Y18645000D02*
X50856000Y15880000D01*
X50896000Y23475000D02*
X50896000Y20725000D01*
X50896000Y18645000D02*
X50896000Y15895000D01*
X50936000Y23459000D02*
X50936000Y20725000D01*
X50936000Y18645000D02*
X50936000Y15911000D01*
X50976000Y23442000D02*
X50976000Y20725000D01*
X50976000Y18645000D02*
X50976000Y15928000D01*
X51016000Y23425000D02*
X51016000Y20725000D01*
X51016000Y18645000D02*
X51016000Y15945000D01*
X51056000Y23407000D02*
X51056000Y20725000D01*
X51056000Y18645000D02*
X51056000Y15963000D01*
X51096000Y23389000D02*
X51096000Y20725000D01*
X51096000Y18645000D02*
X51096000Y15981000D01*
X51136000Y23371000D02*
X51136000Y20725000D01*
X51136000Y18645000D02*
X51136000Y15999000D01*
X51176000Y23351000D02*
X51176000Y20725000D01*
X51176000Y18645000D02*
X51176000Y16019000D01*
X51216000Y23332000D02*
X51216000Y20725000D01*
X51216000Y18645000D02*
X51216000Y16038000D01*
X51256000Y23312000D02*
X51256000Y20725000D01*
X51256000Y18645000D02*
X51256000Y16058000D01*
X51296000Y23291000D02*
X51296000Y20725000D01*
X51296000Y18645000D02*
X51296000Y16079000D01*
X51336000Y23269000D02*
X51336000Y20725000D01*
X51336000Y18645000D02*
X51336000Y16101000D01*
X51376000Y23247000D02*
X51376000Y20725000D01*
X51376000Y18645000D02*
X51376000Y16123000D01*
X51416000Y23225000D02*
X51416000Y20725000D01*
X51416000Y18645000D02*
X51416000Y16145000D01*
X51456000Y23202000D02*
X51456000Y20725000D01*
X51456000Y18645000D02*
X51456000Y16168000D01*
X51496000Y23178000D02*
X51496000Y20725000D01*
X51496000Y18645000D02*
X51496000Y16192000D01*
X51536000Y23154000D02*
X51536000Y20725000D01*
X51536000Y18645000D02*
X51536000Y16216000D01*
X51576000Y23129000D02*
X51576000Y20725000D01*
X51576000Y18645000D02*
X51576000Y16241000D01*
X51616000Y23103000D02*
X51616000Y20725000D01*
X51616000Y18645000D02*
X51616000Y16267000D01*
X51656000Y23077000D02*
X51656000Y20725000D01*
X51656000Y18645000D02*
X51656000Y16293000D01*
X51696000Y23050000D02*
X51696000Y20725000D01*
X51696000Y18645000D02*
X51696000Y16320000D01*
X51736000Y23023000D02*
X51736000Y20725000D01*
X51736000Y18645000D02*
X51736000Y16347000D01*
X51776000Y22994000D02*
X51776000Y20725000D01*
X51776000Y18645000D02*
X51776000Y16376000D01*
X51816000Y22965000D02*
X51816000Y20725000D01*
X51816000Y18645000D02*
X51816000Y16405000D01*
X51856000Y22935000D02*
X51856000Y20725000D01*
X51856000Y18645000D02*
X51856000Y16435000D01*
X51896000Y22905000D02*
X51896000Y20725000D01*
X51896000Y18645000D02*
X51896000Y16465000D01*
X51936000Y22874000D02*
X51936000Y20725000D01*
X51936000Y18645000D02*
X51936000Y16496000D01*
X51976000Y22841000D02*
X51976000Y20725000D01*
X51976000Y18645000D02*
X51976000Y16529000D01*
X52016000Y22809000D02*
X52016000Y20725000D01*
X52016000Y18645000D02*
X52016000Y16561000D01*
X52056000Y22775000D02*
X52056000Y20725000D01*
X52056000Y18645000D02*
X52056000Y16595000D01*
X52096000Y22740000D02*
X52096000Y20725000D01*
X52096000Y18645000D02*
X52096000Y16630000D01*
X52136000Y22704000D02*
X52136000Y20725000D01*
X52136000Y18645000D02*
X52136000Y16666000D01*
X52176000Y22668000D02*
X52176000Y16702000D01*
X52216000Y22630000D02*
X52216000Y16740000D01*
X52256000Y22592000D02*
X52256000Y16778000D01*
X52296000Y22552000D02*
X52296000Y16818000D01*
X52336000Y22511000D02*
X52336000Y16859000D01*
X52376000Y22469000D02*
X52376000Y16901000D01*
X52416000Y22426000D02*
X52416000Y16944000D01*
X52456000Y22382000D02*
X52456000Y16988000D01*
X52496000Y22336000D02*
X52496000Y17034000D01*
X52536000Y22289000D02*
X52536000Y17081000D01*
X52576000Y22241000D02*
X52576000Y17129000D01*
X52616000Y22190000D02*
X52616000Y17180000D01*
X52656000Y22139000D02*
X52656000Y17231000D01*
X52696000Y22085000D02*
X52696000Y17285000D01*
X52736000Y22030000D02*
X52736000Y17340000D01*
X52776000Y21972000D02*
X52776000Y17398000D01*
X52816000Y21913000D02*
X52816000Y17457000D01*
X52856000Y21851000D02*
X52856000Y17519000D01*
X52896000Y21787000D02*
X52896000Y17583000D01*
X52936000Y21719000D02*
X52936000Y17651000D01*
X52976000Y21649000D02*
X52976000Y17721000D01*
X53016000Y21575000D02*
X53016000Y17795000D01*
X53056000Y21498000D02*
X53056000Y17872000D01*
X53096000Y21416000D02*
X53096000Y17954000D01*
X53136000Y21330000D02*
X53136000Y18040000D01*
X53176000Y21237000D02*
X53176000Y18133000D01*
X53216000Y21138000D02*
X53216000Y18232000D01*
X53256000Y21031000D02*
X53256000Y18339000D01*
X53296000Y20914000D02*
X53296000Y18456000D01*
X53336000Y20783000D02*
X53336000Y18587000D01*
X53376000Y20633000D02*
X53376000Y18737000D01*
X53416000Y20453000D02*
X53416000Y18917000D01*
X53456000Y20218000D02*
X53456000Y19152000D01*
X44965302Y22000000D02*
X45765302Y22000000D01*
X45365302Y22400000D02*
X45365302Y21600000D01*
G04 #@! TO.C,J5*
X44510000Y10160000D02*
X44510000Y8830000D01*
X44510000Y8830000D02*
X43180000Y8830000D01*
X41910000Y8830000D02*
X13910000Y8830000D01*
X13910000Y11490000D02*
X13910000Y8830000D01*
X41910000Y11490000D02*
X13910000Y11490000D01*
X41910000Y11490000D02*
X41910000Y8830000D01*
G04 #@! TO.C,J4*
X44510000Y33020000D02*
X44510000Y31690000D01*
X44510000Y31690000D02*
X43180000Y31690000D01*
X41910000Y31690000D02*
X13910000Y31690000D01*
X13910000Y34350000D02*
X13910000Y31690000D01*
X41910000Y34350000D02*
X13910000Y34350000D01*
X41910000Y34350000D02*
X41910000Y31690000D01*
G04 #@! TO.C,C6*
D10*
X46712142Y12533334D02*
X46759761Y12485715D01*
X46807380Y12342858D01*
X46807380Y12247620D01*
X46759761Y12104762D01*
X46664523Y12009524D01*
X46569285Y11961905D01*
X46378809Y11914286D01*
X46235952Y11914286D01*
X46045476Y11961905D01*
X45950238Y12009524D01*
X45855000Y12104762D01*
X45807380Y12247620D01*
X45807380Y12342858D01*
X45855000Y12485715D01*
X45902619Y12533334D01*
X45807380Y13390477D02*
X45807380Y13200000D01*
X45855000Y13104762D01*
X45902619Y13057143D01*
X46045476Y12961905D01*
X46235952Y12914286D01*
X46616904Y12914286D01*
X46712142Y12961905D01*
X46759761Y13009524D01*
X46807380Y13104762D01*
X46807380Y13295239D01*
X46759761Y13390477D01*
X46712142Y13438096D01*
X46616904Y13485715D01*
X46378809Y13485715D01*
X46283571Y13438096D01*
X46235952Y13390477D01*
X46188333Y13295239D01*
X46188333Y13104762D01*
X46235952Y13009524D01*
X46283571Y12961905D01*
X46378809Y12914286D01*
G04 #@! TO.C,C5*
X10517142Y32218334D02*
X10564761Y32170715D01*
X10612380Y32027858D01*
X10612380Y31932620D01*
X10564761Y31789762D01*
X10469523Y31694524D01*
X10374285Y31646905D01*
X10183809Y31599286D01*
X10040952Y31599286D01*
X9850476Y31646905D01*
X9755238Y31694524D01*
X9660000Y31789762D01*
X9612380Y31932620D01*
X9612380Y32027858D01*
X9660000Y32170715D01*
X9707619Y32218334D01*
X9612380Y33123096D02*
X9612380Y32646905D01*
X10088571Y32599286D01*
X10040952Y32646905D01*
X9993333Y32742143D01*
X9993333Y32980239D01*
X10040952Y33075477D01*
X10088571Y33123096D01*
X10183809Y33170715D01*
X10421904Y33170715D01*
X10517142Y33123096D01*
X10564761Y33075477D01*
X10612380Y32980239D01*
X10612380Y32742143D01*
X10564761Y32646905D01*
X10517142Y32599286D01*
G04 #@! TO.C,J22*
X11890476Y19597620D02*
X11890476Y18883334D01*
X11842857Y18740477D01*
X11747619Y18645239D01*
X11604761Y18597620D01*
X11509523Y18597620D01*
X12319047Y19502381D02*
X12366666Y19550000D01*
X12461904Y19597620D01*
X12700000Y19597620D01*
X12795238Y19550000D01*
X12842857Y19502381D01*
X12890476Y19407143D01*
X12890476Y19311905D01*
X12842857Y19169048D01*
X12271428Y18597620D01*
X12890476Y18597620D01*
X13271428Y19502381D02*
X13319047Y19550000D01*
X13414285Y19597620D01*
X13652380Y19597620D01*
X13747619Y19550000D01*
X13795238Y19502381D01*
X13842857Y19407143D01*
X13842857Y19311905D01*
X13795238Y19169048D01*
X13223809Y18597620D01*
X13842857Y18597620D01*
G04 #@! TO.C,J21*
X8715476Y19597620D02*
X8715476Y18883334D01*
X8667857Y18740477D01*
X8572619Y18645239D01*
X8429761Y18597620D01*
X8334523Y18597620D01*
X9144047Y19502381D02*
X9191666Y19550000D01*
X9286904Y19597620D01*
X9525000Y19597620D01*
X9620238Y19550000D01*
X9667857Y19502381D01*
X9715476Y19407143D01*
X9715476Y19311905D01*
X9667857Y19169048D01*
X9096428Y18597620D01*
X9715476Y18597620D01*
X10667857Y18597620D02*
X10096428Y18597620D01*
X10382142Y18597620D02*
X10382142Y19597620D01*
X10286904Y19454762D01*
X10191666Y19359524D01*
X10096428Y19311905D01*
G04 #@! TO.C,J61*
X4270476Y37167620D02*
X4270476Y36453334D01*
X4222857Y36310477D01*
X4127619Y36215239D01*
X3984761Y36167620D01*
X3889523Y36167620D01*
X5175238Y37167620D02*
X4984761Y37167620D01*
X4889523Y37120000D01*
X4841904Y37072381D01*
X4746666Y36929524D01*
X4699047Y36739048D01*
X4699047Y36358096D01*
X4746666Y36262858D01*
X4794285Y36215239D01*
X4889523Y36167620D01*
X5080000Y36167620D01*
X5175238Y36215239D01*
X5222857Y36262858D01*
X5270476Y36358096D01*
X5270476Y36596191D01*
X5222857Y36691429D01*
X5175238Y36739048D01*
X5080000Y36786667D01*
X4889523Y36786667D01*
X4794285Y36739048D01*
X4746666Y36691429D01*
X4699047Y36596191D01*
X6222857Y36167620D02*
X5651428Y36167620D01*
X5937142Y36167620D02*
X5937142Y37167620D01*
X5841904Y37024762D01*
X5746666Y36929524D01*
X5651428Y36881905D01*
G04 #@! TO.C,J12*
X4270476Y19387620D02*
X4270476Y18673334D01*
X4222857Y18530477D01*
X4127619Y18435239D01*
X3984761Y18387620D01*
X3889523Y18387620D01*
X5270476Y18387620D02*
X4699047Y18387620D01*
X4984761Y18387620D02*
X4984761Y19387620D01*
X4889523Y19244762D01*
X4794285Y19149524D01*
X4699047Y19101905D01*
X5651428Y19292381D02*
X5699047Y19340000D01*
X5794285Y19387620D01*
X6032380Y19387620D01*
X6127619Y19340000D01*
X6175238Y19292381D01*
X6222857Y19197143D01*
X6222857Y19101905D01*
X6175238Y18959048D01*
X5603809Y18387620D01*
X6222857Y18387620D01*
G04 #@! TO.C,J11*
X4270476Y29547620D02*
X4270476Y28833334D01*
X4222857Y28690477D01*
X4127619Y28595239D01*
X3984761Y28547620D01*
X3889523Y28547620D01*
X5270476Y28547620D02*
X4699047Y28547620D01*
X4984761Y28547620D02*
X4984761Y29547620D01*
X4889523Y29404762D01*
X4794285Y29309524D01*
X4699047Y29261905D01*
X6222857Y28547620D02*
X5651428Y28547620D01*
X5937142Y28547620D02*
X5937142Y29547620D01*
X5841904Y29404762D01*
X5746666Y29309524D01*
X5651428Y29261905D01*
G04 #@! TO.C,J23*
X9350476Y16847620D02*
X9350476Y16133334D01*
X9302857Y15990477D01*
X9207619Y15895239D01*
X9064761Y15847620D01*
X8969523Y15847620D01*
X9779047Y16752381D02*
X9826666Y16800000D01*
X9921904Y16847620D01*
X10160000Y16847620D01*
X10255238Y16800000D01*
X10302857Y16752381D01*
X10350476Y16657143D01*
X10350476Y16561905D01*
X10302857Y16419048D01*
X9731428Y15847620D01*
X10350476Y15847620D01*
X10683809Y16847620D02*
X11302857Y16847620D01*
X10969523Y16466667D01*
X11112380Y16466667D01*
X11207619Y16419048D01*
X11255238Y16371429D01*
X11302857Y16276191D01*
X11302857Y16038096D01*
X11255238Y15942858D01*
X11207619Y15895239D01*
X11112380Y15847620D01*
X10826666Y15847620D01*
X10731428Y15895239D01*
X10683809Y15942858D01*
G04 #@! TO.C,R20*
X22217142Y30677620D02*
X21883809Y31153810D01*
X21645714Y30677620D02*
X21645714Y31677620D01*
X22026666Y31677620D01*
X22121904Y31630000D01*
X22169523Y31582381D01*
X22217142Y31487143D01*
X22217142Y31344286D01*
X22169523Y31249048D01*
X22121904Y31201429D01*
X22026666Y31153810D01*
X21645714Y31153810D01*
X22598095Y31582381D02*
X22645714Y31630000D01*
X22740952Y31677620D01*
X22979047Y31677620D01*
X23074285Y31630000D01*
X23121904Y31582381D01*
X23169523Y31487143D01*
X23169523Y31391905D01*
X23121904Y31249048D01*
X22550476Y30677620D01*
X23169523Y30677620D01*
X23788571Y31677620D02*
X23883809Y31677620D01*
X23979047Y31630000D01*
X24026666Y31582381D01*
X24074285Y31487143D01*
X24121904Y31296667D01*
X24121904Y31058572D01*
X24074285Y30868096D01*
X24026666Y30772858D01*
X23979047Y30725239D01*
X23883809Y30677620D01*
X23788571Y30677620D01*
X23693333Y30725239D01*
X23645714Y30772858D01*
X23598095Y30868096D01*
X23550476Y31058572D01*
X23550476Y31296667D01*
X23598095Y31487143D01*
X23645714Y31582381D01*
X23693333Y31630000D01*
X23788571Y31677620D01*
G04 #@! TO.C,R19*
X34917142Y23057620D02*
X34583809Y23533810D01*
X34345714Y23057620D02*
X34345714Y24057620D01*
X34726666Y24057620D01*
X34821904Y24010000D01*
X34869523Y23962381D01*
X34917142Y23867143D01*
X34917142Y23724286D01*
X34869523Y23629048D01*
X34821904Y23581429D01*
X34726666Y23533810D01*
X34345714Y23533810D01*
X35869523Y23057620D02*
X35298095Y23057620D01*
X35583809Y23057620D02*
X35583809Y24057620D01*
X35488571Y23914762D01*
X35393333Y23819524D01*
X35298095Y23771905D01*
X36345714Y23057620D02*
X36536190Y23057620D01*
X36631428Y23105239D01*
X36679047Y23152858D01*
X36774285Y23295715D01*
X36821904Y23486191D01*
X36821904Y23867143D01*
X36774285Y23962381D01*
X36726666Y24010000D01*
X36631428Y24057620D01*
X36440952Y24057620D01*
X36345714Y24010000D01*
X36298095Y23962381D01*
X36250476Y23867143D01*
X36250476Y23629048D01*
X36298095Y23533810D01*
X36345714Y23486191D01*
X36440952Y23438572D01*
X36631428Y23438572D01*
X36726666Y23486191D01*
X36774285Y23533810D01*
X36821904Y23629048D01*
G04 #@! TO.C,R18*
X34917142Y26852620D02*
X34583809Y27328810D01*
X34345714Y26852620D02*
X34345714Y27852620D01*
X34726666Y27852620D01*
X34821904Y27805000D01*
X34869523Y27757381D01*
X34917142Y27662143D01*
X34917142Y27519286D01*
X34869523Y27424048D01*
X34821904Y27376429D01*
X34726666Y27328810D01*
X34345714Y27328810D01*
X35869523Y26852620D02*
X35298095Y26852620D01*
X35583809Y26852620D02*
X35583809Y27852620D01*
X35488571Y27709762D01*
X35393333Y27614524D01*
X35298095Y27566905D01*
X36440952Y27424048D02*
X36345714Y27471667D01*
X36298095Y27519286D01*
X36250476Y27614524D01*
X36250476Y27662143D01*
X36298095Y27757381D01*
X36345714Y27805000D01*
X36440952Y27852620D01*
X36631428Y27852620D01*
X36726666Y27805000D01*
X36774285Y27757381D01*
X36821904Y27662143D01*
X36821904Y27614524D01*
X36774285Y27519286D01*
X36726666Y27471667D01*
X36631428Y27424048D01*
X36440952Y27424048D01*
X36345714Y27376429D01*
X36298095Y27328810D01*
X36250476Y27233572D01*
X36250476Y27043096D01*
X36298095Y26947858D01*
X36345714Y26900239D01*
X36440952Y26852620D01*
X36631428Y26852620D01*
X36726666Y26900239D01*
X36774285Y26947858D01*
X36821904Y27043096D01*
X36821904Y27233572D01*
X36774285Y27328810D01*
X36726666Y27376429D01*
X36631428Y27424048D01*
G04 #@! TO.C,R17*
X34917142Y19247620D02*
X34583809Y19723810D01*
X34345714Y19247620D02*
X34345714Y20247620D01*
X34726666Y20247620D01*
X34821904Y20200000D01*
X34869523Y20152381D01*
X34917142Y20057143D01*
X34917142Y19914286D01*
X34869523Y19819048D01*
X34821904Y19771429D01*
X34726666Y19723810D01*
X34345714Y19723810D01*
X35869523Y19247620D02*
X35298095Y19247620D01*
X35583809Y19247620D02*
X35583809Y20247620D01*
X35488571Y20104762D01*
X35393333Y20009524D01*
X35298095Y19961905D01*
X36202857Y20247620D02*
X36869523Y20247620D01*
X36440952Y19247620D01*
G04 #@! TO.C,R16*
X34917142Y30662620D02*
X34583809Y31138810D01*
X34345714Y30662620D02*
X34345714Y31662620D01*
X34726666Y31662620D01*
X34821904Y31615000D01*
X34869523Y31567381D01*
X34917142Y31472143D01*
X34917142Y31329286D01*
X34869523Y31234048D01*
X34821904Y31186429D01*
X34726666Y31138810D01*
X34345714Y31138810D01*
X35869523Y30662620D02*
X35298095Y30662620D01*
X35583809Y30662620D02*
X35583809Y31662620D01*
X35488571Y31519762D01*
X35393333Y31424524D01*
X35298095Y31376905D01*
X36726666Y31662620D02*
X36536190Y31662620D01*
X36440952Y31615000D01*
X36393333Y31567381D01*
X36298095Y31424524D01*
X36250476Y31234048D01*
X36250476Y30853096D01*
X36298095Y30757858D01*
X36345714Y30710239D01*
X36440952Y30662620D01*
X36631428Y30662620D01*
X36726666Y30710239D01*
X36774285Y30757858D01*
X36821904Y30853096D01*
X36821904Y31091191D01*
X36774285Y31186429D01*
X36726666Y31234048D01*
X36631428Y31281667D01*
X36440952Y31281667D01*
X36345714Y31234048D01*
X36298095Y31186429D01*
X36250476Y31091191D01*
G04 #@! TO.C,R15*
X41727380Y24757143D02*
X41251190Y24423810D01*
X41727380Y24185715D02*
X40727380Y24185715D01*
X40727380Y24566667D01*
X40775000Y24661905D01*
X40822619Y24709524D01*
X40917857Y24757143D01*
X41060714Y24757143D01*
X41155952Y24709524D01*
X41203571Y24661905D01*
X41251190Y24566667D01*
X41251190Y24185715D01*
X41727380Y25709524D02*
X41727380Y25138096D01*
X41727380Y25423810D02*
X40727380Y25423810D01*
X40870238Y25328572D01*
X40965476Y25233334D01*
X41013095Y25138096D01*
X40727380Y26614286D02*
X40727380Y26138096D01*
X41203571Y26090477D01*
X41155952Y26138096D01*
X41108333Y26233334D01*
X41108333Y26471429D01*
X41155952Y26566667D01*
X41203571Y26614286D01*
X41298809Y26661905D01*
X41536904Y26661905D01*
X41632142Y26614286D01*
X41679761Y26566667D01*
X41727380Y26471429D01*
X41727380Y26233334D01*
X41679761Y26138096D01*
X41632142Y26090477D01*
G04 #@! TO.C,R12*
X22217142Y19232620D02*
X21883809Y19708810D01*
X21645714Y19232620D02*
X21645714Y20232620D01*
X22026666Y20232620D01*
X22121904Y20185000D01*
X22169523Y20137381D01*
X22217142Y20042143D01*
X22217142Y19899286D01*
X22169523Y19804048D01*
X22121904Y19756429D01*
X22026666Y19708810D01*
X21645714Y19708810D01*
X23169523Y19232620D02*
X22598095Y19232620D01*
X22883809Y19232620D02*
X22883809Y20232620D01*
X22788571Y20089762D01*
X22693333Y19994524D01*
X22598095Y19946905D01*
X23550476Y20137381D02*
X23598095Y20185000D01*
X23693333Y20232620D01*
X23931428Y20232620D01*
X24026666Y20185000D01*
X24074285Y20137381D01*
X24121904Y20042143D01*
X24121904Y19946905D01*
X24074285Y19804048D01*
X23502857Y19232620D01*
X24121904Y19232620D01*
G04 #@! TO.C,R11*
X22217142Y23042620D02*
X21883809Y23518810D01*
X21645714Y23042620D02*
X21645714Y24042620D01*
X22026666Y24042620D01*
X22121904Y23995000D01*
X22169523Y23947381D01*
X22217142Y23852143D01*
X22217142Y23709286D01*
X22169523Y23614048D01*
X22121904Y23566429D01*
X22026666Y23518810D01*
X21645714Y23518810D01*
X23169523Y23042620D02*
X22598095Y23042620D01*
X22883809Y23042620D02*
X22883809Y24042620D01*
X22788571Y23899762D01*
X22693333Y23804524D01*
X22598095Y23756905D01*
X24121904Y23042620D02*
X23550476Y23042620D01*
X23836190Y23042620D02*
X23836190Y24042620D01*
X23740952Y23899762D01*
X23645714Y23804524D01*
X23550476Y23756905D01*
G04 #@! TO.C,C3*
X29678333Y35202858D02*
X29630714Y35155239D01*
X29487857Y35107620D01*
X29392619Y35107620D01*
X29249761Y35155239D01*
X29154523Y35250477D01*
X29106904Y35345715D01*
X29059285Y35536191D01*
X29059285Y35679048D01*
X29106904Y35869524D01*
X29154523Y35964762D01*
X29249761Y36060000D01*
X29392619Y36107620D01*
X29487857Y36107620D01*
X29630714Y36060000D01*
X29678333Y36012381D01*
X30011666Y36107620D02*
X30630714Y36107620D01*
X30297380Y35726667D01*
X30440238Y35726667D01*
X30535476Y35679048D01*
X30583095Y35631429D01*
X30630714Y35536191D01*
X30630714Y35298096D01*
X30583095Y35202858D01*
X30535476Y35155239D01*
X30440238Y35107620D01*
X30154523Y35107620D01*
X30059285Y35155239D01*
X30011666Y35202858D01*
G04 #@! TO.C,C2*
X22058333Y35202858D02*
X22010714Y35155239D01*
X21867857Y35107620D01*
X21772619Y35107620D01*
X21629761Y35155239D01*
X21534523Y35250477D01*
X21486904Y35345715D01*
X21439285Y35536191D01*
X21439285Y35679048D01*
X21486904Y35869524D01*
X21534523Y35964762D01*
X21629761Y36060000D01*
X21772619Y36107620D01*
X21867857Y36107620D01*
X22010714Y36060000D01*
X22058333Y36012381D01*
X22439285Y36012381D02*
X22486904Y36060000D01*
X22582142Y36107620D01*
X22820238Y36107620D01*
X22915476Y36060000D01*
X22963095Y36012381D01*
X23010714Y35917143D01*
X23010714Y35821905D01*
X22963095Y35679048D01*
X22391666Y35107620D01*
X23010714Y35107620D01*
G04 #@! TO.C,C1*
X14438333Y35202858D02*
X14390714Y35155239D01*
X14247857Y35107620D01*
X14152619Y35107620D01*
X14009761Y35155239D01*
X13914523Y35250477D01*
X13866904Y35345715D01*
X13819285Y35536191D01*
X13819285Y35679048D01*
X13866904Y35869524D01*
X13914523Y35964762D01*
X14009761Y36060000D01*
X14152619Y36107620D01*
X14247857Y36107620D01*
X14390714Y36060000D01*
X14438333Y36012381D01*
X15390714Y35107620D02*
X14819285Y35107620D01*
X15105000Y35107620D02*
X15105000Y36107620D01*
X15009761Y35964762D01*
X14914523Y35869524D01*
X14819285Y35821905D01*
G04 #@! TO.C,#J9*
X14795714Y12803334D02*
X14795714Y13517620D01*
X14367142Y13089048D02*
X15652857Y12803334D01*
X15224285Y13422381D02*
X15224285Y12708096D01*
X15652857Y13136667D02*
X14367142Y13422381D01*
X14462380Y14136667D02*
X15176666Y14136667D01*
X15319523Y14089048D01*
X15414761Y13993810D01*
X15462380Y13850953D01*
X15462380Y13755715D01*
X15462380Y14660477D02*
X15462380Y14850953D01*
X15414761Y14946191D01*
X15367142Y14993810D01*
X15224285Y15089048D01*
X15033809Y15136667D01*
X14652857Y15136667D01*
X14557619Y15089048D01*
X14510000Y15041429D01*
X14462380Y14946191D01*
X14462380Y14755715D01*
X14510000Y14660477D01*
X14557619Y14612858D01*
X14652857Y14565239D01*
X14890952Y14565239D01*
X14986190Y14612858D01*
X15033809Y14660477D01*
X15081428Y14755715D01*
X15081428Y14946191D01*
X15033809Y15041429D01*
X14986190Y15089048D01*
X14890952Y15136667D01*
G04 #@! TO.C,R14*
X22217142Y26867620D02*
X21883809Y27343810D01*
X21645714Y26867620D02*
X21645714Y27867620D01*
X22026666Y27867620D01*
X22121904Y27820000D01*
X22169523Y27772381D01*
X22217142Y27677143D01*
X22217142Y27534286D01*
X22169523Y27439048D01*
X22121904Y27391429D01*
X22026666Y27343810D01*
X21645714Y27343810D01*
X23169523Y26867620D02*
X22598095Y26867620D01*
X22883809Y26867620D02*
X22883809Y27867620D01*
X22788571Y27724762D01*
X22693333Y27629524D01*
X22598095Y27581905D01*
X24026666Y27534286D02*
X24026666Y26867620D01*
X23788571Y27915239D02*
X23550476Y27200953D01*
X24169523Y27200953D01*
G04 #@! TO.C,C8*
X43537142Y17613334D02*
X43584761Y17565715D01*
X43632380Y17422858D01*
X43632380Y17327620D01*
X43584761Y17184762D01*
X43489523Y17089524D01*
X43394285Y17041905D01*
X43203809Y16994286D01*
X43060952Y16994286D01*
X42870476Y17041905D01*
X42775238Y17089524D01*
X42680000Y17184762D01*
X42632380Y17327620D01*
X42632380Y17422858D01*
X42680000Y17565715D01*
X42727619Y17613334D01*
X43060952Y18184762D02*
X43013333Y18089524D01*
X42965714Y18041905D01*
X42870476Y17994286D01*
X42822857Y17994286D01*
X42727619Y18041905D01*
X42680000Y18089524D01*
X42632380Y18184762D01*
X42632380Y18375239D01*
X42680000Y18470477D01*
X42727619Y18518096D01*
X42822857Y18565715D01*
X42870476Y18565715D01*
X42965714Y18518096D01*
X43013333Y18470477D01*
X43060952Y18375239D01*
X43060952Y18184762D01*
X43108571Y18089524D01*
X43156190Y18041905D01*
X43251428Y17994286D01*
X43441904Y17994286D01*
X43537142Y18041905D01*
X43584761Y18089524D01*
X43632380Y18184762D01*
X43632380Y18375239D01*
X43584761Y18470477D01*
X43537142Y18518096D01*
X43441904Y18565715D01*
X43251428Y18565715D01*
X43156190Y18518096D01*
X43108571Y18470477D01*
X43060952Y18375239D01*
G04 #@! TO.C,J7*
X47712380Y13636667D02*
X48426666Y13636667D01*
X48569523Y13589048D01*
X48664761Y13493810D01*
X48712380Y13350953D01*
X48712380Y13255715D01*
X47712380Y14017620D02*
X47712380Y14684286D01*
X48712380Y14255715D01*
G04 #@! TO.C,C4*
X37298333Y35202858D02*
X37250714Y35155239D01*
X37107857Y35107620D01*
X37012619Y35107620D01*
X36869761Y35155239D01*
X36774523Y35250477D01*
X36726904Y35345715D01*
X36679285Y35536191D01*
X36679285Y35679048D01*
X36726904Y35869524D01*
X36774523Y35964762D01*
X36869761Y36060000D01*
X37012619Y36107620D01*
X37107857Y36107620D01*
X37250714Y36060000D01*
X37298333Y36012381D01*
X38155476Y35774286D02*
X38155476Y35107620D01*
X37917380Y36155239D02*
X37679285Y35440953D01*
X38298333Y35440953D01*
G04 #@! TO.C,C7*
X49208333Y24577858D02*
X49160714Y24530239D01*
X49017857Y24482620D01*
X48922619Y24482620D01*
X48779761Y24530239D01*
X48684523Y24625477D01*
X48636904Y24720715D01*
X48589285Y24911191D01*
X48589285Y25054048D01*
X48636904Y25244524D01*
X48684523Y25339762D01*
X48779761Y25435000D01*
X48922619Y25482620D01*
X49017857Y25482620D01*
X49160714Y25435000D01*
X49208333Y25387381D01*
X49541666Y25482620D02*
X50208333Y25482620D01*
X49779761Y24482620D01*
G04 #@! TO.C,FID3*
X55237142Y6392858D02*
X55037142Y6392858D01*
X55037142Y6078572D02*
X55037142Y6678572D01*
X55322857Y6678572D01*
X55551428Y6078572D02*
X55551428Y6678572D01*
X55837142Y6078572D02*
X55837142Y6678572D01*
X55980000Y6678572D01*
X56065714Y6650000D01*
X56122857Y6592858D01*
X56151428Y6535715D01*
X56180000Y6421429D01*
X56180000Y6335715D01*
X56151428Y6221429D01*
X56122857Y6164286D01*
X56065714Y6107143D01*
X55980000Y6078572D01*
X55837142Y6078572D01*
X56380000Y6678572D02*
X56751428Y6678572D01*
X56551428Y6450000D01*
X56637142Y6450000D01*
X56694285Y6421429D01*
X56722857Y6392858D01*
X56751428Y6335715D01*
X56751428Y6192858D01*
X56722857Y6135715D01*
X56694285Y6107143D01*
X56637142Y6078572D01*
X56465714Y6078572D01*
X56408571Y6107143D01*
X56380000Y6135715D01*
G04 #@! TO.C,FID2*
X9517142Y36872858D02*
X9317142Y36872858D01*
X9317142Y36558572D02*
X9317142Y37158572D01*
X9602857Y37158572D01*
X9831428Y36558572D02*
X9831428Y37158572D01*
X10117142Y36558572D02*
X10117142Y37158572D01*
X10260000Y37158572D01*
X10345714Y37130000D01*
X10402857Y37072858D01*
X10431428Y37015715D01*
X10460000Y36901429D01*
X10460000Y36815715D01*
X10431428Y36701429D01*
X10402857Y36644286D01*
X10345714Y36587143D01*
X10260000Y36558572D01*
X10117142Y36558572D01*
X10688571Y37101429D02*
X10717142Y37130000D01*
X10774285Y37158572D01*
X10917142Y37158572D01*
X10974285Y37130000D01*
X11002857Y37101429D01*
X11031428Y37044286D01*
X11031428Y36987143D01*
X11002857Y36901429D01*
X10660000Y36558572D01*
X11031428Y36558572D01*
G04 #@! TO.C,FID1*
X11422142Y7662858D02*
X11222142Y7662858D01*
X11222142Y7348572D02*
X11222142Y7948572D01*
X11507857Y7948572D01*
X11736428Y7348572D02*
X11736428Y7948572D01*
X12022142Y7348572D02*
X12022142Y7948572D01*
X12165000Y7948572D01*
X12250714Y7920000D01*
X12307857Y7862858D01*
X12336428Y7805715D01*
X12365000Y7691429D01*
X12365000Y7605715D01*
X12336428Y7491429D01*
X12307857Y7434286D01*
X12250714Y7377143D01*
X12165000Y7348572D01*
X12022142Y7348572D01*
X12936428Y7348572D02*
X12593571Y7348572D01*
X12765000Y7348572D02*
X12765000Y7948572D01*
X12707857Y7862858D01*
X12650714Y7805715D01*
X12593571Y7777143D01*
G04 #@! TO.C,J5*
X42846666Y8167620D02*
X42846666Y7453334D01*
X42799047Y7310477D01*
X42703809Y7215239D01*
X42560952Y7167620D01*
X42465714Y7167620D01*
X43799047Y8167620D02*
X43322857Y8167620D01*
X43275238Y7691429D01*
X43322857Y7739048D01*
X43418095Y7786667D01*
X43656190Y7786667D01*
X43751428Y7739048D01*
X43799047Y7691429D01*
X43846666Y7596191D01*
X43846666Y7358096D01*
X43799047Y7262858D01*
X43751428Y7215239D01*
X43656190Y7167620D01*
X43418095Y7167620D01*
X43322857Y7215239D01*
X43275238Y7262858D01*
G04 #@! TO.C,J4*
X44116666Y36107620D02*
X44116666Y35393334D01*
X44069047Y35250477D01*
X43973809Y35155239D01*
X43830952Y35107620D01*
X43735714Y35107620D01*
X45021428Y35774286D02*
X45021428Y35107620D01*
X44783333Y36155239D02*
X44545238Y35440953D01*
X45164285Y35440953D01*
G04 #@! TD*
M02*
