G04 #@! TF.GenerationSoftware,KiCad,Pcbnew,(5.1.6-0-10_14)*
G04 #@! TF.CreationDate,2021-05-20T20:39:12+01:00*
G04 #@! TF.ProjectId,JuntekOnSteroidsTTGO,4a756e74-656b-44f6-9e53-7465726f6964,2.0*
G04 #@! TF.SameCoordinates,PX5b716c8PY5b716c8*
G04 #@! TF.FileFunction,Copper,L2,Bot*
G04 #@! TF.FilePolarity,Positive*
%FSLAX46Y46*%
G04 Gerber Fmt 4.6, Leading zero omitted, Abs format (unit mm)*
G04 Created by KiCad (PCBNEW (5.1.6-0-10_14)) date 2021-05-20 20:39:12*
%MOMM*%
%LPD*%
G01*
G04 APERTURE LIST*
G04 #@! TA.AperFunction,SMDPad,CuDef*
%ADD10R,1.500000X1.000000*%
G04 #@! TD*
G04 #@! TA.AperFunction,SMDPad,CuDef*
%ADD11C,0.100000*%
G04 #@! TD*
G04 #@! TA.AperFunction,ComponentPad*
%ADD12C,1.700000*%
G04 #@! TD*
G04 #@! TA.AperFunction,ComponentPad*
%ADD13C,1.600000*%
G04 #@! TD*
G04 #@! TA.AperFunction,ComponentPad*
%ADD14R,1.600000X1.600000*%
G04 #@! TD*
G04 #@! TA.AperFunction,ComponentPad*
%ADD15O,1.400000X1.400000*%
G04 #@! TD*
G04 #@! TA.AperFunction,ComponentPad*
%ADD16C,1.400000*%
G04 #@! TD*
G04 #@! TA.AperFunction,SMDPad,CuDef*
%ADD17R,1.000000X1.500000*%
G04 #@! TD*
G04 #@! TA.AperFunction,ComponentPad*
%ADD18O,1.700000X1.700000*%
G04 #@! TD*
G04 #@! TA.AperFunction,ComponentPad*
%ADD19R,1.700000X1.700000*%
G04 #@! TD*
G04 APERTURE END LIST*
D10*
G04 #@! TO.P,JP6,2*
G04 #@! TO.N,Net-(JP6-Pad2)*
X45720000Y15875000D03*
G04 #@! TA.AperFunction,SMDPad,CuDef*
D11*
G04 #@! TO.P,JP6,3*
G04 #@! TO.N,Net-(JP6-Pad3)*
G36*
X46469398Y14575000D02*
G01*
X46469398Y14550466D01*
X46464588Y14501635D01*
X46455016Y14453510D01*
X46440772Y14406555D01*
X46421995Y14361222D01*
X46398864Y14317949D01*
X46371604Y14277150D01*
X46340476Y14239221D01*
X46305779Y14204524D01*
X46267850Y14173396D01*
X46227051Y14146136D01*
X46183778Y14123005D01*
X46138445Y14104228D01*
X46091490Y14089984D01*
X46043365Y14080412D01*
X45994534Y14075602D01*
X45970000Y14075602D01*
X45970000Y14075000D01*
X45470000Y14075000D01*
X45470000Y14075602D01*
X45445466Y14075602D01*
X45396635Y14080412D01*
X45348510Y14089984D01*
X45301555Y14104228D01*
X45256222Y14123005D01*
X45212949Y14146136D01*
X45172150Y14173396D01*
X45134221Y14204524D01*
X45099524Y14239221D01*
X45068396Y14277150D01*
X45041136Y14317949D01*
X45018005Y14361222D01*
X44999228Y14406555D01*
X44984984Y14453510D01*
X44975412Y14501635D01*
X44970602Y14550466D01*
X44970602Y14575000D01*
X44970000Y14575000D01*
X44970000Y15125000D01*
X46470000Y15125000D01*
X46470000Y14575000D01*
X46469398Y14575000D01*
G37*
G04 #@! TD.AperFunction*
G04 #@! TA.AperFunction,SMDPad,CuDef*
G04 #@! TO.P,JP6,1*
G04 #@! TO.N,Net-(JP6-Pad1)*
G36*
X44970000Y16625000D02*
G01*
X44970000Y17175000D01*
X44970602Y17175000D01*
X44970602Y17199534D01*
X44975412Y17248365D01*
X44984984Y17296490D01*
X44999228Y17343445D01*
X45018005Y17388778D01*
X45041136Y17432051D01*
X45068396Y17472850D01*
X45099524Y17510779D01*
X45134221Y17545476D01*
X45172150Y17576604D01*
X45212949Y17603864D01*
X45256222Y17626995D01*
X45301555Y17645772D01*
X45348510Y17660016D01*
X45396635Y17669588D01*
X45445466Y17674398D01*
X45470000Y17674398D01*
X45470000Y17675000D01*
X45970000Y17675000D01*
X45970000Y17674398D01*
X45994534Y17674398D01*
X46043365Y17669588D01*
X46091490Y17660016D01*
X46138445Y17645772D01*
X46183778Y17626995D01*
X46227051Y17603864D01*
X46267850Y17576604D01*
X46305779Y17545476D01*
X46340476Y17510779D01*
X46371604Y17472850D01*
X46398864Y17432051D01*
X46421995Y17388778D01*
X46440772Y17343445D01*
X46455016Y17296490D01*
X46464588Y17248365D01*
X46469398Y17199534D01*
X46469398Y17175000D01*
X46470000Y17175000D01*
X46470000Y16625000D01*
X44970000Y16625000D01*
G37*
G04 #@! TD.AperFunction*
G04 #@! TD*
D12*
G04 #@! TO.P,J8,24*
G04 #@! TO.N,Net-(J8-Pad24)*
X38100000Y36195000D03*
G04 #@! TO.P,J8,22*
G04 #@! TO.N,Net-(J8-Pad22)*
X35560000Y36195000D03*
G04 #@! TO.P,J8,20*
G04 #@! TO.N,Net-(J8-Pad20)*
X33020000Y36195000D03*
G04 #@! TO.P,J8,18*
G04 #@! TO.N,Net-(J8-Pad18)*
X30480000Y36195000D03*
G04 #@! TO.P,J8,16*
G04 #@! TO.N,Net-(J8-Pad16)*
X27940000Y36195000D03*
G04 #@! TO.P,J8,14*
G04 #@! TO.N,Net-(J8-Pad14)*
X25400000Y36195000D03*
G04 #@! TO.P,J8,12*
G04 #@! TO.N,Net-(J8-Pad12)*
X22860000Y36195000D03*
G04 #@! TO.P,J8,10*
G04 #@! TO.N,Net-(J8-Pad10)*
X20320000Y36195000D03*
G04 #@! TO.P,J8,8*
G04 #@! TO.N,Net-(J8-Pad8)*
X17780000Y36195000D03*
G04 #@! TO.P,J8,6*
G04 #@! TO.N,Net-(J8-Pad6)*
X15240000Y36195000D03*
G04 #@! TO.P,J8,4*
G04 #@! TO.N,Net-(J8-Pad4)*
X12700000Y36195000D03*
G04 #@! TO.P,J8,2*
G04 #@! TO.N,Net-(J8-Pad2)*
X10160000Y36195000D03*
G04 #@! TO.P,J8,23*
G04 #@! TO.N,Net-(J8-Pad23)*
X38100000Y33655000D03*
G04 #@! TO.P,J8,21*
G04 #@! TO.N,Net-(J8-Pad21)*
X35560000Y33655000D03*
G04 #@! TO.P,J8,19*
G04 #@! TO.N,Net-(J8-Pad19)*
X33020000Y33655000D03*
G04 #@! TO.P,J8,17*
G04 #@! TO.N,Net-(J8-Pad17)*
X30480000Y33655000D03*
G04 #@! TO.P,J8,15*
G04 #@! TO.N,Net-(J8-Pad15)*
X27940000Y33655000D03*
G04 #@! TO.P,J8,13*
G04 #@! TO.N,Net-(J8-Pad13)*
X25400000Y33655000D03*
G04 #@! TO.P,J8,11*
G04 #@! TO.N,Net-(J8-Pad11)*
X22860000Y33655000D03*
G04 #@! TO.P,J8,9*
G04 #@! TO.N,Net-(J8-Pad9)*
X20320000Y33655000D03*
G04 #@! TO.P,J8,7*
G04 #@! TO.N,Net-(J8-Pad7)*
X17780000Y33655000D03*
G04 #@! TO.P,J8,5*
G04 #@! TO.N,Net-(J8-Pad5)*
X15240000Y33655000D03*
G04 #@! TO.P,J8,3*
G04 #@! TO.N,Net-(J8-Pad3)*
X12700000Y33655000D03*
G04 #@! TO.P,J8,1*
G04 #@! TO.N,Net-(J8-Pad1)*
G04 #@! TA.AperFunction,ComponentPad*
G36*
G01*
X10760000Y32805000D02*
X9560000Y32805000D01*
G75*
G02*
X9310000Y33055000I0J250000D01*
G01*
X9310000Y34255000D01*
G75*
G02*
X9560000Y34505000I250000J0D01*
G01*
X10760000Y34505000D01*
G75*
G02*
X11010000Y34255000I0J-250000D01*
G01*
X11010000Y33055000D01*
G75*
G02*
X10760000Y32805000I-250000J0D01*
G01*
G37*
G04 #@! TD.AperFunction*
G04 #@! TD*
D13*
G04 #@! TO.P,C7,2*
G04 #@! TO.N,/GND*
X50490000Y22860000D03*
D14*
G04 #@! TO.P,C7,1*
G04 #@! TO.N,VCC*
X46990000Y22860000D03*
G04 #@! TD*
G04 #@! TO.P,TP2,1*
G04 #@! TO.N,/ADC1*
G04 #@! TA.AperFunction,ComponentPad*
G36*
G01*
X4280000Y24850000D02*
X4280000Y25950000D01*
G75*
G02*
X4530000Y26200000I250000J0D01*
G01*
X5630000Y26200000D01*
G75*
G02*
X5880000Y25950000I0J-250000D01*
G01*
X5880000Y24850000D01*
G75*
G02*
X5630000Y24600000I-250000J0D01*
G01*
X4530000Y24600000D01*
G75*
G02*
X4280000Y24850000I0J250000D01*
G01*
G37*
G04 #@! TD.AperFunction*
G04 #@! TD*
D15*
G04 #@! TO.P,R5,2*
G04 #@! TO.N,Net-(R5-Pad2)*
X79823000Y10389000D03*
D16*
G04 #@! TO.P,R5,1*
G04 #@! TO.N,Net-(R5-Pad1)*
X72203000Y10389000D03*
G04 #@! TD*
D15*
G04 #@! TO.P,R6,2*
G04 #@! TO.N,Net-(R6-Pad2)*
X79823000Y13539000D03*
D16*
G04 #@! TO.P,R6,1*
G04 #@! TO.N,Net-(R6-Pad1)*
X72203000Y13539000D03*
G04 #@! TD*
D15*
G04 #@! TO.P,R7,2*
G04 #@! TO.N,Net-(R7-Pad2)*
X20320000Y22860000D03*
D16*
G04 #@! TO.P,R7,1*
G04 #@! TO.N,Net-(R7-Pad1)*
X20320000Y15240000D03*
G04 #@! TD*
D15*
G04 #@! TO.P,R9,2*
G04 #@! TO.N,Net-(R9-Pad2)*
X79823000Y16689000D03*
D16*
G04 #@! TO.P,R9,1*
G04 #@! TO.N,Net-(R9-Pad1)*
X72203000Y16689000D03*
G04 #@! TD*
D15*
G04 #@! TO.P,R1,2*
G04 #@! TO.N,Net-(R1-Pad2)*
X40005000Y22860000D03*
D16*
G04 #@! TO.P,R1,1*
G04 #@! TO.N,Net-(R1-Pad1)*
X40005000Y15240000D03*
G04 #@! TD*
D15*
G04 #@! TO.P,R2,2*
G04 #@! TO.N,Net-(R2-Pad2)*
X35560000Y22860000D03*
D16*
G04 #@! TO.P,R2,1*
G04 #@! TO.N,Net-(R2-Pad1)*
X35560000Y15240000D03*
G04 #@! TD*
D15*
G04 #@! TO.P,R3,2*
G04 #@! TO.N,Net-(R3-Pad2)*
X30480000Y22860000D03*
D16*
G04 #@! TO.P,R3,1*
G04 #@! TO.N,Net-(R3-Pad1)*
X30480000Y15240000D03*
G04 #@! TD*
D15*
G04 #@! TO.P,R4,2*
G04 #@! TO.N,Net-(R4-Pad2)*
X25400000Y22860000D03*
D16*
G04 #@! TO.P,R4,1*
G04 #@! TO.N,Net-(R4-Pad1)*
X25400000Y15240000D03*
G04 #@! TD*
D17*
G04 #@! TO.P,JP2,2*
G04 #@! TO.N,Net-(JP2-Pad2)*
X13335000Y23495000D03*
G04 #@! TA.AperFunction,SMDPad,CuDef*
D11*
G04 #@! TO.P,JP2,3*
G04 #@! TO.N,Net-(JP2-Pad3)*
G36*
X12035000Y22745602D02*
G01*
X12010466Y22745602D01*
X11961635Y22750412D01*
X11913510Y22759984D01*
X11866555Y22774228D01*
X11821222Y22793005D01*
X11777949Y22816136D01*
X11737150Y22843396D01*
X11699221Y22874524D01*
X11664524Y22909221D01*
X11633396Y22947150D01*
X11606136Y22987949D01*
X11583005Y23031222D01*
X11564228Y23076555D01*
X11549984Y23123510D01*
X11540412Y23171635D01*
X11535602Y23220466D01*
X11535602Y23245000D01*
X11535000Y23245000D01*
X11535000Y23745000D01*
X11535602Y23745000D01*
X11535602Y23769534D01*
X11540412Y23818365D01*
X11549984Y23866490D01*
X11564228Y23913445D01*
X11583005Y23958778D01*
X11606136Y24002051D01*
X11633396Y24042850D01*
X11664524Y24080779D01*
X11699221Y24115476D01*
X11737150Y24146604D01*
X11777949Y24173864D01*
X11821222Y24196995D01*
X11866555Y24215772D01*
X11913510Y24230016D01*
X11961635Y24239588D01*
X12010466Y24244398D01*
X12035000Y24244398D01*
X12035000Y24245000D01*
X12585000Y24245000D01*
X12585000Y22745000D01*
X12035000Y22745000D01*
X12035000Y22745602D01*
G37*
G04 #@! TD.AperFunction*
G04 #@! TA.AperFunction,SMDPad,CuDef*
G04 #@! TO.P,JP2,1*
G04 #@! TO.N,Net-(JP2-Pad1)*
G36*
X14085000Y24245000D02*
G01*
X14635000Y24245000D01*
X14635000Y24244398D01*
X14659534Y24244398D01*
X14708365Y24239588D01*
X14756490Y24230016D01*
X14803445Y24215772D01*
X14848778Y24196995D01*
X14892051Y24173864D01*
X14932850Y24146604D01*
X14970779Y24115476D01*
X15005476Y24080779D01*
X15036604Y24042850D01*
X15063864Y24002051D01*
X15086995Y23958778D01*
X15105772Y23913445D01*
X15120016Y23866490D01*
X15129588Y23818365D01*
X15134398Y23769534D01*
X15134398Y23745000D01*
X15135000Y23745000D01*
X15135000Y23245000D01*
X15134398Y23245000D01*
X15134398Y23220466D01*
X15129588Y23171635D01*
X15120016Y23123510D01*
X15105772Y23076555D01*
X15086995Y23031222D01*
X15063864Y22987949D01*
X15036604Y22947150D01*
X15005476Y22909221D01*
X14970779Y22874524D01*
X14932850Y22843396D01*
X14892051Y22816136D01*
X14848778Y22793005D01*
X14803445Y22774228D01*
X14756490Y22759984D01*
X14708365Y22750412D01*
X14659534Y22745602D01*
X14635000Y22745602D01*
X14635000Y22745000D01*
X14085000Y22745000D01*
X14085000Y24245000D01*
G37*
G04 #@! TD.AperFunction*
G04 #@! TD*
D17*
G04 #@! TO.P,JP5,2*
G04 #@! TO.N,Net-(JP5-Pad2)*
X13365000Y10160000D03*
G04 #@! TA.AperFunction,SMDPad,CuDef*
D11*
G04 #@! TO.P,JP5,3*
G04 #@! TO.N,Net-(JP5-Pad3)*
G36*
X12065000Y9410602D02*
G01*
X12040466Y9410602D01*
X11991635Y9415412D01*
X11943510Y9424984D01*
X11896555Y9439228D01*
X11851222Y9458005D01*
X11807949Y9481136D01*
X11767150Y9508396D01*
X11729221Y9539524D01*
X11694524Y9574221D01*
X11663396Y9612150D01*
X11636136Y9652949D01*
X11613005Y9696222D01*
X11594228Y9741555D01*
X11579984Y9788510D01*
X11570412Y9836635D01*
X11565602Y9885466D01*
X11565602Y9910000D01*
X11565000Y9910000D01*
X11565000Y10410000D01*
X11565602Y10410000D01*
X11565602Y10434534D01*
X11570412Y10483365D01*
X11579984Y10531490D01*
X11594228Y10578445D01*
X11613005Y10623778D01*
X11636136Y10667051D01*
X11663396Y10707850D01*
X11694524Y10745779D01*
X11729221Y10780476D01*
X11767150Y10811604D01*
X11807949Y10838864D01*
X11851222Y10861995D01*
X11896555Y10880772D01*
X11943510Y10895016D01*
X11991635Y10904588D01*
X12040466Y10909398D01*
X12065000Y10909398D01*
X12065000Y10910000D01*
X12615000Y10910000D01*
X12615000Y9410000D01*
X12065000Y9410000D01*
X12065000Y9410602D01*
G37*
G04 #@! TD.AperFunction*
G04 #@! TA.AperFunction,SMDPad,CuDef*
G04 #@! TO.P,JP5,1*
G04 #@! TO.N,Net-(JP5-Pad1)*
G36*
X14115000Y10910000D02*
G01*
X14665000Y10910000D01*
X14665000Y10909398D01*
X14689534Y10909398D01*
X14738365Y10904588D01*
X14786490Y10895016D01*
X14833445Y10880772D01*
X14878778Y10861995D01*
X14922051Y10838864D01*
X14962850Y10811604D01*
X15000779Y10780476D01*
X15035476Y10745779D01*
X15066604Y10707850D01*
X15093864Y10667051D01*
X15116995Y10623778D01*
X15135772Y10578445D01*
X15150016Y10531490D01*
X15159588Y10483365D01*
X15164398Y10434534D01*
X15164398Y10410000D01*
X15165000Y10410000D01*
X15165000Y9910000D01*
X15164398Y9910000D01*
X15164398Y9885466D01*
X15159588Y9836635D01*
X15150016Y9788510D01*
X15135772Y9741555D01*
X15116995Y9696222D01*
X15093864Y9652949D01*
X15066604Y9612150D01*
X15035476Y9574221D01*
X15000779Y9539524D01*
X14962850Y9508396D01*
X14922051Y9481136D01*
X14878778Y9458005D01*
X14833445Y9439228D01*
X14786490Y9424984D01*
X14738365Y9415412D01*
X14689534Y9410602D01*
X14665000Y9410602D01*
X14665000Y9410000D01*
X14115000Y9410000D01*
X14115000Y10910000D01*
G37*
G04 #@! TD.AperFunction*
G04 #@! TD*
D17*
G04 #@! TO.P,JP4,2*
G04 #@! TO.N,Net-(JP4-Pad2)*
X13335000Y19050000D03*
G04 #@! TA.AperFunction,SMDPad,CuDef*
D11*
G04 #@! TO.P,JP4,3*
G04 #@! TO.N,Net-(JP4-Pad3)*
G36*
X12035000Y18300602D02*
G01*
X12010466Y18300602D01*
X11961635Y18305412D01*
X11913510Y18314984D01*
X11866555Y18329228D01*
X11821222Y18348005D01*
X11777949Y18371136D01*
X11737150Y18398396D01*
X11699221Y18429524D01*
X11664524Y18464221D01*
X11633396Y18502150D01*
X11606136Y18542949D01*
X11583005Y18586222D01*
X11564228Y18631555D01*
X11549984Y18678510D01*
X11540412Y18726635D01*
X11535602Y18775466D01*
X11535602Y18800000D01*
X11535000Y18800000D01*
X11535000Y19300000D01*
X11535602Y19300000D01*
X11535602Y19324534D01*
X11540412Y19373365D01*
X11549984Y19421490D01*
X11564228Y19468445D01*
X11583005Y19513778D01*
X11606136Y19557051D01*
X11633396Y19597850D01*
X11664524Y19635779D01*
X11699221Y19670476D01*
X11737150Y19701604D01*
X11777949Y19728864D01*
X11821222Y19751995D01*
X11866555Y19770772D01*
X11913510Y19785016D01*
X11961635Y19794588D01*
X12010466Y19799398D01*
X12035000Y19799398D01*
X12035000Y19800000D01*
X12585000Y19800000D01*
X12585000Y18300000D01*
X12035000Y18300000D01*
X12035000Y18300602D01*
G37*
G04 #@! TD.AperFunction*
G04 #@! TA.AperFunction,SMDPad,CuDef*
G04 #@! TO.P,JP4,1*
G04 #@! TO.N,Net-(JP4-Pad1)*
G36*
X14085000Y19800000D02*
G01*
X14635000Y19800000D01*
X14635000Y19799398D01*
X14659534Y19799398D01*
X14708365Y19794588D01*
X14756490Y19785016D01*
X14803445Y19770772D01*
X14848778Y19751995D01*
X14892051Y19728864D01*
X14932850Y19701604D01*
X14970779Y19670476D01*
X15005476Y19635779D01*
X15036604Y19597850D01*
X15063864Y19557051D01*
X15086995Y19513778D01*
X15105772Y19468445D01*
X15120016Y19421490D01*
X15129588Y19373365D01*
X15134398Y19324534D01*
X15134398Y19300000D01*
X15135000Y19300000D01*
X15135000Y18800000D01*
X15134398Y18800000D01*
X15134398Y18775466D01*
X15129588Y18726635D01*
X15120016Y18678510D01*
X15105772Y18631555D01*
X15086995Y18586222D01*
X15063864Y18542949D01*
X15036604Y18502150D01*
X15005476Y18464221D01*
X14970779Y18429524D01*
X14932850Y18398396D01*
X14892051Y18371136D01*
X14848778Y18348005D01*
X14803445Y18329228D01*
X14756490Y18314984D01*
X14708365Y18305412D01*
X14659534Y18300602D01*
X14635000Y18300602D01*
X14635000Y18300000D01*
X14085000Y18300000D01*
X14085000Y19800000D01*
G37*
G04 #@! TD.AperFunction*
G04 #@! TD*
D17*
G04 #@! TO.P,JP3,2*
G04 #@! TO.N,Net-(JP3-Pad2)*
X13335000Y14605000D03*
G04 #@! TA.AperFunction,SMDPad,CuDef*
D11*
G04 #@! TO.P,JP3,3*
G04 #@! TO.N,Net-(JP3-Pad3)*
G36*
X12035000Y13855602D02*
G01*
X12010466Y13855602D01*
X11961635Y13860412D01*
X11913510Y13869984D01*
X11866555Y13884228D01*
X11821222Y13903005D01*
X11777949Y13926136D01*
X11737150Y13953396D01*
X11699221Y13984524D01*
X11664524Y14019221D01*
X11633396Y14057150D01*
X11606136Y14097949D01*
X11583005Y14141222D01*
X11564228Y14186555D01*
X11549984Y14233510D01*
X11540412Y14281635D01*
X11535602Y14330466D01*
X11535602Y14355000D01*
X11535000Y14355000D01*
X11535000Y14855000D01*
X11535602Y14855000D01*
X11535602Y14879534D01*
X11540412Y14928365D01*
X11549984Y14976490D01*
X11564228Y15023445D01*
X11583005Y15068778D01*
X11606136Y15112051D01*
X11633396Y15152850D01*
X11664524Y15190779D01*
X11699221Y15225476D01*
X11737150Y15256604D01*
X11777949Y15283864D01*
X11821222Y15306995D01*
X11866555Y15325772D01*
X11913510Y15340016D01*
X11961635Y15349588D01*
X12010466Y15354398D01*
X12035000Y15354398D01*
X12035000Y15355000D01*
X12585000Y15355000D01*
X12585000Y13855000D01*
X12035000Y13855000D01*
X12035000Y13855602D01*
G37*
G04 #@! TD.AperFunction*
G04 #@! TA.AperFunction,SMDPad,CuDef*
G04 #@! TO.P,JP3,1*
G04 #@! TO.N,Net-(JP3-Pad1)*
G36*
X14085000Y15355000D02*
G01*
X14635000Y15355000D01*
X14635000Y15354398D01*
X14659534Y15354398D01*
X14708365Y15349588D01*
X14756490Y15340016D01*
X14803445Y15325772D01*
X14848778Y15306995D01*
X14892051Y15283864D01*
X14932850Y15256604D01*
X14970779Y15225476D01*
X15005476Y15190779D01*
X15036604Y15152850D01*
X15063864Y15112051D01*
X15086995Y15068778D01*
X15105772Y15023445D01*
X15120016Y14976490D01*
X15129588Y14928365D01*
X15134398Y14879534D01*
X15134398Y14855000D01*
X15135000Y14855000D01*
X15135000Y14355000D01*
X15134398Y14355000D01*
X15134398Y14330466D01*
X15129588Y14281635D01*
X15120016Y14233510D01*
X15105772Y14186555D01*
X15086995Y14141222D01*
X15063864Y14097949D01*
X15036604Y14057150D01*
X15005476Y14019221D01*
X14970779Y13984524D01*
X14932850Y13953396D01*
X14892051Y13926136D01*
X14848778Y13903005D01*
X14803445Y13884228D01*
X14756490Y13869984D01*
X14708365Y13860412D01*
X14659534Y13855602D01*
X14635000Y13855602D01*
X14635000Y13855000D01*
X14085000Y13855000D01*
X14085000Y15355000D01*
G37*
G04 #@! TD.AperFunction*
G04 #@! TD*
D18*
G04 #@! TO.P,J7,2*
G04 #@! TO.N,VCC*
X5080000Y7620000D03*
D19*
G04 #@! TO.P,J7,1*
G04 #@! TO.N,/GND*
X5080000Y10160000D03*
G04 #@! TD*
D18*
G04 #@! TO.P,#J9,10*
G04 #@! TO.N,/A3*
X40640000Y10160000D03*
G04 #@! TO.P,#J9,9*
G04 #@! TO.N,/A2*
X38100000Y10160000D03*
G04 #@! TO.P,#J9,8*
G04 #@! TO.N,/A1*
X35560000Y10160000D03*
G04 #@! TO.P,#J9,7*
G04 #@! TO.N,/A0*
X33020000Y10160000D03*
G04 #@! TO.P,#J9,6*
G04 #@! TO.N,/ALRT*
X30480000Y10160000D03*
G04 #@! TO.P,#J9,5*
G04 #@! TO.N,/ADDR*
X27940000Y10160000D03*
G04 #@! TO.P,#J9,4*
G04 #@! TO.N,/SDA*
X25400000Y10160000D03*
G04 #@! TO.P,#J9,3*
G04 #@! TO.N,/SCL*
X22860000Y10160000D03*
G04 #@! TO.P,#J9,2*
G04 #@! TO.N,/GND*
X20320000Y10160000D03*
D19*
G04 #@! TO.P,#J9,1*
G04 #@! TO.N,VCC*
X17780000Y10160000D03*
G04 #@! TD*
G04 #@! TO.P,TP1,1*
G04 #@! TO.N,/ADC0*
G04 #@! TA.AperFunction,ComponentPad*
G36*
G01*
X4280000Y27390000D02*
X4280000Y28490000D01*
G75*
G02*
X4530000Y28740000I250000J0D01*
G01*
X5630000Y28740000D01*
G75*
G02*
X5880000Y28490000I0J-250000D01*
G01*
X5880000Y27390000D01*
G75*
G02*
X5630000Y27140000I-250000J0D01*
G01*
X4530000Y27140000D01*
G75*
G02*
X4280000Y27390000I0J250000D01*
G01*
G37*
G04 #@! TD.AperFunction*
G04 #@! TD*
G04 #@! TO.P,J3,1*
G04 #@! TO.N,VCC*
X53340000Y5080000D03*
D18*
G04 #@! TO.P,J3,2*
G04 #@! TO.N,/TX*
X50800000Y5080000D03*
G04 #@! TO.P,J3,3*
G04 #@! TO.N,/GND*
X48260000Y5080000D03*
G04 #@! TO.P,J3,4*
G04 #@! TO.N,/RX*
X45720000Y5080000D03*
G04 #@! TD*
G04 #@! TO.P,J6,4*
G04 #@! TO.N,/GND*
X5080000Y12700000D03*
G04 #@! TO.P,J6,3*
G04 #@! TO.N,+3V3*
X5080000Y15240000D03*
G04 #@! TO.P,J6,2*
G04 #@! TO.N,/SDA*
X5080000Y17780000D03*
D19*
G04 #@! TO.P,J6,1*
G04 #@! TO.N,/SCL*
X5080000Y20320000D03*
G04 #@! TD*
D10*
G04 #@! TO.P,JP1,2*
G04 #@! TO.N,/GND*
X52070000Y15875000D03*
G04 #@! TA.AperFunction,SMDPad,CuDef*
D11*
G04 #@! TO.P,JP1,3*
G04 #@! TO.N,GNDD*
G36*
X52819398Y14575000D02*
G01*
X52819398Y14550466D01*
X52814588Y14501635D01*
X52805016Y14453510D01*
X52790772Y14406555D01*
X52771995Y14361222D01*
X52748864Y14317949D01*
X52721604Y14277150D01*
X52690476Y14239221D01*
X52655779Y14204524D01*
X52617850Y14173396D01*
X52577051Y14146136D01*
X52533778Y14123005D01*
X52488445Y14104228D01*
X52441490Y14089984D01*
X52393365Y14080412D01*
X52344534Y14075602D01*
X52320000Y14075602D01*
X52320000Y14075000D01*
X51820000Y14075000D01*
X51820000Y14075602D01*
X51795466Y14075602D01*
X51746635Y14080412D01*
X51698510Y14089984D01*
X51651555Y14104228D01*
X51606222Y14123005D01*
X51562949Y14146136D01*
X51522150Y14173396D01*
X51484221Y14204524D01*
X51449524Y14239221D01*
X51418396Y14277150D01*
X51391136Y14317949D01*
X51368005Y14361222D01*
X51349228Y14406555D01*
X51334984Y14453510D01*
X51325412Y14501635D01*
X51320602Y14550466D01*
X51320602Y14575000D01*
X51320000Y14575000D01*
X51320000Y15125000D01*
X52820000Y15125000D01*
X52820000Y14575000D01*
X52819398Y14575000D01*
G37*
G04 #@! TD.AperFunction*
G04 #@! TA.AperFunction,SMDPad,CuDef*
G04 #@! TO.P,JP1,1*
G04 #@! TO.N,GNDA*
G36*
X51320000Y16625000D02*
G01*
X51320000Y17175000D01*
X51320602Y17175000D01*
X51320602Y17199534D01*
X51325412Y17248365D01*
X51334984Y17296490D01*
X51349228Y17343445D01*
X51368005Y17388778D01*
X51391136Y17432051D01*
X51418396Y17472850D01*
X51449524Y17510779D01*
X51484221Y17545476D01*
X51522150Y17576604D01*
X51562949Y17603864D01*
X51606222Y17626995D01*
X51651555Y17645772D01*
X51698510Y17660016D01*
X51746635Y17669588D01*
X51795466Y17674398D01*
X51820000Y17674398D01*
X51820000Y17675000D01*
X52320000Y17675000D01*
X52320000Y17674398D01*
X52344534Y17674398D01*
X52393365Y17669588D01*
X52441490Y17660016D01*
X52488445Y17645772D01*
X52533778Y17626995D01*
X52577051Y17603864D01*
X52617850Y17576604D01*
X52655779Y17545476D01*
X52690476Y17510779D01*
X52721604Y17472850D01*
X52748864Y17432051D01*
X52771995Y17388778D01*
X52790772Y17343445D01*
X52805016Y17296490D01*
X52814588Y17248365D01*
X52819398Y17199534D01*
X52819398Y17175000D01*
X52820000Y17175000D01*
X52820000Y16625000D01*
X51320000Y16625000D01*
G37*
G04 #@! TD.AperFunction*
G04 #@! TD*
D13*
G04 #@! TO.P,C8,2*
G04 #@! TO.N,/GND*
X45800000Y10160000D03*
G04 #@! TO.P,C8,1*
G04 #@! TO.N,VCC*
X50800000Y10160000D03*
G04 #@! TD*
D18*
G04 #@! TO.P,J5,12*
G04 #@! TO.N,/GND*
X12700000Y5080000D03*
G04 #@! TO.P,J5,11*
X15240000Y5080000D03*
G04 #@! TO.P,J5,10*
G04 #@! TO.N,/SDA*
X17780000Y5080000D03*
G04 #@! TO.P,J5,9*
G04 #@! TO.N,/SCL*
X20320000Y5080000D03*
G04 #@! TO.P,J5,8*
G04 #@! TO.N,/GPIO17*
X22860000Y5080000D03*
G04 #@! TO.P,J5,7*
G04 #@! TO.N,/GPIO2*
X25400000Y5080000D03*
G04 #@! TO.P,J5,6*
G04 #@! TO.N,/GPIO15*
X27940000Y5080000D03*
G04 #@! TO.P,J5,5*
G04 #@! TO.N,/GPIO13*
X30480000Y5080000D03*
G04 #@! TO.P,J5,4*
G04 #@! TO.N,/GPIO12*
X33020000Y5080000D03*
G04 #@! TO.P,J5,3*
G04 #@! TO.N,/GND*
X35560000Y5080000D03*
G04 #@! TO.P,J5,2*
X38100000Y5080000D03*
D19*
G04 #@! TO.P,J5,1*
G04 #@! TO.N,+3V3*
X40640000Y5080000D03*
G04 #@! TD*
D18*
G04 #@! TO.P,J4,12*
G04 #@! TO.N,+3V3*
X12700000Y27940000D03*
G04 #@! TO.P,J4,11*
G04 #@! TO.N,/ADC0*
X15240000Y27940000D03*
G04 #@! TO.P,J4,10*
G04 #@! TO.N,/ADC1*
X17780000Y27940000D03*
G04 #@! TO.P,J4,9*
G04 #@! TO.N,/ADC2*
X20320000Y27940000D03*
G04 #@! TO.P,J4,8*
G04 #@! TO.N,/ADC3*
X22860000Y27940000D03*
G04 #@! TO.P,J4,7*
G04 #@! TO.N,/GPIO32*
X25400000Y27940000D03*
G04 #@! TO.P,J4,6*
G04 #@! TO.N,/GPIO33*
X27940000Y27940000D03*
G04 #@! TO.P,J4,5*
G04 #@! TO.N,/GPIO25*
X30480000Y27940000D03*
G04 #@! TO.P,J4,4*
G04 #@! TO.N,/GPIO26*
X33020000Y27940000D03*
G04 #@! TO.P,J4,3*
G04 #@! TO.N,/GPIO27*
X35560000Y27940000D03*
G04 #@! TO.P,J4,2*
G04 #@! TO.N,/GND*
X38100000Y27940000D03*
D19*
G04 #@! TO.P,J4,1*
G04 #@! TO.N,VCC*
X40640000Y27940000D03*
G04 #@! TD*
D18*
G04 #@! TO.P,J2,8*
G04 #@! TO.N,/RX*
X55880000Y10160000D03*
G04 #@! TO.P,J2,7*
G04 #@! TO.N,/TX*
X55880000Y12700000D03*
G04 #@! TO.P,J2,6*
G04 #@! TO.N,VCC*
X55880000Y15240000D03*
G04 #@! TO.P,J2,5*
X55880000Y17780000D03*
G04 #@! TO.P,J2,4*
G04 #@! TO.N,GNDD*
X55880000Y20320000D03*
G04 #@! TO.P,J2,3*
X55880000Y22860000D03*
G04 #@! TO.P,J2,2*
G04 #@! TO.N,GNDA*
X55880000Y25400000D03*
D19*
G04 #@! TO.P,J2,1*
X55880000Y27940000D03*
G04 #@! TD*
D18*
G04 #@! TO.P,J1,8*
G04 #@! TO.N,Net-(J1-Pad8)*
X7620000Y10160000D03*
G04 #@! TO.P,J1,7*
G04 #@! TO.N,Net-(J1-Pad7)*
X7620000Y12700000D03*
G04 #@! TO.P,J1,6*
G04 #@! TO.N,Net-(J1-Pad6)*
X7620000Y15240000D03*
G04 #@! TO.P,J1,5*
G04 #@! TO.N,Net-(J1-Pad5)*
X7620000Y17780000D03*
G04 #@! TO.P,J1,4*
G04 #@! TO.N,Net-(J1-Pad4)*
X7620000Y20320000D03*
G04 #@! TO.P,J1,3*
G04 #@! TO.N,Net-(J1-Pad3)*
X7620000Y22860000D03*
G04 #@! TO.P,J1,2*
G04 #@! TO.N,Net-(J1-Pad2)*
X7620000Y25400000D03*
D19*
G04 #@! TO.P,J1,1*
G04 #@! TO.N,Net-(J1-Pad1)*
X7620000Y27940000D03*
G04 #@! TD*
M02*
