M48
INCH,TZ
T1C0.0276
T2C0.0315
T3C0.0394
%
G90
G05
T1
X41000Y-36250
X44000Y-36250
X37000Y-38250
X40000Y-38250
X36000Y-31500
X36000Y-34500
X37000Y-32750
X40000Y-32750
X37000Y-35250
X40000Y-35250
X45000Y-33750
X48000Y-33750
X37000Y-36250
X40000Y-36250
X41000Y-34500
X44000Y-34500
X37000Y-39250
X40000Y-39250
X37000Y-33500
X40000Y-33500
X37000Y-34500
X40000Y-34500
X37000Y-37000
X40000Y-37000
X41000Y-32750
X44000Y-32750
T2
X52250Y-32750
X52250Y-33734
X51750Y-37750
X51750Y-38734
X41500Y-35250
X43469Y-35250
X41500Y-37000
X43469Y-37000
X41500Y-33500
X43469Y-33500
X45531Y-32750
X47500Y-32750
T3
X37000Y-31500
X38000Y-31500
X39000Y-31500
X40000Y-31500
X41000Y-31500
X42000Y-31500
X43000Y-31500
X44000Y-31500
X45000Y-31500
X46000Y-31500
X47000Y-31500
X48000Y-31500
X54000Y-32500
X54000Y-33500
X54000Y-34500
X54000Y-35500
X54000Y-36500
X54000Y-37500
X54000Y-38500
X54000Y-39500
X37000Y-40500
X38000Y-40500
X39000Y-40500
X40000Y-40500
X41000Y-40500
X42000Y-40500
X43000Y-40500
X44000Y-40500
X45000Y-40500
X46000Y-40500
X47000Y-40500
X48000Y-40500
X50000Y-40500
X51000Y-40500
X52000Y-40500
X53000Y-40500
X35000Y-32500
X35000Y-33500
X35000Y-34500
X35000Y-35500
X35000Y-36500
X35000Y-37500
X35000Y-38500
X35000Y-39500
X50000Y-31500
X51000Y-31500
X52000Y-31500
X53000Y-31500
T0
M30
