G04 #@! TF.GenerationSoftware,KiCad,Pcbnew,(5.1.6-0-10_14)*
G04 #@! TF.CreationDate,2021-03-18T20:19:54+00:00*
G04 #@! TF.ProjectId,JunketOnSteroidsTTGO,4a756e6b-6574-44f6-9e53-7465726f6964,rev?*
G04 #@! TF.SameCoordinates,Original*
G04 #@! TF.FileFunction,Legend,Bot*
G04 #@! TF.FilePolarity,Positive*
%FSLAX46Y46*%
G04 Gerber Fmt 4.6, Leading zero omitted, Abs format (unit mm)*
G04 Created by KiCad (PCBNEW (5.1.6-0-10_14)) date 2021-03-18 20:19:54*
%MOMM*%
%LPD*%
G01*
G04 APERTURE LIST*
%ADD10C,0.120000*%
%ADD11C,0.150000*%
G04 APERTURE END LIST*
D10*
G04 #@! TO.C,J2*
X138490000Y-81220000D02*
X137160000Y-81220000D01*
X138490000Y-82550000D02*
X138490000Y-81220000D01*
X138490000Y-83820000D02*
X135830000Y-83820000D01*
X135830000Y-83820000D02*
X135830000Y-101660000D01*
X138490000Y-83820000D02*
X138490000Y-101660000D01*
X138490000Y-101660000D02*
X135830000Y-101660000D01*
G04 #@! TO.C,J1*
X90230000Y-81220000D02*
X88900000Y-81220000D01*
X90230000Y-82550000D02*
X90230000Y-81220000D01*
X90230000Y-83820000D02*
X87570000Y-83820000D01*
X87570000Y-83820000D02*
X87570000Y-101660000D01*
X90230000Y-83820000D02*
X90230000Y-101660000D01*
X90230000Y-101660000D02*
X87570000Y-101660000D01*
G04 #@! TO.C,J2*
D11*
X137493333Y-79462380D02*
X137493333Y-80176666D01*
X137540952Y-80319523D01*
X137636190Y-80414761D01*
X137779047Y-80462380D01*
X137874285Y-80462380D01*
X137064761Y-79557619D02*
X137017142Y-79510000D01*
X136921904Y-79462380D01*
X136683809Y-79462380D01*
X136588571Y-79510000D01*
X136540952Y-79557619D01*
X136493333Y-79652857D01*
X136493333Y-79748095D01*
X136540952Y-79890952D01*
X137112380Y-80462380D01*
X136493333Y-80462380D01*
G04 #@! TO.C,J1*
X89233333Y-79672380D02*
X89233333Y-80386666D01*
X89280952Y-80529523D01*
X89376190Y-80624761D01*
X89519047Y-80672380D01*
X89614285Y-80672380D01*
X88233333Y-80672380D02*
X88804761Y-80672380D01*
X88519047Y-80672380D02*
X88519047Y-79672380D01*
X88614285Y-79815238D01*
X88709523Y-79910476D01*
X88804761Y-79958095D01*
G04 #@! TD*
M02*
