G04 #@! TF.GenerationSoftware,KiCad,Pcbnew,(5.1.6-0-10_14)*
G04 #@! TF.CreationDate,2021-03-18T20:19:54+00:00*
G04 #@! TF.ProjectId,JunketOnSteroidsTTGO,4a756e6b-6574-44f6-9e53-7465726f6964,rev?*
G04 #@! TF.SameCoordinates,Original*
G04 #@! TF.FileFunction,Soldermask,Bot*
G04 #@! TF.FilePolarity,Negative*
%FSLAX46Y46*%
G04 Gerber Fmt 4.6, Leading zero omitted, Abs format (unit mm)*
G04 Created by KiCad (PCBNEW (5.1.6-0-10_14)) date 2021-03-18 20:19:54*
%MOMM*%
%LPD*%
G01*
G04 APERTURE LIST*
%ADD10C,1.700000*%
%ADD11O,1.500000X1.500000*%
%ADD12C,1.500000*%
%ADD13O,1.800000X1.800000*%
%ADD14R,1.800000X1.800000*%
%ADD15R,1.700000X1.700000*%
G04 APERTURE END LIST*
D10*
G04 #@! TO.C,C31*
X110410000Y-93980000D03*
X105410000Y-93980000D03*
G04 #@! TD*
G04 #@! TO.C,C21*
X110410000Y-89535000D03*
X105410000Y-89535000D03*
G04 #@! TD*
G04 #@! TO.C,C11*
X110410000Y-85090000D03*
X105410000Y-85090000D03*
G04 #@! TD*
G04 #@! TO.C,C3*
X115650000Y-83185000D03*
X120650000Y-83185000D03*
G04 #@! TD*
D11*
G04 #@! TO.C,R51*
X101600000Y-99695000D03*
D12*
X93980000Y-99695000D03*
G04 #@! TD*
D11*
G04 #@! TO.C,R41*
X101600000Y-97155000D03*
D12*
X93980000Y-97155000D03*
G04 #@! TD*
D11*
G04 #@! TO.C,R33*
X104140000Y-92075000D03*
D12*
X111760000Y-92075000D03*
G04 #@! TD*
D11*
G04 #@! TO.C,R32*
X93980000Y-93980000D03*
D12*
X101600000Y-93980000D03*
G04 #@! TD*
D11*
G04 #@! TO.C,R31*
X93980000Y-92075000D03*
D12*
X101600000Y-92075000D03*
G04 #@! TD*
D11*
G04 #@! TO.C,R23*
X104140000Y-87630000D03*
D12*
X111760000Y-87630000D03*
G04 #@! TD*
D11*
G04 #@! TO.C,R22*
X93980000Y-89535000D03*
D12*
X101600000Y-89535000D03*
G04 #@! TD*
D11*
G04 #@! TO.C,R21*
X93980000Y-87630000D03*
D12*
X101600000Y-87630000D03*
G04 #@! TD*
D11*
G04 #@! TO.C,R13*
X104140000Y-83185000D03*
D12*
X111760000Y-83185000D03*
G04 #@! TD*
D11*
G04 #@! TO.C,R12*
X93980000Y-85090000D03*
D12*
X101600000Y-85090000D03*
G04 #@! TD*
D11*
G04 #@! TO.C,R11*
X93980000Y-83185000D03*
D12*
X101600000Y-83185000D03*
G04 #@! TD*
D11*
G04 #@! TO.C,R2*
X91440000Y-87630000D03*
D12*
X91440000Y-80010000D03*
G04 #@! TD*
D11*
G04 #@! TO.C,R1*
X114300000Y-85725000D03*
D12*
X121920000Y-85725000D03*
G04 #@! TD*
D13*
G04 #@! TO.C,J6*
X127000000Y-102870000D03*
X129540000Y-102870000D03*
X132080000Y-102870000D03*
D14*
X134620000Y-102870000D03*
G04 #@! TD*
D13*
G04 #@! TO.C,J5*
X93980000Y-102870000D03*
X96520000Y-102870000D03*
X99060000Y-102870000D03*
X101600000Y-102870000D03*
X104140000Y-102870000D03*
X106680000Y-102870000D03*
X109220000Y-102870000D03*
X111760000Y-102870000D03*
X114300000Y-102870000D03*
X116840000Y-102870000D03*
X119380000Y-102870000D03*
D14*
X121920000Y-102870000D03*
G04 #@! TD*
D13*
G04 #@! TO.C,J4*
X93980000Y-80010000D03*
X96520000Y-80010000D03*
X99060000Y-80010000D03*
X101600000Y-80010000D03*
X104140000Y-80010000D03*
X106680000Y-80010000D03*
X109220000Y-80010000D03*
X111760000Y-80010000D03*
X114300000Y-80010000D03*
X116840000Y-80010000D03*
X119380000Y-80010000D03*
D14*
X121920000Y-80010000D03*
G04 #@! TD*
D13*
G04 #@! TO.C,J3*
X127000000Y-80010000D03*
X129540000Y-80010000D03*
X132080000Y-80010000D03*
D14*
X134620000Y-80010000D03*
G04 #@! TD*
D13*
G04 #@! TO.C,J2*
X137160000Y-100330000D03*
X137160000Y-97790000D03*
X137160000Y-95250000D03*
X137160000Y-92710000D03*
X137160000Y-90170000D03*
X137160000Y-87630000D03*
X137160000Y-85090000D03*
D14*
X137160000Y-82550000D03*
G04 #@! TD*
D13*
G04 #@! TO.C,J1*
X88900000Y-100330000D03*
X88900000Y-97790000D03*
X88900000Y-95250000D03*
X88900000Y-92710000D03*
X88900000Y-90170000D03*
X88900000Y-87630000D03*
X88900000Y-85090000D03*
D14*
X88900000Y-82550000D03*
G04 #@! TD*
D10*
G04 #@! TO.C,C2*
X131445000Y-98385000D03*
D15*
X131445000Y-95885000D03*
G04 #@! TD*
D10*
G04 #@! TO.C,C1*
X132715000Y-85685000D03*
D15*
X132715000Y-83185000D03*
G04 #@! TD*
M02*
