G04 #@! TF.GenerationSoftware,KiCad,Pcbnew,(5.1.6-0-10_14)*
G04 #@! TF.CreationDate,2021-03-19T12:14:43+00:00*
G04 #@! TF.ProjectId,JunketOnSteroidsTTGO,4a756e6b-6574-44f6-9e53-7465726f6964,rev?*
G04 #@! TF.SameCoordinates,PX5faea10PY5734380*
G04 #@! TF.FileFunction,Legend,Top*
G04 #@! TF.FilePolarity,Positive*
%FSLAX46Y46*%
G04 Gerber Fmt 4.6, Leading zero omitted, Abs format (unit mm)*
G04 Created by KiCad (PCBNEW (5.1.6-0-10_14)) date 2021-03-19 12:14:43*
%MOMM*%
%LPD*%
G01*
G04 APERTURE LIST*
%ADD10C,0.150000*%
%ADD11C,0.120000*%
G04 APERTURE END LIST*
D10*
X22029047Y5772143D02*
X22295714Y5772143D01*
X22410000Y5353096D02*
X22029047Y5353096D01*
X22029047Y6153096D01*
X22410000Y6153096D01*
X22714761Y5391191D02*
X22829047Y5353096D01*
X23019523Y5353096D01*
X23095714Y5391191D01*
X23133809Y5429286D01*
X23171904Y5505477D01*
X23171904Y5581667D01*
X23133809Y5657858D01*
X23095714Y5695953D01*
X23019523Y5734048D01*
X22867142Y5772143D01*
X22790952Y5810239D01*
X22752857Y5848334D01*
X22714761Y5924524D01*
X22714761Y6000715D01*
X22752857Y6076905D01*
X22790952Y6115000D01*
X22867142Y6153096D01*
X23057619Y6153096D01*
X23171904Y6115000D01*
X23514761Y5353096D02*
X23514761Y6153096D01*
X23819523Y6153096D01*
X23895714Y6115000D01*
X23933809Y6076905D01*
X23971904Y6000715D01*
X23971904Y5886429D01*
X23933809Y5810239D01*
X23895714Y5772143D01*
X23819523Y5734048D01*
X23514761Y5734048D01*
X24238571Y6153096D02*
X24733809Y6153096D01*
X24467142Y5848334D01*
X24581428Y5848334D01*
X24657619Y5810239D01*
X24695714Y5772143D01*
X24733809Y5695953D01*
X24733809Y5505477D01*
X24695714Y5429286D01*
X24657619Y5391191D01*
X24581428Y5353096D01*
X24352857Y5353096D01*
X24276666Y5391191D01*
X24238571Y5429286D01*
X25038571Y6076905D02*
X25076666Y6115000D01*
X25152857Y6153096D01*
X25343333Y6153096D01*
X25419523Y6115000D01*
X25457619Y6076905D01*
X25495714Y6000715D01*
X25495714Y5924524D01*
X25457619Y5810239D01*
X25000476Y5353096D01*
X25495714Y5353096D01*
X26333809Y6153096D02*
X26790952Y6153096D01*
X26562380Y5353096D02*
X26562380Y6153096D01*
X26943333Y6153096D02*
X27400476Y6153096D01*
X27171904Y5353096D02*
X27171904Y6153096D01*
X28086190Y6115000D02*
X28010000Y6153096D01*
X27895714Y6153096D01*
X27781428Y6115000D01*
X27705238Y6038810D01*
X27667142Y5962620D01*
X27629047Y5810239D01*
X27629047Y5695953D01*
X27667142Y5543572D01*
X27705238Y5467381D01*
X27781428Y5391191D01*
X27895714Y5353096D01*
X27971904Y5353096D01*
X28086190Y5391191D01*
X28124285Y5429286D01*
X28124285Y5695953D01*
X27971904Y5695953D01*
X28619523Y6153096D02*
X28771904Y6153096D01*
X28848095Y6115000D01*
X28924285Y6038810D01*
X28962380Y5886429D01*
X28962380Y5619762D01*
X28924285Y5467381D01*
X28848095Y5391191D01*
X28771904Y5353096D01*
X28619523Y5353096D01*
X28543333Y5391191D01*
X28467142Y5467381D01*
X28429047Y5619762D01*
X28429047Y5886429D01*
X28467142Y6038810D01*
X28543333Y6115000D01*
X28619523Y6153096D01*
X29800476Y6153096D02*
X30257619Y6153096D01*
X30029047Y5353096D02*
X30029047Y6153096D01*
X30790952Y5772143D02*
X30524285Y5772143D01*
X30524285Y5353096D02*
X30524285Y6153096D01*
X30905238Y6153096D01*
X31095714Y6153096D02*
X31552857Y6153096D01*
X31324285Y5353096D02*
X31324285Y6153096D01*
X32429047Y5353096D02*
X32429047Y5886429D01*
X32429047Y5810239D02*
X32467142Y5848334D01*
X32543333Y5886429D01*
X32657619Y5886429D01*
X32733809Y5848334D01*
X32771904Y5772143D01*
X32771904Y5353096D01*
X32771904Y5772143D02*
X32810000Y5848334D01*
X32886190Y5886429D01*
X33000476Y5886429D01*
X33076666Y5848334D01*
X33114761Y5772143D01*
X33114761Y5353096D01*
X33610000Y5353096D02*
X33533809Y5391191D01*
X33495714Y5429286D01*
X33457619Y5505477D01*
X33457619Y5734048D01*
X33495714Y5810239D01*
X33533809Y5848334D01*
X33610000Y5886429D01*
X33724285Y5886429D01*
X33800476Y5848334D01*
X33838571Y5810239D01*
X33876666Y5734048D01*
X33876666Y5505477D01*
X33838571Y5429286D01*
X33800476Y5391191D01*
X33724285Y5353096D01*
X33610000Y5353096D01*
X34562380Y5353096D02*
X34562380Y6153096D01*
X34562380Y5391191D02*
X34486190Y5353096D01*
X34333809Y5353096D01*
X34257619Y5391191D01*
X34219523Y5429286D01*
X34181428Y5505477D01*
X34181428Y5734048D01*
X34219523Y5810239D01*
X34257619Y5848334D01*
X34333809Y5886429D01*
X34486190Y5886429D01*
X34562380Y5848334D01*
X35286190Y5886429D02*
X35286190Y5353096D01*
X34943333Y5886429D02*
X34943333Y5467381D01*
X34981428Y5391191D01*
X35057619Y5353096D01*
X35171904Y5353096D01*
X35248095Y5391191D01*
X35286190Y5429286D01*
X35781428Y5353096D02*
X35705238Y5391191D01*
X35667142Y5467381D01*
X35667142Y6153096D01*
X36390952Y5391191D02*
X36314761Y5353096D01*
X36162380Y5353096D01*
X36086190Y5391191D01*
X36048095Y5467381D01*
X36048095Y5772143D01*
X36086190Y5848334D01*
X36162380Y5886429D01*
X36314761Y5886429D01*
X36390952Y5848334D01*
X36429047Y5772143D01*
X36429047Y5695953D01*
X36048095Y5619762D01*
X6076904Y5962858D02*
X5695952Y5696191D01*
X6076904Y5505715D02*
X5276904Y5505715D01*
X5276904Y5810477D01*
X5315000Y5886667D01*
X5353095Y5924762D01*
X5429285Y5962858D01*
X5543571Y5962858D01*
X5619761Y5924762D01*
X5657857Y5886667D01*
X5695952Y5810477D01*
X5695952Y5505715D01*
X6038809Y6610477D02*
X6076904Y6534286D01*
X6076904Y6381905D01*
X6038809Y6305715D01*
X5962619Y6267620D01*
X5657857Y6267620D01*
X5581666Y6305715D01*
X5543571Y6381905D01*
X5543571Y6534286D01*
X5581666Y6610477D01*
X5657857Y6648572D01*
X5734047Y6648572D01*
X5810238Y6267620D01*
X5543571Y6915239D02*
X6076904Y7105715D01*
X5543571Y7296191D01*
X5276904Y8362858D02*
X5276904Y8439048D01*
X5315000Y8515239D01*
X5353095Y8553334D01*
X5429285Y8591429D01*
X5581666Y8629524D01*
X5772142Y8629524D01*
X5924523Y8591429D01*
X6000714Y8553334D01*
X6038809Y8515239D01*
X6076904Y8439048D01*
X6076904Y8362858D01*
X6038809Y8286667D01*
X6000714Y8248572D01*
X5924523Y8210477D01*
X5772142Y8172381D01*
X5581666Y8172381D01*
X5429285Y8210477D01*
X5353095Y8248572D01*
X5315000Y8286667D01*
X5276904Y8362858D01*
X6000714Y8972381D02*
X6038809Y9010477D01*
X6076904Y8972381D01*
X6038809Y8934286D01*
X6000714Y8972381D01*
X6076904Y8972381D01*
X5353095Y9315239D02*
X5315000Y9353334D01*
X5276904Y9429524D01*
X5276904Y9620000D01*
X5315000Y9696191D01*
X5353095Y9734286D01*
X5429285Y9772381D01*
X5505476Y9772381D01*
X5619761Y9734286D01*
X6076904Y9277143D01*
X6076904Y9772381D01*
D11*
G04 #@! TO.C,R4*
X25095000Y8890000D02*
X24145000Y8890000D01*
X19355000Y8890000D02*
X20305000Y8890000D01*
X24145000Y9810000D02*
X20305000Y9810000D01*
X24145000Y7970000D02*
X24145000Y9810000D01*
X20305000Y7970000D02*
X24145000Y7970000D01*
X20305000Y9810000D02*
X20305000Y7970000D01*
G04 #@! TO.C,C31*
X24655000Y11010000D02*
X24655000Y10695000D01*
X24655000Y13435000D02*
X24655000Y13120000D01*
X19715000Y11010000D02*
X19715000Y10695000D01*
X19715000Y13435000D02*
X19715000Y13120000D01*
X19715000Y10695000D02*
X24655000Y10695000D01*
X19715000Y13435000D02*
X24655000Y13435000D01*
G04 #@! TO.C,C21*
X24655000Y15455000D02*
X24655000Y15140000D01*
X24655000Y17880000D02*
X24655000Y17565000D01*
X19715000Y15455000D02*
X19715000Y15140000D01*
X19715000Y17880000D02*
X19715000Y17565000D01*
X19715000Y15140000D02*
X24655000Y15140000D01*
X19715000Y17880000D02*
X24655000Y17880000D01*
G04 #@! TO.C,C11*
X24655000Y19900000D02*
X24655000Y19585000D01*
X24655000Y22325000D02*
X24655000Y22010000D01*
X19715000Y19900000D02*
X19715000Y19585000D01*
X19715000Y22325000D02*
X19715000Y22010000D01*
X19715000Y19585000D02*
X24655000Y19585000D01*
X19715000Y22325000D02*
X24655000Y22325000D01*
G04 #@! TO.C,C3*
X29955000Y23915000D02*
X29955000Y24230000D01*
X29955000Y21490000D02*
X29955000Y21805000D01*
X34895000Y23915000D02*
X34895000Y24230000D01*
X34895000Y21490000D02*
X34895000Y21805000D01*
X34895000Y24230000D02*
X29955000Y24230000D01*
X34895000Y21490000D02*
X29955000Y21490000D01*
G04 #@! TO.C,R51*
X14935000Y6350000D02*
X13985000Y6350000D01*
X9195000Y6350000D02*
X10145000Y6350000D01*
X13985000Y7270000D02*
X10145000Y7270000D01*
X13985000Y5430000D02*
X13985000Y7270000D01*
X10145000Y5430000D02*
X13985000Y5430000D01*
X10145000Y7270000D02*
X10145000Y5430000D01*
G04 #@! TO.C,R41*
X14935000Y8890000D02*
X13985000Y8890000D01*
X9195000Y8890000D02*
X10145000Y8890000D01*
X13985000Y9810000D02*
X10145000Y9810000D01*
X13985000Y7970000D02*
X13985000Y9810000D01*
X10145000Y7970000D02*
X13985000Y7970000D01*
X10145000Y9810000D02*
X10145000Y7970000D01*
G04 #@! TO.C,R33*
X19355000Y13970000D02*
X20305000Y13970000D01*
X25095000Y13970000D02*
X24145000Y13970000D01*
X20305000Y13050000D02*
X24145000Y13050000D01*
X20305000Y14890000D02*
X20305000Y13050000D01*
X24145000Y14890000D02*
X20305000Y14890000D01*
X24145000Y13050000D02*
X24145000Y14890000D01*
G04 #@! TO.C,R32*
X9195000Y12065000D02*
X10145000Y12065000D01*
X14935000Y12065000D02*
X13985000Y12065000D01*
X10145000Y11145000D02*
X13985000Y11145000D01*
X10145000Y12985000D02*
X10145000Y11145000D01*
X13985000Y12985000D02*
X10145000Y12985000D01*
X13985000Y11145000D02*
X13985000Y12985000D01*
G04 #@! TO.C,R31*
X9195000Y13970000D02*
X10145000Y13970000D01*
X14935000Y13970000D02*
X13985000Y13970000D01*
X10145000Y13050000D02*
X13985000Y13050000D01*
X10145000Y14890000D02*
X10145000Y13050000D01*
X13985000Y14890000D02*
X10145000Y14890000D01*
X13985000Y13050000D02*
X13985000Y14890000D01*
G04 #@! TO.C,R23*
X19355000Y18415000D02*
X20305000Y18415000D01*
X25095000Y18415000D02*
X24145000Y18415000D01*
X20305000Y17495000D02*
X24145000Y17495000D01*
X20305000Y19335000D02*
X20305000Y17495000D01*
X24145000Y19335000D02*
X20305000Y19335000D01*
X24145000Y17495000D02*
X24145000Y19335000D01*
G04 #@! TO.C,R22*
X9195000Y16510000D02*
X10145000Y16510000D01*
X14935000Y16510000D02*
X13985000Y16510000D01*
X10145000Y15590000D02*
X13985000Y15590000D01*
X10145000Y17430000D02*
X10145000Y15590000D01*
X13985000Y17430000D02*
X10145000Y17430000D01*
X13985000Y15590000D02*
X13985000Y17430000D01*
G04 #@! TO.C,R21*
X9195000Y18415000D02*
X10145000Y18415000D01*
X14935000Y18415000D02*
X13985000Y18415000D01*
X10145000Y17495000D02*
X13985000Y17495000D01*
X10145000Y19335000D02*
X10145000Y17495000D01*
X13985000Y19335000D02*
X10145000Y19335000D01*
X13985000Y17495000D02*
X13985000Y19335000D01*
G04 #@! TO.C,R13*
X19355000Y22860000D02*
X20305000Y22860000D01*
X25095000Y22860000D02*
X24145000Y22860000D01*
X20305000Y21940000D02*
X24145000Y21940000D01*
X20305000Y23780000D02*
X20305000Y21940000D01*
X24145000Y23780000D02*
X20305000Y23780000D01*
X24145000Y21940000D02*
X24145000Y23780000D01*
G04 #@! TO.C,R12*
X9195000Y20955000D02*
X10145000Y20955000D01*
X14935000Y20955000D02*
X13985000Y20955000D01*
X10145000Y20035000D02*
X13985000Y20035000D01*
X10145000Y21875000D02*
X10145000Y20035000D01*
X13985000Y21875000D02*
X10145000Y21875000D01*
X13985000Y20035000D02*
X13985000Y21875000D01*
G04 #@! TO.C,R11*
X9195000Y22860000D02*
X10145000Y22860000D01*
X14935000Y22860000D02*
X13985000Y22860000D01*
X10145000Y21940000D02*
X13985000Y21940000D01*
X10145000Y23780000D02*
X10145000Y21940000D01*
X13985000Y23780000D02*
X10145000Y23780000D01*
X13985000Y21940000D02*
X13985000Y23780000D01*
G04 #@! TO.C,R2*
X5715000Y19355000D02*
X5715000Y20305000D01*
X5715000Y25095000D02*
X5715000Y24145000D01*
X6635000Y20305000D02*
X6635000Y24145000D01*
X4795000Y20305000D02*
X6635000Y20305000D01*
X4795000Y24145000D02*
X4795000Y20305000D01*
X6635000Y24145000D02*
X4795000Y24145000D01*
G04 #@! TO.C,R1*
X29515000Y20320000D02*
X30465000Y20320000D01*
X35255000Y20320000D02*
X34305000Y20320000D01*
X30465000Y19400000D02*
X34305000Y19400000D01*
X30465000Y21240000D02*
X30465000Y19400000D01*
X34305000Y21240000D02*
X30465000Y21240000D01*
X34305000Y19400000D02*
X34305000Y21240000D01*
G04 #@! TO.C,J6*
X50225000Y4505000D02*
X50225000Y3175000D01*
X48895000Y4505000D02*
X50225000Y4505000D01*
X47625000Y4505000D02*
X47625000Y1845000D01*
X47625000Y1845000D02*
X39945000Y1845000D01*
X47625000Y4505000D02*
X39945000Y4505000D01*
X39945000Y4505000D02*
X39945000Y1845000D01*
G04 #@! TO.C,J5*
X37525000Y3175000D02*
X37525000Y1845000D01*
X37525000Y1845000D02*
X36195000Y1845000D01*
X34925000Y1845000D02*
X6925000Y1845000D01*
X6925000Y4505000D02*
X6925000Y1845000D01*
X34925000Y4505000D02*
X6925000Y4505000D01*
X34925000Y4505000D02*
X34925000Y1845000D01*
G04 #@! TO.C,J4*
X37525000Y26035000D02*
X37525000Y24705000D01*
X37525000Y24705000D02*
X36195000Y24705000D01*
X34925000Y24705000D02*
X6925000Y24705000D01*
X6925000Y27365000D02*
X6925000Y24705000D01*
X34925000Y27365000D02*
X6925000Y27365000D01*
X34925000Y27365000D02*
X34925000Y24705000D01*
G04 #@! TO.C,J3*
X50225000Y27365000D02*
X50225000Y26035000D01*
X48895000Y27365000D02*
X50225000Y27365000D01*
X47625000Y27365000D02*
X47625000Y24705000D01*
X47625000Y24705000D02*
X39945000Y24705000D01*
X47625000Y27365000D02*
X39945000Y27365000D01*
X39945000Y27365000D02*
X39945000Y24705000D01*
G04 #@! TO.C,C2*
X48435000Y12919698D02*
X47635000Y12919698D01*
X48035000Y13319698D02*
X48035000Y12519698D01*
X46253000Y4829000D02*
X45187000Y4829000D01*
X46488000Y4869000D02*
X44952000Y4869000D01*
X46668000Y4909000D02*
X44772000Y4909000D01*
X46818000Y4949000D02*
X44622000Y4949000D01*
X46949000Y4989000D02*
X44491000Y4989000D01*
X47066000Y5029000D02*
X44374000Y5029000D01*
X47173000Y5069000D02*
X44267000Y5069000D01*
X47272000Y5109000D02*
X44168000Y5109000D01*
X47365000Y5149000D02*
X44075000Y5149000D01*
X47451000Y5189000D02*
X43989000Y5189000D01*
X47533000Y5229000D02*
X43907000Y5229000D01*
X47610000Y5269000D02*
X43830000Y5269000D01*
X47684000Y5309000D02*
X43756000Y5309000D01*
X47754000Y5349000D02*
X43686000Y5349000D01*
X47822000Y5389000D02*
X43618000Y5389000D01*
X47886000Y5429000D02*
X43554000Y5429000D01*
X47948000Y5469000D02*
X43492000Y5469000D01*
X48007000Y5509000D02*
X43433000Y5509000D01*
X48065000Y5549000D02*
X43375000Y5549000D01*
X48120000Y5589000D02*
X43320000Y5589000D01*
X48174000Y5629000D02*
X43266000Y5629000D01*
X48225000Y5669000D02*
X43215000Y5669000D01*
X48276000Y5709000D02*
X43164000Y5709000D01*
X48324000Y5749000D02*
X43116000Y5749000D01*
X48371000Y5789000D02*
X43069000Y5789000D01*
X48417000Y5829000D02*
X43023000Y5829000D01*
X48461000Y5869000D02*
X42979000Y5869000D01*
X48504000Y5909000D02*
X42936000Y5909000D01*
X48546000Y5949000D02*
X42894000Y5949000D01*
X48587000Y5989000D02*
X42853000Y5989000D01*
X48627000Y6029000D02*
X42813000Y6029000D01*
X48665000Y6069000D02*
X42775000Y6069000D01*
X48703000Y6109000D02*
X42737000Y6109000D01*
X48739000Y6149000D02*
X42701000Y6149000D01*
X48775000Y6189000D02*
X42665000Y6189000D01*
X48810000Y6229000D02*
X42630000Y6229000D01*
X48844000Y6269000D02*
X42596000Y6269000D01*
X48876000Y6309000D02*
X42564000Y6309000D01*
X48909000Y6349000D02*
X42531000Y6349000D01*
X48940000Y6389000D02*
X42500000Y6389000D01*
X48970000Y6429000D02*
X42470000Y6429000D01*
X49000000Y6469000D02*
X42440000Y6469000D01*
X49029000Y6509000D02*
X42411000Y6509000D01*
X49058000Y6549000D02*
X42382000Y6549000D01*
X49085000Y6589000D02*
X42355000Y6589000D01*
X44680000Y6629000D02*
X42328000Y6629000D01*
X49112000Y6629000D02*
X46760000Y6629000D01*
X44680000Y6669000D02*
X42302000Y6669000D01*
X49138000Y6669000D02*
X46760000Y6669000D01*
X44680000Y6709000D02*
X42276000Y6709000D01*
X49164000Y6709000D02*
X46760000Y6709000D01*
X44680000Y6749000D02*
X42251000Y6749000D01*
X49189000Y6749000D02*
X46760000Y6749000D01*
X44680000Y6789000D02*
X42227000Y6789000D01*
X49213000Y6789000D02*
X46760000Y6789000D01*
X44680000Y6829000D02*
X42203000Y6829000D01*
X49237000Y6829000D02*
X46760000Y6829000D01*
X44680000Y6869000D02*
X42180000Y6869000D01*
X49260000Y6869000D02*
X46760000Y6869000D01*
X44680000Y6909000D02*
X42158000Y6909000D01*
X49282000Y6909000D02*
X46760000Y6909000D01*
X44680000Y6949000D02*
X42136000Y6949000D01*
X49304000Y6949000D02*
X46760000Y6949000D01*
X44680000Y6989000D02*
X42114000Y6989000D01*
X49326000Y6989000D02*
X46760000Y6989000D01*
X44680000Y7029000D02*
X42093000Y7029000D01*
X49347000Y7029000D02*
X46760000Y7029000D01*
X44680000Y7069000D02*
X42073000Y7069000D01*
X49367000Y7069000D02*
X46760000Y7069000D01*
X44680000Y7109000D02*
X42054000Y7109000D01*
X49386000Y7109000D02*
X46760000Y7109000D01*
X44680000Y7149000D02*
X42034000Y7149000D01*
X49406000Y7149000D02*
X46760000Y7149000D01*
X44680000Y7189000D02*
X42016000Y7189000D01*
X49424000Y7189000D02*
X46760000Y7189000D01*
X44680000Y7229000D02*
X41998000Y7229000D01*
X49442000Y7229000D02*
X46760000Y7229000D01*
X44680000Y7269000D02*
X41980000Y7269000D01*
X49460000Y7269000D02*
X46760000Y7269000D01*
X44680000Y7309000D02*
X41963000Y7309000D01*
X49477000Y7309000D02*
X46760000Y7309000D01*
X44680000Y7349000D02*
X41946000Y7349000D01*
X49494000Y7349000D02*
X46760000Y7349000D01*
X44680000Y7389000D02*
X41930000Y7389000D01*
X49510000Y7389000D02*
X46760000Y7389000D01*
X44680000Y7429000D02*
X41915000Y7429000D01*
X49525000Y7429000D02*
X46760000Y7429000D01*
X44680000Y7469000D02*
X41899000Y7469000D01*
X49541000Y7469000D02*
X46760000Y7469000D01*
X44680000Y7509000D02*
X41885000Y7509000D01*
X49555000Y7509000D02*
X46760000Y7509000D01*
X44680000Y7549000D02*
X41870000Y7549000D01*
X49570000Y7549000D02*
X46760000Y7549000D01*
X44680000Y7589000D02*
X41857000Y7589000D01*
X49583000Y7589000D02*
X46760000Y7589000D01*
X44680000Y7629000D02*
X41843000Y7629000D01*
X49597000Y7629000D02*
X46760000Y7629000D01*
X44680000Y7669000D02*
X41831000Y7669000D01*
X49609000Y7669000D02*
X46760000Y7669000D01*
X44680000Y7709000D02*
X41818000Y7709000D01*
X49622000Y7709000D02*
X46760000Y7709000D01*
X44680000Y7749000D02*
X41806000Y7749000D01*
X49634000Y7749000D02*
X46760000Y7749000D01*
X44680000Y7789000D02*
X41795000Y7789000D01*
X49645000Y7789000D02*
X46760000Y7789000D01*
X44680000Y7829000D02*
X41784000Y7829000D01*
X49656000Y7829000D02*
X46760000Y7829000D01*
X44680000Y7869000D02*
X41773000Y7869000D01*
X49667000Y7869000D02*
X46760000Y7869000D01*
X44680000Y7909000D02*
X41763000Y7909000D01*
X49677000Y7909000D02*
X46760000Y7909000D01*
X44680000Y7949000D02*
X41753000Y7949000D01*
X49687000Y7949000D02*
X46760000Y7949000D01*
X44680000Y7989000D02*
X41744000Y7989000D01*
X49696000Y7989000D02*
X46760000Y7989000D01*
X44680000Y8029000D02*
X41735000Y8029000D01*
X49705000Y8029000D02*
X46760000Y8029000D01*
X44680000Y8069000D02*
X41726000Y8069000D01*
X49714000Y8069000D02*
X46760000Y8069000D01*
X44680000Y8109000D02*
X41718000Y8109000D01*
X49722000Y8109000D02*
X46760000Y8109000D01*
X44680000Y8149000D02*
X41710000Y8149000D01*
X49730000Y8149000D02*
X46760000Y8149000D01*
X44680000Y8189000D02*
X41703000Y8189000D01*
X49737000Y8189000D02*
X46760000Y8189000D01*
X44680000Y8230000D02*
X41696000Y8230000D01*
X49744000Y8230000D02*
X46760000Y8230000D01*
X44680000Y8270000D02*
X41690000Y8270000D01*
X49750000Y8270000D02*
X46760000Y8270000D01*
X44680000Y8310000D02*
X41683000Y8310000D01*
X49757000Y8310000D02*
X46760000Y8310000D01*
X44680000Y8350000D02*
X41678000Y8350000D01*
X49762000Y8350000D02*
X46760000Y8350000D01*
X44680000Y8390000D02*
X41672000Y8390000D01*
X49768000Y8390000D02*
X46760000Y8390000D01*
X44680000Y8430000D02*
X41668000Y8430000D01*
X49772000Y8430000D02*
X46760000Y8430000D01*
X44680000Y8470000D02*
X41663000Y8470000D01*
X49777000Y8470000D02*
X46760000Y8470000D01*
X44680000Y8510000D02*
X41659000Y8510000D01*
X49781000Y8510000D02*
X46760000Y8510000D01*
X44680000Y8550000D02*
X41655000Y8550000D01*
X49785000Y8550000D02*
X46760000Y8550000D01*
X44680000Y8590000D02*
X41652000Y8590000D01*
X49788000Y8590000D02*
X46760000Y8590000D01*
X44680000Y8630000D02*
X41649000Y8630000D01*
X49791000Y8630000D02*
X46760000Y8630000D01*
X44680000Y8670000D02*
X41646000Y8670000D01*
X49794000Y8670000D02*
X46760000Y8670000D01*
X49796000Y8710000D02*
X41644000Y8710000D01*
X49797000Y8750000D02*
X41643000Y8750000D01*
X49799000Y8790000D02*
X41641000Y8790000D01*
X49800000Y8830000D02*
X41640000Y8830000D01*
X49800000Y8870000D02*
X41640000Y8870000D01*
X49800000Y8910000D02*
X41640000Y8910000D01*
X49840000Y8910000D02*
G75*
G03*
X49840000Y8910000I-4120000J0D01*
G01*
G04 #@! TO.C,C1*
X48715000Y24164775D02*
X48215000Y24164775D01*
X48465000Y24414775D02*
X48465000Y23914775D01*
X47274000Y19009000D02*
X46706000Y19009000D01*
X47508000Y19049000D02*
X46472000Y19049000D01*
X47667000Y19089000D02*
X46313000Y19089000D01*
X47795000Y19129000D02*
X46185000Y19129000D01*
X47905000Y19169000D02*
X46075000Y19169000D01*
X48001000Y19209000D02*
X45979000Y19209000D01*
X48088000Y19249000D02*
X45892000Y19249000D01*
X48168000Y19289000D02*
X45812000Y19289000D01*
X45950000Y19329000D02*
X45739000Y19329000D01*
X48241000Y19329000D02*
X48030000Y19329000D01*
X45950000Y19369000D02*
X45671000Y19369000D01*
X48309000Y19369000D02*
X48030000Y19369000D01*
X45950000Y19409000D02*
X45607000Y19409000D01*
X48373000Y19409000D02*
X48030000Y19409000D01*
X45950000Y19449000D02*
X45547000Y19449000D01*
X48433000Y19449000D02*
X48030000Y19449000D01*
X45950000Y19489000D02*
X45490000Y19489000D01*
X48490000Y19489000D02*
X48030000Y19489000D01*
X45950000Y19529000D02*
X45436000Y19529000D01*
X48544000Y19529000D02*
X48030000Y19529000D01*
X45950000Y19569000D02*
X45385000Y19569000D01*
X48595000Y19569000D02*
X48030000Y19569000D01*
X45950000Y19609000D02*
X45337000Y19609000D01*
X48643000Y19609000D02*
X48030000Y19609000D01*
X45950000Y19649000D02*
X45291000Y19649000D01*
X48689000Y19649000D02*
X48030000Y19649000D01*
X45950000Y19689000D02*
X45247000Y19689000D01*
X48733000Y19689000D02*
X48030000Y19689000D01*
X45950000Y19729000D02*
X45205000Y19729000D01*
X48775000Y19729000D02*
X48030000Y19729000D01*
X45950000Y19769000D02*
X45164000Y19769000D01*
X48816000Y19769000D02*
X48030000Y19769000D01*
X45950000Y19809000D02*
X45126000Y19809000D01*
X48854000Y19809000D02*
X48030000Y19809000D01*
X45950000Y19849000D02*
X45089000Y19849000D01*
X48891000Y19849000D02*
X48030000Y19849000D01*
X45950000Y19889000D02*
X45053000Y19889000D01*
X48927000Y19889000D02*
X48030000Y19889000D01*
X45950000Y19929000D02*
X45019000Y19929000D01*
X48961000Y19929000D02*
X48030000Y19929000D01*
X45950000Y19969000D02*
X44986000Y19969000D01*
X48994000Y19969000D02*
X48030000Y19969000D01*
X45950000Y20009000D02*
X44955000Y20009000D01*
X49025000Y20009000D02*
X48030000Y20009000D01*
X45950000Y20049000D02*
X44925000Y20049000D01*
X49055000Y20049000D02*
X48030000Y20049000D01*
X45950000Y20089000D02*
X44895000Y20089000D01*
X49085000Y20089000D02*
X48030000Y20089000D01*
X45950000Y20129000D02*
X44868000Y20129000D01*
X49112000Y20129000D02*
X48030000Y20129000D01*
X45950000Y20169000D02*
X44841000Y20169000D01*
X49139000Y20169000D02*
X48030000Y20169000D01*
X45950000Y20209000D02*
X44815000Y20209000D01*
X49165000Y20209000D02*
X48030000Y20209000D01*
X45950000Y20249000D02*
X44790000Y20249000D01*
X49190000Y20249000D02*
X48030000Y20249000D01*
X45950000Y20289000D02*
X44766000Y20289000D01*
X49214000Y20289000D02*
X48030000Y20289000D01*
X45950000Y20329000D02*
X44743000Y20329000D01*
X49237000Y20329000D02*
X48030000Y20329000D01*
X45950000Y20369000D02*
X44722000Y20369000D01*
X49258000Y20369000D02*
X48030000Y20369000D01*
X45950000Y20409000D02*
X44700000Y20409000D01*
X49280000Y20409000D02*
X48030000Y20409000D01*
X45950000Y20449000D02*
X44680000Y20449000D01*
X49300000Y20449000D02*
X48030000Y20449000D01*
X45950000Y20489000D02*
X44661000Y20489000D01*
X49319000Y20489000D02*
X48030000Y20489000D01*
X45950000Y20529000D02*
X44642000Y20529000D01*
X49338000Y20529000D02*
X48030000Y20529000D01*
X45950000Y20569000D02*
X44625000Y20569000D01*
X49355000Y20569000D02*
X48030000Y20569000D01*
X45950000Y20609000D02*
X44608000Y20609000D01*
X49372000Y20609000D02*
X48030000Y20609000D01*
X45950000Y20649000D02*
X44592000Y20649000D01*
X49388000Y20649000D02*
X48030000Y20649000D01*
X45950000Y20689000D02*
X44576000Y20689000D01*
X49404000Y20689000D02*
X48030000Y20689000D01*
X45950000Y20729000D02*
X44562000Y20729000D01*
X49418000Y20729000D02*
X48030000Y20729000D01*
X45950000Y20769000D02*
X44548000Y20769000D01*
X49432000Y20769000D02*
X48030000Y20769000D01*
X45950000Y20809000D02*
X44535000Y20809000D01*
X49445000Y20809000D02*
X48030000Y20809000D01*
X45950000Y20849000D02*
X44522000Y20849000D01*
X49458000Y20849000D02*
X48030000Y20849000D01*
X45950000Y20889000D02*
X44510000Y20889000D01*
X49470000Y20889000D02*
X48030000Y20889000D01*
X45950000Y20930000D02*
X44499000Y20930000D01*
X49481000Y20930000D02*
X48030000Y20930000D01*
X45950000Y20970000D02*
X44489000Y20970000D01*
X49491000Y20970000D02*
X48030000Y20970000D01*
X45950000Y21010000D02*
X44479000Y21010000D01*
X49501000Y21010000D02*
X48030000Y21010000D01*
X45950000Y21050000D02*
X44470000Y21050000D01*
X49510000Y21050000D02*
X48030000Y21050000D01*
X45950000Y21090000D02*
X44462000Y21090000D01*
X49518000Y21090000D02*
X48030000Y21090000D01*
X45950000Y21130000D02*
X44454000Y21130000D01*
X49526000Y21130000D02*
X48030000Y21130000D01*
X45950000Y21170000D02*
X44447000Y21170000D01*
X49533000Y21170000D02*
X48030000Y21170000D01*
X45950000Y21210000D02*
X44440000Y21210000D01*
X49540000Y21210000D02*
X48030000Y21210000D01*
X45950000Y21250000D02*
X44434000Y21250000D01*
X49546000Y21250000D02*
X48030000Y21250000D01*
X45950000Y21290000D02*
X44429000Y21290000D01*
X49551000Y21290000D02*
X48030000Y21290000D01*
X45950000Y21330000D02*
X44425000Y21330000D01*
X49555000Y21330000D02*
X48030000Y21330000D01*
X45950000Y21370000D02*
X44421000Y21370000D01*
X49559000Y21370000D02*
X48030000Y21370000D01*
X49563000Y21410000D02*
X44417000Y21410000D01*
X49566000Y21450000D02*
X44414000Y21450000D01*
X49568000Y21490000D02*
X44412000Y21490000D01*
X49569000Y21530000D02*
X44411000Y21530000D01*
X49570000Y21570000D02*
X44410000Y21570000D01*
X49570000Y21610000D02*
X44410000Y21610000D01*
X49610000Y21610000D02*
G75*
G03*
X49610000Y21610000I-2620000J0D01*
G01*
G04 #@! TO.C,R4*
D10*
X27823333Y8573334D02*
X27590000Y8906667D01*
X27423333Y8573334D02*
X27423333Y9273334D01*
X27690000Y9273334D01*
X27756666Y9240000D01*
X27790000Y9206667D01*
X27823333Y9140000D01*
X27823333Y9040000D01*
X27790000Y8973334D01*
X27756666Y8940000D01*
X27690000Y8906667D01*
X27423333Y8906667D01*
X28423333Y9040000D02*
X28423333Y8573334D01*
X28256666Y9306667D02*
X28090000Y8806667D01*
X28523333Y8806667D01*
G04 #@! TO.C,FID3*
X50792142Y1947858D02*
X50592142Y1947858D01*
X50592142Y1633572D02*
X50592142Y2233572D01*
X50877857Y2233572D01*
X51106428Y1633572D02*
X51106428Y2233572D01*
X51392142Y1633572D02*
X51392142Y2233572D01*
X51535000Y2233572D01*
X51620714Y2205000D01*
X51677857Y2147858D01*
X51706428Y2090715D01*
X51735000Y1976429D01*
X51735000Y1890715D01*
X51706428Y1776429D01*
X51677857Y1719286D01*
X51620714Y1662143D01*
X51535000Y1633572D01*
X51392142Y1633572D01*
X51935000Y2233572D02*
X52306428Y2233572D01*
X52106428Y2005000D01*
X52192142Y2005000D01*
X52249285Y1976429D01*
X52277857Y1947858D01*
X52306428Y1890715D01*
X52306428Y1747858D01*
X52277857Y1690715D01*
X52249285Y1662143D01*
X52192142Y1633572D01*
X52020714Y1633572D01*
X51963571Y1662143D01*
X51935000Y1690715D01*
G04 #@! TO.C,FID2*
X3167142Y27347858D02*
X2967142Y27347858D01*
X2967142Y27033572D02*
X2967142Y27633572D01*
X3252857Y27633572D01*
X3481428Y27033572D02*
X3481428Y27633572D01*
X3767142Y27033572D02*
X3767142Y27633572D01*
X3910000Y27633572D01*
X3995714Y27605000D01*
X4052857Y27547858D01*
X4081428Y27490715D01*
X4110000Y27376429D01*
X4110000Y27290715D01*
X4081428Y27176429D01*
X4052857Y27119286D01*
X3995714Y27062143D01*
X3910000Y27033572D01*
X3767142Y27033572D01*
X4338571Y27576429D02*
X4367142Y27605000D01*
X4424285Y27633572D01*
X4567142Y27633572D01*
X4624285Y27605000D01*
X4652857Y27576429D01*
X4681428Y27519286D01*
X4681428Y27462143D01*
X4652857Y27376429D01*
X4310000Y27033572D01*
X4681428Y27033572D01*
G04 #@! TO.C,FID1*
X3167142Y1947858D02*
X2967142Y1947858D01*
X2967142Y1633572D02*
X2967142Y2233572D01*
X3252857Y2233572D01*
X3481428Y1633572D02*
X3481428Y2233572D01*
X3767142Y1633572D02*
X3767142Y2233572D01*
X3910000Y2233572D01*
X3995714Y2205000D01*
X4052857Y2147858D01*
X4081428Y2090715D01*
X4110000Y1976429D01*
X4110000Y1890715D01*
X4081428Y1776429D01*
X4052857Y1719286D01*
X3995714Y1662143D01*
X3910000Y1633572D01*
X3767142Y1633572D01*
X4681428Y1633572D02*
X4338571Y1633572D01*
X4510000Y1633572D02*
X4510000Y2233572D01*
X4452857Y2147858D01*
X4395714Y2090715D01*
X4338571Y2062143D01*
G04 #@! TO.C,C31*
X26220000Y11815000D02*
X26186666Y11781667D01*
X26086666Y11748334D01*
X26020000Y11748334D01*
X25920000Y11781667D01*
X25853333Y11848334D01*
X25820000Y11915000D01*
X25786666Y12048334D01*
X25786666Y12148334D01*
X25820000Y12281667D01*
X25853333Y12348334D01*
X25920000Y12415000D01*
X26020000Y12448334D01*
X26086666Y12448334D01*
X26186666Y12415000D01*
X26220000Y12381667D01*
X26453333Y12448334D02*
X26886666Y12448334D01*
X26653333Y12181667D01*
X26753333Y12181667D01*
X26820000Y12148334D01*
X26853333Y12115000D01*
X26886666Y12048334D01*
X26886666Y11881667D01*
X26853333Y11815000D01*
X26820000Y11781667D01*
X26753333Y11748334D01*
X26553333Y11748334D01*
X26486666Y11781667D01*
X26453333Y11815000D01*
X27553333Y11748334D02*
X27153333Y11748334D01*
X27353333Y11748334D02*
X27353333Y12448334D01*
X27286666Y12348334D01*
X27220000Y12281667D01*
X27153333Y12248334D01*
G04 #@! TO.C,C21*
X26220000Y16260000D02*
X26186666Y16226667D01*
X26086666Y16193334D01*
X26020000Y16193334D01*
X25920000Y16226667D01*
X25853333Y16293334D01*
X25820000Y16360000D01*
X25786666Y16493334D01*
X25786666Y16593334D01*
X25820000Y16726667D01*
X25853333Y16793334D01*
X25920000Y16860000D01*
X26020000Y16893334D01*
X26086666Y16893334D01*
X26186666Y16860000D01*
X26220000Y16826667D01*
X26486666Y16826667D02*
X26520000Y16860000D01*
X26586666Y16893334D01*
X26753333Y16893334D01*
X26820000Y16860000D01*
X26853333Y16826667D01*
X26886666Y16760000D01*
X26886666Y16693334D01*
X26853333Y16593334D01*
X26453333Y16193334D01*
X26886666Y16193334D01*
X27553333Y16193334D02*
X27153333Y16193334D01*
X27353333Y16193334D02*
X27353333Y16893334D01*
X27286666Y16793334D01*
X27220000Y16726667D01*
X27153333Y16693334D01*
G04 #@! TO.C,C11*
X26220000Y20705000D02*
X26186666Y20671667D01*
X26086666Y20638334D01*
X26020000Y20638334D01*
X25920000Y20671667D01*
X25853333Y20738334D01*
X25820000Y20805000D01*
X25786666Y20938334D01*
X25786666Y21038334D01*
X25820000Y21171667D01*
X25853333Y21238334D01*
X25920000Y21305000D01*
X26020000Y21338334D01*
X26086666Y21338334D01*
X26186666Y21305000D01*
X26220000Y21271667D01*
X26886666Y20638334D02*
X26486666Y20638334D01*
X26686666Y20638334D02*
X26686666Y21338334D01*
X26620000Y21238334D01*
X26553333Y21171667D01*
X26486666Y21138334D01*
X27553333Y20638334D02*
X27153333Y20638334D01*
X27353333Y20638334D02*
X27353333Y21338334D01*
X27286666Y21238334D01*
X27220000Y21171667D01*
X27153333Y21138334D01*
G04 #@! TO.C,C3*
X36713333Y22610000D02*
X36680000Y22576667D01*
X36580000Y22543334D01*
X36513333Y22543334D01*
X36413333Y22576667D01*
X36346666Y22643334D01*
X36313333Y22710000D01*
X36280000Y22843334D01*
X36280000Y22943334D01*
X36313333Y23076667D01*
X36346666Y23143334D01*
X36413333Y23210000D01*
X36513333Y23243334D01*
X36580000Y23243334D01*
X36680000Y23210000D01*
X36713333Y23176667D01*
X36946666Y23243334D02*
X37380000Y23243334D01*
X37146666Y22976667D01*
X37246666Y22976667D01*
X37313333Y22943334D01*
X37346666Y22910000D01*
X37380000Y22843334D01*
X37380000Y22676667D01*
X37346666Y22610000D01*
X37313333Y22576667D01*
X37246666Y22543334D01*
X37046666Y22543334D01*
X36980000Y22576667D01*
X36946666Y22610000D01*
G04 #@! TO.C,R51*
X17330000Y6033334D02*
X17096666Y6366667D01*
X16930000Y6033334D02*
X16930000Y6733334D01*
X17196666Y6733334D01*
X17263333Y6700000D01*
X17296666Y6666667D01*
X17330000Y6600000D01*
X17330000Y6500000D01*
X17296666Y6433334D01*
X17263333Y6400000D01*
X17196666Y6366667D01*
X16930000Y6366667D01*
X17963333Y6733334D02*
X17630000Y6733334D01*
X17596666Y6400000D01*
X17630000Y6433334D01*
X17696666Y6466667D01*
X17863333Y6466667D01*
X17930000Y6433334D01*
X17963333Y6400000D01*
X17996666Y6333334D01*
X17996666Y6166667D01*
X17963333Y6100000D01*
X17930000Y6066667D01*
X17863333Y6033334D01*
X17696666Y6033334D01*
X17630000Y6066667D01*
X17596666Y6100000D01*
X18663333Y6033334D02*
X18263333Y6033334D01*
X18463333Y6033334D02*
X18463333Y6733334D01*
X18396666Y6633334D01*
X18330000Y6566667D01*
X18263333Y6533334D01*
G04 #@! TO.C,R41*
X17330000Y8573334D02*
X17096666Y8906667D01*
X16930000Y8573334D02*
X16930000Y9273334D01*
X17196666Y9273334D01*
X17263333Y9240000D01*
X17296666Y9206667D01*
X17330000Y9140000D01*
X17330000Y9040000D01*
X17296666Y8973334D01*
X17263333Y8940000D01*
X17196666Y8906667D01*
X16930000Y8906667D01*
X17930000Y9040000D02*
X17930000Y8573334D01*
X17763333Y9306667D02*
X17596666Y8806667D01*
X18030000Y8806667D01*
X18663333Y8573334D02*
X18263333Y8573334D01*
X18463333Y8573334D02*
X18463333Y9273334D01*
X18396666Y9173334D01*
X18330000Y9106667D01*
X18263333Y9073334D01*
G04 #@! TO.C,R33*
X27490000Y13653334D02*
X27256666Y13986667D01*
X27090000Y13653334D02*
X27090000Y14353334D01*
X27356666Y14353334D01*
X27423333Y14320000D01*
X27456666Y14286667D01*
X27490000Y14220000D01*
X27490000Y14120000D01*
X27456666Y14053334D01*
X27423333Y14020000D01*
X27356666Y13986667D01*
X27090000Y13986667D01*
X27723333Y14353334D02*
X28156666Y14353334D01*
X27923333Y14086667D01*
X28023333Y14086667D01*
X28090000Y14053334D01*
X28123333Y14020000D01*
X28156666Y13953334D01*
X28156666Y13786667D01*
X28123333Y13720000D01*
X28090000Y13686667D01*
X28023333Y13653334D01*
X27823333Y13653334D01*
X27756666Y13686667D01*
X27723333Y13720000D01*
X28390000Y14353334D02*
X28823333Y14353334D01*
X28590000Y14086667D01*
X28690000Y14086667D01*
X28756666Y14053334D01*
X28790000Y14020000D01*
X28823333Y13953334D01*
X28823333Y13786667D01*
X28790000Y13720000D01*
X28756666Y13686667D01*
X28690000Y13653334D01*
X28490000Y13653334D01*
X28423333Y13686667D01*
X28390000Y13720000D01*
G04 #@! TO.C,R32*
X17330000Y11113334D02*
X17096666Y11446667D01*
X16930000Y11113334D02*
X16930000Y11813334D01*
X17196666Y11813334D01*
X17263333Y11780000D01*
X17296666Y11746667D01*
X17330000Y11680000D01*
X17330000Y11580000D01*
X17296666Y11513334D01*
X17263333Y11480000D01*
X17196666Y11446667D01*
X16930000Y11446667D01*
X17563333Y11813334D02*
X17996666Y11813334D01*
X17763333Y11546667D01*
X17863333Y11546667D01*
X17930000Y11513334D01*
X17963333Y11480000D01*
X17996666Y11413334D01*
X17996666Y11246667D01*
X17963333Y11180000D01*
X17930000Y11146667D01*
X17863333Y11113334D01*
X17663333Y11113334D01*
X17596666Y11146667D01*
X17563333Y11180000D01*
X18263333Y11746667D02*
X18296666Y11780000D01*
X18363333Y11813334D01*
X18530000Y11813334D01*
X18596666Y11780000D01*
X18630000Y11746667D01*
X18663333Y11680000D01*
X18663333Y11613334D01*
X18630000Y11513334D01*
X18230000Y11113334D01*
X18663333Y11113334D01*
G04 #@! TO.C,R31*
X9075000Y14923334D02*
X8841666Y15256667D01*
X8675000Y14923334D02*
X8675000Y15623334D01*
X8941666Y15623334D01*
X9008333Y15590000D01*
X9041666Y15556667D01*
X9075000Y15490000D01*
X9075000Y15390000D01*
X9041666Y15323334D01*
X9008333Y15290000D01*
X8941666Y15256667D01*
X8675000Y15256667D01*
X9308333Y15623334D02*
X9741666Y15623334D01*
X9508333Y15356667D01*
X9608333Y15356667D01*
X9675000Y15323334D01*
X9708333Y15290000D01*
X9741666Y15223334D01*
X9741666Y15056667D01*
X9708333Y14990000D01*
X9675000Y14956667D01*
X9608333Y14923334D01*
X9408333Y14923334D01*
X9341666Y14956667D01*
X9308333Y14990000D01*
X10408333Y14923334D02*
X10008333Y14923334D01*
X10208333Y14923334D02*
X10208333Y15623334D01*
X10141666Y15523334D01*
X10075000Y15456667D01*
X10008333Y15423334D01*
G04 #@! TO.C,R23*
X27490000Y18098334D02*
X27256666Y18431667D01*
X27090000Y18098334D02*
X27090000Y18798334D01*
X27356666Y18798334D01*
X27423333Y18765000D01*
X27456666Y18731667D01*
X27490000Y18665000D01*
X27490000Y18565000D01*
X27456666Y18498334D01*
X27423333Y18465000D01*
X27356666Y18431667D01*
X27090000Y18431667D01*
X27756666Y18731667D02*
X27790000Y18765000D01*
X27856666Y18798334D01*
X28023333Y18798334D01*
X28090000Y18765000D01*
X28123333Y18731667D01*
X28156666Y18665000D01*
X28156666Y18598334D01*
X28123333Y18498334D01*
X27723333Y18098334D01*
X28156666Y18098334D01*
X28390000Y18798334D02*
X28823333Y18798334D01*
X28590000Y18531667D01*
X28690000Y18531667D01*
X28756666Y18498334D01*
X28790000Y18465000D01*
X28823333Y18398334D01*
X28823333Y18231667D01*
X28790000Y18165000D01*
X28756666Y18131667D01*
X28690000Y18098334D01*
X28490000Y18098334D01*
X28423333Y18131667D01*
X28390000Y18165000D01*
G04 #@! TO.C,R22*
X17330000Y15558334D02*
X17096666Y15891667D01*
X16930000Y15558334D02*
X16930000Y16258334D01*
X17196666Y16258334D01*
X17263333Y16225000D01*
X17296666Y16191667D01*
X17330000Y16125000D01*
X17330000Y16025000D01*
X17296666Y15958334D01*
X17263333Y15925000D01*
X17196666Y15891667D01*
X16930000Y15891667D01*
X17596666Y16191667D02*
X17630000Y16225000D01*
X17696666Y16258334D01*
X17863333Y16258334D01*
X17930000Y16225000D01*
X17963333Y16191667D01*
X17996666Y16125000D01*
X17996666Y16058334D01*
X17963333Y15958334D01*
X17563333Y15558334D01*
X17996666Y15558334D01*
X18263333Y16191667D02*
X18296666Y16225000D01*
X18363333Y16258334D01*
X18530000Y16258334D01*
X18596666Y16225000D01*
X18630000Y16191667D01*
X18663333Y16125000D01*
X18663333Y16058334D01*
X18630000Y15958334D01*
X18230000Y15558334D01*
X18663333Y15558334D01*
G04 #@! TO.C,R21*
X9075000Y19368334D02*
X8841666Y19701667D01*
X8675000Y19368334D02*
X8675000Y20068334D01*
X8941666Y20068334D01*
X9008333Y20035000D01*
X9041666Y20001667D01*
X9075000Y19935000D01*
X9075000Y19835000D01*
X9041666Y19768334D01*
X9008333Y19735000D01*
X8941666Y19701667D01*
X8675000Y19701667D01*
X9341666Y20001667D02*
X9375000Y20035000D01*
X9441666Y20068334D01*
X9608333Y20068334D01*
X9675000Y20035000D01*
X9708333Y20001667D01*
X9741666Y19935000D01*
X9741666Y19868334D01*
X9708333Y19768334D01*
X9308333Y19368334D01*
X9741666Y19368334D01*
X10408333Y19368334D02*
X10008333Y19368334D01*
X10208333Y19368334D02*
X10208333Y20068334D01*
X10141666Y19968334D01*
X10075000Y19901667D01*
X10008333Y19868334D01*
G04 #@! TO.C,R13*
X27490000Y22543334D02*
X27256666Y22876667D01*
X27090000Y22543334D02*
X27090000Y23243334D01*
X27356666Y23243334D01*
X27423333Y23210000D01*
X27456666Y23176667D01*
X27490000Y23110000D01*
X27490000Y23010000D01*
X27456666Y22943334D01*
X27423333Y22910000D01*
X27356666Y22876667D01*
X27090000Y22876667D01*
X28156666Y22543334D02*
X27756666Y22543334D01*
X27956666Y22543334D02*
X27956666Y23243334D01*
X27890000Y23143334D01*
X27823333Y23076667D01*
X27756666Y23043334D01*
X28390000Y23243334D02*
X28823333Y23243334D01*
X28590000Y22976667D01*
X28690000Y22976667D01*
X28756666Y22943334D01*
X28790000Y22910000D01*
X28823333Y22843334D01*
X28823333Y22676667D01*
X28790000Y22610000D01*
X28756666Y22576667D01*
X28690000Y22543334D01*
X28490000Y22543334D01*
X28423333Y22576667D01*
X28390000Y22610000D01*
G04 #@! TO.C,R12*
X17330000Y20003334D02*
X17096666Y20336667D01*
X16930000Y20003334D02*
X16930000Y20703334D01*
X17196666Y20703334D01*
X17263333Y20670000D01*
X17296666Y20636667D01*
X17330000Y20570000D01*
X17330000Y20470000D01*
X17296666Y20403334D01*
X17263333Y20370000D01*
X17196666Y20336667D01*
X16930000Y20336667D01*
X17996666Y20003334D02*
X17596666Y20003334D01*
X17796666Y20003334D02*
X17796666Y20703334D01*
X17730000Y20603334D01*
X17663333Y20536667D01*
X17596666Y20503334D01*
X18263333Y20636667D02*
X18296666Y20670000D01*
X18363333Y20703334D01*
X18530000Y20703334D01*
X18596666Y20670000D01*
X18630000Y20636667D01*
X18663333Y20570000D01*
X18663333Y20503334D01*
X18630000Y20403334D01*
X18230000Y20003334D01*
X18663333Y20003334D01*
G04 #@! TO.C,R11*
X9075000Y23813334D02*
X8841666Y24146667D01*
X8675000Y23813334D02*
X8675000Y24513334D01*
X8941666Y24513334D01*
X9008333Y24480000D01*
X9041666Y24446667D01*
X9075000Y24380000D01*
X9075000Y24280000D01*
X9041666Y24213334D01*
X9008333Y24180000D01*
X8941666Y24146667D01*
X8675000Y24146667D01*
X9741666Y23813334D02*
X9341666Y23813334D01*
X9541666Y23813334D02*
X9541666Y24513334D01*
X9475000Y24413334D01*
X9408333Y24346667D01*
X9341666Y24313334D01*
X10408333Y23813334D02*
X10008333Y23813334D01*
X10208333Y23813334D02*
X10208333Y24513334D01*
X10141666Y24413334D01*
X10075000Y24346667D01*
X10008333Y24313334D01*
G04 #@! TO.C,R2*
X4328333Y25083334D02*
X4095000Y25416667D01*
X3928333Y25083334D02*
X3928333Y25783334D01*
X4195000Y25783334D01*
X4261666Y25750000D01*
X4295000Y25716667D01*
X4328333Y25650000D01*
X4328333Y25550000D01*
X4295000Y25483334D01*
X4261666Y25450000D01*
X4195000Y25416667D01*
X3928333Y25416667D01*
X4595000Y25716667D02*
X4628333Y25750000D01*
X4695000Y25783334D01*
X4861666Y25783334D01*
X4928333Y25750000D01*
X4961666Y25716667D01*
X4995000Y25650000D01*
X4995000Y25583334D01*
X4961666Y25483334D01*
X4561666Y25083334D01*
X4995000Y25083334D01*
G04 #@! TO.C,R1*
X37983333Y20003334D02*
X37750000Y20336667D01*
X37583333Y20003334D02*
X37583333Y20703334D01*
X37850000Y20703334D01*
X37916666Y20670000D01*
X37950000Y20636667D01*
X37983333Y20570000D01*
X37983333Y20470000D01*
X37950000Y20403334D01*
X37916666Y20370000D01*
X37850000Y20336667D01*
X37583333Y20336667D01*
X38650000Y20003334D02*
X38250000Y20003334D01*
X38450000Y20003334D02*
X38450000Y20703334D01*
X38383333Y20603334D01*
X38316666Y20536667D01*
X38250000Y20503334D01*
G04 #@! TO.C,J6*
X50891666Y3722620D02*
X50891666Y3008334D01*
X50844047Y2865477D01*
X50748809Y2770239D01*
X50605952Y2722620D01*
X50510714Y2722620D01*
X51796428Y3722620D02*
X51605952Y3722620D01*
X51510714Y3675000D01*
X51463095Y3627381D01*
X51367857Y3484524D01*
X51320238Y3294048D01*
X51320238Y2913096D01*
X51367857Y2817858D01*
X51415476Y2770239D01*
X51510714Y2722620D01*
X51701190Y2722620D01*
X51796428Y2770239D01*
X51844047Y2817858D01*
X51891666Y2913096D01*
X51891666Y3151191D01*
X51844047Y3246429D01*
X51796428Y3294048D01*
X51701190Y3341667D01*
X51510714Y3341667D01*
X51415476Y3294048D01*
X51367857Y3246429D01*
X51320238Y3151191D01*
G04 #@! TO.C,J5*
X38401666Y3722620D02*
X38401666Y3008334D01*
X38354047Y2865477D01*
X38258809Y2770239D01*
X38115952Y2722620D01*
X38020714Y2722620D01*
X39354047Y3722620D02*
X38877857Y3722620D01*
X38830238Y3246429D01*
X38877857Y3294048D01*
X38973095Y3341667D01*
X39211190Y3341667D01*
X39306428Y3294048D01*
X39354047Y3246429D01*
X39401666Y3151191D01*
X39401666Y2913096D01*
X39354047Y2817858D01*
X39306428Y2770239D01*
X39211190Y2722620D01*
X38973095Y2722620D01*
X38877857Y2770239D01*
X38830238Y2817858D01*
G04 #@! TO.C,J4*
X38401666Y26582620D02*
X38401666Y25868334D01*
X38354047Y25725477D01*
X38258809Y25630239D01*
X38115952Y25582620D01*
X38020714Y25582620D01*
X39306428Y26249286D02*
X39306428Y25582620D01*
X39068333Y26630239D02*
X38830238Y25915953D01*
X39449285Y25915953D01*
G04 #@! TO.C,J3*
X51101666Y26582620D02*
X51101666Y25868334D01*
X51054047Y25725477D01*
X50958809Y25630239D01*
X50815952Y25582620D01*
X50720714Y25582620D01*
X51482619Y26582620D02*
X52101666Y26582620D01*
X51768333Y26201667D01*
X51911190Y26201667D01*
X52006428Y26154048D01*
X52054047Y26106429D01*
X52101666Y26011191D01*
X52101666Y25773096D01*
X52054047Y25677858D01*
X52006428Y25630239D01*
X51911190Y25582620D01*
X51625476Y25582620D01*
X51530238Y25630239D01*
X51482619Y25677858D01*
G04 #@! TO.C,C2*
X49413333Y12450000D02*
X49380000Y12416667D01*
X49280000Y12383334D01*
X49213333Y12383334D01*
X49113333Y12416667D01*
X49046666Y12483334D01*
X49013333Y12550000D01*
X48980000Y12683334D01*
X48980000Y12783334D01*
X49013333Y12916667D01*
X49046666Y12983334D01*
X49113333Y13050000D01*
X49213333Y13083334D01*
X49280000Y13083334D01*
X49380000Y13050000D01*
X49413333Y13016667D01*
X49680000Y13016667D02*
X49713333Y13050000D01*
X49780000Y13083334D01*
X49946666Y13083334D01*
X50013333Y13050000D01*
X50046666Y13016667D01*
X50080000Y12950000D01*
X50080000Y12883334D01*
X50046666Y12783334D01*
X49646666Y12383334D01*
X50080000Y12383334D01*
G04 #@! TO.C,C1*
X49413333Y23880000D02*
X49380000Y23846667D01*
X49280000Y23813334D01*
X49213333Y23813334D01*
X49113333Y23846667D01*
X49046666Y23913334D01*
X49013333Y23980000D01*
X48980000Y24113334D01*
X48980000Y24213334D01*
X49013333Y24346667D01*
X49046666Y24413334D01*
X49113333Y24480000D01*
X49213333Y24513334D01*
X49280000Y24513334D01*
X49380000Y24480000D01*
X49413333Y24446667D01*
X50080000Y23813334D02*
X49680000Y23813334D01*
X49880000Y23813334D02*
X49880000Y24513334D01*
X49813333Y24413334D01*
X49746666Y24346667D01*
X49680000Y24313334D01*
G04 #@! TD*
M02*
