M48
INCH,TZ
T1C0.0157
T2C0.0276
T3C0.0315
T4C0.0394
%
G90
G05
T1
X17750Y6250
T2
X3250Y4750
X6250Y4750
X3250Y7250
X6250Y7250
X2250Y10250
X2250Y7250
X7250Y7250
X10250Y7250
X3250Y6500
X6250Y6500
X7250Y3500
X10250Y3500
X7250Y9000
X10250Y9000
X3250Y5500
X6250Y5500
X3250Y8250
X6250Y8250
X3250Y2500
X6250Y2500
X11250Y8000
X14250Y8000
X3250Y3500
X6250Y3500
X3250Y9000
X6250Y9000
X7250Y5500
X10250Y5500
T3
X7750Y4750
X9719Y4750
X18500Y9000
X18500Y8016
X11781Y9000
X13750Y9000
X7750Y6500
X9719Y6500
X18000Y4000
X18000Y3016
X7750Y8250
X9719Y8250
T4
X1250Y9250
X1250Y8250
X1250Y7250
X1250Y6250
X1250Y5250
X1250Y4250
X1250Y3250
X1250Y2250
X16250Y10250
X17250Y10250
X18250Y10250
X19250Y10250
X3250Y10250
X4250Y10250
X5250Y10250
X6250Y10250
X7250Y10250
X8250Y10250
X9250Y10250
X10250Y10250
X11250Y10250
X12250Y10250
X13250Y10250
X14250Y10250
X3250Y1250
X4250Y1250
X5250Y1250
X6250Y1250
X7250Y1250
X8250Y1250
X9250Y1250
X10250Y1250
X11250Y1250
X12250Y1250
X13250Y1250
X14250Y1250
X16250Y1250
X17250Y1250
X18250Y1250
X19250Y1250
X20250Y9250
X20250Y8250
X20250Y7250
X20250Y6250
X20250Y5250
X20250Y4250
X20250Y3250
X20250Y2250
T0
M30
