G04 #@! TF.GenerationSoftware,KiCad,Pcbnew,(5.1.6-0-10_14)*
G04 #@! TF.CreationDate,2021-03-18T20:19:54+00:00*
G04 #@! TF.ProjectId,JunketOnSteroidsTTGO,4a756e6b-6574-44f6-9e53-7465726f6964,rev?*
G04 #@! TF.SameCoordinates,Original*
G04 #@! TF.FileFunction,Soldermask,Top*
G04 #@! TF.FilePolarity,Negative*
%FSLAX46Y46*%
G04 Gerber Fmt 4.6, Leading zero omitted, Abs format (unit mm)*
G04 Created by KiCad (PCBNEW (5.1.6-0-10_14)) date 2021-03-18 20:19:54*
%MOMM*%
%LPD*%
G01*
G04 APERTURE LIST*
%ADD10C,1.000000*%
%ADD11R,1.600000X1.100000*%
%ADD12C,0.100000*%
%ADD13C,1.700000*%
%ADD14O,1.500000X1.500000*%
%ADD15C,1.500000*%
%ADD16O,1.800000X1.800000*%
%ADD17R,1.800000X1.800000*%
%ADD18R,1.700000X1.700000*%
G04 APERTURE END LIST*
D10*
G04 #@! TO.C,FID3*
X137160000Y-102870000D03*
G04 #@! TD*
G04 #@! TO.C,FID2*
X88900000Y-80010000D03*
G04 #@! TD*
G04 #@! TO.C,FID1*
X88900000Y-102870000D03*
G04 #@! TD*
D11*
G04 #@! TO.C,JP1*
X133350000Y-90170000D03*
D12*
G36*
X134149398Y-91476111D02*
G01*
X134149398Y-91494534D01*
X134149157Y-91499435D01*
X134144347Y-91548266D01*
X134143627Y-91553119D01*
X134134055Y-91601244D01*
X134132863Y-91606005D01*
X134118619Y-91652960D01*
X134116966Y-91657579D01*
X134098189Y-91702912D01*
X134096091Y-91707349D01*
X134072960Y-91750622D01*
X134070438Y-91754829D01*
X134043178Y-91795628D01*
X134040254Y-91799570D01*
X134009126Y-91837499D01*
X134005831Y-91841134D01*
X133971134Y-91875831D01*
X133967499Y-91879126D01*
X133929570Y-91910254D01*
X133925628Y-91913178D01*
X133884829Y-91940438D01*
X133880622Y-91942960D01*
X133837349Y-91966091D01*
X133832912Y-91968189D01*
X133787579Y-91986966D01*
X133782960Y-91988619D01*
X133736005Y-92002863D01*
X133731244Y-92004055D01*
X133683119Y-92013627D01*
X133678266Y-92014347D01*
X133629435Y-92019157D01*
X133624534Y-92019398D01*
X133606111Y-92019398D01*
X133600000Y-92020000D01*
X133100000Y-92020000D01*
X133093889Y-92019398D01*
X133075466Y-92019398D01*
X133070565Y-92019157D01*
X133021734Y-92014347D01*
X133016881Y-92013627D01*
X132968756Y-92004055D01*
X132963995Y-92002863D01*
X132917040Y-91988619D01*
X132912421Y-91986966D01*
X132867088Y-91968189D01*
X132862651Y-91966091D01*
X132819378Y-91942960D01*
X132815171Y-91940438D01*
X132774372Y-91913178D01*
X132770430Y-91910254D01*
X132732501Y-91879126D01*
X132728866Y-91875831D01*
X132694169Y-91841134D01*
X132690874Y-91837499D01*
X132659746Y-91799570D01*
X132656822Y-91795628D01*
X132629562Y-91754829D01*
X132627040Y-91750622D01*
X132603909Y-91707349D01*
X132601811Y-91702912D01*
X132583034Y-91657579D01*
X132581381Y-91652960D01*
X132567137Y-91606005D01*
X132565945Y-91601244D01*
X132556373Y-91553119D01*
X132555653Y-91548266D01*
X132550843Y-91499435D01*
X132550602Y-91494534D01*
X132550602Y-91476111D01*
X132550000Y-91470000D01*
X132550000Y-90920000D01*
X132550961Y-90910245D01*
X132553806Y-90900866D01*
X132558427Y-90892221D01*
X132564645Y-90884645D01*
X132572221Y-90878427D01*
X132580866Y-90873806D01*
X132590245Y-90870961D01*
X132600000Y-90870000D01*
X134100000Y-90870000D01*
X134109755Y-90870961D01*
X134119134Y-90873806D01*
X134127779Y-90878427D01*
X134135355Y-90884645D01*
X134141573Y-90892221D01*
X134146194Y-90900866D01*
X134149039Y-90910245D01*
X134150000Y-90920000D01*
X134150000Y-91470000D01*
X134149398Y-91476111D01*
G37*
G36*
X134149039Y-89429755D02*
G01*
X134146194Y-89439134D01*
X134141573Y-89447779D01*
X134135355Y-89455355D01*
X134127779Y-89461573D01*
X134119134Y-89466194D01*
X134109755Y-89469039D01*
X134100000Y-89470000D01*
X132600000Y-89470000D01*
X132590245Y-89469039D01*
X132580866Y-89466194D01*
X132572221Y-89461573D01*
X132564645Y-89455355D01*
X132558427Y-89447779D01*
X132553806Y-89439134D01*
X132550961Y-89429755D01*
X132550000Y-89420000D01*
X132550000Y-88870000D01*
X132550602Y-88863889D01*
X132550602Y-88845466D01*
X132550843Y-88840565D01*
X132555653Y-88791734D01*
X132556373Y-88786881D01*
X132565945Y-88738756D01*
X132567137Y-88733995D01*
X132581381Y-88687040D01*
X132583034Y-88682421D01*
X132601811Y-88637088D01*
X132603909Y-88632651D01*
X132627040Y-88589378D01*
X132629562Y-88585171D01*
X132656822Y-88544372D01*
X132659746Y-88540430D01*
X132690874Y-88502501D01*
X132694169Y-88498866D01*
X132728866Y-88464169D01*
X132732501Y-88460874D01*
X132770430Y-88429746D01*
X132774372Y-88426822D01*
X132815171Y-88399562D01*
X132819378Y-88397040D01*
X132862651Y-88373909D01*
X132867088Y-88371811D01*
X132912421Y-88353034D01*
X132917040Y-88351381D01*
X132963995Y-88337137D01*
X132968756Y-88335945D01*
X133016881Y-88326373D01*
X133021734Y-88325653D01*
X133070565Y-88320843D01*
X133075466Y-88320602D01*
X133093889Y-88320602D01*
X133100000Y-88320000D01*
X133600000Y-88320000D01*
X133606111Y-88320602D01*
X133624534Y-88320602D01*
X133629435Y-88320843D01*
X133678266Y-88325653D01*
X133683119Y-88326373D01*
X133731244Y-88335945D01*
X133736005Y-88337137D01*
X133782960Y-88351381D01*
X133787579Y-88353034D01*
X133832912Y-88371811D01*
X133837349Y-88373909D01*
X133880622Y-88397040D01*
X133884829Y-88399562D01*
X133925628Y-88426822D01*
X133929570Y-88429746D01*
X133967499Y-88460874D01*
X133971134Y-88464169D01*
X134005831Y-88498866D01*
X134009126Y-88502501D01*
X134040254Y-88540430D01*
X134043178Y-88544372D01*
X134070438Y-88585171D01*
X134072960Y-88589378D01*
X134096091Y-88632651D01*
X134098189Y-88637088D01*
X134116966Y-88682421D01*
X134118619Y-88687040D01*
X134132863Y-88733995D01*
X134134055Y-88738756D01*
X134143627Y-88786881D01*
X134144347Y-88791734D01*
X134149157Y-88840565D01*
X134149398Y-88845466D01*
X134149398Y-88863889D01*
X134150000Y-88870000D01*
X134150000Y-89420000D01*
X134149039Y-89429755D01*
G37*
G04 #@! TD*
D13*
G04 #@! TO.C,C31*
X110410000Y-93980000D03*
X105410000Y-93980000D03*
G04 #@! TD*
G04 #@! TO.C,C21*
X110410000Y-89535000D03*
X105410000Y-89535000D03*
G04 #@! TD*
G04 #@! TO.C,C11*
X110410000Y-85090000D03*
X105410000Y-85090000D03*
G04 #@! TD*
G04 #@! TO.C,C3*
X115650000Y-83185000D03*
X120650000Y-83185000D03*
G04 #@! TD*
D14*
G04 #@! TO.C,R51*
X101600000Y-99695000D03*
D15*
X93980000Y-99695000D03*
G04 #@! TD*
D14*
G04 #@! TO.C,R41*
X101600000Y-97155000D03*
D15*
X93980000Y-97155000D03*
G04 #@! TD*
D14*
G04 #@! TO.C,R33*
X104140000Y-92075000D03*
D15*
X111760000Y-92075000D03*
G04 #@! TD*
D14*
G04 #@! TO.C,R32*
X93980000Y-93980000D03*
D15*
X101600000Y-93980000D03*
G04 #@! TD*
D14*
G04 #@! TO.C,R31*
X93980000Y-92075000D03*
D15*
X101600000Y-92075000D03*
G04 #@! TD*
D14*
G04 #@! TO.C,R23*
X104140000Y-87630000D03*
D15*
X111760000Y-87630000D03*
G04 #@! TD*
D14*
G04 #@! TO.C,R22*
X93980000Y-89535000D03*
D15*
X101600000Y-89535000D03*
G04 #@! TD*
D14*
G04 #@! TO.C,R21*
X93980000Y-87630000D03*
D15*
X101600000Y-87630000D03*
G04 #@! TD*
D14*
G04 #@! TO.C,R13*
X104140000Y-83185000D03*
D15*
X111760000Y-83185000D03*
G04 #@! TD*
D14*
G04 #@! TO.C,R12*
X93980000Y-85090000D03*
D15*
X101600000Y-85090000D03*
G04 #@! TD*
D14*
G04 #@! TO.C,R11*
X93980000Y-83185000D03*
D15*
X101600000Y-83185000D03*
G04 #@! TD*
D14*
G04 #@! TO.C,R2*
X91440000Y-87630000D03*
D15*
X91440000Y-80010000D03*
G04 #@! TD*
D14*
G04 #@! TO.C,R1*
X114300000Y-85725000D03*
D15*
X121920000Y-85725000D03*
G04 #@! TD*
D16*
G04 #@! TO.C,J6*
X127000000Y-102870000D03*
X129540000Y-102870000D03*
X132080000Y-102870000D03*
D17*
X134620000Y-102870000D03*
G04 #@! TD*
D16*
G04 #@! TO.C,J5*
X93980000Y-102870000D03*
X96520000Y-102870000D03*
X99060000Y-102870000D03*
X101600000Y-102870000D03*
X104140000Y-102870000D03*
X106680000Y-102870000D03*
X109220000Y-102870000D03*
X111760000Y-102870000D03*
X114300000Y-102870000D03*
X116840000Y-102870000D03*
X119380000Y-102870000D03*
D17*
X121920000Y-102870000D03*
G04 #@! TD*
D16*
G04 #@! TO.C,J4*
X93980000Y-80010000D03*
X96520000Y-80010000D03*
X99060000Y-80010000D03*
X101600000Y-80010000D03*
X104140000Y-80010000D03*
X106680000Y-80010000D03*
X109220000Y-80010000D03*
X111760000Y-80010000D03*
X114300000Y-80010000D03*
X116840000Y-80010000D03*
X119380000Y-80010000D03*
D17*
X121920000Y-80010000D03*
G04 #@! TD*
D16*
G04 #@! TO.C,J3*
X127000000Y-80010000D03*
X129540000Y-80010000D03*
X132080000Y-80010000D03*
D17*
X134620000Y-80010000D03*
G04 #@! TD*
D16*
G04 #@! TO.C,J2*
X137160000Y-100330000D03*
X137160000Y-97790000D03*
X137160000Y-95250000D03*
X137160000Y-92710000D03*
X137160000Y-90170000D03*
X137160000Y-87630000D03*
X137160000Y-85090000D03*
D17*
X137160000Y-82550000D03*
G04 #@! TD*
D16*
G04 #@! TO.C,J1*
X88900000Y-100330000D03*
X88900000Y-97790000D03*
X88900000Y-95250000D03*
X88900000Y-92710000D03*
X88900000Y-90170000D03*
X88900000Y-87630000D03*
X88900000Y-85090000D03*
D17*
X88900000Y-82550000D03*
G04 #@! TD*
D13*
G04 #@! TO.C,C2*
X131445000Y-98385000D03*
D18*
X131445000Y-95885000D03*
G04 #@! TD*
D13*
G04 #@! TO.C,C1*
X132715000Y-85685000D03*
D18*
X132715000Y-83185000D03*
G04 #@! TD*
M02*
