G04 #@! TF.GenerationSoftware,KiCad,Pcbnew,(5.1.6-0-10_14)*
G04 #@! TF.CreationDate,2021-03-19T12:14:43+00:00*
G04 #@! TF.ProjectId,JunketOnSteroidsTTGO,4a756e6b-6574-44f6-9e53-7465726f6964,rev?*
G04 #@! TF.SameCoordinates,PX5faea10PY5734380*
G04 #@! TF.FileFunction,Copper,L1,Top*
G04 #@! TF.FilePolarity,Positive*
%FSLAX46Y46*%
G04 Gerber Fmt 4.6, Leading zero omitted, Abs format (unit mm)*
G04 Created by KiCad (PCBNEW (5.1.6-0-10_14)) date 2021-03-19 12:14:43*
%MOMM*%
%LPD*%
G01*
G04 APERTURE LIST*
G04 #@! TA.AperFunction,ComponentPad*
%ADD10O,1.400000X1.400000*%
G04 #@! TD*
G04 #@! TA.AperFunction,ComponentPad*
%ADD11C,1.400000*%
G04 #@! TD*
G04 #@! TA.AperFunction,SMDPad,CuDef*
%ADD12C,0.500000*%
G04 #@! TD*
G04 #@! TA.AperFunction,ComponentPad*
%ADD13C,1.600000*%
G04 #@! TD*
G04 #@! TA.AperFunction,ComponentPad*
%ADD14O,1.700000X1.700000*%
G04 #@! TD*
G04 #@! TA.AperFunction,ComponentPad*
%ADD15R,1.700000X1.700000*%
G04 #@! TD*
G04 #@! TA.AperFunction,ComponentPad*
%ADD16R,1.600000X1.600000*%
G04 #@! TD*
G04 #@! TA.AperFunction,ViaPad*
%ADD17C,0.800000*%
G04 #@! TD*
G04 #@! TA.AperFunction,Conductor*
%ADD18C,0.250000*%
G04 #@! TD*
G04 #@! TA.AperFunction,Conductor*
%ADD19C,0.254000*%
G04 #@! TD*
G04 APERTURE END LIST*
D10*
G04 #@! TO.P,R4,2*
G04 #@! TO.N,/GND*
X26035000Y8890000D03*
D11*
G04 #@! TO.P,R4,1*
G04 #@! TO.N,Net-(JP2-Pad3)*
X18415000Y8890000D03*
G04 #@! TD*
D12*
G04 #@! TO.P,FID3,*
G04 #@! TO.N,*
X51435000Y3175000D03*
G04 #@! TD*
G04 #@! TO.P,FID2,*
G04 #@! TO.N,*
X3175000Y26035000D03*
G04 #@! TD*
G04 #@! TO.P,FID1,*
G04 #@! TO.N,*
X3175000Y3175000D03*
G04 #@! TD*
D13*
G04 #@! TO.P,C31,2*
G04 #@! TO.N,/GND*
X24685000Y12065000D03*
G04 #@! TO.P,C31,1*
G04 #@! TO.N,/ADC12*
X19685000Y12065000D03*
G04 #@! TD*
G04 #@! TO.P,C21,2*
G04 #@! TO.N,/GND*
X24685000Y16510000D03*
G04 #@! TO.P,C21,1*
G04 #@! TO.N,/ADC5*
X19685000Y16510000D03*
G04 #@! TD*
G04 #@! TO.P,C11,2*
G04 #@! TO.N,/GND*
X24685000Y20955000D03*
G04 #@! TO.P,C11,1*
G04 #@! TO.N,/ADC4*
X19685000Y20955000D03*
G04 #@! TD*
G04 #@! TO.P,C3,2*
G04 #@! TO.N,/GND*
X29925000Y22860000D03*
G04 #@! TO.P,C3,1*
G04 #@! TO.N,VCC*
X34925000Y22860000D03*
G04 #@! TD*
D10*
G04 #@! TO.P,R51,2*
G04 #@! TO.N,/GPIO15*
X15875000Y6350000D03*
D11*
G04 #@! TO.P,R51,1*
G04 #@! TO.N,/Vout_set*
X8255000Y6350000D03*
G04 #@! TD*
D10*
G04 #@! TO.P,R41,2*
G04 #@! TO.N,/GPIO13*
X15875000Y8890000D03*
D11*
G04 #@! TO.P,R41,1*
G04 #@! TO.N,/Iout_set*
X8255000Y8890000D03*
G04 #@! TD*
D10*
G04 #@! TO.P,R33,2*
G04 #@! TO.N,/ADC12*
X18415000Y13970000D03*
D11*
G04 #@! TO.P,R33,1*
G04 #@! TO.N,/ADC_pullup*
X26035000Y13970000D03*
G04 #@! TD*
D10*
G04 #@! TO.P,R32,2*
G04 #@! TO.N,/GND*
X8255000Y12065000D03*
D11*
G04 #@! TO.P,R32,1*
G04 #@! TO.N,/ADC12*
X15875000Y12065000D03*
G04 #@! TD*
D10*
G04 #@! TO.P,R31,2*
G04 #@! TO.N,/Vin_sense*
X8255000Y13970000D03*
D11*
G04 #@! TO.P,R31,1*
G04 #@! TO.N,/ADC12*
X15875000Y13970000D03*
G04 #@! TD*
D10*
G04 #@! TO.P,R23,2*
G04 #@! TO.N,/ADC5*
X18415000Y18415000D03*
D11*
G04 #@! TO.P,R23,1*
G04 #@! TO.N,/ADC_pullup*
X26035000Y18415000D03*
G04 #@! TD*
D10*
G04 #@! TO.P,R22,2*
G04 #@! TO.N,/GND*
X8255000Y16510000D03*
D11*
G04 #@! TO.P,R22,1*
G04 #@! TO.N,/ADC5*
X15875000Y16510000D03*
G04 #@! TD*
D10*
G04 #@! TO.P,R21,2*
G04 #@! TO.N,/Vout_sense*
X8255000Y18415000D03*
D11*
G04 #@! TO.P,R21,1*
G04 #@! TO.N,/ADC5*
X15875000Y18415000D03*
G04 #@! TD*
D10*
G04 #@! TO.P,R13,2*
G04 #@! TO.N,/ADC4*
X18415000Y22860000D03*
D11*
G04 #@! TO.P,R13,1*
G04 #@! TO.N,/ADC_pullup*
X26035000Y22860000D03*
G04 #@! TD*
D10*
G04 #@! TO.P,R12,2*
G04 #@! TO.N,/GND*
X8255000Y20955000D03*
D11*
G04 #@! TO.P,R12,1*
G04 #@! TO.N,/ADC4*
X15875000Y20955000D03*
G04 #@! TD*
D10*
G04 #@! TO.P,R11,2*
G04 #@! TO.N,/Iout_sense*
X8255000Y22860000D03*
D11*
G04 #@! TO.P,R11,1*
G04 #@! TO.N,/ADC4*
X15875000Y22860000D03*
G04 #@! TD*
D10*
G04 #@! TO.P,R2,2*
G04 #@! TO.N,/Vin_sense*
X5715000Y18415000D03*
D11*
G04 #@! TO.P,R2,1*
G04 #@! TO.N,/Vin*
X5715000Y26035000D03*
G04 #@! TD*
D10*
G04 #@! TO.P,R1,2*
G04 #@! TO.N,/ADC_pullup*
X28575000Y20320000D03*
D11*
G04 #@! TO.P,R1,1*
G04 #@! TO.N,VCC*
X36195000Y20320000D03*
G04 #@! TD*
D14*
G04 #@! TO.P,J6,4*
G04 #@! TO.N,+3V3*
X41275000Y3175000D03*
G04 #@! TO.P,J6,3*
G04 #@! TO.N,/SCL*
X43815000Y3175000D03*
G04 #@! TO.P,J6,2*
G04 #@! TO.N,/SDA*
X46355000Y3175000D03*
D15*
G04 #@! TO.P,J6,1*
G04 #@! TO.N,/GND*
X48895000Y3175000D03*
G04 #@! TD*
D14*
G04 #@! TO.P,J5,12*
G04 #@! TO.N,/GND*
X8255000Y3175000D03*
G04 #@! TO.P,J5,11*
X10795000Y3175000D03*
G04 #@! TO.P,J5,10*
G04 #@! TO.N,/SDA*
X13335000Y3175000D03*
G04 #@! TO.P,J5,9*
G04 #@! TO.N,/SCL*
X15875000Y3175000D03*
G04 #@! TO.P,J5,8*
G04 #@! TO.N,Net-(J5-Pad8)*
X18415000Y3175000D03*
G04 #@! TO.P,J5,7*
G04 #@! TO.N,/ADC12*
X20955000Y3175000D03*
G04 #@! TO.P,J5,6*
G04 #@! TO.N,/GPIO15*
X23495000Y3175000D03*
G04 #@! TO.P,J5,5*
G04 #@! TO.N,/GPIO13*
X26035000Y3175000D03*
G04 #@! TO.P,J5,4*
G04 #@! TO.N,/FAN*
X28575000Y3175000D03*
G04 #@! TO.P,J5,3*
G04 #@! TO.N,/GND*
X31115000Y3175000D03*
G04 #@! TO.P,J5,2*
X33655000Y3175000D03*
D15*
G04 #@! TO.P,J5,1*
G04 #@! TO.N,+3V3*
X36195000Y3175000D03*
G04 #@! TD*
D14*
G04 #@! TO.P,J4,12*
G04 #@! TO.N,+3V3*
X8255000Y26035000D03*
G04 #@! TO.P,J4,11*
G04 #@! TO.N,Net-(J4-Pad11)*
X10795000Y26035000D03*
G04 #@! TO.P,J4,10*
G04 #@! TO.N,Net-(J4-Pad10)*
X13335000Y26035000D03*
G04 #@! TO.P,J4,9*
G04 #@! TO.N,Net-(J4-Pad9)*
X15875000Y26035000D03*
G04 #@! TO.P,J4,8*
G04 #@! TO.N,Net-(J4-Pad8)*
X18415000Y26035000D03*
G04 #@! TO.P,J4,7*
G04 #@! TO.N,/ADC4*
X20955000Y26035000D03*
G04 #@! TO.P,J4,6*
G04 #@! TO.N,/ADC5*
X23495000Y26035000D03*
G04 #@! TO.P,J4,5*
G04 #@! TO.N,Net-(J4-Pad5)*
X26035000Y26035000D03*
G04 #@! TO.P,J4,4*
G04 #@! TO.N,Net-(J4-Pad4)*
X28575000Y26035000D03*
G04 #@! TO.P,J4,3*
G04 #@! TO.N,/GPIO27*
X31115000Y26035000D03*
G04 #@! TO.P,J4,2*
G04 #@! TO.N,/GND*
X33655000Y26035000D03*
D15*
G04 #@! TO.P,J4,1*
G04 #@! TO.N,VCC*
X36195000Y26035000D03*
G04 #@! TD*
D14*
G04 #@! TO.P,J3,4*
G04 #@! TO.N,/RX*
X41275000Y26035000D03*
G04 #@! TO.P,J3,3*
G04 #@! TO.N,/GND*
X43815000Y26035000D03*
G04 #@! TO.P,J3,2*
G04 #@! TO.N,/TX*
X46355000Y26035000D03*
D15*
G04 #@! TO.P,J3,1*
G04 #@! TO.N,VCC*
X48895000Y26035000D03*
G04 #@! TD*
D14*
G04 #@! TO.P,J2,8*
G04 #@! TO.N,/RX*
X51435000Y5715000D03*
G04 #@! TO.P,J2,7*
G04 #@! TO.N,/TX*
X51435000Y8255000D03*
G04 #@! TO.P,J2,6*
G04 #@! TO.N,Net-(J2-Pad6)*
X51435000Y10795000D03*
G04 #@! TO.P,J2,5*
G04 #@! TO.N,VCC*
X51435000Y13335000D03*
G04 #@! TO.P,J2,4*
G04 #@! TO.N,GNDD*
X51435000Y15875000D03*
G04 #@! TO.P,J2,3*
X51435000Y18415000D03*
G04 #@! TO.P,J2,2*
G04 #@! TO.N,GNDA*
X51435000Y20955000D03*
D15*
G04 #@! TO.P,J2,1*
X51435000Y23495000D03*
G04 #@! TD*
D14*
G04 #@! TO.P,J1,8*
G04 #@! TO.N,Net-(J1-Pad8)*
X3175000Y5715000D03*
G04 #@! TO.P,J1,7*
G04 #@! TO.N,/FAN*
X3175000Y8255000D03*
G04 #@! TO.P,J1,6*
G04 #@! TO.N,/!ON*
X3175000Y10795000D03*
G04 #@! TO.P,J1,5*
G04 #@! TO.N,/Vout_set*
X3175000Y13335000D03*
G04 #@! TO.P,J1,4*
G04 #@! TO.N,/Iout_set*
X3175000Y15875000D03*
G04 #@! TO.P,J1,3*
G04 #@! TO.N,/Vin_sense*
X3175000Y18415000D03*
G04 #@! TO.P,J1,2*
G04 #@! TO.N,/Vout_sense*
X3175000Y20955000D03*
D15*
G04 #@! TO.P,J1,1*
G04 #@! TO.N,/Iout_sense*
X3175000Y23495000D03*
G04 #@! TD*
D13*
G04 #@! TO.P,C2,2*
G04 #@! TO.N,/GND*
X45720000Y7660000D03*
D16*
G04 #@! TO.P,C2,1*
G04 #@! TO.N,VCC*
X45720000Y10160000D03*
G04 #@! TD*
D13*
G04 #@! TO.P,C1,2*
G04 #@! TO.N,/GND*
X46990000Y20360000D03*
D16*
G04 #@! TO.P,C1,1*
G04 #@! TO.N,/ADC_pullup*
X46990000Y22860000D03*
G04 #@! TD*
D17*
G04 #@! TO.N,/GND*
X45085000Y15875000D03*
G04 #@! TD*
D18*
G04 #@! TO.N,/ADC_pullup*
X26035000Y18415000D02*
X26035000Y13970000D01*
X26035000Y18415000D02*
X26035000Y22860000D01*
X28575000Y20320000D02*
X26035000Y22860000D01*
X30050011Y18844989D02*
X37894989Y18844989D01*
X28575000Y20320000D02*
X30050011Y18844989D01*
X37894989Y18844989D02*
X41910000Y22860000D01*
X41910000Y22860000D02*
X46990000Y22860000D01*
G04 #@! TO.N,VCC*
X52610001Y24605001D02*
X52610001Y14510001D01*
X51180002Y26035000D02*
X52610001Y24605001D01*
X52610001Y14510001D02*
X51435000Y13335000D01*
X48895000Y26035000D02*
X51180002Y26035000D01*
X37370001Y27210001D02*
X36195000Y26035000D01*
X47719999Y27210001D02*
X37370001Y27210001D01*
X48895000Y26035000D02*
X47719999Y27210001D01*
X36195000Y24130000D02*
X34925000Y22860000D01*
X36195000Y26035000D02*
X36195000Y24130000D01*
X36195000Y21590000D02*
X34925000Y22860000D01*
X36195000Y20320000D02*
X36195000Y21590000D01*
G04 #@! TO.N,/ADC4*
X18415000Y22860000D02*
X15875000Y22860000D01*
X18415000Y22225000D02*
X19685000Y20955000D01*
X18415000Y22860000D02*
X18415000Y22225000D01*
X20955000Y25400000D02*
X20955000Y26035000D01*
X18415000Y22860000D02*
X20955000Y25400000D01*
X15875000Y22860000D02*
X15875000Y20955000D01*
G04 #@! TO.N,/ADC5*
X18415000Y18415000D02*
X15875000Y18415000D01*
X18415000Y17780000D02*
X19685000Y16510000D01*
X18415000Y18415000D02*
X18415000Y17780000D01*
X15875000Y18415000D02*
X15875000Y16510000D01*
X20955000Y20559998D02*
X18810002Y18415000D01*
X18810002Y18415000D02*
X18415000Y18415000D01*
X20955000Y23495000D02*
X20955000Y20559998D01*
X23495000Y26035000D02*
X20955000Y23495000D01*
G04 #@! TO.N,/ADC12*
X18415000Y13970000D02*
X15875000Y13970000D01*
X18415000Y13335000D02*
X19685000Y12065000D01*
X18415000Y13970000D02*
X18415000Y13335000D01*
X15875000Y13970000D02*
X15875000Y12065000D01*
X19050000Y5080000D02*
X20955000Y3175000D01*
X15240000Y5080000D02*
X19050000Y5080000D01*
X14399989Y5920011D02*
X15240000Y5080000D01*
X14399989Y10589989D02*
X14399989Y5920011D01*
X15875000Y12065000D02*
X14399989Y10589989D01*
G04 #@! TO.N,/Vout_set*
X8255000Y6350000D02*
X5080000Y9525000D01*
X5080000Y9525000D02*
X5080000Y11430000D01*
X5080000Y11430000D02*
X3175000Y13335000D01*
G04 #@! TO.N,/Iout_set*
X6350000Y12700000D02*
X3175000Y15875000D01*
X6350000Y10795000D02*
X6350000Y12700000D01*
X8255000Y8890000D02*
X6350000Y10795000D01*
G04 #@! TO.N,/Vin_sense*
X3810000Y18415000D02*
X3175000Y18415000D01*
X8255000Y13970000D02*
X3810000Y18415000D01*
X3175000Y18415000D02*
X5715000Y18415000D01*
G04 #@! TO.N,/Vout_sense*
X5715000Y20955000D02*
X3175000Y20955000D01*
X8255000Y18415000D02*
X5715000Y20955000D01*
G04 #@! TO.N,/Iout_sense*
X3810000Y22860000D02*
X3175000Y23495000D01*
X8255000Y22860000D02*
X3810000Y22860000D01*
G04 #@! TO.N,/RX*
X49714990Y22675010D02*
X49714990Y7435010D01*
X48075010Y24314990D02*
X49714990Y22675010D01*
X42995010Y24314990D02*
X48075010Y24314990D01*
X49714990Y7435010D02*
X51435000Y5715000D01*
X41275000Y26035000D02*
X42995010Y24314990D01*
G04 #@! TO.N,/TX*
X46355000Y26035000D02*
X47625000Y24765000D01*
X47625000Y24765000D02*
X48895000Y24765000D01*
X48895000Y24765000D02*
X50165000Y23495000D01*
X50165000Y9525000D02*
X51435000Y8255000D01*
X50165000Y23495000D02*
X50165000Y9525000D01*
G04 #@! TO.N,+3V3*
X35019999Y1999999D02*
X36195000Y3175000D01*
X12770999Y1999999D02*
X35019999Y1999999D01*
X12159999Y2610999D02*
X12770999Y1999999D01*
X12159999Y22130001D02*
X12159999Y2610999D01*
X8255000Y26035000D02*
X12159999Y22130001D01*
G04 #@! TO.N,/GPIO15*
X20320000Y6350000D02*
X23495000Y3175000D01*
X15875000Y6350000D02*
X20320000Y6350000D01*
G04 #@! TO.N,GNDD*
X51435000Y15875000D02*
X51435000Y18415000D01*
G04 #@! TO.N,/GND*
X31115000Y3175000D02*
X33655000Y3175000D01*
X8255000Y3175000D02*
X10795000Y3175000D01*
X9280001Y17535001D02*
X8255000Y16510000D01*
X9280001Y19929999D02*
X9280001Y17535001D01*
X8255000Y20955000D02*
X9280001Y19929999D01*
X9280001Y15484999D02*
X9280001Y13090001D01*
X9280001Y13090001D02*
X8255000Y12065000D01*
X8255000Y16510000D02*
X9280001Y15484999D01*
X9280001Y4200001D02*
X8255000Y3175000D01*
X9280001Y11039999D02*
X9280001Y4200001D01*
X8255000Y12065000D02*
X9280001Y11039999D01*
X24685000Y20955000D02*
X24685000Y16510000D01*
X24685000Y16510000D02*
X24685000Y12065000D01*
X32479999Y27210001D02*
X33655000Y26035000D01*
X7690999Y27210001D02*
X32479999Y27210001D01*
X7690999Y24859999D02*
X7079999Y25470999D01*
X7079999Y25470999D02*
X7079999Y26599001D01*
X7772003Y24859999D02*
X7690999Y24859999D01*
X7079999Y26599001D02*
X7690999Y27210001D01*
X9280001Y23352001D02*
X7772003Y24859999D01*
X9280001Y21980001D02*
X9280001Y23352001D01*
X8255000Y20955000D02*
X9280001Y21980001D01*
X31115000Y3175000D02*
X29210000Y5080000D01*
X30480000Y22860000D02*
X29925000Y22860000D01*
X33655000Y26035000D02*
X30480000Y22860000D01*
X31750000Y24130000D02*
X33655000Y26035000D01*
X24685000Y23415000D02*
X25400000Y24130000D01*
X24685000Y20955000D02*
X24685000Y23415000D01*
X28655000Y24130000D02*
X25400000Y24130000D01*
X29925000Y22860000D02*
X28655000Y24130000D01*
X44450000Y17820000D02*
X46990000Y20360000D01*
X44450000Y16510000D02*
X44450000Y17820000D01*
X45085000Y15875000D02*
X44450000Y16510000D01*
X45085000Y15875000D02*
X44490000Y15280000D01*
X44490000Y8890000D02*
X44490000Y15280000D01*
X45720000Y7660000D02*
X44490000Y8890000D01*
X45720000Y6350000D02*
X48895000Y3175000D01*
X45720000Y7660000D02*
X45720000Y6350000D01*
X24685000Y10240000D02*
X26035000Y8890000D01*
X24685000Y12065000D02*
X24685000Y10240000D01*
X26035000Y8255000D02*
X26035000Y8890000D01*
X31115000Y3175000D02*
X26035000Y8255000D01*
G04 #@! TO.N,GNDA*
X51435000Y20955000D02*
X51435000Y23495000D01*
G04 #@! TO.N,/GPIO13*
X17964990Y6800010D02*
X15875000Y8890000D01*
X22409990Y6800010D02*
X17964990Y6800010D01*
X26035000Y3175000D02*
X22409990Y6800010D01*
G04 #@! TD*
D19*
G04 #@! TO.N,/GND*
G36*
X5082641Y27218061D02*
G01*
X4863987Y27071962D01*
X4678038Y26886013D01*
X4531939Y26667359D01*
X4431304Y26424405D01*
X4380000Y26166486D01*
X4380000Y25903514D01*
X4431304Y25645595D01*
X4531939Y25402641D01*
X4678038Y25183987D01*
X4863987Y24998038D01*
X5082641Y24851939D01*
X5325595Y24751304D01*
X5583514Y24700000D01*
X5846486Y24700000D01*
X6104405Y24751304D01*
X6347359Y24851939D01*
X6566013Y24998038D01*
X6751962Y25183987D01*
X6898061Y25402641D01*
X6903820Y25416545D01*
X6939010Y25331589D01*
X7101525Y25088368D01*
X7308368Y24881525D01*
X7551589Y24719010D01*
X7821842Y24607068D01*
X8108740Y24550000D01*
X8401260Y24550000D01*
X8621408Y24593791D01*
X11399999Y21815199D01*
X11400000Y4523765D01*
X11299099Y4571825D01*
X11151890Y4616476D01*
X10922000Y4495155D01*
X10922000Y3302000D01*
X10942000Y3302000D01*
X10942000Y3048000D01*
X10922000Y3048000D01*
X10922000Y3028000D01*
X10668000Y3028000D01*
X10668000Y3048000D01*
X8382000Y3048000D01*
X8382000Y3028000D01*
X8128000Y3028000D01*
X8128000Y3048000D01*
X6934186Y3048000D01*
X6813519Y2818109D01*
X6910843Y2543748D01*
X7059822Y2293645D01*
X7254731Y2077412D01*
X7452363Y1930000D01*
X3207277Y1930000D01*
X2933795Y1956815D01*
X2701774Y2026867D01*
X2487778Y2140650D01*
X2299961Y2293831D01*
X2145471Y2480576D01*
X2030198Y2693769D01*
X1958528Y2925299D01*
X1930000Y3196724D01*
X1930000Y3262165D01*
X2290000Y3262165D01*
X2290000Y3087835D01*
X2324010Y2916855D01*
X2390723Y2755795D01*
X2487576Y2610845D01*
X2610845Y2487576D01*
X2755795Y2390723D01*
X2916855Y2324010D01*
X3087835Y2290000D01*
X3262165Y2290000D01*
X3433145Y2324010D01*
X3594205Y2390723D01*
X3739155Y2487576D01*
X3862424Y2610845D01*
X3959277Y2755795D01*
X4025990Y2916855D01*
X4060000Y3087835D01*
X4060000Y3262165D01*
X4025990Y3433145D01*
X3985089Y3531891D01*
X6813519Y3531891D01*
X6934186Y3302000D01*
X8128000Y3302000D01*
X8128000Y4495155D01*
X8382000Y4495155D01*
X8382000Y3302000D01*
X10668000Y3302000D01*
X10668000Y4495155D01*
X10438110Y4616476D01*
X10290901Y4571825D01*
X10028080Y4446641D01*
X9794731Y4272588D01*
X9599822Y4056355D01*
X9525000Y3930745D01*
X9450178Y4056355D01*
X9255269Y4272588D01*
X9021920Y4446641D01*
X8759099Y4571825D01*
X8611890Y4616476D01*
X8382000Y4495155D01*
X8128000Y4495155D01*
X7898110Y4616476D01*
X7750901Y4571825D01*
X7488080Y4446641D01*
X7254731Y4272588D01*
X7059822Y4056355D01*
X6910843Y3806252D01*
X6813519Y3531891D01*
X3985089Y3531891D01*
X3959277Y3594205D01*
X3862424Y3739155D01*
X3739155Y3862424D01*
X3594205Y3959277D01*
X3433145Y4025990D01*
X3262165Y4060000D01*
X3087835Y4060000D01*
X2916855Y4025990D01*
X2755795Y3959277D01*
X2610845Y3862424D01*
X2487576Y3739155D01*
X2390723Y3594205D01*
X2324010Y3433145D01*
X2290000Y3262165D01*
X1930000Y3262165D01*
X1930000Y4905345D01*
X2021525Y4768368D01*
X2228368Y4561525D01*
X2471589Y4399010D01*
X2741842Y4287068D01*
X3028740Y4230000D01*
X3321260Y4230000D01*
X3608158Y4287068D01*
X3878411Y4399010D01*
X4121632Y4561525D01*
X4328475Y4768368D01*
X4490990Y5011589D01*
X4602932Y5281842D01*
X4660000Y5568740D01*
X4660000Y5861260D01*
X4602932Y6148158D01*
X4490990Y6418411D01*
X4328475Y6661632D01*
X4121632Y6868475D01*
X3947240Y6985000D01*
X4121632Y7101525D01*
X4328475Y7308368D01*
X4490990Y7551589D01*
X4602932Y7821842D01*
X4660000Y8108740D01*
X4660000Y8401260D01*
X4602932Y8688158D01*
X4490990Y8958411D01*
X4328475Y9201632D01*
X4121632Y9408475D01*
X3947240Y9525000D01*
X4121632Y9641525D01*
X4320000Y9839893D01*
X4320000Y9562323D01*
X4316324Y9525000D01*
X4320000Y9487678D01*
X4320000Y9487668D01*
X4330997Y9376015D01*
X4360303Y9279405D01*
X4374454Y9232754D01*
X4445026Y9100724D01*
X4456864Y9086300D01*
X4539999Y8984999D01*
X4569003Y8961196D01*
X6941355Y6588843D01*
X6920000Y6481486D01*
X6920000Y6218514D01*
X6971304Y5960595D01*
X7071939Y5717641D01*
X7218038Y5498987D01*
X7403987Y5313038D01*
X7622641Y5166939D01*
X7865595Y5066304D01*
X8123514Y5015000D01*
X8386486Y5015000D01*
X8644405Y5066304D01*
X8887359Y5166939D01*
X9106013Y5313038D01*
X9291962Y5498987D01*
X9438061Y5717641D01*
X9538696Y5960595D01*
X9590000Y6218514D01*
X9590000Y6481486D01*
X9538696Y6739405D01*
X9438061Y6982359D01*
X9291962Y7201013D01*
X9106013Y7386962D01*
X8887359Y7533061D01*
X8677470Y7620000D01*
X8887359Y7706939D01*
X9106013Y7853038D01*
X9291962Y8038987D01*
X9438061Y8257641D01*
X9538696Y8500595D01*
X9590000Y8758514D01*
X9590000Y9021486D01*
X9538696Y9279405D01*
X9438061Y9522359D01*
X9291962Y9741013D01*
X9106013Y9926962D01*
X8887359Y10073061D01*
X8644405Y10173696D01*
X8386486Y10225000D01*
X8123514Y10225000D01*
X8016157Y10203645D01*
X7110000Y11109801D01*
X7110000Y11380052D01*
X7259649Y11175330D01*
X7452340Y10998241D01*
X7675877Y10862147D01*
X7921670Y10772278D01*
X8128000Y10894799D01*
X8128000Y11938000D01*
X8382000Y11938000D01*
X8382000Y10894799D01*
X8588330Y10772278D01*
X8834123Y10862147D01*
X9057660Y10998241D01*
X9250351Y11175330D01*
X9404792Y11386608D01*
X9515047Y11623956D01*
X9547716Y11731671D01*
X9424374Y11938000D01*
X8382000Y11938000D01*
X8128000Y11938000D01*
X8108000Y11938000D01*
X8108000Y12192000D01*
X8128000Y12192000D01*
X8128000Y12212000D01*
X8382000Y12212000D01*
X8382000Y12192000D01*
X9424374Y12192000D01*
X9547716Y12398329D01*
X9515047Y12506044D01*
X9404792Y12743392D01*
X9250351Y12954670D01*
X9186409Y13013434D01*
X9291962Y13118987D01*
X9438061Y13337641D01*
X9538696Y13580595D01*
X9590000Y13838514D01*
X9590000Y14101486D01*
X9538696Y14359405D01*
X9438061Y14602359D01*
X9291962Y14821013D01*
X9106013Y15006962D01*
X8887359Y15153061D01*
X8664813Y15245243D01*
X8834123Y15307147D01*
X9057660Y15443241D01*
X9250351Y15620330D01*
X9404792Y15831608D01*
X9515047Y16068956D01*
X9547716Y16176671D01*
X9424374Y16383000D01*
X8382000Y16383000D01*
X8382000Y16363000D01*
X8128000Y16363000D01*
X8128000Y16383000D01*
X7085626Y16383000D01*
X7022463Y16277339D01*
X6149725Y17150076D01*
X6347359Y17231939D01*
X6566013Y17378038D01*
X6751962Y17563987D01*
X6898061Y17782641D01*
X6985000Y17992530D01*
X7071939Y17782641D01*
X7218038Y17563987D01*
X7323591Y17458434D01*
X7259649Y17399670D01*
X7105208Y17188392D01*
X6994953Y16951044D01*
X6962284Y16843329D01*
X7085626Y16637000D01*
X8128000Y16637000D01*
X8128000Y16657000D01*
X8382000Y16657000D01*
X8382000Y16637000D01*
X9424374Y16637000D01*
X9547716Y16843329D01*
X9515047Y16951044D01*
X9404792Y17188392D01*
X9250351Y17399670D01*
X9186409Y17458434D01*
X9291962Y17563987D01*
X9438061Y17782641D01*
X9538696Y18025595D01*
X9590000Y18283514D01*
X9590000Y18546486D01*
X9538696Y18804405D01*
X9438061Y19047359D01*
X9291962Y19266013D01*
X9106013Y19451962D01*
X8887359Y19598061D01*
X8664813Y19690243D01*
X8834123Y19752147D01*
X9057660Y19888241D01*
X9250351Y20065330D01*
X9404792Y20276608D01*
X9515047Y20513956D01*
X9547716Y20621671D01*
X9424374Y20828000D01*
X8382000Y20828000D01*
X8382000Y20808000D01*
X8128000Y20808000D01*
X8128000Y20828000D01*
X7085626Y20828000D01*
X7022463Y20722339D01*
X6278804Y21465997D01*
X6255001Y21495001D01*
X6139276Y21589974D01*
X6007247Y21660546D01*
X5863986Y21704003D01*
X5752333Y21715000D01*
X5752322Y21715000D01*
X5715000Y21718676D01*
X5677678Y21715000D01*
X4453178Y21715000D01*
X4328475Y21901632D01*
X4196620Y22033487D01*
X4269180Y22055498D01*
X4352436Y22100000D01*
X7157225Y22100000D01*
X7218038Y22008987D01*
X7323591Y21903434D01*
X7259649Y21844670D01*
X7105208Y21633392D01*
X6994953Y21396044D01*
X6962284Y21288329D01*
X7085626Y21082000D01*
X8128000Y21082000D01*
X8128000Y21102000D01*
X8382000Y21102000D01*
X8382000Y21082000D01*
X9424374Y21082000D01*
X9547716Y21288329D01*
X9515047Y21396044D01*
X9404792Y21633392D01*
X9250351Y21844670D01*
X9186409Y21903434D01*
X9291962Y22008987D01*
X9438061Y22227641D01*
X9538696Y22470595D01*
X9590000Y22728514D01*
X9590000Y22991486D01*
X9538696Y23249405D01*
X9438061Y23492359D01*
X9291962Y23711013D01*
X9106013Y23896962D01*
X8887359Y24043061D01*
X8644405Y24143696D01*
X8386486Y24195000D01*
X8123514Y24195000D01*
X7865595Y24143696D01*
X7622641Y24043061D01*
X7403987Y23896962D01*
X7218038Y23711013D01*
X7157225Y23620000D01*
X4663072Y23620000D01*
X4663072Y24345000D01*
X4650812Y24469482D01*
X4614502Y24589180D01*
X4555537Y24699494D01*
X4476185Y24796185D01*
X4379494Y24875537D01*
X4269180Y24934502D01*
X4149482Y24970812D01*
X4025000Y24983072D01*
X2325000Y24983072D01*
X2200518Y24970812D01*
X2080820Y24934502D01*
X1970506Y24875537D01*
X1930000Y24842295D01*
X1930000Y26002723D01*
X1941711Y26122165D01*
X2290000Y26122165D01*
X2290000Y25947835D01*
X2324010Y25776855D01*
X2390723Y25615795D01*
X2487576Y25470845D01*
X2610845Y25347576D01*
X2755795Y25250723D01*
X2916855Y25184010D01*
X3087835Y25150000D01*
X3262165Y25150000D01*
X3433145Y25184010D01*
X3594205Y25250723D01*
X3739155Y25347576D01*
X3862424Y25470845D01*
X3959277Y25615795D01*
X4025990Y25776855D01*
X4060000Y25947835D01*
X4060000Y26122165D01*
X4025990Y26293145D01*
X3959277Y26454205D01*
X3862424Y26599155D01*
X3739155Y26722424D01*
X3594205Y26819277D01*
X3433145Y26885990D01*
X3262165Y26920000D01*
X3087835Y26920000D01*
X2916855Y26885990D01*
X2755795Y26819277D01*
X2610845Y26722424D01*
X2487576Y26599155D01*
X2390723Y26454205D01*
X2324010Y26293145D01*
X2290000Y26122165D01*
X1941711Y26122165D01*
X1956815Y26276204D01*
X2026867Y26508226D01*
X2140650Y26722222D01*
X2293832Y26910041D01*
X2480577Y27064530D01*
X2693769Y27179801D01*
X2925300Y27251472D01*
X3196725Y27280000D01*
X5232175Y27280000D01*
X5082641Y27218061D01*
G37*
X5082641Y27218061D02*
X4863987Y27071962D01*
X4678038Y26886013D01*
X4531939Y26667359D01*
X4431304Y26424405D01*
X4380000Y26166486D01*
X4380000Y25903514D01*
X4431304Y25645595D01*
X4531939Y25402641D01*
X4678038Y25183987D01*
X4863987Y24998038D01*
X5082641Y24851939D01*
X5325595Y24751304D01*
X5583514Y24700000D01*
X5846486Y24700000D01*
X6104405Y24751304D01*
X6347359Y24851939D01*
X6566013Y24998038D01*
X6751962Y25183987D01*
X6898061Y25402641D01*
X6903820Y25416545D01*
X6939010Y25331589D01*
X7101525Y25088368D01*
X7308368Y24881525D01*
X7551589Y24719010D01*
X7821842Y24607068D01*
X8108740Y24550000D01*
X8401260Y24550000D01*
X8621408Y24593791D01*
X11399999Y21815199D01*
X11400000Y4523765D01*
X11299099Y4571825D01*
X11151890Y4616476D01*
X10922000Y4495155D01*
X10922000Y3302000D01*
X10942000Y3302000D01*
X10942000Y3048000D01*
X10922000Y3048000D01*
X10922000Y3028000D01*
X10668000Y3028000D01*
X10668000Y3048000D01*
X8382000Y3048000D01*
X8382000Y3028000D01*
X8128000Y3028000D01*
X8128000Y3048000D01*
X6934186Y3048000D01*
X6813519Y2818109D01*
X6910843Y2543748D01*
X7059822Y2293645D01*
X7254731Y2077412D01*
X7452363Y1930000D01*
X3207277Y1930000D01*
X2933795Y1956815D01*
X2701774Y2026867D01*
X2487778Y2140650D01*
X2299961Y2293831D01*
X2145471Y2480576D01*
X2030198Y2693769D01*
X1958528Y2925299D01*
X1930000Y3196724D01*
X1930000Y3262165D01*
X2290000Y3262165D01*
X2290000Y3087835D01*
X2324010Y2916855D01*
X2390723Y2755795D01*
X2487576Y2610845D01*
X2610845Y2487576D01*
X2755795Y2390723D01*
X2916855Y2324010D01*
X3087835Y2290000D01*
X3262165Y2290000D01*
X3433145Y2324010D01*
X3594205Y2390723D01*
X3739155Y2487576D01*
X3862424Y2610845D01*
X3959277Y2755795D01*
X4025990Y2916855D01*
X4060000Y3087835D01*
X4060000Y3262165D01*
X4025990Y3433145D01*
X3985089Y3531891D01*
X6813519Y3531891D01*
X6934186Y3302000D01*
X8128000Y3302000D01*
X8128000Y4495155D01*
X8382000Y4495155D01*
X8382000Y3302000D01*
X10668000Y3302000D01*
X10668000Y4495155D01*
X10438110Y4616476D01*
X10290901Y4571825D01*
X10028080Y4446641D01*
X9794731Y4272588D01*
X9599822Y4056355D01*
X9525000Y3930745D01*
X9450178Y4056355D01*
X9255269Y4272588D01*
X9021920Y4446641D01*
X8759099Y4571825D01*
X8611890Y4616476D01*
X8382000Y4495155D01*
X8128000Y4495155D01*
X7898110Y4616476D01*
X7750901Y4571825D01*
X7488080Y4446641D01*
X7254731Y4272588D01*
X7059822Y4056355D01*
X6910843Y3806252D01*
X6813519Y3531891D01*
X3985089Y3531891D01*
X3959277Y3594205D01*
X3862424Y3739155D01*
X3739155Y3862424D01*
X3594205Y3959277D01*
X3433145Y4025990D01*
X3262165Y4060000D01*
X3087835Y4060000D01*
X2916855Y4025990D01*
X2755795Y3959277D01*
X2610845Y3862424D01*
X2487576Y3739155D01*
X2390723Y3594205D01*
X2324010Y3433145D01*
X2290000Y3262165D01*
X1930000Y3262165D01*
X1930000Y4905345D01*
X2021525Y4768368D01*
X2228368Y4561525D01*
X2471589Y4399010D01*
X2741842Y4287068D01*
X3028740Y4230000D01*
X3321260Y4230000D01*
X3608158Y4287068D01*
X3878411Y4399010D01*
X4121632Y4561525D01*
X4328475Y4768368D01*
X4490990Y5011589D01*
X4602932Y5281842D01*
X4660000Y5568740D01*
X4660000Y5861260D01*
X4602932Y6148158D01*
X4490990Y6418411D01*
X4328475Y6661632D01*
X4121632Y6868475D01*
X3947240Y6985000D01*
X4121632Y7101525D01*
X4328475Y7308368D01*
X4490990Y7551589D01*
X4602932Y7821842D01*
X4660000Y8108740D01*
X4660000Y8401260D01*
X4602932Y8688158D01*
X4490990Y8958411D01*
X4328475Y9201632D01*
X4121632Y9408475D01*
X3947240Y9525000D01*
X4121632Y9641525D01*
X4320000Y9839893D01*
X4320000Y9562323D01*
X4316324Y9525000D01*
X4320000Y9487678D01*
X4320000Y9487668D01*
X4330997Y9376015D01*
X4360303Y9279405D01*
X4374454Y9232754D01*
X4445026Y9100724D01*
X4456864Y9086300D01*
X4539999Y8984999D01*
X4569003Y8961196D01*
X6941355Y6588843D01*
X6920000Y6481486D01*
X6920000Y6218514D01*
X6971304Y5960595D01*
X7071939Y5717641D01*
X7218038Y5498987D01*
X7403987Y5313038D01*
X7622641Y5166939D01*
X7865595Y5066304D01*
X8123514Y5015000D01*
X8386486Y5015000D01*
X8644405Y5066304D01*
X8887359Y5166939D01*
X9106013Y5313038D01*
X9291962Y5498987D01*
X9438061Y5717641D01*
X9538696Y5960595D01*
X9590000Y6218514D01*
X9590000Y6481486D01*
X9538696Y6739405D01*
X9438061Y6982359D01*
X9291962Y7201013D01*
X9106013Y7386962D01*
X8887359Y7533061D01*
X8677470Y7620000D01*
X8887359Y7706939D01*
X9106013Y7853038D01*
X9291962Y8038987D01*
X9438061Y8257641D01*
X9538696Y8500595D01*
X9590000Y8758514D01*
X9590000Y9021486D01*
X9538696Y9279405D01*
X9438061Y9522359D01*
X9291962Y9741013D01*
X9106013Y9926962D01*
X8887359Y10073061D01*
X8644405Y10173696D01*
X8386486Y10225000D01*
X8123514Y10225000D01*
X8016157Y10203645D01*
X7110000Y11109801D01*
X7110000Y11380052D01*
X7259649Y11175330D01*
X7452340Y10998241D01*
X7675877Y10862147D01*
X7921670Y10772278D01*
X8128000Y10894799D01*
X8128000Y11938000D01*
X8382000Y11938000D01*
X8382000Y10894799D01*
X8588330Y10772278D01*
X8834123Y10862147D01*
X9057660Y10998241D01*
X9250351Y11175330D01*
X9404792Y11386608D01*
X9515047Y11623956D01*
X9547716Y11731671D01*
X9424374Y11938000D01*
X8382000Y11938000D01*
X8128000Y11938000D01*
X8108000Y11938000D01*
X8108000Y12192000D01*
X8128000Y12192000D01*
X8128000Y12212000D01*
X8382000Y12212000D01*
X8382000Y12192000D01*
X9424374Y12192000D01*
X9547716Y12398329D01*
X9515047Y12506044D01*
X9404792Y12743392D01*
X9250351Y12954670D01*
X9186409Y13013434D01*
X9291962Y13118987D01*
X9438061Y13337641D01*
X9538696Y13580595D01*
X9590000Y13838514D01*
X9590000Y14101486D01*
X9538696Y14359405D01*
X9438061Y14602359D01*
X9291962Y14821013D01*
X9106013Y15006962D01*
X8887359Y15153061D01*
X8664813Y15245243D01*
X8834123Y15307147D01*
X9057660Y15443241D01*
X9250351Y15620330D01*
X9404792Y15831608D01*
X9515047Y16068956D01*
X9547716Y16176671D01*
X9424374Y16383000D01*
X8382000Y16383000D01*
X8382000Y16363000D01*
X8128000Y16363000D01*
X8128000Y16383000D01*
X7085626Y16383000D01*
X7022463Y16277339D01*
X6149725Y17150076D01*
X6347359Y17231939D01*
X6566013Y17378038D01*
X6751962Y17563987D01*
X6898061Y17782641D01*
X6985000Y17992530D01*
X7071939Y17782641D01*
X7218038Y17563987D01*
X7323591Y17458434D01*
X7259649Y17399670D01*
X7105208Y17188392D01*
X6994953Y16951044D01*
X6962284Y16843329D01*
X7085626Y16637000D01*
X8128000Y16637000D01*
X8128000Y16657000D01*
X8382000Y16657000D01*
X8382000Y16637000D01*
X9424374Y16637000D01*
X9547716Y16843329D01*
X9515047Y16951044D01*
X9404792Y17188392D01*
X9250351Y17399670D01*
X9186409Y17458434D01*
X9291962Y17563987D01*
X9438061Y17782641D01*
X9538696Y18025595D01*
X9590000Y18283514D01*
X9590000Y18546486D01*
X9538696Y18804405D01*
X9438061Y19047359D01*
X9291962Y19266013D01*
X9106013Y19451962D01*
X8887359Y19598061D01*
X8664813Y19690243D01*
X8834123Y19752147D01*
X9057660Y19888241D01*
X9250351Y20065330D01*
X9404792Y20276608D01*
X9515047Y20513956D01*
X9547716Y20621671D01*
X9424374Y20828000D01*
X8382000Y20828000D01*
X8382000Y20808000D01*
X8128000Y20808000D01*
X8128000Y20828000D01*
X7085626Y20828000D01*
X7022463Y20722339D01*
X6278804Y21465997D01*
X6255001Y21495001D01*
X6139276Y21589974D01*
X6007247Y21660546D01*
X5863986Y21704003D01*
X5752333Y21715000D01*
X5752322Y21715000D01*
X5715000Y21718676D01*
X5677678Y21715000D01*
X4453178Y21715000D01*
X4328475Y21901632D01*
X4196620Y22033487D01*
X4269180Y22055498D01*
X4352436Y22100000D01*
X7157225Y22100000D01*
X7218038Y22008987D01*
X7323591Y21903434D01*
X7259649Y21844670D01*
X7105208Y21633392D01*
X6994953Y21396044D01*
X6962284Y21288329D01*
X7085626Y21082000D01*
X8128000Y21082000D01*
X8128000Y21102000D01*
X8382000Y21102000D01*
X8382000Y21082000D01*
X9424374Y21082000D01*
X9547716Y21288329D01*
X9515047Y21396044D01*
X9404792Y21633392D01*
X9250351Y21844670D01*
X9186409Y21903434D01*
X9291962Y22008987D01*
X9438061Y22227641D01*
X9538696Y22470595D01*
X9590000Y22728514D01*
X9590000Y22991486D01*
X9538696Y23249405D01*
X9438061Y23492359D01*
X9291962Y23711013D01*
X9106013Y23896962D01*
X8887359Y24043061D01*
X8644405Y24143696D01*
X8386486Y24195000D01*
X8123514Y24195000D01*
X7865595Y24143696D01*
X7622641Y24043061D01*
X7403987Y23896962D01*
X7218038Y23711013D01*
X7157225Y23620000D01*
X4663072Y23620000D01*
X4663072Y24345000D01*
X4650812Y24469482D01*
X4614502Y24589180D01*
X4555537Y24699494D01*
X4476185Y24796185D01*
X4379494Y24875537D01*
X4269180Y24934502D01*
X4149482Y24970812D01*
X4025000Y24983072D01*
X2325000Y24983072D01*
X2200518Y24970812D01*
X2080820Y24934502D01*
X1970506Y24875537D01*
X1930000Y24842295D01*
X1930000Y26002723D01*
X1941711Y26122165D01*
X2290000Y26122165D01*
X2290000Y25947835D01*
X2324010Y25776855D01*
X2390723Y25615795D01*
X2487576Y25470845D01*
X2610845Y25347576D01*
X2755795Y25250723D01*
X2916855Y25184010D01*
X3087835Y25150000D01*
X3262165Y25150000D01*
X3433145Y25184010D01*
X3594205Y25250723D01*
X3739155Y25347576D01*
X3862424Y25470845D01*
X3959277Y25615795D01*
X4025990Y25776855D01*
X4060000Y25947835D01*
X4060000Y26122165D01*
X4025990Y26293145D01*
X3959277Y26454205D01*
X3862424Y26599155D01*
X3739155Y26722424D01*
X3594205Y26819277D01*
X3433145Y26885990D01*
X3262165Y26920000D01*
X3087835Y26920000D01*
X2916855Y26885990D01*
X2755795Y26819277D01*
X2610845Y26722424D01*
X2487576Y26599155D01*
X2390723Y26454205D01*
X2324010Y26293145D01*
X2290000Y26122165D01*
X1941711Y26122165D01*
X1956815Y26276204D01*
X2026867Y26508226D01*
X2140650Y26722222D01*
X2293832Y26910041D01*
X2480577Y27064530D01*
X2693769Y27179801D01*
X2925300Y27251472D01*
X3196725Y27280000D01*
X5232175Y27280000D01*
X5082641Y27218061D01*
G36*
X33782000Y26162000D02*
G01*
X33802000Y26162000D01*
X33802000Y25908000D01*
X33782000Y25908000D01*
X33782000Y24714845D01*
X34011890Y24593524D01*
X34159099Y24638175D01*
X34421920Y24763359D01*
X34655269Y24937412D01*
X34731034Y25021466D01*
X34755498Y24940820D01*
X34814463Y24830506D01*
X34893815Y24733815D01*
X34990506Y24654463D01*
X35100820Y24595498D01*
X35220518Y24559188D01*
X35345000Y24546928D01*
X35435001Y24546928D01*
X35435001Y24444803D01*
X35248886Y24258688D01*
X35066335Y24295000D01*
X34783665Y24295000D01*
X34506426Y24239853D01*
X34245273Y24131680D01*
X34010241Y23974637D01*
X33810363Y23774759D01*
X33653320Y23539727D01*
X33545147Y23278574D01*
X33490000Y23001335D01*
X33490000Y22718665D01*
X33545147Y22441426D01*
X33653320Y22180273D01*
X33810363Y21945241D01*
X34010241Y21745363D01*
X34245273Y21588320D01*
X34506426Y21480147D01*
X34783665Y21425000D01*
X35066335Y21425000D01*
X35248886Y21461312D01*
X35349532Y21360667D01*
X35343987Y21356962D01*
X35158038Y21171013D01*
X35011939Y20952359D01*
X34911304Y20709405D01*
X34860000Y20451486D01*
X34860000Y20188514D01*
X34911304Y19930595D01*
X35011939Y19687641D01*
X35067165Y19604989D01*
X30364813Y19604989D01*
X29888645Y20081157D01*
X29910000Y20188514D01*
X29910000Y20451486D01*
X29858696Y20709405D01*
X29758061Y20952359D01*
X29611962Y21171013D01*
X29426013Y21356962D01*
X29207359Y21503061D01*
X28964405Y21603696D01*
X28706486Y21655000D01*
X28443514Y21655000D01*
X28336157Y21633645D01*
X28102504Y21867298D01*
X29111903Y21867298D01*
X29183486Y21623329D01*
X29438996Y21502429D01*
X29713184Y21433700D01*
X29995512Y21419783D01*
X30275130Y21461213D01*
X30541292Y21556397D01*
X30666514Y21623329D01*
X30738097Y21867298D01*
X29925000Y22680395D01*
X29111903Y21867298D01*
X28102504Y21867298D01*
X27348645Y22621157D01*
X27370000Y22728514D01*
X27370000Y22789488D01*
X28484783Y22789488D01*
X28526213Y22509870D01*
X28621397Y22243708D01*
X28688329Y22118486D01*
X28932298Y22046903D01*
X29745395Y22860000D01*
X30104605Y22860000D01*
X30917702Y22046903D01*
X31161671Y22118486D01*
X31282571Y22373996D01*
X31351300Y22648184D01*
X31365217Y22930512D01*
X31323787Y23210130D01*
X31228603Y23476292D01*
X31161671Y23601514D01*
X30917702Y23673097D01*
X30104605Y22860000D01*
X29745395Y22860000D01*
X28932298Y23673097D01*
X28688329Y23601514D01*
X28567429Y23346004D01*
X28498700Y23071816D01*
X28484783Y22789488D01*
X27370000Y22789488D01*
X27370000Y22991486D01*
X27318696Y23249405D01*
X27218061Y23492359D01*
X27071962Y23711013D01*
X26930273Y23852702D01*
X29111903Y23852702D01*
X29925000Y23039605D01*
X30738097Y23852702D01*
X30666514Y24096671D01*
X30411004Y24217571D01*
X30136816Y24286300D01*
X29854488Y24300217D01*
X29574870Y24258787D01*
X29308708Y24163603D01*
X29183486Y24096671D01*
X29111903Y23852702D01*
X26930273Y23852702D01*
X26886013Y23896962D01*
X26667359Y24043061D01*
X26424405Y24143696D01*
X26166486Y24195000D01*
X25903514Y24195000D01*
X25645595Y24143696D01*
X25402641Y24043061D01*
X25183987Y23896962D01*
X24998038Y23711013D01*
X24851939Y23492359D01*
X24751304Y23249405D01*
X24700000Y22991486D01*
X24700000Y22728514D01*
X24751304Y22470595D01*
X24786029Y22386761D01*
X24614488Y22395217D01*
X24334870Y22353787D01*
X24068708Y22258603D01*
X23943486Y22191671D01*
X23871903Y21947702D01*
X24685000Y21134605D01*
X24699143Y21148747D01*
X24878748Y20969142D01*
X24864605Y20955000D01*
X24878748Y20940857D01*
X24699143Y20761252D01*
X24685000Y20775395D01*
X23871903Y19962298D01*
X23943486Y19718329D01*
X24198996Y19597429D01*
X24473184Y19528700D01*
X24755512Y19514783D01*
X25035130Y19556213D01*
X25275000Y19641995D01*
X25275000Y19512775D01*
X25183987Y19451962D01*
X24998038Y19266013D01*
X24851939Y19047359D01*
X24751304Y18804405D01*
X24700000Y18546486D01*
X24700000Y18283514D01*
X24751304Y18025595D01*
X24786029Y17941761D01*
X24614488Y17950217D01*
X24334870Y17908787D01*
X24068708Y17813603D01*
X23943486Y17746671D01*
X23871903Y17502702D01*
X24685000Y16689605D01*
X24699143Y16703747D01*
X24878748Y16524142D01*
X24864605Y16510000D01*
X24878748Y16495857D01*
X24699143Y16316252D01*
X24685000Y16330395D01*
X23871903Y15517298D01*
X23943486Y15273329D01*
X24198996Y15152429D01*
X24473184Y15083700D01*
X24755512Y15069783D01*
X25035130Y15111213D01*
X25275001Y15196995D01*
X25275001Y15067775D01*
X25183987Y15006962D01*
X24998038Y14821013D01*
X24851939Y14602359D01*
X24751304Y14359405D01*
X24700000Y14101486D01*
X24700000Y13838514D01*
X24751304Y13580595D01*
X24786029Y13496761D01*
X24614488Y13505217D01*
X24334870Y13463787D01*
X24068708Y13368603D01*
X23943486Y13301671D01*
X23871903Y13057702D01*
X24685000Y12244605D01*
X24699143Y12258747D01*
X24878748Y12079142D01*
X24864605Y12065000D01*
X25677702Y11251903D01*
X25921671Y11323486D01*
X26042571Y11578996D01*
X26111300Y11853184D01*
X26125217Y12135512D01*
X26083787Y12415130D01*
X26005158Y12635000D01*
X26166486Y12635000D01*
X26424405Y12686304D01*
X26667359Y12786939D01*
X26886013Y12933038D01*
X27071962Y13118987D01*
X27218061Y13337641D01*
X27318696Y13580595D01*
X27370000Y13838514D01*
X27370000Y14101486D01*
X27318696Y14359405D01*
X27218061Y14602359D01*
X27071962Y14821013D01*
X26886013Y15006962D01*
X26795000Y15067775D01*
X26795000Y17317225D01*
X26886013Y17378038D01*
X27071962Y17563987D01*
X27218061Y17782641D01*
X27318696Y18025595D01*
X27370000Y18283514D01*
X27370000Y18546486D01*
X27318696Y18804405D01*
X27218061Y19047359D01*
X27071962Y19266013D01*
X26886013Y19451962D01*
X26795000Y19512775D01*
X26795000Y21025198D01*
X27261355Y20558843D01*
X27240000Y20451486D01*
X27240000Y20188514D01*
X27291304Y19930595D01*
X27391939Y19687641D01*
X27538038Y19468987D01*
X27723987Y19283038D01*
X27942641Y19136939D01*
X28185595Y19036304D01*
X28443514Y18985000D01*
X28706486Y18985000D01*
X28813843Y19006355D01*
X29486212Y18333986D01*
X29510010Y18304988D01*
X29539008Y18281190D01*
X29625735Y18210015D01*
X29757764Y18139443D01*
X29901025Y18095986D01*
X30050011Y18081312D01*
X30087344Y18084989D01*
X37857667Y18084989D01*
X37894989Y18081313D01*
X37932311Y18084989D01*
X37932322Y18084989D01*
X38043975Y18095986D01*
X38187236Y18139443D01*
X38319265Y18210015D01*
X38434990Y18304988D01*
X38458793Y18333992D01*
X39492099Y19367298D01*
X46176903Y19367298D01*
X46248486Y19123329D01*
X46503996Y19002429D01*
X46778184Y18933700D01*
X47060512Y18919783D01*
X47340130Y18961213D01*
X47606292Y19056397D01*
X47731514Y19123329D01*
X47803097Y19367298D01*
X46990000Y20180395D01*
X46176903Y19367298D01*
X39492099Y19367298D01*
X40414289Y20289488D01*
X45549783Y20289488D01*
X45591213Y20009870D01*
X45686397Y19743708D01*
X45753329Y19618486D01*
X45997298Y19546903D01*
X46810395Y20360000D01*
X47169605Y20360000D01*
X47982702Y19546903D01*
X48226671Y19618486D01*
X48347571Y19873996D01*
X48416300Y20148184D01*
X48430217Y20430512D01*
X48388787Y20710130D01*
X48293603Y20976292D01*
X48226671Y21101514D01*
X47982702Y21173097D01*
X47169605Y20360000D01*
X46810395Y20360000D01*
X45997298Y21173097D01*
X45753329Y21101514D01*
X45632429Y20846004D01*
X45563700Y20571816D01*
X45549783Y20289488D01*
X40414289Y20289488D01*
X42224802Y22100000D01*
X45551928Y22100000D01*
X45551928Y22060000D01*
X45564188Y21935518D01*
X45600498Y21815820D01*
X45659463Y21705506D01*
X45738815Y21608815D01*
X45835506Y21529463D01*
X45945820Y21470498D01*
X46065518Y21434188D01*
X46190000Y21421928D01*
X46197215Y21421928D01*
X46176903Y21352702D01*
X46990000Y20539605D01*
X47803097Y21352702D01*
X47782785Y21421928D01*
X47790000Y21421928D01*
X47914482Y21434188D01*
X48034180Y21470498D01*
X48144494Y21529463D01*
X48241185Y21608815D01*
X48320537Y21705506D01*
X48379502Y21815820D01*
X48415812Y21935518D01*
X48428072Y22060000D01*
X48428072Y22887126D01*
X48954990Y22360208D01*
X48954991Y7472343D01*
X48951314Y7435010D01*
X48965988Y7286025D01*
X49009444Y7142764D01*
X49080016Y7010734D01*
X49138879Y6939010D01*
X49174990Y6895009D01*
X49203988Y6871211D01*
X49993790Y6081408D01*
X49950000Y5861260D01*
X49950000Y5568740D01*
X50007068Y5281842D01*
X50119010Y5011589D01*
X50281525Y4768368D01*
X50488368Y4561525D01*
X50731589Y4399010D01*
X51001842Y4287068D01*
X51288740Y4230000D01*
X51581260Y4230000D01*
X51868158Y4287068D01*
X52138411Y4399010D01*
X52381632Y4561525D01*
X52588475Y4768368D01*
X52680000Y4905345D01*
X52680000Y3207278D01*
X52653185Y2933795D01*
X52583133Y2701774D01*
X52469350Y2487778D01*
X52316169Y2299961D01*
X52129424Y2145471D01*
X51916231Y2030198D01*
X51684701Y1958528D01*
X51413276Y1930000D01*
X50242295Y1930000D01*
X50275537Y1970506D01*
X50334502Y2080820D01*
X50370812Y2200518D01*
X50383072Y2325000D01*
X50380000Y2889250D01*
X50221250Y3048000D01*
X49022000Y3048000D01*
X49022000Y3028000D01*
X48768000Y3028000D01*
X48768000Y3048000D01*
X48748000Y3048000D01*
X48748000Y3262165D01*
X50550000Y3262165D01*
X50550000Y3087835D01*
X50584010Y2916855D01*
X50650723Y2755795D01*
X50747576Y2610845D01*
X50870845Y2487576D01*
X51015795Y2390723D01*
X51176855Y2324010D01*
X51347835Y2290000D01*
X51522165Y2290000D01*
X51693145Y2324010D01*
X51854205Y2390723D01*
X51999155Y2487576D01*
X52122424Y2610845D01*
X52219277Y2755795D01*
X52285990Y2916855D01*
X52320000Y3087835D01*
X52320000Y3262165D01*
X52285990Y3433145D01*
X52219277Y3594205D01*
X52122424Y3739155D01*
X51999155Y3862424D01*
X51854205Y3959277D01*
X51693145Y4025990D01*
X51522165Y4060000D01*
X51347835Y4060000D01*
X51176855Y4025990D01*
X51015795Y3959277D01*
X50870845Y3862424D01*
X50747576Y3739155D01*
X50650723Y3594205D01*
X50584010Y3433145D01*
X50550000Y3262165D01*
X48748000Y3262165D01*
X48748000Y3302000D01*
X48768000Y3302000D01*
X48768000Y4501250D01*
X49022000Y4501250D01*
X49022000Y3302000D01*
X50221250Y3302000D01*
X50380000Y3460750D01*
X50383072Y4025000D01*
X50370812Y4149482D01*
X50334502Y4269180D01*
X50275537Y4379494D01*
X50196185Y4476185D01*
X50099494Y4555537D01*
X49989180Y4614502D01*
X49869482Y4650812D01*
X49745000Y4663072D01*
X49180750Y4660000D01*
X49022000Y4501250D01*
X48768000Y4501250D01*
X48609250Y4660000D01*
X48045000Y4663072D01*
X47920518Y4650812D01*
X47800820Y4614502D01*
X47690506Y4555537D01*
X47593815Y4476185D01*
X47514463Y4379494D01*
X47455498Y4269180D01*
X47433487Y4196620D01*
X47301632Y4328475D01*
X47058411Y4490990D01*
X46788158Y4602932D01*
X46501260Y4660000D01*
X46208740Y4660000D01*
X45921842Y4602932D01*
X45651589Y4490990D01*
X45408368Y4328475D01*
X45201525Y4121632D01*
X45085000Y3947240D01*
X44968475Y4121632D01*
X44761632Y4328475D01*
X44518411Y4490990D01*
X44248158Y4602932D01*
X43961260Y4660000D01*
X43668740Y4660000D01*
X43381842Y4602932D01*
X43111589Y4490990D01*
X42868368Y4328475D01*
X42661525Y4121632D01*
X42545000Y3947240D01*
X42428475Y4121632D01*
X42221632Y4328475D01*
X41978411Y4490990D01*
X41708158Y4602932D01*
X41421260Y4660000D01*
X41128740Y4660000D01*
X40841842Y4602932D01*
X40571589Y4490990D01*
X40328368Y4328475D01*
X40121525Y4121632D01*
X39959010Y3878411D01*
X39847068Y3608158D01*
X39790000Y3321260D01*
X39790000Y3028740D01*
X39847068Y2741842D01*
X39959010Y2471589D01*
X40121525Y2228368D01*
X40328368Y2021525D01*
X40465345Y1930000D01*
X37542295Y1930000D01*
X37575537Y1970506D01*
X37634502Y2080820D01*
X37670812Y2200518D01*
X37683072Y2325000D01*
X37683072Y4025000D01*
X37670812Y4149482D01*
X37634502Y4269180D01*
X37575537Y4379494D01*
X37496185Y4476185D01*
X37399494Y4555537D01*
X37289180Y4614502D01*
X37169482Y4650812D01*
X37045000Y4663072D01*
X35345000Y4663072D01*
X35220518Y4650812D01*
X35100820Y4614502D01*
X34990506Y4555537D01*
X34893815Y4476185D01*
X34814463Y4379494D01*
X34755498Y4269180D01*
X34731034Y4188534D01*
X34655269Y4272588D01*
X34421920Y4446641D01*
X34159099Y4571825D01*
X34011890Y4616476D01*
X33782000Y4495155D01*
X33782000Y3302000D01*
X33802000Y3302000D01*
X33802000Y3048000D01*
X33782000Y3048000D01*
X33782000Y3028000D01*
X33528000Y3028000D01*
X33528000Y3048000D01*
X31242000Y3048000D01*
X31242000Y3028000D01*
X30988000Y3028000D01*
X30988000Y3048000D01*
X30968000Y3048000D01*
X30968000Y3302000D01*
X30988000Y3302000D01*
X30988000Y4495155D01*
X31242000Y4495155D01*
X31242000Y3302000D01*
X33528000Y3302000D01*
X33528000Y4495155D01*
X33298110Y4616476D01*
X33150901Y4571825D01*
X32888080Y4446641D01*
X32654731Y4272588D01*
X32459822Y4056355D01*
X32385000Y3930745D01*
X32310178Y4056355D01*
X32115269Y4272588D01*
X31881920Y4446641D01*
X31619099Y4571825D01*
X31471890Y4616476D01*
X31242000Y4495155D01*
X30988000Y4495155D01*
X30758110Y4616476D01*
X30610901Y4571825D01*
X30348080Y4446641D01*
X30114731Y4272588D01*
X29919822Y4056355D01*
X29850195Y3939466D01*
X29728475Y4121632D01*
X29521632Y4328475D01*
X29278411Y4490990D01*
X29008158Y4602932D01*
X28721260Y4660000D01*
X28428740Y4660000D01*
X28141842Y4602932D01*
X27871589Y4490990D01*
X27628368Y4328475D01*
X27421525Y4121632D01*
X27305000Y3947240D01*
X27188475Y4121632D01*
X26981632Y4328475D01*
X26738411Y4490990D01*
X26468158Y4602932D01*
X26181260Y4660000D01*
X25888740Y4660000D01*
X25668592Y4616210D01*
X23617504Y6667298D01*
X44906903Y6667298D01*
X44978486Y6423329D01*
X45233996Y6302429D01*
X45508184Y6233700D01*
X45790512Y6219783D01*
X46070130Y6261213D01*
X46336292Y6356397D01*
X46461514Y6423329D01*
X46533097Y6667298D01*
X45720000Y7480395D01*
X44906903Y6667298D01*
X23617504Y6667298D01*
X22973794Y7311007D01*
X22949991Y7340011D01*
X22834266Y7434984D01*
X22702237Y7505556D01*
X22558976Y7549013D01*
X22447323Y7560010D01*
X22447312Y7560010D01*
X22409990Y7563686D01*
X22372668Y7560010D01*
X18571673Y7560010D01*
X18719866Y7589488D01*
X44279783Y7589488D01*
X44321213Y7309870D01*
X44416397Y7043708D01*
X44483329Y6918486D01*
X44727298Y6846903D01*
X45540395Y7660000D01*
X45899605Y7660000D01*
X46712702Y6846903D01*
X46956671Y6918486D01*
X47077571Y7173996D01*
X47146300Y7448184D01*
X47160217Y7730512D01*
X47118787Y8010130D01*
X47023603Y8276292D01*
X46956671Y8401514D01*
X46712702Y8473097D01*
X45899605Y7660000D01*
X45540395Y7660000D01*
X44727298Y8473097D01*
X44483329Y8401514D01*
X44362429Y8146004D01*
X44293700Y7871816D01*
X44279783Y7589488D01*
X18719866Y7589488D01*
X18804405Y7606304D01*
X19047359Y7706939D01*
X19266013Y7853038D01*
X19451962Y8038987D01*
X19598061Y8257641D01*
X19698696Y8500595D01*
X19709850Y8556671D01*
X24742284Y8556671D01*
X24774953Y8448956D01*
X24885208Y8211608D01*
X25039649Y8000330D01*
X25232340Y7823241D01*
X25455877Y7687147D01*
X25701670Y7597278D01*
X25908000Y7719799D01*
X25908000Y8763000D01*
X26162000Y8763000D01*
X26162000Y7719799D01*
X26368330Y7597278D01*
X26614123Y7687147D01*
X26837660Y7823241D01*
X27030351Y8000330D01*
X27184792Y8211608D01*
X27295047Y8448956D01*
X27327716Y8556671D01*
X27204374Y8763000D01*
X26162000Y8763000D01*
X25908000Y8763000D01*
X24865626Y8763000D01*
X24742284Y8556671D01*
X19709850Y8556671D01*
X19750000Y8758514D01*
X19750000Y9021486D01*
X19709851Y9223329D01*
X24742284Y9223329D01*
X24865626Y9017000D01*
X25908000Y9017000D01*
X25908000Y10060201D01*
X26162000Y10060201D01*
X26162000Y9017000D01*
X27204374Y9017000D01*
X27327716Y9223329D01*
X27295047Y9331044D01*
X27184792Y9568392D01*
X27030351Y9779670D01*
X26837660Y9956759D01*
X26614123Y10092853D01*
X26368330Y10182722D01*
X26162000Y10060201D01*
X25908000Y10060201D01*
X25701670Y10182722D01*
X25455877Y10092853D01*
X25232340Y9956759D01*
X25039649Y9779670D01*
X24885208Y9568392D01*
X24774953Y9331044D01*
X24742284Y9223329D01*
X19709851Y9223329D01*
X19698696Y9279405D01*
X19598061Y9522359D01*
X19451962Y9741013D01*
X19266013Y9926962D01*
X19047359Y10073061D01*
X18804405Y10173696D01*
X18546486Y10225000D01*
X18283514Y10225000D01*
X18025595Y10173696D01*
X17782641Y10073061D01*
X17563987Y9926962D01*
X17378038Y9741013D01*
X17231939Y9522359D01*
X17145000Y9312470D01*
X17058061Y9522359D01*
X16911962Y9741013D01*
X16726013Y9926962D01*
X16507359Y10073061D01*
X16264405Y10173696D01*
X16006486Y10225000D01*
X15743514Y10225000D01*
X15485595Y10173696D01*
X15242641Y10073061D01*
X15159989Y10017835D01*
X15159989Y10275188D01*
X15636157Y10751355D01*
X15743514Y10730000D01*
X16006486Y10730000D01*
X16264405Y10781304D01*
X16507359Y10881939D01*
X16726013Y11028038D01*
X16911962Y11213987D01*
X17058061Y11432641D01*
X17158696Y11675595D01*
X17210000Y11933514D01*
X17210000Y12196486D01*
X17158696Y12454405D01*
X17058061Y12697359D01*
X16911962Y12916013D01*
X16810475Y13017500D01*
X16911962Y13118987D01*
X16972775Y13210000D01*
X17317225Y13210000D01*
X17378038Y13118987D01*
X17563987Y12933038D01*
X17782641Y12786939D01*
X17962944Y12712255D01*
X18286312Y12388886D01*
X18250000Y12206335D01*
X18250000Y11923665D01*
X18305147Y11646426D01*
X18413320Y11385273D01*
X18570363Y11150241D01*
X18770241Y10950363D01*
X19005273Y10793320D01*
X19266426Y10685147D01*
X19543665Y10630000D01*
X19826335Y10630000D01*
X20103574Y10685147D01*
X20364727Y10793320D01*
X20599759Y10950363D01*
X20721694Y11072298D01*
X23871903Y11072298D01*
X23943486Y10828329D01*
X24198996Y10707429D01*
X24473184Y10638700D01*
X24755512Y10624783D01*
X25035130Y10666213D01*
X25301292Y10761397D01*
X25426514Y10828329D01*
X25465147Y10960000D01*
X44281928Y10960000D01*
X44281928Y9360000D01*
X44294188Y9235518D01*
X44330498Y9115820D01*
X44389463Y9005506D01*
X44468815Y8908815D01*
X44565506Y8829463D01*
X44675820Y8770498D01*
X44795518Y8734188D01*
X44920000Y8721928D01*
X44927215Y8721928D01*
X44906903Y8652702D01*
X45720000Y7839605D01*
X46533097Y8652702D01*
X46512785Y8721928D01*
X46520000Y8721928D01*
X46644482Y8734188D01*
X46764180Y8770498D01*
X46874494Y8829463D01*
X46971185Y8908815D01*
X47050537Y9005506D01*
X47109502Y9115820D01*
X47145812Y9235518D01*
X47158072Y9360000D01*
X47158072Y10960000D01*
X47145812Y11084482D01*
X47109502Y11204180D01*
X47050537Y11314494D01*
X46971185Y11411185D01*
X46874494Y11490537D01*
X46764180Y11549502D01*
X46644482Y11585812D01*
X46520000Y11598072D01*
X44920000Y11598072D01*
X44795518Y11585812D01*
X44675820Y11549502D01*
X44565506Y11490537D01*
X44468815Y11411185D01*
X44389463Y11314494D01*
X44330498Y11204180D01*
X44294188Y11084482D01*
X44281928Y10960000D01*
X25465147Y10960000D01*
X25498097Y11072298D01*
X24685000Y11885395D01*
X23871903Y11072298D01*
X20721694Y11072298D01*
X20799637Y11150241D01*
X20956680Y11385273D01*
X21064853Y11646426D01*
X21120000Y11923665D01*
X21120000Y11994488D01*
X23244783Y11994488D01*
X23286213Y11714870D01*
X23381397Y11448708D01*
X23448329Y11323486D01*
X23692298Y11251903D01*
X24505395Y12065000D01*
X23692298Y12878097D01*
X23448329Y12806514D01*
X23327429Y12551004D01*
X23258700Y12276816D01*
X23244783Y11994488D01*
X21120000Y11994488D01*
X21120000Y12206335D01*
X21064853Y12483574D01*
X20956680Y12744727D01*
X20799637Y12979759D01*
X20599759Y13179637D01*
X20364727Y13336680D01*
X20103574Y13444853D01*
X19826335Y13500000D01*
X19665312Y13500000D01*
X19698696Y13580595D01*
X19750000Y13838514D01*
X19750000Y14101486D01*
X19698696Y14359405D01*
X19598061Y14602359D01*
X19451962Y14821013D01*
X19266013Y15006962D01*
X19047359Y15153061D01*
X18804405Y15253696D01*
X18546486Y15305000D01*
X18283514Y15305000D01*
X18025595Y15253696D01*
X17782641Y15153061D01*
X17563987Y15006962D01*
X17378038Y14821013D01*
X17317225Y14730000D01*
X16972775Y14730000D01*
X16911962Y14821013D01*
X16726013Y15006962D01*
X16507359Y15153061D01*
X16297470Y15240000D01*
X16507359Y15326939D01*
X16726013Y15473038D01*
X16911962Y15658987D01*
X17058061Y15877641D01*
X17158696Y16120595D01*
X17210000Y16378514D01*
X17210000Y16641486D01*
X17158696Y16899405D01*
X17058061Y17142359D01*
X16911962Y17361013D01*
X16810475Y17462500D01*
X16911962Y17563987D01*
X16972775Y17655000D01*
X17317225Y17655000D01*
X17378038Y17563987D01*
X17563987Y17378038D01*
X17782641Y17231939D01*
X17962944Y17157255D01*
X18286312Y16833886D01*
X18250000Y16651335D01*
X18250000Y16368665D01*
X18305147Y16091426D01*
X18413320Y15830273D01*
X18570363Y15595241D01*
X18770241Y15395363D01*
X19005273Y15238320D01*
X19266426Y15130147D01*
X19543665Y15075000D01*
X19826335Y15075000D01*
X20103574Y15130147D01*
X20364727Y15238320D01*
X20599759Y15395363D01*
X20799637Y15595241D01*
X20956680Y15830273D01*
X21064853Y16091426D01*
X21120000Y16368665D01*
X21120000Y16439488D01*
X23244783Y16439488D01*
X23286213Y16159870D01*
X23381397Y15893708D01*
X23448329Y15768486D01*
X23692298Y15696903D01*
X24505395Y16510000D01*
X23692298Y17323097D01*
X23448329Y17251514D01*
X23327429Y16996004D01*
X23258700Y16721816D01*
X23244783Y16439488D01*
X21120000Y16439488D01*
X21120000Y16651335D01*
X21064853Y16928574D01*
X20956680Y17189727D01*
X20799637Y17424759D01*
X20599759Y17624637D01*
X20364727Y17781680D01*
X20103574Y17889853D01*
X19826335Y17945000D01*
X19665312Y17945000D01*
X19698696Y18025595D01*
X19749176Y18279373D01*
X21466003Y19996199D01*
X21495001Y20019997D01*
X21589974Y20135722D01*
X21660546Y20267751D01*
X21704003Y20411012D01*
X21715000Y20522665D01*
X21715000Y20522674D01*
X21718676Y20559997D01*
X21715000Y20597320D01*
X21715000Y20884488D01*
X23244783Y20884488D01*
X23286213Y20604870D01*
X23381397Y20338708D01*
X23448329Y20213486D01*
X23692298Y20141903D01*
X24505395Y20955000D01*
X23692298Y21768097D01*
X23448329Y21696514D01*
X23327429Y21441004D01*
X23258700Y21166816D01*
X23244783Y20884488D01*
X21715000Y20884488D01*
X21715000Y23180199D01*
X23128593Y24593790D01*
X23348740Y24550000D01*
X23641260Y24550000D01*
X23928158Y24607068D01*
X24198411Y24719010D01*
X24441632Y24881525D01*
X24648475Y25088368D01*
X24765000Y25262760D01*
X24881525Y25088368D01*
X25088368Y24881525D01*
X25331589Y24719010D01*
X25601842Y24607068D01*
X25888740Y24550000D01*
X26181260Y24550000D01*
X26468158Y24607068D01*
X26738411Y24719010D01*
X26981632Y24881525D01*
X27188475Y25088368D01*
X27305000Y25262760D01*
X27421525Y25088368D01*
X27628368Y24881525D01*
X27871589Y24719010D01*
X28141842Y24607068D01*
X28428740Y24550000D01*
X28721260Y24550000D01*
X29008158Y24607068D01*
X29278411Y24719010D01*
X29521632Y24881525D01*
X29728475Y25088368D01*
X29845000Y25262760D01*
X29961525Y25088368D01*
X30168368Y24881525D01*
X30411589Y24719010D01*
X30681842Y24607068D01*
X30968740Y24550000D01*
X31261260Y24550000D01*
X31548158Y24607068D01*
X31818411Y24719010D01*
X32061632Y24881525D01*
X32268475Y25088368D01*
X32390195Y25270534D01*
X32459822Y25153645D01*
X32654731Y24937412D01*
X32888080Y24763359D01*
X33150901Y24638175D01*
X33298110Y24593524D01*
X33528000Y24714845D01*
X33528000Y25908000D01*
X33508000Y25908000D01*
X33508000Y26162000D01*
X33528000Y26162000D01*
X33528000Y26182000D01*
X33782000Y26182000D01*
X33782000Y26162000D01*
G37*
X33782000Y26162000D02*
X33802000Y26162000D01*
X33802000Y25908000D01*
X33782000Y25908000D01*
X33782000Y24714845D01*
X34011890Y24593524D01*
X34159099Y24638175D01*
X34421920Y24763359D01*
X34655269Y24937412D01*
X34731034Y25021466D01*
X34755498Y24940820D01*
X34814463Y24830506D01*
X34893815Y24733815D01*
X34990506Y24654463D01*
X35100820Y24595498D01*
X35220518Y24559188D01*
X35345000Y24546928D01*
X35435001Y24546928D01*
X35435001Y24444803D01*
X35248886Y24258688D01*
X35066335Y24295000D01*
X34783665Y24295000D01*
X34506426Y24239853D01*
X34245273Y24131680D01*
X34010241Y23974637D01*
X33810363Y23774759D01*
X33653320Y23539727D01*
X33545147Y23278574D01*
X33490000Y23001335D01*
X33490000Y22718665D01*
X33545147Y22441426D01*
X33653320Y22180273D01*
X33810363Y21945241D01*
X34010241Y21745363D01*
X34245273Y21588320D01*
X34506426Y21480147D01*
X34783665Y21425000D01*
X35066335Y21425000D01*
X35248886Y21461312D01*
X35349532Y21360667D01*
X35343987Y21356962D01*
X35158038Y21171013D01*
X35011939Y20952359D01*
X34911304Y20709405D01*
X34860000Y20451486D01*
X34860000Y20188514D01*
X34911304Y19930595D01*
X35011939Y19687641D01*
X35067165Y19604989D01*
X30364813Y19604989D01*
X29888645Y20081157D01*
X29910000Y20188514D01*
X29910000Y20451486D01*
X29858696Y20709405D01*
X29758061Y20952359D01*
X29611962Y21171013D01*
X29426013Y21356962D01*
X29207359Y21503061D01*
X28964405Y21603696D01*
X28706486Y21655000D01*
X28443514Y21655000D01*
X28336157Y21633645D01*
X28102504Y21867298D01*
X29111903Y21867298D01*
X29183486Y21623329D01*
X29438996Y21502429D01*
X29713184Y21433700D01*
X29995512Y21419783D01*
X30275130Y21461213D01*
X30541292Y21556397D01*
X30666514Y21623329D01*
X30738097Y21867298D01*
X29925000Y22680395D01*
X29111903Y21867298D01*
X28102504Y21867298D01*
X27348645Y22621157D01*
X27370000Y22728514D01*
X27370000Y22789488D01*
X28484783Y22789488D01*
X28526213Y22509870D01*
X28621397Y22243708D01*
X28688329Y22118486D01*
X28932298Y22046903D01*
X29745395Y22860000D01*
X30104605Y22860000D01*
X30917702Y22046903D01*
X31161671Y22118486D01*
X31282571Y22373996D01*
X31351300Y22648184D01*
X31365217Y22930512D01*
X31323787Y23210130D01*
X31228603Y23476292D01*
X31161671Y23601514D01*
X30917702Y23673097D01*
X30104605Y22860000D01*
X29745395Y22860000D01*
X28932298Y23673097D01*
X28688329Y23601514D01*
X28567429Y23346004D01*
X28498700Y23071816D01*
X28484783Y22789488D01*
X27370000Y22789488D01*
X27370000Y22991486D01*
X27318696Y23249405D01*
X27218061Y23492359D01*
X27071962Y23711013D01*
X26930273Y23852702D01*
X29111903Y23852702D01*
X29925000Y23039605D01*
X30738097Y23852702D01*
X30666514Y24096671D01*
X30411004Y24217571D01*
X30136816Y24286300D01*
X29854488Y24300217D01*
X29574870Y24258787D01*
X29308708Y24163603D01*
X29183486Y24096671D01*
X29111903Y23852702D01*
X26930273Y23852702D01*
X26886013Y23896962D01*
X26667359Y24043061D01*
X26424405Y24143696D01*
X26166486Y24195000D01*
X25903514Y24195000D01*
X25645595Y24143696D01*
X25402641Y24043061D01*
X25183987Y23896962D01*
X24998038Y23711013D01*
X24851939Y23492359D01*
X24751304Y23249405D01*
X24700000Y22991486D01*
X24700000Y22728514D01*
X24751304Y22470595D01*
X24786029Y22386761D01*
X24614488Y22395217D01*
X24334870Y22353787D01*
X24068708Y22258603D01*
X23943486Y22191671D01*
X23871903Y21947702D01*
X24685000Y21134605D01*
X24699143Y21148747D01*
X24878748Y20969142D01*
X24864605Y20955000D01*
X24878748Y20940857D01*
X24699143Y20761252D01*
X24685000Y20775395D01*
X23871903Y19962298D01*
X23943486Y19718329D01*
X24198996Y19597429D01*
X24473184Y19528700D01*
X24755512Y19514783D01*
X25035130Y19556213D01*
X25275000Y19641995D01*
X25275000Y19512775D01*
X25183987Y19451962D01*
X24998038Y19266013D01*
X24851939Y19047359D01*
X24751304Y18804405D01*
X24700000Y18546486D01*
X24700000Y18283514D01*
X24751304Y18025595D01*
X24786029Y17941761D01*
X24614488Y17950217D01*
X24334870Y17908787D01*
X24068708Y17813603D01*
X23943486Y17746671D01*
X23871903Y17502702D01*
X24685000Y16689605D01*
X24699143Y16703747D01*
X24878748Y16524142D01*
X24864605Y16510000D01*
X24878748Y16495857D01*
X24699143Y16316252D01*
X24685000Y16330395D01*
X23871903Y15517298D01*
X23943486Y15273329D01*
X24198996Y15152429D01*
X24473184Y15083700D01*
X24755512Y15069783D01*
X25035130Y15111213D01*
X25275001Y15196995D01*
X25275001Y15067775D01*
X25183987Y15006962D01*
X24998038Y14821013D01*
X24851939Y14602359D01*
X24751304Y14359405D01*
X24700000Y14101486D01*
X24700000Y13838514D01*
X24751304Y13580595D01*
X24786029Y13496761D01*
X24614488Y13505217D01*
X24334870Y13463787D01*
X24068708Y13368603D01*
X23943486Y13301671D01*
X23871903Y13057702D01*
X24685000Y12244605D01*
X24699143Y12258747D01*
X24878748Y12079142D01*
X24864605Y12065000D01*
X25677702Y11251903D01*
X25921671Y11323486D01*
X26042571Y11578996D01*
X26111300Y11853184D01*
X26125217Y12135512D01*
X26083787Y12415130D01*
X26005158Y12635000D01*
X26166486Y12635000D01*
X26424405Y12686304D01*
X26667359Y12786939D01*
X26886013Y12933038D01*
X27071962Y13118987D01*
X27218061Y13337641D01*
X27318696Y13580595D01*
X27370000Y13838514D01*
X27370000Y14101486D01*
X27318696Y14359405D01*
X27218061Y14602359D01*
X27071962Y14821013D01*
X26886013Y15006962D01*
X26795000Y15067775D01*
X26795000Y17317225D01*
X26886013Y17378038D01*
X27071962Y17563987D01*
X27218061Y17782641D01*
X27318696Y18025595D01*
X27370000Y18283514D01*
X27370000Y18546486D01*
X27318696Y18804405D01*
X27218061Y19047359D01*
X27071962Y19266013D01*
X26886013Y19451962D01*
X26795000Y19512775D01*
X26795000Y21025198D01*
X27261355Y20558843D01*
X27240000Y20451486D01*
X27240000Y20188514D01*
X27291304Y19930595D01*
X27391939Y19687641D01*
X27538038Y19468987D01*
X27723987Y19283038D01*
X27942641Y19136939D01*
X28185595Y19036304D01*
X28443514Y18985000D01*
X28706486Y18985000D01*
X28813843Y19006355D01*
X29486212Y18333986D01*
X29510010Y18304988D01*
X29539008Y18281190D01*
X29625735Y18210015D01*
X29757764Y18139443D01*
X29901025Y18095986D01*
X30050011Y18081312D01*
X30087344Y18084989D01*
X37857667Y18084989D01*
X37894989Y18081313D01*
X37932311Y18084989D01*
X37932322Y18084989D01*
X38043975Y18095986D01*
X38187236Y18139443D01*
X38319265Y18210015D01*
X38434990Y18304988D01*
X38458793Y18333992D01*
X39492099Y19367298D01*
X46176903Y19367298D01*
X46248486Y19123329D01*
X46503996Y19002429D01*
X46778184Y18933700D01*
X47060512Y18919783D01*
X47340130Y18961213D01*
X47606292Y19056397D01*
X47731514Y19123329D01*
X47803097Y19367298D01*
X46990000Y20180395D01*
X46176903Y19367298D01*
X39492099Y19367298D01*
X40414289Y20289488D01*
X45549783Y20289488D01*
X45591213Y20009870D01*
X45686397Y19743708D01*
X45753329Y19618486D01*
X45997298Y19546903D01*
X46810395Y20360000D01*
X47169605Y20360000D01*
X47982702Y19546903D01*
X48226671Y19618486D01*
X48347571Y19873996D01*
X48416300Y20148184D01*
X48430217Y20430512D01*
X48388787Y20710130D01*
X48293603Y20976292D01*
X48226671Y21101514D01*
X47982702Y21173097D01*
X47169605Y20360000D01*
X46810395Y20360000D01*
X45997298Y21173097D01*
X45753329Y21101514D01*
X45632429Y20846004D01*
X45563700Y20571816D01*
X45549783Y20289488D01*
X40414289Y20289488D01*
X42224802Y22100000D01*
X45551928Y22100000D01*
X45551928Y22060000D01*
X45564188Y21935518D01*
X45600498Y21815820D01*
X45659463Y21705506D01*
X45738815Y21608815D01*
X45835506Y21529463D01*
X45945820Y21470498D01*
X46065518Y21434188D01*
X46190000Y21421928D01*
X46197215Y21421928D01*
X46176903Y21352702D01*
X46990000Y20539605D01*
X47803097Y21352702D01*
X47782785Y21421928D01*
X47790000Y21421928D01*
X47914482Y21434188D01*
X48034180Y21470498D01*
X48144494Y21529463D01*
X48241185Y21608815D01*
X48320537Y21705506D01*
X48379502Y21815820D01*
X48415812Y21935518D01*
X48428072Y22060000D01*
X48428072Y22887126D01*
X48954990Y22360208D01*
X48954991Y7472343D01*
X48951314Y7435010D01*
X48965988Y7286025D01*
X49009444Y7142764D01*
X49080016Y7010734D01*
X49138879Y6939010D01*
X49174990Y6895009D01*
X49203988Y6871211D01*
X49993790Y6081408D01*
X49950000Y5861260D01*
X49950000Y5568740D01*
X50007068Y5281842D01*
X50119010Y5011589D01*
X50281525Y4768368D01*
X50488368Y4561525D01*
X50731589Y4399010D01*
X51001842Y4287068D01*
X51288740Y4230000D01*
X51581260Y4230000D01*
X51868158Y4287068D01*
X52138411Y4399010D01*
X52381632Y4561525D01*
X52588475Y4768368D01*
X52680000Y4905345D01*
X52680000Y3207278D01*
X52653185Y2933795D01*
X52583133Y2701774D01*
X52469350Y2487778D01*
X52316169Y2299961D01*
X52129424Y2145471D01*
X51916231Y2030198D01*
X51684701Y1958528D01*
X51413276Y1930000D01*
X50242295Y1930000D01*
X50275537Y1970506D01*
X50334502Y2080820D01*
X50370812Y2200518D01*
X50383072Y2325000D01*
X50380000Y2889250D01*
X50221250Y3048000D01*
X49022000Y3048000D01*
X49022000Y3028000D01*
X48768000Y3028000D01*
X48768000Y3048000D01*
X48748000Y3048000D01*
X48748000Y3262165D01*
X50550000Y3262165D01*
X50550000Y3087835D01*
X50584010Y2916855D01*
X50650723Y2755795D01*
X50747576Y2610845D01*
X50870845Y2487576D01*
X51015795Y2390723D01*
X51176855Y2324010D01*
X51347835Y2290000D01*
X51522165Y2290000D01*
X51693145Y2324010D01*
X51854205Y2390723D01*
X51999155Y2487576D01*
X52122424Y2610845D01*
X52219277Y2755795D01*
X52285990Y2916855D01*
X52320000Y3087835D01*
X52320000Y3262165D01*
X52285990Y3433145D01*
X52219277Y3594205D01*
X52122424Y3739155D01*
X51999155Y3862424D01*
X51854205Y3959277D01*
X51693145Y4025990D01*
X51522165Y4060000D01*
X51347835Y4060000D01*
X51176855Y4025990D01*
X51015795Y3959277D01*
X50870845Y3862424D01*
X50747576Y3739155D01*
X50650723Y3594205D01*
X50584010Y3433145D01*
X50550000Y3262165D01*
X48748000Y3262165D01*
X48748000Y3302000D01*
X48768000Y3302000D01*
X48768000Y4501250D01*
X49022000Y4501250D01*
X49022000Y3302000D01*
X50221250Y3302000D01*
X50380000Y3460750D01*
X50383072Y4025000D01*
X50370812Y4149482D01*
X50334502Y4269180D01*
X50275537Y4379494D01*
X50196185Y4476185D01*
X50099494Y4555537D01*
X49989180Y4614502D01*
X49869482Y4650812D01*
X49745000Y4663072D01*
X49180750Y4660000D01*
X49022000Y4501250D01*
X48768000Y4501250D01*
X48609250Y4660000D01*
X48045000Y4663072D01*
X47920518Y4650812D01*
X47800820Y4614502D01*
X47690506Y4555537D01*
X47593815Y4476185D01*
X47514463Y4379494D01*
X47455498Y4269180D01*
X47433487Y4196620D01*
X47301632Y4328475D01*
X47058411Y4490990D01*
X46788158Y4602932D01*
X46501260Y4660000D01*
X46208740Y4660000D01*
X45921842Y4602932D01*
X45651589Y4490990D01*
X45408368Y4328475D01*
X45201525Y4121632D01*
X45085000Y3947240D01*
X44968475Y4121632D01*
X44761632Y4328475D01*
X44518411Y4490990D01*
X44248158Y4602932D01*
X43961260Y4660000D01*
X43668740Y4660000D01*
X43381842Y4602932D01*
X43111589Y4490990D01*
X42868368Y4328475D01*
X42661525Y4121632D01*
X42545000Y3947240D01*
X42428475Y4121632D01*
X42221632Y4328475D01*
X41978411Y4490990D01*
X41708158Y4602932D01*
X41421260Y4660000D01*
X41128740Y4660000D01*
X40841842Y4602932D01*
X40571589Y4490990D01*
X40328368Y4328475D01*
X40121525Y4121632D01*
X39959010Y3878411D01*
X39847068Y3608158D01*
X39790000Y3321260D01*
X39790000Y3028740D01*
X39847068Y2741842D01*
X39959010Y2471589D01*
X40121525Y2228368D01*
X40328368Y2021525D01*
X40465345Y1930000D01*
X37542295Y1930000D01*
X37575537Y1970506D01*
X37634502Y2080820D01*
X37670812Y2200518D01*
X37683072Y2325000D01*
X37683072Y4025000D01*
X37670812Y4149482D01*
X37634502Y4269180D01*
X37575537Y4379494D01*
X37496185Y4476185D01*
X37399494Y4555537D01*
X37289180Y4614502D01*
X37169482Y4650812D01*
X37045000Y4663072D01*
X35345000Y4663072D01*
X35220518Y4650812D01*
X35100820Y4614502D01*
X34990506Y4555537D01*
X34893815Y4476185D01*
X34814463Y4379494D01*
X34755498Y4269180D01*
X34731034Y4188534D01*
X34655269Y4272588D01*
X34421920Y4446641D01*
X34159099Y4571825D01*
X34011890Y4616476D01*
X33782000Y4495155D01*
X33782000Y3302000D01*
X33802000Y3302000D01*
X33802000Y3048000D01*
X33782000Y3048000D01*
X33782000Y3028000D01*
X33528000Y3028000D01*
X33528000Y3048000D01*
X31242000Y3048000D01*
X31242000Y3028000D01*
X30988000Y3028000D01*
X30988000Y3048000D01*
X30968000Y3048000D01*
X30968000Y3302000D01*
X30988000Y3302000D01*
X30988000Y4495155D01*
X31242000Y4495155D01*
X31242000Y3302000D01*
X33528000Y3302000D01*
X33528000Y4495155D01*
X33298110Y4616476D01*
X33150901Y4571825D01*
X32888080Y4446641D01*
X32654731Y4272588D01*
X32459822Y4056355D01*
X32385000Y3930745D01*
X32310178Y4056355D01*
X32115269Y4272588D01*
X31881920Y4446641D01*
X31619099Y4571825D01*
X31471890Y4616476D01*
X31242000Y4495155D01*
X30988000Y4495155D01*
X30758110Y4616476D01*
X30610901Y4571825D01*
X30348080Y4446641D01*
X30114731Y4272588D01*
X29919822Y4056355D01*
X29850195Y3939466D01*
X29728475Y4121632D01*
X29521632Y4328475D01*
X29278411Y4490990D01*
X29008158Y4602932D01*
X28721260Y4660000D01*
X28428740Y4660000D01*
X28141842Y4602932D01*
X27871589Y4490990D01*
X27628368Y4328475D01*
X27421525Y4121632D01*
X27305000Y3947240D01*
X27188475Y4121632D01*
X26981632Y4328475D01*
X26738411Y4490990D01*
X26468158Y4602932D01*
X26181260Y4660000D01*
X25888740Y4660000D01*
X25668592Y4616210D01*
X23617504Y6667298D01*
X44906903Y6667298D01*
X44978486Y6423329D01*
X45233996Y6302429D01*
X45508184Y6233700D01*
X45790512Y6219783D01*
X46070130Y6261213D01*
X46336292Y6356397D01*
X46461514Y6423329D01*
X46533097Y6667298D01*
X45720000Y7480395D01*
X44906903Y6667298D01*
X23617504Y6667298D01*
X22973794Y7311007D01*
X22949991Y7340011D01*
X22834266Y7434984D01*
X22702237Y7505556D01*
X22558976Y7549013D01*
X22447323Y7560010D01*
X22447312Y7560010D01*
X22409990Y7563686D01*
X22372668Y7560010D01*
X18571673Y7560010D01*
X18719866Y7589488D01*
X44279783Y7589488D01*
X44321213Y7309870D01*
X44416397Y7043708D01*
X44483329Y6918486D01*
X44727298Y6846903D01*
X45540395Y7660000D01*
X45899605Y7660000D01*
X46712702Y6846903D01*
X46956671Y6918486D01*
X47077571Y7173996D01*
X47146300Y7448184D01*
X47160217Y7730512D01*
X47118787Y8010130D01*
X47023603Y8276292D01*
X46956671Y8401514D01*
X46712702Y8473097D01*
X45899605Y7660000D01*
X45540395Y7660000D01*
X44727298Y8473097D01*
X44483329Y8401514D01*
X44362429Y8146004D01*
X44293700Y7871816D01*
X44279783Y7589488D01*
X18719866Y7589488D01*
X18804405Y7606304D01*
X19047359Y7706939D01*
X19266013Y7853038D01*
X19451962Y8038987D01*
X19598061Y8257641D01*
X19698696Y8500595D01*
X19709850Y8556671D01*
X24742284Y8556671D01*
X24774953Y8448956D01*
X24885208Y8211608D01*
X25039649Y8000330D01*
X25232340Y7823241D01*
X25455877Y7687147D01*
X25701670Y7597278D01*
X25908000Y7719799D01*
X25908000Y8763000D01*
X26162000Y8763000D01*
X26162000Y7719799D01*
X26368330Y7597278D01*
X26614123Y7687147D01*
X26837660Y7823241D01*
X27030351Y8000330D01*
X27184792Y8211608D01*
X27295047Y8448956D01*
X27327716Y8556671D01*
X27204374Y8763000D01*
X26162000Y8763000D01*
X25908000Y8763000D01*
X24865626Y8763000D01*
X24742284Y8556671D01*
X19709850Y8556671D01*
X19750000Y8758514D01*
X19750000Y9021486D01*
X19709851Y9223329D01*
X24742284Y9223329D01*
X24865626Y9017000D01*
X25908000Y9017000D01*
X25908000Y10060201D01*
X26162000Y10060201D01*
X26162000Y9017000D01*
X27204374Y9017000D01*
X27327716Y9223329D01*
X27295047Y9331044D01*
X27184792Y9568392D01*
X27030351Y9779670D01*
X26837660Y9956759D01*
X26614123Y10092853D01*
X26368330Y10182722D01*
X26162000Y10060201D01*
X25908000Y10060201D01*
X25701670Y10182722D01*
X25455877Y10092853D01*
X25232340Y9956759D01*
X25039649Y9779670D01*
X24885208Y9568392D01*
X24774953Y9331044D01*
X24742284Y9223329D01*
X19709851Y9223329D01*
X19698696Y9279405D01*
X19598061Y9522359D01*
X19451962Y9741013D01*
X19266013Y9926962D01*
X19047359Y10073061D01*
X18804405Y10173696D01*
X18546486Y10225000D01*
X18283514Y10225000D01*
X18025595Y10173696D01*
X17782641Y10073061D01*
X17563987Y9926962D01*
X17378038Y9741013D01*
X17231939Y9522359D01*
X17145000Y9312470D01*
X17058061Y9522359D01*
X16911962Y9741013D01*
X16726013Y9926962D01*
X16507359Y10073061D01*
X16264405Y10173696D01*
X16006486Y10225000D01*
X15743514Y10225000D01*
X15485595Y10173696D01*
X15242641Y10073061D01*
X15159989Y10017835D01*
X15159989Y10275188D01*
X15636157Y10751355D01*
X15743514Y10730000D01*
X16006486Y10730000D01*
X16264405Y10781304D01*
X16507359Y10881939D01*
X16726013Y11028038D01*
X16911962Y11213987D01*
X17058061Y11432641D01*
X17158696Y11675595D01*
X17210000Y11933514D01*
X17210000Y12196486D01*
X17158696Y12454405D01*
X17058061Y12697359D01*
X16911962Y12916013D01*
X16810475Y13017500D01*
X16911962Y13118987D01*
X16972775Y13210000D01*
X17317225Y13210000D01*
X17378038Y13118987D01*
X17563987Y12933038D01*
X17782641Y12786939D01*
X17962944Y12712255D01*
X18286312Y12388886D01*
X18250000Y12206335D01*
X18250000Y11923665D01*
X18305147Y11646426D01*
X18413320Y11385273D01*
X18570363Y11150241D01*
X18770241Y10950363D01*
X19005273Y10793320D01*
X19266426Y10685147D01*
X19543665Y10630000D01*
X19826335Y10630000D01*
X20103574Y10685147D01*
X20364727Y10793320D01*
X20599759Y10950363D01*
X20721694Y11072298D01*
X23871903Y11072298D01*
X23943486Y10828329D01*
X24198996Y10707429D01*
X24473184Y10638700D01*
X24755512Y10624783D01*
X25035130Y10666213D01*
X25301292Y10761397D01*
X25426514Y10828329D01*
X25465147Y10960000D01*
X44281928Y10960000D01*
X44281928Y9360000D01*
X44294188Y9235518D01*
X44330498Y9115820D01*
X44389463Y9005506D01*
X44468815Y8908815D01*
X44565506Y8829463D01*
X44675820Y8770498D01*
X44795518Y8734188D01*
X44920000Y8721928D01*
X44927215Y8721928D01*
X44906903Y8652702D01*
X45720000Y7839605D01*
X46533097Y8652702D01*
X46512785Y8721928D01*
X46520000Y8721928D01*
X46644482Y8734188D01*
X46764180Y8770498D01*
X46874494Y8829463D01*
X46971185Y8908815D01*
X47050537Y9005506D01*
X47109502Y9115820D01*
X47145812Y9235518D01*
X47158072Y9360000D01*
X47158072Y10960000D01*
X47145812Y11084482D01*
X47109502Y11204180D01*
X47050537Y11314494D01*
X46971185Y11411185D01*
X46874494Y11490537D01*
X46764180Y11549502D01*
X46644482Y11585812D01*
X46520000Y11598072D01*
X44920000Y11598072D01*
X44795518Y11585812D01*
X44675820Y11549502D01*
X44565506Y11490537D01*
X44468815Y11411185D01*
X44389463Y11314494D01*
X44330498Y11204180D01*
X44294188Y11084482D01*
X44281928Y10960000D01*
X25465147Y10960000D01*
X25498097Y11072298D01*
X24685000Y11885395D01*
X23871903Y11072298D01*
X20721694Y11072298D01*
X20799637Y11150241D01*
X20956680Y11385273D01*
X21064853Y11646426D01*
X21120000Y11923665D01*
X21120000Y11994488D01*
X23244783Y11994488D01*
X23286213Y11714870D01*
X23381397Y11448708D01*
X23448329Y11323486D01*
X23692298Y11251903D01*
X24505395Y12065000D01*
X23692298Y12878097D01*
X23448329Y12806514D01*
X23327429Y12551004D01*
X23258700Y12276816D01*
X23244783Y11994488D01*
X21120000Y11994488D01*
X21120000Y12206335D01*
X21064853Y12483574D01*
X20956680Y12744727D01*
X20799637Y12979759D01*
X20599759Y13179637D01*
X20364727Y13336680D01*
X20103574Y13444853D01*
X19826335Y13500000D01*
X19665312Y13500000D01*
X19698696Y13580595D01*
X19750000Y13838514D01*
X19750000Y14101486D01*
X19698696Y14359405D01*
X19598061Y14602359D01*
X19451962Y14821013D01*
X19266013Y15006962D01*
X19047359Y15153061D01*
X18804405Y15253696D01*
X18546486Y15305000D01*
X18283514Y15305000D01*
X18025595Y15253696D01*
X17782641Y15153061D01*
X17563987Y15006962D01*
X17378038Y14821013D01*
X17317225Y14730000D01*
X16972775Y14730000D01*
X16911962Y14821013D01*
X16726013Y15006962D01*
X16507359Y15153061D01*
X16297470Y15240000D01*
X16507359Y15326939D01*
X16726013Y15473038D01*
X16911962Y15658987D01*
X17058061Y15877641D01*
X17158696Y16120595D01*
X17210000Y16378514D01*
X17210000Y16641486D01*
X17158696Y16899405D01*
X17058061Y17142359D01*
X16911962Y17361013D01*
X16810475Y17462500D01*
X16911962Y17563987D01*
X16972775Y17655000D01*
X17317225Y17655000D01*
X17378038Y17563987D01*
X17563987Y17378038D01*
X17782641Y17231939D01*
X17962944Y17157255D01*
X18286312Y16833886D01*
X18250000Y16651335D01*
X18250000Y16368665D01*
X18305147Y16091426D01*
X18413320Y15830273D01*
X18570363Y15595241D01*
X18770241Y15395363D01*
X19005273Y15238320D01*
X19266426Y15130147D01*
X19543665Y15075000D01*
X19826335Y15075000D01*
X20103574Y15130147D01*
X20364727Y15238320D01*
X20599759Y15395363D01*
X20799637Y15595241D01*
X20956680Y15830273D01*
X21064853Y16091426D01*
X21120000Y16368665D01*
X21120000Y16439488D01*
X23244783Y16439488D01*
X23286213Y16159870D01*
X23381397Y15893708D01*
X23448329Y15768486D01*
X23692298Y15696903D01*
X24505395Y16510000D01*
X23692298Y17323097D01*
X23448329Y17251514D01*
X23327429Y16996004D01*
X23258700Y16721816D01*
X23244783Y16439488D01*
X21120000Y16439488D01*
X21120000Y16651335D01*
X21064853Y16928574D01*
X20956680Y17189727D01*
X20799637Y17424759D01*
X20599759Y17624637D01*
X20364727Y17781680D01*
X20103574Y17889853D01*
X19826335Y17945000D01*
X19665312Y17945000D01*
X19698696Y18025595D01*
X19749176Y18279373D01*
X21466003Y19996199D01*
X21495001Y20019997D01*
X21589974Y20135722D01*
X21660546Y20267751D01*
X21704003Y20411012D01*
X21715000Y20522665D01*
X21715000Y20522674D01*
X21718676Y20559997D01*
X21715000Y20597320D01*
X21715000Y20884488D01*
X23244783Y20884488D01*
X23286213Y20604870D01*
X23381397Y20338708D01*
X23448329Y20213486D01*
X23692298Y20141903D01*
X24505395Y20955000D01*
X23692298Y21768097D01*
X23448329Y21696514D01*
X23327429Y21441004D01*
X23258700Y21166816D01*
X23244783Y20884488D01*
X21715000Y20884488D01*
X21715000Y23180199D01*
X23128593Y24593790D01*
X23348740Y24550000D01*
X23641260Y24550000D01*
X23928158Y24607068D01*
X24198411Y24719010D01*
X24441632Y24881525D01*
X24648475Y25088368D01*
X24765000Y25262760D01*
X24881525Y25088368D01*
X25088368Y24881525D01*
X25331589Y24719010D01*
X25601842Y24607068D01*
X25888740Y24550000D01*
X26181260Y24550000D01*
X26468158Y24607068D01*
X26738411Y24719010D01*
X26981632Y24881525D01*
X27188475Y25088368D01*
X27305000Y25262760D01*
X27421525Y25088368D01*
X27628368Y24881525D01*
X27871589Y24719010D01*
X28141842Y24607068D01*
X28428740Y24550000D01*
X28721260Y24550000D01*
X29008158Y24607068D01*
X29278411Y24719010D01*
X29521632Y24881525D01*
X29728475Y25088368D01*
X29845000Y25262760D01*
X29961525Y25088368D01*
X30168368Y24881525D01*
X30411589Y24719010D01*
X30681842Y24607068D01*
X30968740Y24550000D01*
X31261260Y24550000D01*
X31548158Y24607068D01*
X31818411Y24719010D01*
X32061632Y24881525D01*
X32268475Y25088368D01*
X32390195Y25270534D01*
X32459822Y25153645D01*
X32654731Y24937412D01*
X32888080Y24763359D01*
X33150901Y24638175D01*
X33298110Y24593524D01*
X33528000Y24714845D01*
X33528000Y25908000D01*
X33508000Y25908000D01*
X33508000Y26162000D01*
X33528000Y26162000D01*
X33528000Y26182000D01*
X33782000Y26182000D01*
X33782000Y26162000D01*
G36*
X43942000Y26162000D02*
G01*
X43962000Y26162000D01*
X43962000Y25908000D01*
X43942000Y25908000D01*
X43942000Y25888000D01*
X43688000Y25888000D01*
X43688000Y25908000D01*
X43668000Y25908000D01*
X43668000Y26162000D01*
X43688000Y26162000D01*
X43688000Y26182000D01*
X43942000Y26182000D01*
X43942000Y26162000D01*
G37*
X43942000Y26162000D02*
X43962000Y26162000D01*
X43962000Y25908000D01*
X43942000Y25908000D01*
X43942000Y25888000D01*
X43688000Y25888000D01*
X43688000Y25908000D01*
X43668000Y25908000D01*
X43668000Y26162000D01*
X43688000Y26162000D01*
X43688000Y26182000D01*
X43942000Y26182000D01*
X43942000Y26162000D01*
G36*
X32654731Y27132588D02*
G01*
X32459822Y26916355D01*
X32390195Y26799466D01*
X32268475Y26981632D01*
X32061632Y27188475D01*
X31924655Y27280000D01*
X32852363Y27280000D01*
X32654731Y27132588D01*
G37*
X32654731Y27132588D02*
X32459822Y26916355D01*
X32390195Y26799466D01*
X32268475Y26981632D01*
X32061632Y27188475D01*
X31924655Y27280000D01*
X32852363Y27280000D01*
X32654731Y27132588D01*
G04 #@! TD*
M02*
