G04 #@! TF.GenerationSoftware,KiCad,Pcbnew,(5.1.6-0-10_14)*
G04 #@! TF.CreationDate,2021-03-21T15:45:56+00:00*
G04 #@! TF.ProjectId,JuntetOnSteroidsTTGO,4a756e74-6574-44f6-9e53-7465726f6964,0.3*
G04 #@! TF.SameCoordinates,PX5faea10PY5734380*
G04 #@! TF.FileFunction,Soldermask,Top*
G04 #@! TF.FilePolarity,Negative*
%FSLAX46Y46*%
G04 Gerber Fmt 4.6, Leading zero omitted, Abs format (unit mm)*
G04 Created by KiCad (PCBNEW (5.1.6-0-10_14)) date 2021-03-21 15:45:56*
%MOMM*%
%LPD*%
G01*
G04 APERTURE LIST*
%ADD10R,1.800000X1.800000*%
%ADD11O,1.800000X1.800000*%
%ADD12O,1.500000X1.500000*%
%ADD13C,1.500000*%
%ADD14C,1.000000*%
%ADD15C,1.700000*%
%ADD16R,1.700000X1.700000*%
G04 APERTURE END LIST*
G04 #@! TO.C,TP1*
G36*
G01*
X4230000Y25450625D02*
X4230000Y26619375D01*
G75*
G02*
X4495625Y26885000I265625J0D01*
G01*
X5664375Y26885000D01*
G75*
G02*
X5930000Y26619375I0J-265625D01*
G01*
X5930000Y25450625D01*
G75*
G02*
X5664375Y25185000I-265625J0D01*
G01*
X4495625Y25185000D01*
G75*
G02*
X4230000Y25450625I0J265625D01*
G01*
G37*
G04 #@! TD*
D10*
G04 #@! TO.C,J3*
X48895000Y26035000D03*
D11*
X46355000Y26035000D03*
X43815000Y26035000D03*
X41275000Y26035000D03*
G04 #@! TD*
G04 #@! TO.C,J6*
X41275000Y3175000D03*
X43815000Y3175000D03*
X46355000Y3175000D03*
D10*
X48895000Y3175000D03*
G04 #@! TD*
D12*
G04 #@! TO.C,R6*
X26035000Y8890000D03*
D13*
X18415000Y8890000D03*
G04 #@! TD*
D14*
G04 #@! TO.C,FID3*
X51435000Y3175000D03*
G04 #@! TD*
G04 #@! TO.C,FID2*
X3175000Y26035000D03*
G04 #@! TD*
G04 #@! TO.C,FID1*
X3175000Y3175000D03*
G04 #@! TD*
D15*
G04 #@! TO.C,C31*
X24685000Y12065000D03*
X19685000Y12065000D03*
G04 #@! TD*
G04 #@! TO.C,C21*
X24685000Y16510000D03*
X19685000Y16510000D03*
G04 #@! TD*
G04 #@! TO.C,C11*
X24685000Y20955000D03*
X19685000Y20955000D03*
G04 #@! TD*
G04 #@! TO.C,C3*
X29925000Y22860000D03*
X34925000Y22860000D03*
G04 #@! TD*
D12*
G04 #@! TO.C,R51*
X15875000Y6350000D03*
D13*
X8255000Y6350000D03*
G04 #@! TD*
D12*
G04 #@! TO.C,R41*
X15875000Y8890000D03*
D13*
X8255000Y8890000D03*
G04 #@! TD*
D12*
G04 #@! TO.C,R33*
X18415000Y13970000D03*
D13*
X26035000Y13970000D03*
G04 #@! TD*
D12*
G04 #@! TO.C,R32*
X8255000Y12065000D03*
D13*
X15875000Y12065000D03*
G04 #@! TD*
D12*
G04 #@! TO.C,R31*
X8255000Y13970000D03*
D13*
X15875000Y13970000D03*
G04 #@! TD*
D12*
G04 #@! TO.C,R23*
X18415000Y18415000D03*
D13*
X26035000Y18415000D03*
G04 #@! TD*
D12*
G04 #@! TO.C,R22*
X8255000Y16510000D03*
D13*
X15875000Y16510000D03*
G04 #@! TD*
D12*
G04 #@! TO.C,R21*
X8255000Y18415000D03*
D13*
X15875000Y18415000D03*
G04 #@! TD*
D12*
G04 #@! TO.C,R13*
X18415000Y22860000D03*
D13*
X26035000Y22860000D03*
G04 #@! TD*
D12*
G04 #@! TO.C,R12*
X8255000Y20955000D03*
D13*
X15875000Y20955000D03*
G04 #@! TD*
D12*
G04 #@! TO.C,R11*
X8255000Y22860000D03*
D13*
X15875000Y22860000D03*
G04 #@! TD*
D12*
G04 #@! TO.C,R34*
X5715000Y15240000D03*
D13*
X5715000Y22860000D03*
G04 #@! TD*
D12*
G04 #@! TO.C,R1*
X28575000Y20320000D03*
D13*
X36195000Y20320000D03*
G04 #@! TD*
D11*
G04 #@! TO.C,J5*
X8255000Y3175000D03*
X10795000Y3175000D03*
X13335000Y3175000D03*
X15875000Y3175000D03*
X18415000Y3175000D03*
X20955000Y3175000D03*
X23495000Y3175000D03*
X26035000Y3175000D03*
X28575000Y3175000D03*
X31115000Y3175000D03*
X33655000Y3175000D03*
D10*
X36195000Y3175000D03*
G04 #@! TD*
D11*
G04 #@! TO.C,J4*
X8255000Y26035000D03*
X10795000Y26035000D03*
X13335000Y26035000D03*
X15875000Y26035000D03*
X18415000Y26035000D03*
X20955000Y26035000D03*
X23495000Y26035000D03*
X26035000Y26035000D03*
X28575000Y26035000D03*
X31115000Y26035000D03*
X33655000Y26035000D03*
D10*
X36195000Y26035000D03*
G04 #@! TD*
D11*
G04 #@! TO.C,J2*
X51435000Y5715000D03*
X51435000Y8255000D03*
X51435000Y10795000D03*
X51435000Y13335000D03*
X51435000Y15875000D03*
X51435000Y18415000D03*
X51435000Y20955000D03*
D10*
X51435000Y23495000D03*
G04 #@! TD*
D11*
G04 #@! TO.C,J1*
X3175000Y5715000D03*
X3175000Y8255000D03*
X3175000Y10795000D03*
X3175000Y13335000D03*
X3175000Y15875000D03*
X3175000Y18415000D03*
X3175000Y20955000D03*
D10*
X3175000Y23495000D03*
G04 #@! TD*
D15*
G04 #@! TO.C,C2*
X45720000Y7660000D03*
D16*
X45720000Y10160000D03*
G04 #@! TD*
D15*
G04 #@! TO.C,C1*
X46990000Y20360000D03*
D16*
X46990000Y22860000D03*
G04 #@! TD*
M02*
